M48
;Layer_Color=9474304
;FILE_FORMAT=2:5
INCH,LZ
;TYPE=PLATED
T1F00S00C0.01968
T2F00S00C0.03543
T3F00S00C0.04724
T4F00S00C0.06299
T5F00S00C0.06693
T6F00S00C0.10000
T7F00S00C0.11811
%
T01
X-0161122Y0004823
Y0010138
X-016998Y0016535
X-0169685Y0021752
X-0169882Y002687
X-0152165Y0018209
X-0120039Y0019331
X-0108366Y0030709
X-0107185Y0047343
X-0069193Y0083465
Y0087894
X-0050591Y0113091
X-0047047Y0150394
X-0041339
X-0018602Y0151575
X-0061614Y0174606
X-0061811Y0179035
X-0061516Y0202362
X-005689Y0198622
X-0052264Y0202067
X-0077264Y0199311
X-008002Y0206496
X-0109744Y011752
X-0109252Y0107874
X-0104921
Y0103543
X-0109252
X-011811Y009941
X-0119685Y0109941
X-0135827Y0101969
X-0132874Y0120965
X-013189Y0131201
X-0125787
X-015748Y0133858
X-0165354
X-0173228
Y0125984
X-0165354
X-015748
Y0102362
Y0094488
X-0165354
Y0102362
X-0173228
Y0094488
X-0162008Y0078543
X-0161024Y0071752
X-0120276Y0066043
X-0108268Y0073524
X-0107087Y0091831
X-0101772Y0088583
X-0097933Y0214961
X-0087697Y0218012
X-0087894Y0318799
X-0041339Y0322638
X-0036319Y0322736
X-0031594
X-0021654Y0307087
Y0299213
Y0291339
X-0011811
Y0299213
Y0307087
X-0032677Y0276969
X-0039764Y0275787
X-0039665Y0270866
X-0039764Y026624
X-0058661Y0266634
X-0061959Y0248474
X-0072933Y024941
T02
X-0177756Y0024508
X-0158071
X-0017028Y0215433
X-0007028
Y0225433
X-0017028
Y0235433
X-0007028
X-0006102Y025876
X-0016102
X-0026102
T03
X-0160433Y0157874
X-0146653
X-0117126
X-0103347
X-0117126Y0330315
X-0160433
T04
X-0040748Y0086614
X-001437Y0110236
T05
X-0170276Y0179528
X-0136811Y0174803
X-0126969Y0179528
X-0093504Y0174803
Y0313386
X-0126969Y0308661
X-0136811Y0313386
X-0170276Y0308661
T06
X-0119323Y0040157
X-0090504
X-0077
X-0048181
X-0034972Y0040059
X-0006154
X-0040716Y0297244
X-0069535
T07
X-0009843Y0009843
X-0031496Y0204724
X-0165354Y0236221
Y027559
X-0066929Y0326772
M30
