M48
;Layer_Color=9474304
;FILE_FORMAT=2:5
INCH,LZ
;TYPE=PLATED
T1F00S00C0.01968
T2F00S00C0.03543
T3F00S00C0.04724
T4F00S00C0.06299
T5F00S00C0.06693
T6F00S00C0.10000
T7F00S00C0.11811
%
T01
X001998Y0004823
Y0010138
X0011122Y0016535
X0011417Y0021752
X001122Y002687
X0028937Y0018209
X0061063Y0019331
X0072736Y0030709
X0073917Y0047343
X0111909Y0083465
Y0087894
X0128248Y0109941
X0130512Y0113091
X0131693Y0116831
X0125394Y0134055
X0117323Y0133661
X0109646Y013376
X0109449Y0142028
Y0149803
X0109744Y0156988
X0109547Y0164272
X0117028Y0164469
Y0157382
X0124114
X0124311Y0164567
X0119488Y0174606
X0119291Y0179035
X0119587Y0202362
X0124213Y0198622
X0128839Y0202067
X0134055Y0150394
X0139764
X0123819Y0150099
X0117028Y015
X0117225Y0142126
X0124508Y0142225
X01625Y0151575
X0102264Y0149803
Y0156693
X0102067Y0164075
X0102264Y0142028
Y013376
X0071358Y011752
X0071851Y0107874
Y0103543
X0076181
Y0107874
X0061417Y0109941
X0062992Y009941
X0074016Y0091831
X0079331Y0088583
X0072835Y0073524
X0060827Y0066043
X0020079Y0071752
X0019094Y0078543
X0015748Y0094488
Y0102362
X0023622
Y0094488
X0007874Y009439
Y0102362
Y0125984
X0015748
X0023622
Y0133858
X0015748
X0007874
X0049213Y0131201
X0055315
X0048228Y0120965
X0045276Y0101969
X0103839Y0199311
X0101083Y0206496
X0093406Y0218012
X0083169Y0214961
X0095768Y023376
X0096654Y0247835
X0092717Y0287205
X0103248Y0315453
X010315Y0319193
X0072933Y0319783
Y0324508
Y0314862
X0061221Y0345413
X0068209Y0354528
X0072638Y0359547
X0063681Y0364469
X0053642Y0358268
X0043012Y0362795
X0039469Y0348425
X0035236
X0124016Y0326772
Y0318898
X013189
Y0326772
Y0311024
X0124016
X0127165Y0295473
X0131496Y0295473
X0157185Y0295669
X0161614Y0295768
X0162106Y0310335
X0162008Y0318406
X015374Y0318701
X0153543Y0310925
X0153445Y032687
X01625Y0326575
X0137697Y0257382
X0131004Y0257185
X0125197Y0257382
X0119144Y0248475
X0108169Y024941
X0077165Y0375689
X0054528Y0369882
X0049016Y0381988
X0084941Y0403346
T02
X0003347Y0024508
X0023031
X0164075Y0215433
Y0225433
Y0235433
X0174075
Y0225433
Y0215433
X0175Y025876
X0165
X0155
T03
X0020669Y0157874
X0034449
X0063976
X0077756
X0063976Y0330315
X0020669
T04
X0140354Y0086614
X0166732Y0110236
T05
X0010827Y0179528
X0044291Y0174803
X0054134Y0179528
X0087599Y0174803
Y0313386
X0054134Y0308662
X0044291Y0313386
X0010827Y0308662
T06
X006178Y0040157
X0090598
X0104102
X0132921
X014613Y0040059
X0174949
X017198Y0370177
X0143161
X0128673
X0099854
X0038122
X0009303
T07
X017126Y0009843
X0149606Y0204725
X0015748Y0236221
Y0275591
X017126Y0399606
X0009843
M30
