%FSLAX25Y25*%
%MOIN*%
G70*
G01*
G75*
G04 Layer_Physical_Order=1*
G04 Layer_Color=255*
%ADD10R,0.01575X0.07874*%
%ADD11R,0.03150X0.03150*%
%ADD12R,0.11024X0.06693*%
%ADD13R,0.11024X0.10236*%
%ADD14R,0.02756X0.03937*%
%ADD15R,0.03937X0.04331*%
%ADD16R,0.04843X0.07087*%
%ADD17R,0.04331X0.03937*%
%ADD18R,0.07874X0.12402*%
%ADD19R,0.06299X0.07087*%
%ADD20R,0.05000X0.11496*%
%ADD21R,0.03937X0.03740*%
%ADD22R,0.07087X0.04843*%
%ADD23R,0.29134X0.21654*%
%ADD24R,0.07480X0.03740*%
%ADD25R,0.02165X0.05709*%
%ADD26R,0.08425X0.08425*%
%ADD27R,0.03150X0.01102*%
%ADD28R,0.01102X0.03150*%
%ADD29R,0.08465X0.13386*%
%ADD30R,0.03740X0.03937*%
%ADD31R,0.11024X0.07480*%
%ADD32R,0.06201X0.06201*%
%ADD33R,0.07205X0.13504*%
%ADD34R,0.33071X0.41339*%
%ADD35R,0.12992X0.04134*%
%ADD36R,0.09449X0.10236*%
%ADD37R,0.10236X0.09449*%
%ADD38O,0.06496X0.02165*%
%ADD39O,0.02165X0.06496*%
%ADD40R,0.03150X0.03150*%
%ADD41R,0.21654X0.29134*%
%ADD42R,0.03740X0.07480*%
%ADD43C,0.01181*%
%ADD44C,0.06299*%
%ADD45C,0.03937*%
%ADD46C,0.07874*%
%ADD47C,0.05906*%
%ADD48C,0.01969*%
%ADD49C,0.05512*%
%ADD50C,0.02362*%
%ADD51C,0.01575*%
%ADD52C,0.01000*%
%ADD53C,0.03150*%
%ADD54R,0.28642X0.17323*%
%ADD55C,0.05906*%
%ADD56R,0.05906X0.05906*%
%ADD57R,0.05906X0.05906*%
%ADD58C,0.07874*%
%ADD59R,0.13780X0.13780*%
%ADD60C,0.13780*%
%ADD61C,0.03150*%
%ADD62C,0.01969*%
G36*
X-60082Y183127D02*
X-60082Y183127D01*
X-39075Y162119D01*
Y156358D01*
X-33112D01*
X-32993Y156267D01*
X-31844Y155791D01*
X-30610Y155629D01*
X-29950Y155715D01*
X-29377Y155791D01*
X-28704Y156070D01*
X-28228Y156267D01*
X-28109Y156358D01*
X-22146D01*
Y162119D01*
X-8478Y175787D01*
X-2208D01*
Y125508D01*
X-4421D01*
Y122638D01*
X-4921D01*
Y122138D01*
X-7890D01*
Y120447D01*
X-8352Y120255D01*
X-10928Y122832D01*
X-11024Y122905D01*
Y126575D01*
X-12716D01*
X-12907Y127037D01*
X-12483Y127461D01*
X-4134D01*
Y141634D01*
X-17520D01*
Y137025D01*
X-18504Y136041D01*
X-22146Y139682D01*
Y144429D01*
X-27486D01*
X-28142Y144701D01*
X-29478Y144877D01*
X-30814Y144701D01*
X-31471Y144429D01*
X-39075D01*
Y136358D01*
X-33354D01*
X-33129Y136064D01*
X-24101Y127037D01*
X-24292Y126575D01*
X-25984D01*
Y126028D01*
X-29134D01*
Y126575D01*
X-44094D01*
Y115157D01*
X-29134D01*
Y115704D01*
X-25984D01*
Y115157D01*
X-17142D01*
X-16981Y114684D01*
X-18020Y113886D01*
X-18841Y112817D01*
X-19356Y111572D01*
X-19532Y110236D01*
X-19356Y108900D01*
X-18841Y107655D01*
X-18020Y106586D01*
X-16951Y105766D01*
X-15706Y105250D01*
X-14370Y105074D01*
X-13034Y105250D01*
X-11789Y105766D01*
X-10720Y106586D01*
X-9899Y107655D01*
X-9384Y108900D01*
X-9208Y110236D01*
X-9384Y111572D01*
X-9899Y112817D01*
X-10720Y113886D01*
X-11759Y114684D01*
X-11598Y115157D01*
X-11116D01*
X-10332Y114373D01*
X-9756Y113931D01*
X-9086Y113654D01*
X-8858Y113624D01*
Y112500D01*
X-2208D01*
Y99242D01*
X-12156D01*
Y92097D01*
X-12531Y91768D01*
X-12598Y91776D01*
X-25984D01*
X-27320Y91601D01*
X-28565Y91085D01*
X-29634Y90264D01*
X-35662Y84237D01*
X-36078Y84515D01*
X-35762Y85278D01*
X-35586Y86614D01*
X-35762Y87950D01*
X-36277Y89195D01*
X-37098Y90264D01*
X-38167Y91085D01*
X-39412Y91601D01*
X-40748Y91776D01*
X-42084Y91601D01*
X-43329Y91085D01*
X-44398Y90264D01*
X-45219Y89195D01*
X-45734Y87950D01*
X-45910Y86614D01*
X-45734Y85278D01*
X-45219Y84033D01*
X-44398Y82964D01*
X-43359Y82166D01*
X-43520Y81693D01*
X-44094D01*
Y81147D01*
X-47205D01*
Y81949D01*
X-47554D01*
Y82520D01*
X-47205D01*
Y91299D01*
X-47554D01*
X-47730Y92635D01*
X-48246Y93880D01*
X-49066Y94950D01*
X-51263Y97146D01*
X-51072Y97608D01*
X-42963D01*
Y107746D01*
X-46890D01*
X-47081Y108208D01*
X-46395Y108895D01*
X-45656Y109794D01*
X-45108Y110820D01*
X-44771Y111933D01*
X-44657Y113091D01*
X-44771Y114248D01*
X-45108Y115361D01*
X-45656Y116387D01*
X-46395Y117287D01*
X-47294Y118025D01*
X-48320Y118573D01*
X-49433Y118911D01*
X-50591Y119025D01*
X-51748Y118911D01*
X-52861Y118573D01*
X-53705Y118122D01*
X-54134Y118379D01*
Y120669D01*
X-59842D01*
Y127854D01*
X-73819D01*
Y126886D01*
X-74000D01*
Y126886D01*
X-76370D01*
Y123917D01*
X-77370D01*
Y126886D01*
X-79331D01*
Y127854D01*
X-82874D01*
Y128724D01*
X-68709D01*
Y150394D01*
Y172063D01*
X-85744D01*
Y158740D01*
X-86206Y158549D01*
X-97246Y169588D01*
X-96910Y169959D01*
X-96801Y169869D01*
X-95775Y169321D01*
X-94662Y168983D01*
X-93504Y168869D01*
X-92346Y168983D01*
X-91233Y169321D01*
X-90207Y169869D01*
X-89308Y170607D01*
X-88570Y171506D01*
X-88022Y172532D01*
X-87684Y173645D01*
X-87570Y174803D01*
X-87684Y175961D01*
X-88022Y177074D01*
X-88570Y178100D01*
X-89308Y178999D01*
X-90207Y179737D01*
X-91233Y180286D01*
X-92346Y180623D01*
X-93504Y180737D01*
X-94662Y180623D01*
X-95775Y180286D01*
X-96801Y179737D01*
X-97700Y178999D01*
X-98438Y178100D01*
X-98986Y177074D01*
X-99324Y175961D01*
X-99438Y174803D01*
X-99324Y173645D01*
X-98986Y172532D01*
X-98438Y171506D01*
X-98348Y171397D01*
X-98719Y171061D01*
X-103418Y175760D01*
Y176260D01*
X-95172Y184506D01*
X-64961D01*
X-64213Y184605D01*
X-61560D01*
X-60082Y183127D01*
D02*
G37*
G36*
X-106836Y251465D02*
X-106395Y250889D01*
X-87300Y231794D01*
X-86725Y231353D01*
X-86054Y231075D01*
X-85335Y230980D01*
D01*
X-85164Y230610D01*
X-85059Y229814D01*
X-84752Y229071D01*
X-84724Y229035D01*
X-84752Y228999D01*
X-85059Y228257D01*
X-85164Y227461D01*
X-85059Y226664D01*
X-84752Y225922D01*
X-84724Y225886D01*
X-84752Y225850D01*
X-85059Y225108D01*
X-85164Y224311D01*
X-85059Y223515D01*
X-84752Y222772D01*
X-84724Y222736D01*
X-84752Y222700D01*
X-85059Y221958D01*
X-85164Y221161D01*
X-85259Y221053D01*
X-85591Y220862D01*
X-85910Y221107D01*
X-86772Y221464D01*
X-87697Y221586D01*
X-88622Y221464D01*
X-89484Y221107D01*
X-90224Y220539D01*
X-90792Y219799D01*
X-91149Y218937D01*
X-91271Y218012D01*
X-91595Y217642D01*
X-95607D01*
X-96146Y218056D01*
X-97008Y218413D01*
X-97933Y218534D01*
X-98858Y218413D01*
X-99720Y218056D01*
X-100460Y217488D01*
X-101028Y216748D01*
X-101385Y215886D01*
X-101507Y214961D01*
X-101385Y214036D01*
X-101028Y213174D01*
X-100460Y212434D01*
X-99720Y211866D01*
X-98858Y211508D01*
X-97933Y211387D01*
X-97008Y211508D01*
X-96146Y211866D01*
X-95863Y212083D01*
X-83349D01*
X-82883Y211890D01*
X-82087Y211785D01*
X-79491D01*
X-79131Y211316D01*
X-80431Y210016D01*
X-80945Y209948D01*
X-81807Y209591D01*
X-82547Y209023D01*
X-83115Y208283D01*
X-83472Y207421D01*
X-83594Y206496D01*
X-83472Y205571D01*
X-83115Y204709D01*
X-82547Y203969D01*
X-81807Y203401D01*
X-80945Y203044D01*
X-80020Y202922D01*
X-79095Y203044D01*
X-78233Y203401D01*
X-77493Y203969D01*
X-76925Y204709D01*
X-76906Y204755D01*
X-76423Y204884D01*
X-75948Y204520D01*
X-75206Y204212D01*
X-74410Y204107D01*
X-74217Y204133D01*
X-73841Y203803D01*
Y201449D01*
X-74314Y201288D01*
X-74737Y201838D01*
X-75477Y202406D01*
X-76339Y202763D01*
X-77264Y202885D01*
X-78189Y202763D01*
X-79051Y202406D01*
X-79203Y202289D01*
X-137795D01*
X-137795Y202289D01*
X-138566Y202188D01*
X-139284Y201890D01*
X-139901Y201417D01*
X-139901Y201417D01*
X-144960Y196358D01*
X-178895D01*
Y251772D01*
X-106964D01*
X-106836Y251465D01*
D02*
G37*
G36*
X-56587Y251264D02*
X-54216D01*
Y251772D01*
X-44855D01*
X-44663Y251310D01*
X-48676Y247298D01*
X-49086Y246763D01*
X-49268Y246323D01*
X-49280Y246293D01*
X-49776Y246228D01*
X-50186Y246763D01*
X-50823Y247252D01*
X-51566Y247559D01*
X-52362Y247664D01*
X-53159Y247559D01*
X-53901Y247252D01*
X-53937Y247224D01*
X-53973Y247252D01*
X-54715Y247559D01*
X-55512Y247664D01*
X-56308Y247559D01*
X-57051Y247252D01*
X-57688Y246763D01*
X-57852Y246549D01*
X-58161Y246611D01*
Y246146D01*
X-58177Y246126D01*
X-58485Y245383D01*
X-58590Y244587D01*
Y242421D01*
Y240256D01*
X-58485Y239459D01*
X-58177Y238717D01*
X-58161Y238697D01*
Y238232D01*
X-57852Y238293D01*
X-57688Y238080D01*
X-57051Y237591D01*
X-56308Y237283D01*
X-55512Y237178D01*
X-54715Y237283D01*
X-53973Y237591D01*
X-53937Y237618D01*
X-53901Y237591D01*
X-53159Y237283D01*
X-52362Y237178D01*
X-52093Y236909D01*
X-51988Y236113D01*
X-51681Y235371D01*
X-51653Y235335D01*
X-51681Y235299D01*
X-51988Y234556D01*
X-52093Y233760D01*
X-51988Y232963D01*
X-51681Y232221D01*
X-51653Y232185D01*
X-51681Y232149D01*
X-51988Y231407D01*
X-52093Y230610D01*
X-51988Y229814D01*
X-51681Y229071D01*
X-51653Y229035D01*
X-51681Y228999D01*
X-51988Y228257D01*
X-52093Y227461D01*
X-51988Y226664D01*
X-51681Y225922D01*
X-51653Y225886D01*
X-51681Y225850D01*
X-51988Y225108D01*
X-52093Y224311D01*
X-51988Y223515D01*
X-51681Y222772D01*
X-51653Y222736D01*
X-51681Y222700D01*
X-51988Y221958D01*
X-52093Y221161D01*
X-51988Y220365D01*
X-51681Y219623D01*
X-51653Y219587D01*
X-51681Y219551D01*
X-51988Y218808D01*
X-52093Y218012D01*
X-51988Y217215D01*
X-51681Y216473D01*
X-51653Y216437D01*
X-51681Y216401D01*
X-51988Y215659D01*
X-52093Y214862D01*
X-52362Y214593D01*
X-53159Y214488D01*
X-53901Y214181D01*
X-53937Y214153D01*
X-53973Y214181D01*
X-54715Y214488D01*
X-55512Y214593D01*
X-56308Y214488D01*
X-57051Y214181D01*
X-57087Y214153D01*
X-57123Y214181D01*
X-57865Y214488D01*
X-58661Y214593D01*
X-59458Y214488D01*
X-60200Y214181D01*
X-60838Y213692D01*
X-61001Y213478D01*
X-61311Y213540D01*
Y213075D01*
X-61327Y213055D01*
X-61634Y212312D01*
X-61739Y211516D01*
Y209350D01*
X-61883D01*
Y211516D01*
X-61988Y212312D01*
X-62295Y213055D01*
X-62311Y213075D01*
Y213864D01*
X-62379Y213920D01*
Y228655D01*
X-59986Y231049D01*
X-59576Y231583D01*
X-59393Y232024D01*
X-59318Y232206D01*
X-59230Y232874D01*
Y237851D01*
X-59161Y237908D01*
Y238697D01*
X-59146Y238717D01*
X-58838Y239459D01*
X-58733Y240256D01*
Y242421D01*
Y244587D01*
X-58838Y245383D01*
X-59146Y246126D01*
X-59161Y246146D01*
Y246611D01*
X-59264Y246590D01*
X-59671Y246881D01*
X-59710Y247176D01*
X-59450Y247802D01*
X-59427Y247974D01*
X-61959D01*
Y248974D01*
X-59427D01*
X-59450Y249147D01*
X-59710Y249773D01*
X-59768Y249849D01*
X-59547Y250295D01*
X-59547D01*
X-59547Y250295D01*
Y251264D01*
X-57587D01*
Y254232D01*
X-56587D01*
Y251264D01*
D02*
G37*
G36*
X-2208Y280315D02*
X-14567D01*
Y279550D01*
X-15650D01*
Y280906D01*
X-30610D01*
Y280398D01*
X-31026Y280120D01*
X-31752Y280421D01*
X-32677Y280542D01*
X-33602Y280421D01*
X-34464Y280064D01*
X-35204Y279496D01*
X-35309Y279494D01*
X-35647Y279905D01*
X-36546Y280643D01*
X-37572Y281191D01*
X-38685Y281529D01*
X-39843Y281643D01*
X-44752D01*
Y283425D01*
X-53689D01*
Y279573D01*
X-54154Y279006D01*
X-54703Y277979D01*
X-55041Y276866D01*
X-55155Y275709D01*
X-55041Y274551D01*
X-54703Y273438D01*
X-54154Y272412D01*
X-53689Y271845D01*
Y267992D01*
X-45777D01*
Y266319D01*
X-45663Y265161D01*
X-45325Y264048D01*
X-44776Y263022D01*
X-44039Y262123D01*
X-43995Y262087D01*
X-43960Y262044D01*
X-43061Y261306D01*
X-42035Y260758D01*
X-40922Y260420D01*
X-40641Y260392D01*
X-40472Y259922D01*
X-43406Y256988D01*
X-54998D01*
Y265059D01*
X-55086Y265727D01*
X-55178Y265949D01*
X-55088Y266634D01*
X-55209Y267559D01*
X-55566Y268421D01*
X-56134Y269161D01*
X-56875Y269729D01*
X-57531Y270001D01*
Y275209D01*
X-64531D01*
Y268961D01*
X-61908D01*
X-61686Y268512D01*
X-61756Y268421D01*
X-62113Y267559D01*
X-62235Y266634D01*
X-62113Y265709D01*
X-61756Y264847D01*
X-61189Y264107D01*
X-60448Y263539D01*
X-60160Y263419D01*
Y256988D01*
X-65453D01*
Y262500D01*
X-80413D01*
Y256988D01*
X-82548D01*
Y292909D01*
X-76879Y298578D01*
X-76427Y298364D01*
X-76538Y297244D01*
X-76403Y295878D01*
X-76005Y294565D01*
X-75358Y293354D01*
X-74487Y292293D01*
X-73426Y291422D01*
X-72215Y290775D01*
X-70902Y290376D01*
X-69535Y290242D01*
X-68169Y290376D01*
X-66856Y290775D01*
X-65645Y291422D01*
X-64584Y292293D01*
X-63713Y293354D01*
X-63066Y294565D01*
X-62668Y295878D01*
X-62533Y297244D01*
X-62668Y298610D01*
X-63066Y299924D01*
X-63713Y301134D01*
X-64584Y302195D01*
X-65645Y303066D01*
X-66856Y303713D01*
X-68169Y304112D01*
X-69535Y304246D01*
X-70656Y304136D01*
X-70870Y304588D01*
X-44189Y331269D01*
X-32579D01*
Y327800D01*
X-41339D01*
X-42675Y327624D01*
X-43920Y327108D01*
X-44989Y326288D01*
X-45809Y325219D01*
X-46325Y323974D01*
X-46501Y322638D01*
X-46325Y321302D01*
X-45809Y320057D01*
X-44989Y318987D01*
X-43920Y318167D01*
X-42675Y317651D01*
X-41339Y317476D01*
X-29547D01*
Y316929D01*
X-21870D01*
Y319233D01*
X-21238Y320057D01*
X-20722Y321302D01*
X-20546Y322638D01*
X-20722Y323974D01*
X-21238Y325219D01*
X-21870Y326043D01*
Y326575D01*
X-11594D01*
Y316929D01*
X-3917D01*
Y326575D01*
X-3543D01*
Y334449D01*
X-18765D01*
X-20229Y335913D01*
X-20038Y336375D01*
X-2208D01*
Y280315D01*
D02*
G37*
G36*
X-73713Y84925D02*
X-71825D01*
X-71547Y84509D01*
X-71701Y84137D01*
X-71724Y83965D01*
X-69193D01*
Y83465D01*
X-68693D01*
Y80933D01*
X-68521Y80956D01*
X-67990Y81176D01*
X-67575Y80898D01*
Y78059D01*
X-63032D01*
Y77559D01*
X-62532D01*
Y74138D01*
X-58582D01*
X-58582Y74138D01*
Y74138D01*
X-58488Y74138D01*
X-58228Y73878D01*
Y73169D01*
X-55627D01*
X-54792Y72334D01*
X-53723Y71514D01*
X-52478Y70998D01*
X-51142Y70822D01*
X-44094D01*
Y70276D01*
X-29134D01*
Y76164D01*
X-26446Y78852D01*
X-25984Y78660D01*
Y70276D01*
X-13930D01*
X-13739Y69814D01*
X-14242Y69311D01*
X-19126D01*
Y64178D01*
X-19128Y64176D01*
X-19644Y62931D01*
X-19820Y61594D01*
X-19644Y60258D01*
X-19128Y59013D01*
X-19126Y59011D01*
Y53878D01*
X-10189D01*
Y58762D01*
X-3043Y65909D01*
X-2681Y66380D01*
X-2208Y66219D01*
Y46338D01*
X-2637Y46081D01*
X-3474Y46528D01*
X-4787Y46927D01*
X-6154Y47061D01*
X-7520Y46927D01*
X-8833Y46528D01*
X-10044Y45881D01*
X-11105Y45010D01*
X-11976Y43949D01*
X-12623Y42739D01*
X-13021Y41425D01*
X-13156Y40059D01*
X-13021Y38693D01*
X-12623Y37379D01*
X-11976Y36169D01*
X-11105Y35108D01*
X-10044Y34237D01*
X-8833Y33590D01*
X-7520Y33191D01*
X-6154Y33057D01*
X-4787Y33191D01*
X-3474Y33590D01*
X-2637Y34037D01*
X-2208Y33780D01*
Y17732D01*
X-9342D01*
Y9843D01*
X-9843D01*
Y9342D01*
X-17732D01*
Y2208D01*
X-145653D01*
Y2208D01*
Y2248D01*
X-145653Y2561D01*
X-145653Y2561D01*
X-145653D01*
Y7866D01*
X-152165D01*
Y8366D01*
X-152665D01*
Y14484D01*
X-158677D01*
Y11959D01*
X-159151Y11798D01*
X-159286Y11974D01*
X-159824Y12387D01*
X-160450Y12646D01*
X-160622Y12669D01*
Y10138D01*
X-161622D01*
Y12669D01*
X-161794Y12646D01*
X-162421Y12387D01*
X-162922Y12002D01*
X-163370Y12224D01*
Y14484D01*
X-167744D01*
X-167965Y14933D01*
X-167731Y15237D01*
X-167472Y15863D01*
X-167449Y16035D01*
X-172511D01*
X-172489Y15863D01*
X-172229Y15237D01*
X-171996Y14933D01*
X-172217Y14484D01*
X-176394D01*
Y8866D01*
X-169882D01*
Y7866D01*
X-176394D01*
Y2561D01*
X-176394Y2561D01*
X-176394D01*
X-176394Y2248D01*
X-176434Y2208D01*
X-178895D01*
Y20506D01*
X-178519Y20836D01*
X-177756Y20735D01*
X-176779Y20864D01*
X-175870Y21241D01*
X-175088Y21840D01*
X-174489Y22622D01*
X-174112Y23531D01*
X-173984Y24508D01*
X-174112Y25484D01*
X-174489Y26394D01*
X-175088Y27175D01*
X-175870Y27775D01*
X-176779Y28152D01*
X-177756Y28280D01*
X-178519Y28180D01*
X-178895Y28510D01*
Y35004D01*
X-155144D01*
Y30315D01*
X-155144Y30315D01*
X-155144D01*
X-155042Y29544D01*
X-154745Y28826D01*
X-154271Y28209D01*
X-144390Y18327D01*
Y14469D01*
Y12167D01*
X-144424Y11909D01*
X-144390Y11651D01*
Y7776D01*
X-141935D01*
X-140367Y6208D01*
X-140367D01*
X-140367Y6208D01*
X-140367D01*
X-140367Y6208D01*
Y6208D01*
X-140367Y6208D01*
Y6208D01*
X-139544Y5577D01*
X-138867Y5296D01*
X-138587Y5180D01*
X-137559Y5045D01*
X-135394D01*
Y3504D01*
X-126614D01*
Y14527D01*
X-127583D01*
Y14528D01*
Y14787D01*
X-127583Y14881D01*
X-127583Y14881D01*
X-127583D01*
Y18831D01*
X-134425D01*
Y14881D01*
X-134425Y14881D01*
X-134425D01*
X-134425Y14787D01*
X-134685Y14527D01*
X-135394D01*
Y12987D01*
X-135914D01*
X-136516Y13588D01*
Y14469D01*
Y22736D01*
X-140375D01*
X-149187Y31549D01*
Y35004D01*
X-143382D01*
Y31858D01*
X-136539D01*
Y35004D01*
X-134130D01*
Y31858D01*
X-127287D01*
Y35004D01*
X-124508D01*
Y35004D01*
X-124028Y35004D01*
X-123213Y34335D01*
X-122002Y33688D01*
X-120689Y33290D01*
X-119323Y33155D01*
X-117957Y33290D01*
X-116643Y33688D01*
X-115433Y34335D01*
X-114372Y35206D01*
X-113501Y36267D01*
X-112854Y37478D01*
X-112455Y38791D01*
X-112321Y40157D01*
X-112455Y41524D01*
X-112854Y42837D01*
X-113501Y44048D01*
X-114372Y45109D01*
X-115433Y45980D01*
X-116643Y46627D01*
X-117957Y47025D01*
X-119323Y47160D01*
X-120689Y47025D01*
X-122002Y46627D01*
X-123213Y45980D01*
X-124056Y45288D01*
X-124508Y45502D01*
Y66831D01*
X-124803Y67126D01*
X-124213Y67716D01*
X-122819D01*
X-122542Y67301D01*
X-122784Y66716D01*
X-122807Y66543D01*
X-117744D01*
X-117767Y66716D01*
X-118009Y67301D01*
X-117732Y67716D01*
X-114319D01*
Y62193D01*
X-107319D01*
Y67102D01*
X-103476D01*
Y65557D01*
X-103942Y64990D01*
X-104490Y63964D01*
X-104828Y62851D01*
X-104942Y61693D01*
X-104828Y60535D01*
X-104490Y59422D01*
X-103942Y58396D01*
X-103476Y57829D01*
Y53976D01*
X-94539D01*
Y55759D01*
X-72965D01*
Y53976D01*
X-64028D01*
Y57829D01*
X-63562Y58396D01*
X-63014Y59422D01*
X-62806Y60106D01*
X-62306D01*
X-62069Y59324D01*
X-61521Y58298D01*
X-61154Y57850D01*
Y53976D01*
X-52217D01*
Y55660D01*
X-30937D01*
Y53878D01*
X-22000D01*
Y57731D01*
X-21534Y58298D01*
X-20986Y59324D01*
X-20648Y60437D01*
X-20534Y61594D01*
X-20648Y62752D01*
X-20986Y63865D01*
X-21534Y64891D01*
X-22000Y65459D01*
Y69311D01*
X-30937D01*
Y67529D01*
X-52217D01*
Y69409D01*
X-61154D01*
Y65339D01*
X-61521Y64891D01*
X-62069Y63865D01*
X-62276Y63182D01*
X-62776D01*
X-63014Y63964D01*
X-63562Y64990D01*
X-64028Y65557D01*
Y69409D01*
X-72965D01*
Y67627D01*
X-82874D01*
Y67716D01*
X-82874D01*
Y71266D01*
X-82779Y71361D01*
X-82337Y71937D01*
X-82059Y72607D01*
X-81964Y73327D01*
X-81964Y73327D01*
X-81964Y73327D01*
Y73327D01*
Y74311D01*
X-76575D01*
Y75279D01*
X-75303D01*
Y78248D01*
Y81217D01*
X-76575D01*
Y82185D01*
X-82874D01*
Y83957D01*
X-76772D01*
Y84925D01*
X-74713D01*
Y87894D01*
X-73713D01*
Y84925D01*
D02*
G37*
G36*
X-26651Y213468D02*
X-26651D01*
X-26651Y213468D01*
X-26651D01*
X-26651Y213468D01*
Y213468D01*
X-26651Y213468D01*
Y213468D01*
X-26075Y213026D01*
X-25405Y212748D01*
X-24685Y212653D01*
X-21098D01*
X-20537Y211923D01*
X-19509Y211134D01*
X-18312Y210638D01*
X-17028Y210469D01*
X-15743Y210638D01*
X-14546Y211134D01*
X-13518Y211923D01*
X-12729Y212951D01*
X-12233Y214148D01*
X-12064Y215433D01*
X-12233Y216718D01*
X-12729Y217915D01*
X-13518Y218943D01*
X-14546Y219732D01*
X-15635Y220183D01*
Y220683D01*
X-14546Y221134D01*
X-13518Y221923D01*
X-12729Y222951D01*
X-12278Y224041D01*
X-11778D01*
X-11326Y222951D01*
X-10537Y221923D01*
X-9509Y221134D01*
X-8312Y220638D01*
X-7028Y220469D01*
X-5743Y220638D01*
X-5164Y220878D01*
X-4748Y220601D01*
Y219217D01*
X-5164Y218940D01*
X-5996Y219284D01*
X-6528Y219354D01*
Y215433D01*
Y211512D01*
X-5996Y211582D01*
X-5164Y211927D01*
X-4748Y211649D01*
Y204301D01*
X-10489Y198560D01*
X-10931Y197984D01*
X-11209Y197314D01*
X-11303Y196595D01*
Y189173D01*
X-15453D01*
Y182290D01*
X-30360Y167383D01*
X-30860D01*
X-39772Y176294D01*
X-39759Y176325D01*
D01*
X-39580Y176756D01*
X-34063D01*
Y181980D01*
X-39681D01*
Y176857D01*
X-40112Y176678D01*
D01*
X-40143Y176665D01*
X-50566Y187088D01*
Y187588D01*
X-50359Y187795D01*
X-45571D01*
Y188764D01*
X-43610D01*
Y191732D01*
Y194701D01*
X-45571D01*
Y195669D01*
X-53248D01*
Y194834D01*
X-53263Y194827D01*
X-54004Y194259D01*
X-55870Y192393D01*
X-56217Y192740D01*
X-57204Y193497D01*
X-57680Y193694D01*
X-58353Y193973D01*
X-58926Y194048D01*
X-59587Y194135D01*
X-62379D01*
Y199500D01*
X-62016Y199819D01*
Y202362D01*
X-61016D01*
Y199831D01*
X-60844Y199854D01*
X-60688Y199918D01*
X-60335Y199565D01*
X-60342Y199547D01*
X-60464Y198622D01*
X-60342Y197697D01*
X-59985Y196835D01*
X-59417Y196095D01*
X-58677Y195527D01*
X-57815Y195170D01*
X-56890Y195048D01*
X-55965Y195170D01*
X-55103Y195527D01*
X-54363Y196095D01*
X-53795Y196835D01*
X-53438Y197697D01*
X-53377Y198162D01*
X-53189Y198615D01*
X-52264Y198493D01*
X-51339Y198615D01*
X-50477Y198972D01*
X-49737Y199540D01*
X-49169Y200280D01*
X-48812Y201142D01*
X-48690Y202067D01*
X-48812Y202992D01*
X-49169Y203854D01*
X-49737Y204594D01*
X-49781Y204628D01*
Y205537D01*
X-49697Y205646D01*
X-49390Y206388D01*
X-49285Y207185D01*
Y211516D01*
X-49016Y211785D01*
X-44685D01*
X-43889Y211890D01*
X-43146Y212197D01*
X-42509Y212686D01*
X-42020Y213323D01*
X-41712Y214066D01*
X-41607Y214862D01*
X-41712Y215659D01*
X-42020Y216401D01*
X-42048Y216437D01*
X-42020Y216473D01*
X-41712Y217215D01*
X-41607Y218012D01*
X-41712Y218808D01*
X-42020Y219551D01*
X-42048Y219587D01*
X-42020Y219623D01*
X-41712Y220365D01*
X-41607Y221161D01*
X-41712Y221958D01*
X-42020Y222700D01*
X-42048Y222736D01*
X-42020Y222772D01*
X-41712Y223515D01*
X-41607Y224311D01*
X-41283Y224681D01*
X-37864D01*
X-26651Y213468D01*
D02*
G37*
%LPC*%
G36*
X-104654Y46843D02*
X-106685D01*
Y44811D01*
X-106513Y44834D01*
X-105886Y45093D01*
X-105349Y45506D01*
X-104936Y46044D01*
X-104676Y46670D01*
X-104654Y46843D01*
D02*
G37*
G36*
X-106685Y49874D02*
Y47842D01*
X-104654D01*
X-104676Y48015D01*
X-104936Y48641D01*
X-105349Y49179D01*
X-105886Y49592D01*
X-106513Y49851D01*
X-106685Y49874D01*
D02*
G37*
G36*
X-107685D02*
X-107857Y49851D01*
X-108484Y49592D01*
X-109021Y49179D01*
X-109434Y48641D01*
X-109694Y48015D01*
X-109716Y47842D01*
X-107685D01*
Y49874D01*
D02*
G37*
G36*
Y46843D02*
X-109716D01*
X-109694Y46670D01*
X-109434Y46044D01*
X-109021Y45506D01*
X-108484Y45093D01*
X-107857Y44834D01*
X-107685Y44811D01*
Y46843D01*
D02*
G37*
G36*
X-108866Y33240D02*
X-109038Y33217D01*
X-109665Y32958D01*
X-110203Y32545D01*
X-110615Y32007D01*
X-110875Y31381D01*
X-110897Y31209D01*
X-108866D01*
Y33240D01*
D02*
G37*
G36*
X-105835Y30209D02*
X-107866D01*
Y28177D01*
X-107694Y28200D01*
X-107068Y28460D01*
X-106530Y28872D01*
X-106117Y29410D01*
X-105858Y30037D01*
X-105835Y30209D01*
D02*
G37*
G36*
X-108866D02*
X-110897D01*
X-110875Y30037D01*
X-110615Y29410D01*
X-110203Y28872D01*
X-109665Y28460D01*
X-109038Y28200D01*
X-108866Y28177D01*
Y30209D01*
D02*
G37*
G36*
X-77000Y47160D02*
X-78366Y47025D01*
X-79680Y46627D01*
X-80890Y45980D01*
X-81951Y45109D01*
X-82822Y44048D01*
X-83469Y42837D01*
X-83502Y42729D01*
X-84002D01*
X-84035Y42837D01*
X-84682Y44048D01*
X-85553Y45109D01*
X-86614Y45980D01*
X-87824Y46627D01*
X-89138Y47025D01*
X-90504Y47160D01*
X-91870Y47025D01*
X-93184Y46627D01*
X-94394Y45980D01*
X-95455Y45109D01*
X-96326Y44048D01*
X-96973Y42837D01*
X-97372Y41524D01*
X-97506Y40157D01*
X-97372Y38791D01*
X-96973Y37478D01*
X-96326Y36267D01*
X-95455Y35206D01*
X-94394Y34335D01*
X-93184Y33688D01*
X-91870Y33290D01*
X-90504Y33155D01*
X-89138Y33290D01*
X-87824Y33688D01*
X-86614Y34335D01*
X-85553Y35206D01*
X-84682Y36267D01*
X-84035Y37478D01*
X-84002Y37586D01*
X-83502D01*
X-83469Y37478D01*
X-82822Y36267D01*
X-81951Y35206D01*
X-80890Y34335D01*
X-79680Y33688D01*
X-78366Y33290D01*
X-77000Y33155D01*
X-75634Y33290D01*
X-74320Y33688D01*
X-73110Y34335D01*
X-72049Y35206D01*
X-71178Y36267D01*
X-70531Y37478D01*
X-70132Y38791D01*
X-69998Y40157D01*
X-70132Y41524D01*
X-70531Y42837D01*
X-71178Y44048D01*
X-72049Y45109D01*
X-73110Y45980D01*
X-74320Y46627D01*
X-75634Y47025D01*
X-77000Y47160D01*
D02*
G37*
G36*
X-48181D02*
X-49547Y47025D01*
X-50861Y46627D01*
X-52071Y45980D01*
X-53132Y45109D01*
X-54003Y44048D01*
X-54650Y42837D01*
X-55049Y41524D01*
X-55183Y40157D01*
X-55049Y38791D01*
X-54650Y37478D01*
X-54003Y36267D01*
X-53132Y35206D01*
X-52071Y34335D01*
X-50861Y33688D01*
X-49547Y33290D01*
X-48181Y33155D01*
X-46815Y33290D01*
X-45502Y33688D01*
X-44291Y34335D01*
X-43230Y35206D01*
X-42359Y36267D01*
X-41853Y37214D01*
X-41353D01*
X-40795Y36169D01*
X-39924Y35108D01*
X-38863Y34237D01*
X-37652Y33590D01*
X-36338Y33191D01*
X-34972Y33057D01*
X-33606Y33191D01*
X-32293Y33590D01*
X-31082Y34237D01*
X-30021Y35108D01*
X-29150Y36169D01*
X-28503Y37379D01*
X-28105Y38693D01*
X-27970Y40059D01*
X-28105Y41425D01*
X-28503Y42739D01*
X-29150Y43949D01*
X-30021Y45010D01*
X-31082Y45881D01*
X-32293Y46528D01*
X-33606Y46927D01*
X-34972Y47061D01*
X-36338Y46927D01*
X-37652Y46528D01*
X-38863Y45881D01*
X-39924Y45010D01*
X-40795Y43949D01*
X-41300Y43003D01*
X-41800D01*
X-42359Y44048D01*
X-43230Y45109D01*
X-44291Y45980D01*
X-45502Y46627D01*
X-46815Y47025D01*
X-48181Y47160D01*
D02*
G37*
G36*
X-107866Y33240D02*
Y31209D01*
X-105835D01*
X-105858Y31381D01*
X-106117Y32007D01*
X-106530Y32545D01*
X-107068Y32958D01*
X-107694Y33217D01*
X-107866Y33240D01*
D02*
G37*
G36*
X-72425Y81217D02*
X-74303D01*
Y78748D01*
X-72425D01*
Y81217D01*
D02*
G37*
G36*
Y77748D02*
X-74303D01*
Y75279D01*
X-72425D01*
Y77748D01*
D02*
G37*
G36*
X-69693Y82965D02*
X-71724D01*
X-71701Y82792D01*
X-71442Y82166D01*
X-71029Y81628D01*
X-70491Y81216D01*
X-69865Y80956D01*
X-69693Y80933D01*
Y82965D01*
D02*
G37*
G36*
X-50673Y149894D02*
X-67709D01*
Y128724D01*
X-50673D01*
Y149894D01*
D02*
G37*
G36*
X-5421Y125508D02*
X-7890D01*
Y123138D01*
X-5421D01*
Y125508D01*
D02*
G37*
G36*
X-107319Y61193D02*
X-110319D01*
Y54945D01*
X-107319D01*
Y61193D01*
D02*
G37*
G36*
X-111319D02*
X-114319D01*
Y54945D01*
X-111319D01*
Y61193D01*
D02*
G37*
G36*
X-120776Y65543D02*
X-122807D01*
X-122784Y65371D01*
X-122525Y64745D01*
X-122112Y64207D01*
X-121574Y63794D01*
X-120948Y63535D01*
X-120776Y63512D01*
Y65543D01*
D02*
G37*
G36*
X-63532Y77059D02*
X-67575D01*
Y74138D01*
X-63532D01*
Y77059D01*
D02*
G37*
G36*
X-117744Y65543D02*
X-119776D01*
Y63512D01*
X-119603Y63535D01*
X-118977Y63794D01*
X-118439Y64207D01*
X-118026Y64745D01*
X-117767Y65371D01*
X-117744Y65543D01*
D02*
G37*
G36*
X-167154Y21252D02*
X-172216D01*
X-172194Y21080D01*
X-171934Y20453D01*
X-171521Y19916D01*
X-170984Y19503D01*
X-170868Y19455D01*
Y18955D01*
X-171279Y18785D01*
X-171817Y18372D01*
X-172229Y17834D01*
X-172489Y17208D01*
X-172511Y17035D01*
X-167449D01*
X-167472Y17208D01*
X-167731Y17834D01*
X-168144Y18372D01*
X-168682Y18785D01*
X-168798Y18833D01*
Y19333D01*
X-168386Y19503D01*
X-167849Y19916D01*
X-167436Y20453D01*
X-167176Y21080D01*
X-167154Y21252D01*
D02*
G37*
G36*
X-117508Y18831D02*
X-119539D01*
Y16800D01*
X-119367Y16822D01*
X-118741Y17082D01*
X-118203Y17494D01*
X-117790Y18032D01*
X-117531Y18658D01*
X-117508Y18831D01*
D02*
G37*
G36*
X-152665Y20740D02*
X-152838Y20717D01*
X-153464Y20458D01*
X-154002Y20045D01*
X-154414Y19507D01*
X-154674Y18881D01*
X-154697Y18709D01*
X-152665D01*
Y20740D01*
D02*
G37*
G36*
X-131504Y23874D02*
X-134425D01*
Y19831D01*
X-131504D01*
Y23874D01*
D02*
G37*
G36*
X-151665Y20740D02*
Y18709D01*
X-149634D01*
X-149657Y18881D01*
X-149916Y19507D01*
X-150329Y20045D01*
X-150867Y20458D01*
X-151493Y20717D01*
X-151665Y20740D01*
D02*
G37*
G36*
X-120539Y18831D02*
X-122571D01*
X-122548Y18658D01*
X-122289Y18032D01*
X-121876Y17494D01*
X-121338Y17082D01*
X-120712Y16822D01*
X-120539Y16800D01*
Y18831D01*
D02*
G37*
G36*
X-145653Y14484D02*
X-151665D01*
Y8866D01*
X-145653D01*
Y14484D01*
D02*
G37*
G36*
X-19827Y14782D02*
X-109555D01*
Y2720D01*
X-19827D01*
Y14782D01*
D02*
G37*
G36*
X-10343Y17732D02*
X-17732D01*
Y10343D01*
X-10343D01*
Y17732D01*
D02*
G37*
G36*
X-149634Y17709D02*
X-151665D01*
Y15677D01*
X-151493Y15700D01*
X-150867Y15960D01*
X-150329Y16372D01*
X-149916Y16910D01*
X-149657Y17537D01*
X-149634Y17709D01*
D02*
G37*
G36*
X-152665D02*
X-154697D01*
X-154674Y17537D01*
X-154414Y16910D01*
X-154002Y16372D01*
X-153464Y15960D01*
X-152838Y15700D01*
X-152665Y15677D01*
Y17709D01*
D02*
G37*
G36*
X-131209Y30858D02*
X-134130D01*
Y26815D01*
X-131209D01*
Y30858D01*
D02*
G37*
G36*
X-136539D02*
X-139461D01*
Y26815D01*
X-136539D01*
Y30858D01*
D02*
G37*
G36*
X-127287D02*
X-130209D01*
Y26815D01*
X-127287D01*
Y30858D01*
D02*
G37*
G36*
X-169382Y29401D02*
Y27370D01*
X-167351D01*
X-167373Y27542D01*
X-167633Y28169D01*
X-168045Y28706D01*
X-168583Y29119D01*
X-169210Y29379D01*
X-169382Y29401D01*
D02*
G37*
G36*
X-170382D02*
X-170554Y29379D01*
X-171180Y29119D01*
X-171718Y28706D01*
X-172131Y28169D01*
X-172390Y27542D01*
X-172413Y27370D01*
X-170382D01*
Y29401D01*
D02*
G37*
G36*
X-140461Y30858D02*
X-143382D01*
Y26815D01*
X-140461D01*
Y30858D01*
D02*
G37*
G36*
X-120539Y21862D02*
X-120712Y21839D01*
X-121338Y21580D01*
X-121876Y21167D01*
X-122289Y20629D01*
X-122548Y20003D01*
X-122571Y19831D01*
X-120539D01*
Y21862D01*
D02*
G37*
G36*
X-127583Y23874D02*
X-130504D01*
Y19831D01*
X-127583D01*
Y23874D01*
D02*
G37*
G36*
X-119539Y21862D02*
Y19831D01*
X-117508D01*
X-117531Y20003D01*
X-117790Y20629D01*
X-118203Y21167D01*
X-118741Y21580D01*
X-119367Y21839D01*
X-119539Y21862D01*
D02*
G37*
G36*
X-167351Y26370D02*
X-172413D01*
X-172390Y26198D01*
X-172131Y25572D01*
X-171718Y25034D01*
X-171180Y24621D01*
X-170937Y24520D01*
Y24020D01*
X-170984Y24001D01*
X-171521Y23588D01*
X-171934Y23051D01*
X-172194Y22424D01*
X-172216Y22252D01*
X-167154D01*
X-167176Y22424D01*
X-167436Y23051D01*
X-167849Y23588D01*
X-168386Y24001D01*
X-168630Y24102D01*
Y24602D01*
X-168583Y24621D01*
X-168045Y25034D01*
X-167633Y25572D01*
X-167373Y26198D01*
X-167351Y26370D01*
D02*
G37*
G36*
X-158071Y28280D02*
X-159047Y28152D01*
X-159957Y27775D01*
X-160738Y27175D01*
X-161338Y26394D01*
X-161715Y25484D01*
X-161843Y24508D01*
X-161715Y23531D01*
X-161338Y22622D01*
X-160738Y21840D01*
X-159957Y21241D01*
X-159047Y20864D01*
X-158071Y20735D01*
X-157095Y20864D01*
X-156185Y21241D01*
X-155403Y21840D01*
X-154804Y22622D01*
X-154427Y23531D01*
X-154298Y24508D01*
X-154427Y25484D01*
X-154804Y26394D01*
X-155403Y27175D01*
X-156185Y27775D01*
X-157095Y28152D01*
X-158071Y28280D01*
D02*
G37*
G36*
X-31110Y149894D02*
X-38106D01*
Y147327D01*
X-31110D01*
Y149894D01*
D02*
G37*
G36*
X-31996Y211614D02*
X-32850Y211530D01*
X-34152Y211135D01*
X-35351Y210494D01*
X-36403Y209631D01*
X-37266Y208579D01*
X-37907Y207380D01*
X-38302Y206078D01*
X-38386Y205224D01*
X-31996D01*
Y211614D01*
D02*
G37*
G36*
X-24606Y204224D02*
X-30996D01*
Y197835D01*
X-30142Y197919D01*
X-28841Y198314D01*
X-27641Y198955D01*
X-26590Y199818D01*
X-25727Y200869D01*
X-25085Y202069D01*
X-24690Y203371D01*
X-24606Y204224D01*
D02*
G37*
G36*
X-30996Y211614D02*
Y205224D01*
X-24606D01*
X-24690Y206078D01*
X-25085Y207380D01*
X-25727Y208579D01*
X-26590Y209631D01*
X-27641Y210494D01*
X-28841Y211135D01*
X-30142Y211530D01*
X-30996Y211614D01*
D02*
G37*
G36*
X-7528Y219354D02*
X-8059Y219284D01*
X-9021Y218886D01*
X-9847Y218252D01*
X-10480Y217426D01*
X-10879Y216465D01*
X-10949Y215933D01*
X-7528D01*
Y219354D01*
D02*
G37*
G36*
Y214933D02*
X-10949D01*
X-10879Y214401D01*
X-10480Y213440D01*
X-9847Y212614D01*
X-9021Y211980D01*
X-8059Y211582D01*
X-7528Y211512D01*
Y214933D01*
D02*
G37*
G36*
X-31996Y204224D02*
X-38386D01*
X-38302Y203371D01*
X-37907Y202069D01*
X-37266Y200869D01*
X-36403Y199818D01*
X-35351Y198955D01*
X-34152Y198314D01*
X-32850Y197919D01*
X-31996Y197835D01*
Y204224D01*
D02*
G37*
G36*
X-34063Y188205D02*
X-39681D01*
Y182980D01*
X-34063D01*
Y188205D01*
D02*
G37*
G36*
X-61311Y181567D02*
Y179535D01*
X-59280D01*
X-59303Y179708D01*
X-59562Y180334D01*
X-59975Y180872D01*
X-60513Y181284D01*
X-61139Y181544D01*
X-61311Y181567D01*
D02*
G37*
G36*
X-27445Y188205D02*
X-33063D01*
Y182980D01*
X-27445D01*
Y188205D01*
D02*
G37*
G36*
X-40240Y194701D02*
X-42610D01*
Y192232D01*
X-40240D01*
Y194701D01*
D02*
G37*
G36*
Y191232D02*
X-42610D01*
Y188764D01*
X-40240D01*
Y191232D01*
D02*
G37*
G36*
X-4905Y297532D02*
X-16232D01*
Y282465D01*
X-4905D01*
Y297532D01*
D02*
G37*
G36*
X-17232D02*
X-28559D01*
Y282465D01*
X-17232D01*
Y297532D01*
D02*
G37*
G36*
X-40716Y304246D02*
X-42083Y304112D01*
X-43396Y303713D01*
X-44607Y303066D01*
X-45668Y302195D01*
X-46539Y301134D01*
X-47186Y299924D01*
X-47584Y298610D01*
X-47719Y297244D01*
X-47584Y295878D01*
X-47186Y294565D01*
X-46539Y293354D01*
X-45668Y292293D01*
X-44607Y291422D01*
X-43396Y290775D01*
X-42083Y290376D01*
X-40716Y290242D01*
X-39351Y290376D01*
X-38037Y290775D01*
X-36826Y291422D01*
X-35765Y292293D01*
X-34894Y293354D01*
X-34247Y294565D01*
X-33849Y295878D01*
X-33714Y297244D01*
X-33849Y298610D01*
X-34247Y299924D01*
X-34894Y301134D01*
X-35765Y302195D01*
X-36826Y303066D01*
X-38037Y303713D01*
X-39351Y304112D01*
X-40716Y304246D01*
D02*
G37*
G36*
X-4905Y313598D02*
X-16232D01*
Y298532D01*
X-4905D01*
Y313598D01*
D02*
G37*
G36*
X-17232D02*
X-28559D01*
Y298532D01*
X-17232D01*
Y313598D01*
D02*
G37*
G36*
X-57531Y282457D02*
X-60532D01*
Y276209D01*
X-57531D01*
Y282457D01*
D02*
G37*
G36*
X-157476Y235720D02*
X-164854D01*
Y228342D01*
X-163808Y228445D01*
X-162320Y228896D01*
X-160950Y229629D01*
X-159748Y230615D01*
X-158763Y231816D01*
X-158030Y233187D01*
X-157579Y234674D01*
X-157476Y235720D01*
D02*
G37*
G36*
X-165854D02*
X-173233D01*
X-173130Y234674D01*
X-172679Y233187D01*
X-171946Y231816D01*
X-170960Y230615D01*
X-169759Y229629D01*
X-168388Y228896D01*
X-166901Y228445D01*
X-165854Y228342D01*
Y235720D01*
D02*
G37*
G36*
Y244099D02*
X-166901Y243996D01*
X-168388Y243545D01*
X-169759Y242812D01*
X-170960Y241826D01*
X-171946Y240625D01*
X-172679Y239254D01*
X-173130Y237767D01*
X-173233Y236720D01*
X-165854D01*
Y244099D01*
D02*
G37*
G36*
X-61532Y282457D02*
X-64531D01*
Y276209D01*
X-61532D01*
Y282457D01*
D02*
G37*
G36*
X-164854Y244099D02*
Y236720D01*
X-157476D01*
X-157579Y237767D01*
X-158030Y239254D01*
X-158763Y240625D01*
X-159748Y241826D01*
X-160950Y242812D01*
X-162320Y243545D01*
X-163808Y243996D01*
X-164854Y244099D01*
D02*
G37*
G36*
X-59083Y174106D02*
X-64145D01*
X-64123Y173934D01*
X-63863Y173308D01*
X-63450Y172770D01*
X-63146Y172537D01*
X-63307Y172063D01*
X-67709D01*
Y150894D01*
X-50673D01*
Y172063D01*
X-59921D01*
X-60082Y172537D01*
X-59778Y172770D01*
X-59365Y173308D01*
X-59106Y173934D01*
X-59083Y174106D01*
D02*
G37*
G36*
X-16071Y151075D02*
X-18102D01*
Y149044D01*
X-17930Y149066D01*
X-17304Y149326D01*
X-16766Y149738D01*
X-16353Y150276D01*
X-16094Y150903D01*
X-16071Y151075D01*
D02*
G37*
G36*
X-47547Y152925D02*
X-47719Y152902D01*
X-48346Y152643D01*
X-48884Y152230D01*
X-49296Y151692D01*
X-49556Y151066D01*
X-49578Y150894D01*
X-47547D01*
Y152925D01*
D02*
G37*
G36*
X-41839D02*
X-42011Y152902D01*
X-42637Y152643D01*
X-43175Y152230D01*
X-43588Y151692D01*
X-43847Y151066D01*
X-43870Y150894D01*
X-41839D01*
Y152925D01*
D02*
G37*
G36*
X-46547D02*
Y150894D01*
X-44516D01*
X-44539Y151066D01*
X-44798Y151692D01*
X-45211Y152230D01*
X-45749Y152643D01*
X-46375Y152902D01*
X-46547Y152925D01*
D02*
G37*
G36*
X-19102Y151075D02*
X-21134D01*
X-21111Y150903D01*
X-20851Y150276D01*
X-20439Y149738D01*
X-19901Y149326D01*
X-19275Y149066D01*
X-19102Y149044D01*
Y151075D01*
D02*
G37*
G36*
X-47547Y149894D02*
X-49578D01*
X-49556Y149722D01*
X-49296Y149095D01*
X-48884Y148557D01*
X-48346Y148145D01*
X-47719Y147885D01*
X-47547Y147863D01*
Y149894D01*
D02*
G37*
G36*
X-23114D02*
X-30110D01*
Y147327D01*
X-23114D01*
Y149894D01*
D02*
G37*
G36*
X-44516D02*
X-46547D01*
Y147863D01*
X-46375Y147885D01*
X-45749Y148145D01*
X-45211Y148557D01*
X-44798Y149095D01*
X-44539Y149722D01*
X-44516Y149894D01*
D02*
G37*
G36*
X-38807D02*
X-40839D01*
Y147863D01*
X-40666Y147885D01*
X-40040Y148145D01*
X-39502Y148557D01*
X-39090Y149095D01*
X-38830Y149722D01*
X-38807Y149894D01*
D02*
G37*
G36*
X-41839D02*
X-43870D01*
X-43847Y149722D01*
X-43588Y149095D01*
X-43175Y148557D01*
X-42637Y148145D01*
X-42011Y147885D01*
X-41839Y147863D01*
Y149894D01*
D02*
G37*
G36*
X-5102Y165862D02*
X-10327D01*
Y160244D01*
X-5102D01*
Y165862D01*
D02*
G37*
G36*
X-11327D02*
X-16551D01*
Y160244D01*
X-11327D01*
Y165862D01*
D02*
G37*
G36*
X-59280Y178535D02*
X-64342D01*
X-64320Y178363D01*
X-64060Y177737D01*
X-63647Y177199D01*
X-63382Y176995D01*
Y176495D01*
X-63450Y176443D01*
X-63863Y175905D01*
X-64123Y175278D01*
X-64145Y175106D01*
X-59083D01*
X-59106Y175278D01*
X-59365Y175905D01*
X-59778Y176443D01*
X-60043Y176646D01*
Y177146D01*
X-59975Y177199D01*
X-59562Y177737D01*
X-59303Y178363D01*
X-59280Y178535D01*
D02*
G37*
G36*
X-62311Y181567D02*
X-62483Y181544D01*
X-63109Y181284D01*
X-63647Y180872D01*
X-64060Y180334D01*
X-64320Y179708D01*
X-64342Y179535D01*
X-62311D01*
Y181567D01*
D02*
G37*
G36*
X-27445Y181980D02*
X-33063D01*
Y176756D01*
X-27445D01*
Y181980D01*
D02*
G37*
G36*
X-5102Y159244D02*
X-10327D01*
Y153626D01*
X-5102D01*
Y159244D01*
D02*
G37*
G36*
X-31110Y153461D02*
X-38106D01*
Y150894D01*
X-31110D01*
Y153461D01*
D02*
G37*
G36*
X-40839Y152925D02*
Y150894D01*
X-38807D01*
X-38830Y151066D01*
X-39090Y151692D01*
X-39502Y152230D01*
X-40040Y152643D01*
X-40666Y152902D01*
X-40839Y152925D01*
D02*
G37*
G36*
X-23114Y153461D02*
X-30110D01*
Y150894D01*
X-23114D01*
Y153461D01*
D02*
G37*
G36*
X-11327Y159244D02*
X-16551D01*
Y153812D01*
X-16883Y153648D01*
D01*
X-17000Y153590D01*
X-17304Y153824D01*
X-17930Y154083D01*
X-18102Y154106D01*
Y152075D01*
X-16071D01*
X-16094Y152247D01*
X-16353Y152873D01*
X-16587Y153177D01*
X-16529Y153295D01*
X-16529D01*
X-16366Y153626D01*
X-11327D01*
Y159244D01*
D02*
G37*
G36*
X-19102Y154106D02*
X-19275Y154083D01*
X-19901Y153824D01*
X-20439Y153411D01*
X-20851Y152873D01*
X-21111Y152247D01*
X-21134Y152075D01*
X-19102D01*
Y154106D01*
D02*
G37*
%LPD*%
G36*
X-64206Y10573D02*
X-64091Y10561D01*
X-63826Y10538D01*
X-63815D01*
X-63757Y10526D01*
X-63676D01*
X-63572Y10503D01*
X-63446Y10492D01*
X-63284Y10457D01*
X-63111Y10423D01*
X-62915Y10388D01*
Y10261D01*
Y10250D01*
Y10227D01*
X-62904Y10192D01*
Y10146D01*
X-62892Y10031D01*
Y9892D01*
Y9881D01*
Y9858D01*
Y9812D01*
X-62881Y9754D01*
Y9662D01*
X-62869Y9558D01*
Y9443D01*
X-62858Y9293D01*
X-62823Y8855D01*
X-62835D01*
X-62858Y8866D01*
X-62892Y8878D01*
X-62950Y8889D01*
X-63007Y8912D01*
X-63077Y8935D01*
X-63249Y8981D01*
X-63457Y9028D01*
X-63665Y9074D01*
X-63884Y9097D01*
X-64103Y9108D01*
X-64172D01*
X-64241Y9097D01*
X-64345Y9085D01*
X-64449Y9074D01*
X-64564Y9039D01*
X-64691Y9005D01*
X-64806Y8947D01*
X-64818Y8935D01*
X-64852Y8924D01*
X-64910Y8889D01*
X-64968Y8832D01*
X-65048Y8774D01*
X-65117Y8705D01*
X-65187Y8613D01*
X-65244Y8509D01*
Y8497D01*
X-65267Y8463D01*
X-65290Y8394D01*
X-65313Y8313D01*
X-65337Y8220D01*
X-65359Y8105D01*
X-65371Y7967D01*
X-65383Y7829D01*
Y7817D01*
Y7771D01*
X-65371Y7690D01*
Y7609D01*
X-65348Y7506D01*
X-65325Y7390D01*
X-65302Y7287D01*
X-65256Y7183D01*
X-65244Y7171D01*
X-65233Y7137D01*
X-65198Y7091D01*
X-65152Y7033D01*
X-65106Y6975D01*
X-65037Y6906D01*
X-64944Y6848D01*
X-64852Y6791D01*
X-64841D01*
X-64806Y6768D01*
X-64749Y6756D01*
X-64668Y6733D01*
X-64575Y6710D01*
X-64472Y6687D01*
X-64356Y6675D01*
X-64230Y6664D01*
X-64114D01*
X-63987Y6675D01*
X-63826Y6699D01*
X-63815D01*
X-63792Y6710D01*
X-63745D01*
X-63688Y6722D01*
X-63561Y6745D01*
X-63423Y6768D01*
X-63411D01*
X-63388Y6779D01*
X-63353Y6791D01*
X-63296Y6802D01*
X-63238Y6825D01*
X-63157Y6848D01*
X-62973Y6918D01*
Y6906D01*
X-62984Y6883D01*
Y6825D01*
X-62996Y6745D01*
X-63019Y6641D01*
X-63042Y6514D01*
X-63065Y6364D01*
X-63100Y6180D01*
X-63226Y5384D01*
X-63238D01*
X-63261Y5373D01*
X-63307Y5361D01*
X-63365Y5350D01*
X-63434Y5338D01*
X-63515Y5327D01*
X-63722Y5292D01*
X-63953Y5246D01*
X-64218Y5223D01*
X-64495Y5200D01*
X-64771Y5188D01*
X-64864D01*
X-64968Y5200D01*
X-65094D01*
X-65256Y5211D01*
X-65417Y5234D01*
X-65579Y5269D01*
X-65740Y5303D01*
X-65763Y5315D01*
X-65821Y5327D01*
X-65913Y5361D01*
X-66028Y5407D01*
X-66167Y5465D01*
X-66316Y5546D01*
X-66466Y5638D01*
X-66616Y5753D01*
X-66628Y5765D01*
X-66685Y5811D01*
X-66755Y5892D01*
X-66835Y5984D01*
X-66928Y6099D01*
X-67020Y6237D01*
X-67112Y6399D01*
X-67193Y6560D01*
Y6572D01*
X-67204Y6583D01*
X-67216Y6618D01*
X-67227Y6652D01*
X-67262Y6768D01*
X-67297Y6918D01*
X-67331Y7102D01*
X-67366Y7310D01*
X-67389Y7540D01*
X-67400Y7794D01*
Y7805D01*
Y7817D01*
Y7852D01*
Y7898D01*
X-67389Y8025D01*
X-67377Y8174D01*
X-67354Y8359D01*
X-67308Y8566D01*
X-67262Y8774D01*
X-67193Y8993D01*
Y9005D01*
X-67181Y9016D01*
X-67158Y9085D01*
X-67101Y9201D01*
X-67031Y9327D01*
X-66951Y9477D01*
X-66847Y9639D01*
X-66720Y9789D01*
X-66570Y9939D01*
X-66547Y9950D01*
X-66501Y9996D01*
X-66409Y10065D01*
X-66305Y10146D01*
X-66167Y10227D01*
X-66005Y10319D01*
X-65844Y10388D01*
X-65659Y10446D01*
X-65648D01*
X-65636Y10457D01*
X-65567Y10469D01*
X-65463Y10492D01*
X-65325Y10515D01*
X-65163Y10538D01*
X-64968Y10561D01*
X-64760Y10584D01*
X-64322D01*
X-64206Y10573D01*
D02*
G37*
G36*
X-80844D02*
X-80741D01*
X-80614Y10550D01*
X-80475Y10526D01*
X-80326Y10503D01*
X-80187Y10457D01*
X-80164D01*
X-80118Y10434D01*
X-80049Y10400D01*
X-79957Y10354D01*
X-79853Y10296D01*
X-79749Y10215D01*
X-79645Y10123D01*
X-79541Y10019D01*
X-79530Y10008D01*
X-79507Y9962D01*
X-79461Y9892D01*
X-79415Y9800D01*
X-79369Y9685D01*
X-79322Y9546D01*
X-79299Y9385D01*
X-79288Y9212D01*
Y9201D01*
Y9166D01*
Y9120D01*
Y9039D01*
X-79299Y8935D01*
Y8820D01*
X-79311Y8670D01*
X-79322Y8509D01*
Y8486D01*
Y8463D01*
X-79334Y8416D01*
Y8370D01*
Y8301D01*
X-79345Y8220D01*
Y8140D01*
X-79357Y8036D01*
Y7921D01*
X-79369Y7782D01*
X-79380Y7644D01*
X-79391Y7483D01*
X-79403Y7298D01*
X-79415Y7114D01*
X-79426Y6906D01*
Y6895D01*
Y6860D01*
Y6802D01*
X-79438Y6722D01*
Y6629D01*
X-79449Y6526D01*
Y6284D01*
X-79461Y6018D01*
X-79472Y5753D01*
X-79484Y5511D01*
Y5407D01*
Y5315D01*
X-81479D01*
Y5327D01*
Y5350D01*
Y5384D01*
X-81467Y5430D01*
Y5488D01*
X-81455Y5569D01*
Y5649D01*
X-81444Y5753D01*
X-81432Y5984D01*
X-81421Y6249D01*
X-81398Y6560D01*
X-81386Y6906D01*
Y6918D01*
Y6952D01*
Y6998D01*
X-81375Y7068D01*
Y7137D01*
X-81363Y7229D01*
X-81352Y7436D01*
Y7655D01*
X-81340Y7875D01*
X-81329Y8082D01*
Y8163D01*
Y8244D01*
Y8255D01*
Y8301D01*
Y8359D01*
X-81340Y8428D01*
X-81363Y8590D01*
X-81386Y8659D01*
X-81409Y8728D01*
Y8739D01*
X-81421Y8751D01*
X-81455Y8820D01*
X-81513Y8889D01*
X-81594Y8947D01*
X-81617Y8958D01*
X-81674Y8981D01*
X-81755Y9005D01*
X-81859Y9016D01*
X-81882D01*
X-81951Y9005D01*
X-82032Y8993D01*
X-82113Y8958D01*
X-82136Y8947D01*
X-82182Y8912D01*
X-82251Y8843D01*
X-82320Y8762D01*
Y8751D01*
X-82343Y8739D01*
X-82366Y8693D01*
X-82389Y8647D01*
X-82424Y8590D01*
X-82459Y8520D01*
X-82516Y8347D01*
Y8336D01*
X-82528Y8313D01*
X-82539Y8267D01*
X-82551Y8197D01*
X-82574Y8117D01*
X-82585Y8013D01*
X-82608Y7886D01*
X-82620Y7748D01*
Y7725D01*
Y7667D01*
X-82631Y7586D01*
X-82643Y7459D01*
X-82655Y7298D01*
Y7114D01*
X-82666Y6895D01*
X-82678Y6652D01*
X-82712Y5315D01*
X-84730D01*
Y5338D01*
X-84718Y5396D01*
Y5453D01*
X-84707Y5511D01*
Y5580D01*
X-84695Y5672D01*
Y5765D01*
X-84684Y5868D01*
X-84672Y5995D01*
X-84661Y6134D01*
Y6284D01*
X-84649Y6445D01*
X-84638Y6618D01*
X-84626Y6814D01*
Y6825D01*
Y6860D01*
X-84615Y6918D01*
Y6987D01*
Y7068D01*
X-84603Y7171D01*
X-84592Y7390D01*
X-84580Y7621D01*
X-84569Y7863D01*
X-84557Y8071D01*
Y8163D01*
Y8232D01*
Y8244D01*
Y8278D01*
Y8336D01*
X-84569Y8405D01*
X-84580Y8543D01*
X-84603Y8624D01*
X-84626Y8682D01*
Y8693D01*
X-84638Y8705D01*
X-84672Y8774D01*
X-84718Y8843D01*
X-84799Y8924D01*
X-84822Y8935D01*
X-84868Y8970D01*
X-84961Y9005D01*
X-85087Y9016D01*
X-85122D01*
X-85157Y9005D01*
X-85203D01*
X-85318Y8958D01*
X-85376Y8935D01*
X-85433Y8889D01*
X-85445D01*
X-85456Y8866D01*
X-85514Y8809D01*
X-85595Y8705D01*
X-85675Y8555D01*
Y8543D01*
X-85687Y8520D01*
X-85710Y8474D01*
X-85733Y8405D01*
X-85756Y8324D01*
X-85779Y8220D01*
X-85802Y8105D01*
X-85825Y7967D01*
Y7944D01*
X-85837Y7898D01*
Y7805D01*
X-85848Y7679D01*
X-85860Y7517D01*
X-85883Y7321D01*
X-85895Y7079D01*
X-85906Y6802D01*
Y6791D01*
Y6768D01*
Y6722D01*
Y6675D01*
Y6606D01*
X-85918Y6526D01*
Y6330D01*
X-85929Y6099D01*
Y5845D01*
X-85941Y5580D01*
Y5315D01*
X-87958D01*
X-87820Y7736D01*
X-87728Y9639D01*
Y10457D01*
X-87393D01*
X-87243Y10446D01*
X-86148D01*
X-85814Y10457D01*
X-85860Y9777D01*
X-85848Y9789D01*
X-85837Y9812D01*
X-85802Y9846D01*
X-85768Y9892D01*
X-85675Y9996D01*
X-85595Y10088D01*
X-85572Y10111D01*
X-85526Y10158D01*
X-85445Y10215D01*
X-85341Y10284D01*
X-85330D01*
X-85318Y10307D01*
X-85237Y10342D01*
X-85133Y10400D01*
X-85018Y10446D01*
X-85007D01*
X-84984Y10457D01*
X-84949Y10469D01*
X-84903Y10480D01*
X-84788Y10515D01*
X-84638Y10538D01*
X-84626D01*
X-84603Y10550D01*
X-84557D01*
X-84511Y10561D01*
X-84373Y10573D01*
X-84211Y10584D01*
X-84050D01*
X-83900Y10561D01*
X-83738Y10538D01*
X-83727D01*
X-83704Y10526D01*
X-83658Y10515D01*
X-83612Y10503D01*
X-83485Y10469D01*
X-83369Y10423D01*
X-83358D01*
X-83346Y10411D01*
X-83277Y10388D01*
X-83185Y10330D01*
X-83093Y10273D01*
X-83070Y10261D01*
X-83024Y10215D01*
X-82966Y10158D01*
X-82897Y10077D01*
X-82885Y10054D01*
X-82839Y9996D01*
X-82770Y9904D01*
X-82678Y9765D01*
X-82666Y9777D01*
X-82643Y9823D01*
X-82597Y9881D01*
X-82539Y9950D01*
X-82389Y10111D01*
X-82309Y10181D01*
X-82216Y10250D01*
X-82205Y10261D01*
X-82170Y10273D01*
X-82124Y10307D01*
X-82055Y10342D01*
X-81963Y10388D01*
X-81871Y10434D01*
X-81651Y10503D01*
X-81640D01*
X-81594Y10515D01*
X-81536Y10526D01*
X-81455Y10550D01*
X-81352Y10561D01*
X-81248Y10573D01*
X-81006Y10584D01*
X-80937D01*
X-80844Y10573D01*
D02*
G37*
G36*
X-24001D02*
X-23886Y10561D01*
X-23771Y10550D01*
X-23517Y10503D01*
X-23506D01*
X-23460Y10492D01*
X-23390Y10469D01*
X-23310Y10446D01*
X-23125Y10377D01*
X-22941Y10273D01*
X-22929Y10261D01*
X-22906Y10250D01*
X-22860Y10215D01*
X-22802Y10181D01*
X-22687Y10065D01*
X-22560Y9915D01*
X-22549Y9904D01*
X-22537Y9881D01*
X-22502Y9835D01*
X-22468Y9777D01*
X-22433Y9708D01*
X-22399Y9639D01*
X-22353Y9454D01*
Y9443D01*
X-22341Y9408D01*
X-22330Y9362D01*
X-22318Y9304D01*
Y9224D01*
X-22307Y9143D01*
X-22295Y8958D01*
Y8947D01*
Y8924D01*
Y8866D01*
Y8785D01*
X-22307Y8670D01*
X-22318Y8520D01*
X-22330Y8347D01*
X-22341Y8128D01*
X-22422Y6306D01*
Y6295D01*
Y6284D01*
Y6214D01*
X-22433Y6111D01*
Y5984D01*
Y5822D01*
X-22445Y5661D01*
Y5315D01*
X-24486D01*
Y5338D01*
X-24474Y5396D01*
Y5499D01*
X-24463Y5649D01*
X-24451Y5845D01*
X-24440Y6076D01*
X-24417Y6353D01*
X-24405Y6664D01*
Y6675D01*
Y6699D01*
Y6756D01*
X-24394Y6814D01*
Y6883D01*
X-24382Y6975D01*
X-24370Y7171D01*
Y7379D01*
X-24359Y7586D01*
X-24347Y7782D01*
Y7875D01*
Y7944D01*
Y7955D01*
Y7967D01*
Y8036D01*
X-24359Y8140D01*
X-24370Y8255D01*
X-24405Y8382D01*
X-24440Y8509D01*
X-24497Y8636D01*
X-24566Y8728D01*
X-24578Y8739D01*
X-24601Y8762D01*
X-24659Y8797D01*
X-24716Y8843D01*
X-24797Y8889D01*
X-24889Y8924D01*
X-25005Y8947D01*
X-25120Y8958D01*
X-25166D01*
X-25224Y8947D01*
X-25293Y8935D01*
X-25385Y8912D01*
X-25477Y8878D01*
X-25569Y8832D01*
X-25673Y8762D01*
X-25685Y8751D01*
X-25719Y8728D01*
X-25765Y8682D01*
X-25823Y8624D01*
X-25881Y8543D01*
X-25950Y8440D01*
X-26019Y8324D01*
X-26077Y8197D01*
Y8186D01*
X-26100Y8128D01*
X-26123Y8036D01*
X-26158Y7909D01*
X-26181Y7748D01*
X-26215Y7540D01*
X-26250Y7287D01*
X-26273Y6998D01*
Y6987D01*
Y6964D01*
Y6918D01*
X-26284Y6860D01*
Y6779D01*
Y6687D01*
X-26296Y6595D01*
Y6480D01*
X-26307Y6226D01*
X-26319Y5938D01*
X-26331Y5638D01*
X-26342Y5315D01*
X-28417D01*
Y5327D01*
X-28406Y5373D01*
Y5430D01*
X-28394Y5511D01*
X-28383Y5626D01*
X-28371Y5753D01*
X-28360Y5892D01*
X-28337Y6053D01*
X-28325Y6237D01*
X-28302Y6433D01*
X-28279Y6641D01*
X-28267Y6860D01*
X-28233Y7321D01*
X-28198Y7829D01*
Y7840D01*
Y7886D01*
X-28187Y7967D01*
Y8059D01*
X-28175Y8186D01*
Y8336D01*
X-28164Y8497D01*
X-28152Y8682D01*
Y8866D01*
X-28141Y9074D01*
X-28129Y9523D01*
X-28118Y9985D01*
X-28106Y10457D01*
X-27749D01*
X-27576Y10446D01*
X-26434D01*
X-26077Y10457D01*
X-26134Y9765D01*
X-26123Y9777D01*
X-26100Y9800D01*
X-26031Y9869D01*
X-25938Y9962D01*
X-25846Y10054D01*
X-25835D01*
X-25823Y10077D01*
X-25765Y10123D01*
X-25662Y10192D01*
X-25546Y10273D01*
X-25535D01*
X-25512Y10296D01*
X-25477Y10307D01*
X-25431Y10330D01*
X-25304Y10388D01*
X-25166Y10434D01*
X-25154D01*
X-25131Y10446D01*
X-25085Y10457D01*
X-25028Y10469D01*
X-24889Y10503D01*
X-24728Y10538D01*
X-24716D01*
X-24682Y10550D01*
X-24636D01*
X-24578Y10561D01*
X-24497Y10573D01*
X-24417D01*
X-24220Y10584D01*
X-24094D01*
X-24001Y10573D01*
D02*
G37*
G36*
X-90852D02*
X-90702D01*
X-90541Y10550D01*
X-90357Y10526D01*
X-90161Y10492D01*
X-89976Y10446D01*
X-89965D01*
X-89953Y10434D01*
X-89895Y10423D01*
X-89803Y10388D01*
X-89688Y10342D01*
X-89573Y10273D01*
X-89446Y10204D01*
X-89319Y10111D01*
X-89204Y10008D01*
X-89192Y9996D01*
X-89157Y9950D01*
X-89111Y9892D01*
X-89065Y9800D01*
X-89019Y9673D01*
X-88973Y9535D01*
X-88938Y9362D01*
X-88927Y9166D01*
Y9154D01*
Y9108D01*
Y9028D01*
X-88938Y8970D01*
Y8901D01*
Y8820D01*
X-88950Y8728D01*
Y8624D01*
X-88961Y8509D01*
X-88973Y8370D01*
X-88985Y8220D01*
X-88996Y8059D01*
X-89008Y7886D01*
Y7875D01*
Y7840D01*
X-89019Y7782D01*
Y7713D01*
Y7609D01*
X-89031Y7494D01*
X-89042Y7356D01*
Y7194D01*
X-89054Y7021D01*
X-89065Y6825D01*
X-89077Y6618D01*
Y6387D01*
X-89088Y6145D01*
X-89100Y5880D01*
Y5603D01*
X-89111Y5315D01*
X-91094D01*
Y5327D01*
Y5338D01*
X-91083Y5373D01*
Y5430D01*
X-91071Y5499D01*
Y5580D01*
X-91060Y5684D01*
X-91048Y5799D01*
X-91037Y5949D01*
X-91025Y6111D01*
X-91014Y6295D01*
X-91002Y6503D01*
X-90991Y6745D01*
X-90979Y6998D01*
X-90956Y7287D01*
X-90945Y7598D01*
X-90956D01*
X-90979Y7586D01*
X-91014Y7563D01*
X-91060Y7552D01*
X-91152Y7506D01*
X-91244Y7459D01*
X-91267Y7448D01*
X-91290D01*
X-91325Y7436D01*
X-91383Y7413D01*
X-91452Y7402D01*
X-91533Y7367D01*
X-91625Y7344D01*
X-91636D01*
X-91671Y7333D01*
X-91717Y7321D01*
X-91786Y7298D01*
X-91925Y7252D01*
X-91994Y7229D01*
X-92052Y7206D01*
X-92063D01*
X-92075Y7194D01*
X-92144Y7171D01*
X-92224Y7114D01*
X-92317Y7056D01*
X-92340Y7045D01*
X-92374Y7010D01*
X-92432Y6952D01*
X-92478Y6883D01*
X-92490Y6871D01*
X-92501Y6825D01*
X-92513Y6756D01*
X-92524Y6687D01*
Y6675D01*
Y6664D01*
X-92513Y6583D01*
X-92467Y6491D01*
X-92444Y6433D01*
X-92397Y6387D01*
X-92386D01*
X-92374Y6364D01*
X-92340Y6353D01*
X-92294Y6330D01*
X-92224Y6306D01*
X-92155Y6295D01*
X-92063Y6272D01*
X-91821D01*
X-91740Y6284D01*
X-91717D01*
X-91648Y6306D01*
X-91544Y6330D01*
X-91394Y6376D01*
X-91406Y6353D01*
X-91417Y6306D01*
X-91452Y6214D01*
X-91498Y6087D01*
X-91544Y5926D01*
X-91602Y5742D01*
X-91671Y5511D01*
X-91740Y5257D01*
X-91763D01*
X-91809Y5246D01*
X-91902Y5234D01*
X-92005Y5223D01*
X-92132Y5211D01*
X-92271Y5200D01*
X-92570Y5188D01*
X-92674D01*
X-92789Y5200D01*
X-92928Y5211D01*
X-93101Y5234D01*
X-93274Y5257D01*
X-93447Y5303D01*
X-93608Y5361D01*
X-93631Y5373D01*
X-93677Y5396D01*
X-93746Y5442D01*
X-93839Y5499D01*
X-93942Y5569D01*
X-94046Y5672D01*
X-94150Y5776D01*
X-94242Y5914D01*
X-94254Y5938D01*
X-94277Y5984D01*
X-94311Y6064D01*
X-94346Y6157D01*
X-94392Y6272D01*
X-94427Y6410D01*
X-94450Y6549D01*
X-94461Y6687D01*
Y6699D01*
Y6733D01*
Y6779D01*
X-94450Y6837D01*
X-94427Y6987D01*
X-94381Y7148D01*
Y7160D01*
X-94369Y7183D01*
X-94346Y7229D01*
X-94323Y7287D01*
X-94242Y7436D01*
X-94127Y7586D01*
X-94115Y7598D01*
X-94092Y7621D01*
X-94058Y7667D01*
X-94012Y7713D01*
X-93885Y7840D01*
X-93723Y7955D01*
X-93712Y7967D01*
X-93677Y7978D01*
X-93620Y8013D01*
X-93550Y8048D01*
X-93458Y8094D01*
X-93343Y8140D01*
X-93216Y8197D01*
X-93066Y8244D01*
X-93043Y8255D01*
X-92985Y8267D01*
X-92905Y8290D01*
X-92778Y8324D01*
X-92628Y8370D01*
X-92455Y8416D01*
X-92247Y8463D01*
X-92028Y8509D01*
X-92017D01*
X-91982Y8520D01*
X-91936Y8532D01*
X-91867Y8543D01*
X-91717Y8578D01*
X-91544Y8613D01*
X-91533D01*
X-91510Y8624D01*
X-91475Y8636D01*
X-91417Y8647D01*
X-91325Y8682D01*
X-91267Y8693D01*
X-91233Y8716D01*
X-91221Y8728D01*
X-91175Y8751D01*
X-91129Y8785D01*
X-91083Y8820D01*
X-91071Y8832D01*
X-91048Y8855D01*
X-91025Y8889D01*
X-91002Y8935D01*
Y8947D01*
X-90991Y8981D01*
X-90979Y9028D01*
Y9074D01*
Y9085D01*
Y9108D01*
X-90991Y9143D01*
X-91002Y9189D01*
X-91048Y9281D01*
X-91083Y9327D01*
X-91141Y9374D01*
X-91152D01*
X-91175Y9385D01*
X-91210Y9408D01*
X-91256Y9431D01*
X-91325Y9443D01*
X-91406Y9466D01*
X-91498Y9477D01*
X-91706D01*
X-91763Y9466D01*
X-91856D01*
X-91948Y9454D01*
X-92075Y9443D01*
X-92201Y9420D01*
X-92351Y9397D01*
X-92513Y9362D01*
X-92686Y9316D01*
X-92882Y9270D01*
X-93078Y9224D01*
X-93285Y9154D01*
X-93746Y8993D01*
Y9016D01*
X-93735Y9074D01*
X-93712Y9154D01*
X-93700Y9258D01*
X-93654Y9477D01*
X-93643Y9581D01*
X-93631Y9662D01*
Y9673D01*
Y9696D01*
X-93620Y9742D01*
X-93608Y9812D01*
X-93597Y9892D01*
X-93585Y9996D01*
X-93573Y10123D01*
X-93550Y10261D01*
X-93539D01*
X-93481Y10273D01*
X-93412Y10296D01*
X-93308Y10307D01*
X-93181Y10342D01*
X-93032Y10365D01*
X-92870Y10388D01*
X-92697Y10423D01*
X-92501Y10457D01*
X-92305Y10480D01*
X-91890Y10538D01*
X-91464Y10573D01*
X-91060Y10584D01*
X-90956D01*
X-90852Y10573D01*
D02*
G37*
G36*
X-70721D02*
X-70571Y10561D01*
X-70387Y10538D01*
X-70179Y10503D01*
X-69972Y10457D01*
X-69753Y10388D01*
X-69741D01*
X-69729Y10377D01*
X-69660Y10354D01*
X-69545Y10307D01*
X-69418Y10250D01*
X-69257Y10169D01*
X-69095Y10077D01*
X-68934Y9962D01*
X-68784Y9835D01*
X-68761Y9823D01*
X-68715Y9777D01*
X-68646Y9696D01*
X-68553Y9593D01*
X-68461Y9477D01*
X-68369Y9327D01*
X-68277Y9166D01*
X-68196Y8993D01*
X-68184Y8970D01*
X-68161Y8912D01*
X-68138Y8820D01*
X-68092Y8693D01*
X-68058Y8532D01*
X-68034Y8359D01*
X-68011Y8174D01*
X-68000Y7967D01*
Y7955D01*
Y7944D01*
Y7875D01*
X-68011Y7771D01*
X-68023Y7632D01*
X-68046Y7483D01*
X-68069Y7310D01*
X-68115Y7125D01*
X-68173Y6941D01*
X-68184Y6918D01*
X-68207Y6860D01*
X-68254Y6768D01*
X-68311Y6641D01*
X-68392Y6503D01*
X-68484Y6353D01*
X-68611Y6191D01*
X-68749Y6030D01*
X-68772Y6007D01*
X-68818Y5961D01*
X-68911Y5880D01*
X-69026Y5788D01*
X-69176Y5684D01*
X-69349Y5580D01*
X-69556Y5488D01*
X-69775Y5396D01*
X-69787D01*
X-69799Y5384D01*
X-69833Y5373D01*
X-69879Y5361D01*
X-70006Y5327D01*
X-70168Y5292D01*
X-70364Y5257D01*
X-70583Y5223D01*
X-70836Y5200D01*
X-71090Y5188D01*
X-71194D01*
X-71321Y5200D01*
X-71482Y5211D01*
X-71666Y5234D01*
X-71874Y5269D01*
X-72093Y5315D01*
X-72312Y5373D01*
X-72324D01*
X-72335Y5384D01*
X-72404Y5407D01*
X-72520Y5453D01*
X-72658Y5511D01*
X-72808Y5592D01*
X-72981Y5684D01*
X-73142Y5788D01*
X-73304Y5914D01*
X-73315Y5926D01*
X-73373Y5984D01*
X-73442Y6053D01*
X-73523Y6157D01*
X-73615Y6284D01*
X-73719Y6422D01*
X-73811Y6595D01*
X-73892Y6768D01*
Y6779D01*
X-73903Y6791D01*
X-73926Y6860D01*
X-73949Y6952D01*
X-73984Y7091D01*
X-74030Y7241D01*
X-74053Y7425D01*
X-74076Y7609D01*
X-74088Y7817D01*
Y7829D01*
Y7840D01*
Y7909D01*
X-74076Y8013D01*
X-74065Y8151D01*
X-74042Y8313D01*
X-74007Y8486D01*
X-73961Y8670D01*
X-73903Y8855D01*
Y8866D01*
X-73892Y8878D01*
X-73869Y8935D01*
X-73823Y9039D01*
X-73753Y9154D01*
X-73673Y9293D01*
X-73557Y9454D01*
X-73442Y9604D01*
X-73292Y9754D01*
X-73269Y9777D01*
X-73211Y9823D01*
X-73119Y9892D01*
X-73004Y9973D01*
X-72843Y10077D01*
X-72670Y10181D01*
X-72462Y10273D01*
X-72243Y10365D01*
X-72231D01*
X-72220Y10377D01*
X-72185Y10388D01*
X-72139Y10400D01*
X-72012Y10434D01*
X-71851Y10480D01*
X-71655Y10515D01*
X-71436Y10550D01*
X-71194Y10573D01*
X-70952Y10584D01*
X-70848D01*
X-70721Y10573D01*
D02*
G37*
G36*
X-37572D02*
X-37422D01*
X-37261Y10550D01*
X-37076Y10526D01*
X-36880Y10492D01*
X-36684Y10446D01*
X-36673D01*
X-36661Y10434D01*
X-36592Y10423D01*
X-36500Y10388D01*
X-36385Y10330D01*
X-36246Y10273D01*
X-36096Y10192D01*
X-35947Y10088D01*
X-35808Y9973D01*
X-35797Y9962D01*
X-35750Y9915D01*
X-35681Y9846D01*
X-35601Y9765D01*
X-35520Y9650D01*
X-35428Y9523D01*
X-35359Y9385D01*
X-35289Y9235D01*
X-35278Y9212D01*
X-35266Y9166D01*
X-35243Y9074D01*
X-35209Y8970D01*
X-35174Y8832D01*
X-35151Y8682D01*
X-35139Y8509D01*
X-35128Y8336D01*
Y8324D01*
Y8290D01*
Y8232D01*
X-35139Y8151D01*
Y8059D01*
X-35151Y7944D01*
X-35197Y7702D01*
X-38725Y7690D01*
Y7679D01*
Y7644D01*
Y7552D01*
Y7540D01*
Y7529D01*
X-38714Y7459D01*
X-38702Y7367D01*
X-38679Y7252D01*
X-38633Y7125D01*
X-38564Y6987D01*
X-38472Y6860D01*
X-38345Y6756D01*
X-38322Y6745D01*
X-38276Y6722D01*
X-38195Y6675D01*
X-38080Y6629D01*
X-37941Y6583D01*
X-37780Y6537D01*
X-37595Y6514D01*
X-37399Y6503D01*
X-37273D01*
X-37180Y6514D01*
X-37065D01*
X-36938Y6537D01*
X-36800Y6549D01*
X-36650Y6572D01*
X-36627D01*
X-36569Y6583D01*
X-36477Y6606D01*
X-36362Y6641D01*
X-36200Y6675D01*
X-36027Y6722D01*
X-35820Y6779D01*
X-35589Y6848D01*
Y6837D01*
X-35601Y6779D01*
X-35612Y6745D01*
X-35624Y6687D01*
X-35635Y6629D01*
X-35647Y6549D01*
X-35658Y6456D01*
X-35681Y6353D01*
X-35704Y6237D01*
X-35727Y6099D01*
X-35750Y5949D01*
X-35774Y5776D01*
X-35808Y5592D01*
X-35843Y5384D01*
X-35866D01*
X-35935Y5361D01*
X-36050Y5350D01*
X-36189Y5327D01*
X-36338Y5292D01*
X-36511Y5269D01*
X-36673Y5246D01*
X-36834Y5234D01*
X-36846D01*
X-36904Y5223D01*
X-36984D01*
X-37076Y5211D01*
X-37203Y5200D01*
X-37330D01*
X-37630Y5188D01*
X-37849D01*
X-37987Y5200D01*
X-38160Y5211D01*
X-38345Y5223D01*
X-38737Y5269D01*
X-38760D01*
X-38818Y5280D01*
X-38910Y5303D01*
X-39025Y5338D01*
X-39163Y5373D01*
X-39313Y5430D01*
X-39463Y5488D01*
X-39601Y5557D01*
X-39613Y5569D01*
X-39659Y5592D01*
X-39728Y5638D01*
X-39821Y5695D01*
X-39913Y5776D01*
X-40017Y5868D01*
X-40120Y5961D01*
X-40213Y6076D01*
X-40224Y6087D01*
X-40247Y6134D01*
X-40293Y6203D01*
X-40351Y6295D01*
X-40409Y6399D01*
X-40466Y6526D01*
X-40524Y6675D01*
X-40582Y6825D01*
Y6848D01*
X-40605Y6906D01*
X-40616Y6987D01*
X-40639Y7102D01*
X-40662Y7241D01*
X-40685Y7390D01*
X-40697Y7552D01*
X-40708Y7725D01*
Y7736D01*
Y7748D01*
Y7782D01*
Y7829D01*
X-40697Y7955D01*
X-40674Y8117D01*
X-40651Y8313D01*
X-40605Y8520D01*
X-40535Y8739D01*
X-40455Y8970D01*
Y8981D01*
X-40443Y8993D01*
X-40432Y9028D01*
X-40409Y9074D01*
X-40351Y9189D01*
X-40282Y9327D01*
X-40178Y9477D01*
X-40074Y9639D01*
X-39936Y9800D01*
X-39797Y9939D01*
X-39775Y9950D01*
X-39728Y9996D01*
X-39636Y10054D01*
X-39532Y10135D01*
X-39394Y10215D01*
X-39233Y10296D01*
X-39060Y10365D01*
X-38864Y10434D01*
X-38852D01*
X-38840Y10446D01*
X-38771Y10457D01*
X-38668Y10480D01*
X-38529Y10515D01*
X-38368Y10538D01*
X-38183Y10561D01*
X-37987Y10573D01*
X-37780Y10584D01*
X-37676D01*
X-37572Y10573D01*
D02*
G37*
G36*
X-31473D02*
X-31323D01*
X-31162Y10550D01*
X-30977Y10526D01*
X-30781Y10492D01*
X-30585Y10446D01*
X-30573D01*
X-30562Y10434D01*
X-30493Y10423D01*
X-30401Y10388D01*
X-30285Y10330D01*
X-30147Y10273D01*
X-29997Y10192D01*
X-29847Y10088D01*
X-29709Y9973D01*
X-29697Y9962D01*
X-29651Y9915D01*
X-29582Y9846D01*
X-29501Y9765D01*
X-29421Y9650D01*
X-29328Y9523D01*
X-29259Y9385D01*
X-29190Y9235D01*
X-29178Y9212D01*
X-29167Y9166D01*
X-29144Y9074D01*
X-29109Y8970D01*
X-29075Y8832D01*
X-29052Y8682D01*
X-29040Y8509D01*
X-29028Y8336D01*
Y8324D01*
Y8290D01*
Y8232D01*
X-29040Y8151D01*
Y8059D01*
X-29052Y7944D01*
X-29098Y7702D01*
X-32626Y7690D01*
Y7679D01*
Y7644D01*
Y7552D01*
Y7540D01*
Y7529D01*
X-32614Y7459D01*
X-32603Y7367D01*
X-32580Y7252D01*
X-32534Y7125D01*
X-32464Y6987D01*
X-32372Y6860D01*
X-32245Y6756D01*
X-32222Y6745D01*
X-32176Y6722D01*
X-32096Y6675D01*
X-31980Y6629D01*
X-31842Y6583D01*
X-31680Y6537D01*
X-31496Y6514D01*
X-31300Y6503D01*
X-31173D01*
X-31081Y6514D01*
X-30966D01*
X-30839Y6537D01*
X-30700Y6549D01*
X-30551Y6572D01*
X-30527D01*
X-30470Y6583D01*
X-30378Y6606D01*
X-30262Y6641D01*
X-30101Y6675D01*
X-29928Y6722D01*
X-29720Y6779D01*
X-29490Y6848D01*
Y6837D01*
X-29501Y6779D01*
X-29513Y6745D01*
X-29524Y6687D01*
X-29536Y6629D01*
X-29547Y6549D01*
X-29559Y6456D01*
X-29582Y6353D01*
X-29605Y6237D01*
X-29628Y6099D01*
X-29651Y5949D01*
X-29674Y5776D01*
X-29709Y5592D01*
X-29743Y5384D01*
X-29766D01*
X-29836Y5361D01*
X-29951Y5350D01*
X-30089Y5327D01*
X-30239Y5292D01*
X-30412Y5269D01*
X-30573Y5246D01*
X-30735Y5234D01*
X-30746D01*
X-30804Y5223D01*
X-30885D01*
X-30977Y5211D01*
X-31104Y5200D01*
X-31231D01*
X-31530Y5188D01*
X-31750D01*
X-31888Y5200D01*
X-32061Y5211D01*
X-32245Y5223D01*
X-32637Y5269D01*
X-32660D01*
X-32718Y5280D01*
X-32810Y5303D01*
X-32926Y5338D01*
X-33064Y5373D01*
X-33214Y5430D01*
X-33364Y5488D01*
X-33502Y5557D01*
X-33514Y5569D01*
X-33560Y5592D01*
X-33629Y5638D01*
X-33721Y5695D01*
X-33814Y5776D01*
X-33917Y5868D01*
X-34021Y5961D01*
X-34113Y6076D01*
X-34125Y6087D01*
X-34148Y6134D01*
X-34194Y6203D01*
X-34252Y6295D01*
X-34309Y6399D01*
X-34367Y6526D01*
X-34424Y6675D01*
X-34482Y6825D01*
Y6848D01*
X-34505Y6906D01*
X-34517Y6987D01*
X-34540Y7102D01*
X-34563Y7241D01*
X-34586Y7390D01*
X-34598Y7552D01*
X-34609Y7725D01*
Y7736D01*
Y7748D01*
Y7782D01*
Y7829D01*
X-34598Y7955D01*
X-34574Y8117D01*
X-34551Y8313D01*
X-34505Y8520D01*
X-34436Y8739D01*
X-34355Y8970D01*
Y8981D01*
X-34344Y8993D01*
X-34332Y9028D01*
X-34309Y9074D01*
X-34252Y9189D01*
X-34182Y9327D01*
X-34079Y9477D01*
X-33975Y9639D01*
X-33836Y9800D01*
X-33698Y9939D01*
X-33675Y9950D01*
X-33629Y9996D01*
X-33537Y10054D01*
X-33433Y10135D01*
X-33295Y10215D01*
X-33133Y10296D01*
X-32960Y10365D01*
X-32764Y10434D01*
X-32753D01*
X-32741Y10446D01*
X-32672Y10457D01*
X-32568Y10480D01*
X-32430Y10515D01*
X-32268Y10538D01*
X-32084Y10561D01*
X-31888Y10573D01*
X-31680Y10584D01*
X-31577D01*
X-31473Y10573D01*
D02*
G37*
G36*
X-98958Y10965D02*
Y10953D01*
Y10907D01*
X-98970Y10815D01*
X-98981Y10700D01*
Y10619D01*
X-98993Y10526D01*
Y10423D01*
X-99004Y10319D01*
Y10192D01*
X-99016Y10054D01*
X-99027Y9892D01*
X-99039Y9731D01*
X-99027Y9742D01*
X-99016Y9765D01*
X-98981Y9812D01*
X-98946Y9858D01*
X-98854Y9962D01*
X-98773Y10054D01*
X-98750Y10077D01*
X-98704Y10111D01*
X-98624Y10181D01*
X-98531Y10238D01*
X-98520D01*
X-98508Y10250D01*
X-98451Y10296D01*
X-98370Y10342D01*
X-98278Y10388D01*
X-98266D01*
X-98255Y10400D01*
X-98185Y10423D01*
X-98093Y10457D01*
X-97966Y10492D01*
X-97955D01*
X-97932Y10503D01*
X-97897D01*
X-97851Y10515D01*
X-97736Y10538D01*
X-97586Y10561D01*
X-97574D01*
X-97551Y10573D01*
X-97505D01*
X-97448Y10584D01*
X-97309Y10596D01*
X-96986D01*
X-96883Y10584D01*
X-96756Y10573D01*
X-96617Y10550D01*
X-96318Y10492D01*
X-96294D01*
X-96248Y10469D01*
X-96179Y10446D01*
X-96075Y10411D01*
X-95972Y10365D01*
X-95856Y10307D01*
X-95741Y10238D01*
X-95637Y10158D01*
X-95626Y10146D01*
X-95591Y10111D01*
X-95545Y10065D01*
X-95476Y9996D01*
X-95418Y9915D01*
X-95349Y9823D01*
X-95291Y9731D01*
X-95245Y9616D01*
Y9604D01*
X-95234Y9569D01*
X-95211Y9512D01*
X-95188Y9431D01*
X-95176Y9339D01*
X-95153Y9224D01*
X-95142Y8981D01*
Y8970D01*
Y8958D01*
Y8924D01*
Y8889D01*
Y8762D01*
X-95153Y8613D01*
Y8601D01*
Y8578D01*
Y8520D01*
X-95165Y8463D01*
Y8382D01*
X-95176Y8290D01*
Y8174D01*
X-95188Y8059D01*
X-95303Y6364D01*
Y6353D01*
Y6306D01*
X-95315Y6249D01*
Y6180D01*
X-95326Y6007D01*
Y5834D01*
Y5822D01*
Y5799D01*
Y5753D01*
Y5695D01*
Y5615D01*
Y5522D01*
Y5430D01*
Y5315D01*
X-97413D01*
Y5327D01*
Y5350D01*
X-97401Y5384D01*
Y5430D01*
X-97390Y5499D01*
X-97378Y5569D01*
X-97367Y5753D01*
X-97344Y5984D01*
X-97321Y6249D01*
X-97286Y6537D01*
X-97263Y6848D01*
Y6860D01*
Y6883D01*
X-97251Y6929D01*
Y6987D01*
Y7068D01*
X-97240Y7148D01*
X-97228Y7344D01*
X-97217Y7552D01*
X-97205Y7771D01*
X-97194Y7978D01*
Y8151D01*
Y8174D01*
Y8232D01*
X-97205Y8313D01*
X-97217Y8416D01*
X-97240Y8520D01*
X-97286Y8624D01*
X-97332Y8728D01*
X-97401Y8809D01*
X-97413Y8820D01*
X-97436Y8843D01*
X-97482Y8866D01*
X-97540Y8912D01*
X-97609Y8947D01*
X-97701Y8970D01*
X-97805Y8993D01*
X-97920Y9005D01*
X-97966D01*
X-98024Y8993D01*
X-98093D01*
X-98266Y8947D01*
X-98358Y8924D01*
X-98451Y8878D01*
X-98462D01*
X-98485Y8855D01*
X-98520Y8832D01*
X-98566Y8797D01*
X-98681Y8693D01*
X-98796Y8555D01*
Y8543D01*
X-98820Y8520D01*
X-98843Y8474D01*
X-98877Y8416D01*
X-98912Y8347D01*
X-98946Y8244D01*
X-98981Y8140D01*
X-99016Y8013D01*
Y7990D01*
X-99027Y7932D01*
X-99050Y7840D01*
X-99073Y7702D01*
X-99096Y7517D01*
X-99131Y7298D01*
X-99154Y7045D01*
X-99177Y6756D01*
Y6733D01*
Y6664D01*
X-99189Y6560D01*
X-99200Y6399D01*
Y6306D01*
X-99212Y6203D01*
Y6087D01*
Y5949D01*
X-99223Y5811D01*
Y5661D01*
X-99235Y5488D01*
Y5315D01*
X-101264D01*
Y5327D01*
Y5350D01*
X-101252Y5384D01*
Y5442D01*
X-101241Y5499D01*
Y5580D01*
X-101218Y5753D01*
X-101195Y5938D01*
X-101183Y6145D01*
X-101160Y6353D01*
X-101149Y6537D01*
Y6549D01*
Y6583D01*
X-101137Y6641D01*
Y6722D01*
X-101126Y6814D01*
Y6929D01*
X-101114Y7068D01*
X-101102Y7217D01*
X-101091Y7379D01*
X-101079Y7563D01*
X-101068Y7748D01*
X-101056Y7955D01*
X-101045Y8174D01*
X-101033Y8405D01*
X-101010Y8889D01*
Y8901D01*
Y8924D01*
Y8981D01*
X-100999Y9039D01*
Y9120D01*
Y9212D01*
X-100987Y9316D01*
Y9431D01*
X-100976Y9696D01*
X-100964Y9985D01*
X-100953Y10284D01*
X-100941Y10596D01*
Y10607D01*
Y10630D01*
Y10676D01*
Y10734D01*
Y10815D01*
X-100930Y10896D01*
Y10999D01*
Y11103D01*
Y11345D01*
X-100918Y11610D01*
Y11899D01*
Y12187D01*
X-100549D01*
X-100376Y12175D01*
X-99212D01*
X-98843Y12187D01*
X-98958Y10965D01*
D02*
G37*
G36*
X-103858Y12302D02*
X-103754D01*
X-103628Y12291D01*
X-103501Y12279D01*
X-103351Y12268D01*
X-103040Y12233D01*
X-102694Y12187D01*
X-102325Y12118D01*
Y12106D01*
Y12060D01*
Y11991D01*
X-102313Y11899D01*
Y11806D01*
X-102302Y11691D01*
X-102290Y11472D01*
Y11461D01*
Y11414D01*
X-102279Y11345D01*
X-102267Y11241D01*
X-102255Y11103D01*
X-102233Y10930D01*
X-102209Y10723D01*
X-102186Y10469D01*
X-102209Y10480D01*
X-102267Y10503D01*
X-102359Y10526D01*
X-102475Y10573D01*
X-102601Y10607D01*
X-102740Y10653D01*
X-103040Y10723D01*
X-103051D01*
X-103097Y10734D01*
X-103178Y10746D01*
X-103259Y10769D01*
X-103362Y10780D01*
X-103478Y10792D01*
X-103697Y10803D01*
X-103766D01*
X-103835Y10792D01*
X-103927Y10780D01*
X-104031Y10769D01*
X-104135Y10746D01*
X-104250Y10700D01*
X-104354Y10653D01*
X-104366Y10642D01*
X-104389Y10630D01*
X-104435Y10596D01*
X-104481Y10550D01*
X-104527Y10503D01*
X-104573Y10434D01*
X-104596Y10365D01*
X-104608Y10284D01*
Y10273D01*
Y10227D01*
X-104596Y10158D01*
X-104573Y10088D01*
X-104561Y10077D01*
X-104539Y10031D01*
X-104492Y9962D01*
X-104423Y9869D01*
X-104400Y9846D01*
X-104342Y9789D01*
X-104250Y9696D01*
X-104135Y9581D01*
X-104123Y9569D01*
X-104100Y9558D01*
X-104054Y9523D01*
X-103997Y9466D01*
X-103916Y9408D01*
X-103812Y9327D01*
X-103697Y9235D01*
X-103558Y9131D01*
X-103190Y8843D01*
X-103178D01*
X-103166Y8820D01*
X-103132Y8797D01*
X-103086Y8751D01*
X-102970Y8659D01*
X-102844Y8520D01*
X-102832Y8509D01*
X-102809Y8486D01*
X-102774Y8451D01*
X-102728Y8405D01*
X-102624Y8290D01*
X-102521Y8151D01*
X-102509Y8140D01*
X-102498Y8117D01*
X-102475Y8094D01*
X-102440Y8048D01*
X-102371Y7944D01*
X-102313Y7829D01*
Y7817D01*
X-102302Y7805D01*
X-102279Y7736D01*
X-102244Y7632D01*
X-102209Y7517D01*
Y7506D01*
X-102198Y7494D01*
X-102186Y7425D01*
X-102175Y7321D01*
X-102163Y7194D01*
Y7171D01*
Y7114D01*
X-102175Y7033D01*
X-102186Y6918D01*
X-102221Y6791D01*
X-102255Y6641D01*
X-102313Y6491D01*
X-102382Y6330D01*
X-102394Y6306D01*
X-102417Y6260D01*
X-102475Y6191D01*
X-102544Y6099D01*
X-102636Y5984D01*
X-102740Y5880D01*
X-102867Y5765D01*
X-103005Y5661D01*
X-103028Y5649D01*
X-103074Y5615D01*
X-103155Y5569D01*
X-103259Y5511D01*
X-103385Y5453D01*
X-103535Y5396D01*
X-103708Y5338D01*
X-103881Y5292D01*
X-103904D01*
X-103962Y5280D01*
X-104054Y5257D01*
X-104181Y5246D01*
X-104331Y5223D01*
X-104504Y5200D01*
X-104688Y5188D01*
X-105034D01*
X-105103Y5200D01*
X-105207D01*
X-105311Y5211D01*
X-105438Y5223D01*
X-105588Y5234D01*
X-105738Y5246D01*
X-105911Y5269D01*
X-106095Y5292D01*
X-106280Y5315D01*
X-106487Y5350D01*
X-106937Y5430D01*
Y5442D01*
Y5476D01*
X-106948Y5534D01*
Y5603D01*
X-106960Y5695D01*
Y5799D01*
X-106971Y5926D01*
X-106983Y6053D01*
X-107006Y6318D01*
X-107029Y6606D01*
X-107052Y6895D01*
X-107087Y7148D01*
X-107075D01*
X-107064Y7137D01*
X-106994Y7102D01*
X-106879Y7068D01*
X-106752Y7010D01*
X-106591Y6952D01*
X-106429Y6895D01*
X-106256Y6837D01*
X-106084Y6791D01*
X-106060D01*
X-106014Y6779D01*
X-105922Y6768D01*
X-105818Y6745D01*
X-105703Y6733D01*
X-105576Y6710D01*
X-105311Y6699D01*
X-105242D01*
X-105161Y6710D01*
X-105057D01*
X-104942Y6722D01*
X-104827Y6745D01*
X-104711Y6779D01*
X-104608Y6814D01*
X-104596Y6825D01*
X-104561Y6837D01*
X-104527Y6871D01*
X-104469Y6906D01*
X-104423Y6964D01*
X-104389Y7033D01*
X-104354Y7102D01*
X-104342Y7194D01*
Y7206D01*
Y7241D01*
X-104354Y7298D01*
X-104377Y7356D01*
Y7367D01*
X-104400Y7413D01*
X-104423Y7459D01*
X-104469Y7529D01*
X-104481Y7552D01*
X-104515Y7598D01*
X-104585Y7667D01*
X-104677Y7748D01*
X-105622Y8566D01*
X-105634Y8578D01*
X-105680Y8613D01*
X-105738Y8670D01*
X-105807Y8728D01*
X-105957Y8866D01*
X-106026Y8924D01*
X-106084Y8981D01*
X-106095Y8993D01*
X-106130Y9028D01*
X-106176Y9074D01*
X-106245Y9131D01*
X-106383Y9293D01*
X-106453Y9374D01*
X-106510Y9454D01*
X-106522Y9466D01*
X-106533Y9489D01*
X-106556Y9535D01*
X-106591Y9593D01*
X-106660Y9742D01*
X-106729Y9904D01*
Y9915D01*
X-106741Y9950D01*
X-106752Y9996D01*
Y10054D01*
X-106764Y10123D01*
X-106775Y10204D01*
X-106787Y10388D01*
Y10400D01*
Y10446D01*
X-106775Y10503D01*
Y10584D01*
X-106764Y10676D01*
X-106741Y10769D01*
X-106683Y10988D01*
Y10999D01*
X-106660Y11034D01*
X-106637Y11091D01*
X-106602Y11172D01*
X-106556Y11253D01*
X-106499Y11345D01*
X-106360Y11541D01*
X-106349Y11553D01*
X-106326Y11587D01*
X-106268Y11633D01*
X-106210Y11691D01*
X-106118Y11760D01*
X-106026Y11829D01*
X-105911Y11910D01*
X-105784Y11979D01*
X-105772Y11991D01*
X-105726Y12014D01*
X-105645Y12049D01*
X-105553Y12083D01*
X-105438Y12129D01*
X-105311Y12175D01*
X-105173Y12210D01*
X-105023Y12245D01*
X-105000D01*
X-104954Y12256D01*
X-104873Y12268D01*
X-104757Y12279D01*
X-104631Y12291D01*
X-104492Y12302D01*
X-104181Y12314D01*
X-103951D01*
X-103858Y12302D01*
D02*
G37*
G36*
X-57127Y9143D02*
X-57139Y9120D01*
X-57185Y9062D01*
X-57254Y8970D01*
X-57346Y8855D01*
X-57462Y8705D01*
X-57588Y8543D01*
X-57715Y8370D01*
X-57854Y8174D01*
Y8163D01*
X-57830Y8140D01*
X-57807Y8105D01*
X-57773Y8036D01*
X-57727Y7955D01*
X-57669Y7852D01*
X-57600Y7725D01*
X-57508Y7575D01*
X-57404Y7402D01*
X-57277Y7194D01*
X-57139Y6964D01*
X-56977Y6699D01*
X-56804Y6399D01*
X-56608Y6076D01*
X-56389Y5707D01*
X-56147Y5315D01*
X-58326D01*
X-58637Y5938D01*
X-58649Y5949D01*
X-58661Y5995D01*
X-58695Y6053D01*
X-58730Y6134D01*
X-58822Y6306D01*
X-58926Y6491D01*
Y6503D01*
X-58937Y6526D01*
X-58972Y6583D01*
X-58995Y6618D01*
X-59030Y6675D01*
X-59064Y6745D01*
X-59110Y6825D01*
X-59168Y6929D01*
X-59237Y7045D01*
X-59318Y7183D01*
X-59399Y7344D01*
X-59502Y7517D01*
X-59618Y7725D01*
X-59860Y8197D01*
X-58995Y9443D01*
X-58349Y10457D01*
X-57957D01*
X-57784Y10446D01*
X-56597D01*
X-56366Y10457D01*
X-56124D01*
X-57127Y9143D01*
D02*
G37*
G36*
X-59744Y12175D02*
Y12129D01*
X-59756Y12049D01*
X-59768Y11945D01*
X-59779Y11818D01*
X-59790Y11668D01*
X-59802Y11484D01*
X-59814Y11276D01*
X-59837Y11057D01*
X-59848Y10803D01*
X-59871Y10526D01*
X-59894Y10238D01*
X-59906Y9927D01*
X-59929Y9604D01*
X-59940Y9258D01*
X-59964Y8901D01*
Y8878D01*
Y8809D01*
X-59975Y8705D01*
Y8566D01*
X-59987Y8394D01*
Y8197D01*
X-59998Y7967D01*
X-60010Y7713D01*
X-60021Y7448D01*
Y7160D01*
X-60033Y6871D01*
X-60044Y6560D01*
X-60056Y5938D01*
Y5315D01*
X-62073D01*
Y5327D01*
Y5338D01*
X-62062Y5373D01*
Y5419D01*
X-62050Y5534D01*
X-62039Y5684D01*
X-62016Y5845D01*
X-62004Y6018D01*
X-61993Y6191D01*
X-61981Y6353D01*
Y6364D01*
Y6376D01*
Y6410D01*
X-61970Y6456D01*
Y6572D01*
X-61958Y6733D01*
X-61947Y6929D01*
X-61924Y7171D01*
X-61912Y7436D01*
X-61901Y7736D01*
X-61843Y8924D01*
Y8935D01*
Y8958D01*
Y9005D01*
X-61831Y9062D01*
Y9131D01*
Y9224D01*
X-61820Y9420D01*
X-61808Y9662D01*
Y9915D01*
X-61797Y10192D01*
X-61785Y10469D01*
Y10480D01*
Y10503D01*
Y10561D01*
Y10619D01*
Y10700D01*
Y10792D01*
Y10896D01*
X-61774Y11022D01*
Y11276D01*
Y11564D01*
Y11875D01*
Y12187D01*
X-61382D01*
X-61209Y12175D01*
X-60136D01*
X-59952Y12187D01*
X-59744D01*
Y12175D01*
D02*
G37*
G36*
X-74710Y10561D02*
X-74549Y10538D01*
Y10526D01*
Y10515D01*
Y10446D01*
Y10342D01*
Y10215D01*
X-74537Y10077D01*
Y9915D01*
Y9765D01*
X-74526Y9627D01*
X-74491Y8855D01*
X-74503D01*
X-74537Y8866D01*
X-74595Y8878D01*
X-74664Y8901D01*
X-74826Y8924D01*
X-75010Y8935D01*
X-75125D01*
X-75195Y8924D01*
X-75368Y8901D01*
X-75541Y8843D01*
X-75552D01*
X-75575Y8832D01*
X-75610Y8809D01*
X-75667Y8774D01*
X-75783Y8693D01*
X-75921Y8566D01*
X-75933Y8555D01*
X-75944Y8532D01*
X-75979Y8497D01*
X-76025Y8451D01*
X-76059Y8382D01*
X-76105Y8313D01*
X-76198Y8128D01*
Y8117D01*
X-76209Y8082D01*
X-76232Y8013D01*
X-76244Y7921D01*
X-76267Y7805D01*
X-76290Y7655D01*
X-76313Y7483D01*
X-76336Y7275D01*
Y7264D01*
Y7252D01*
Y7217D01*
Y7171D01*
X-76348Y7056D01*
Y6895D01*
X-76359Y6699D01*
Y6480D01*
X-76371Y6226D01*
Y5961D01*
Y5949D01*
Y5914D01*
Y5857D01*
Y5776D01*
X-76359Y5684D01*
Y5580D01*
Y5453D01*
X-76348Y5315D01*
X-78377D01*
X-78227Y7540D01*
X-78169Y8832D01*
Y8843D01*
Y8889D01*
Y8958D01*
Y9051D01*
Y9154D01*
Y9270D01*
Y9535D01*
Y9558D01*
Y9604D01*
Y9685D01*
Y9789D01*
Y9927D01*
Y10077D01*
X-78181Y10261D01*
Y10457D01*
X-77835D01*
X-77674Y10446D01*
X-76624D01*
X-76440Y10457D01*
X-76244D01*
X-76267Y9881D01*
X-76255Y9892D01*
X-76232Y9915D01*
X-76198Y9962D01*
X-76152Y10008D01*
X-76048Y10111D01*
X-75956Y10204D01*
X-75944D01*
X-75933Y10227D01*
X-75875Y10273D01*
X-75783Y10330D01*
X-75667Y10400D01*
X-75656D01*
X-75644Y10411D01*
X-75610Y10434D01*
X-75564Y10457D01*
X-75460Y10492D01*
X-75333Y10538D01*
X-75322D01*
X-75298Y10550D01*
X-75264D01*
X-75218Y10561D01*
X-75091Y10573D01*
X-74953Y10584D01*
X-74837D01*
X-74710Y10561D01*
D02*
G37*
G36*
X-41331D02*
X-41170Y10538D01*
Y10526D01*
Y10515D01*
Y10446D01*
Y10342D01*
Y10215D01*
X-41158Y10077D01*
Y9915D01*
Y9765D01*
X-41146Y9627D01*
X-41112Y8855D01*
X-41124D01*
X-41158Y8866D01*
X-41216Y8878D01*
X-41285Y8901D01*
X-41446Y8924D01*
X-41631Y8935D01*
X-41746D01*
X-41815Y8924D01*
X-41988Y8901D01*
X-42161Y8843D01*
X-42173D01*
X-42196Y8832D01*
X-42230Y8809D01*
X-42288Y8774D01*
X-42403Y8693D01*
X-42542Y8566D01*
X-42553Y8555D01*
X-42565Y8532D01*
X-42599Y8497D01*
X-42645Y8451D01*
X-42680Y8382D01*
X-42726Y8313D01*
X-42818Y8128D01*
Y8117D01*
X-42830Y8082D01*
X-42853Y8013D01*
X-42865Y7921D01*
X-42888Y7805D01*
X-42911Y7655D01*
X-42934Y7483D01*
X-42957Y7275D01*
Y7264D01*
Y7252D01*
Y7217D01*
Y7171D01*
X-42968Y7056D01*
Y6895D01*
X-42980Y6699D01*
Y6480D01*
X-42991Y6226D01*
Y5961D01*
Y5949D01*
Y5914D01*
Y5857D01*
Y5776D01*
X-42980Y5684D01*
Y5580D01*
Y5453D01*
X-42968Y5315D01*
X-44998D01*
X-44848Y7540D01*
X-44790Y8832D01*
Y8843D01*
Y8889D01*
Y8958D01*
Y9051D01*
Y9154D01*
Y9270D01*
Y9535D01*
Y9558D01*
Y9604D01*
Y9685D01*
Y9789D01*
Y9927D01*
Y10077D01*
X-44802Y10261D01*
Y10457D01*
X-44456D01*
X-44294Y10446D01*
X-43245D01*
X-43060Y10457D01*
X-42865D01*
X-42888Y9881D01*
X-42876Y9892D01*
X-42853Y9915D01*
X-42818Y9962D01*
X-42772Y10008D01*
X-42669Y10111D01*
X-42576Y10204D01*
X-42565D01*
X-42553Y10227D01*
X-42496Y10273D01*
X-42403Y10330D01*
X-42288Y10400D01*
X-42276D01*
X-42265Y10411D01*
X-42230Y10434D01*
X-42184Y10457D01*
X-42081Y10492D01*
X-41954Y10538D01*
X-41942D01*
X-41919Y10550D01*
X-41884D01*
X-41838Y10561D01*
X-41712Y10573D01*
X-41573Y10584D01*
X-41458D01*
X-41331Y10561D01*
D02*
G37*
G36*
X-48387Y12302D02*
X-48272D01*
X-48134Y12291D01*
X-47972Y12279D01*
X-47799Y12268D01*
X-47603Y12245D01*
X-47407Y12233D01*
X-47188Y12198D01*
X-46739Y12141D01*
X-46243Y12049D01*
Y12037D01*
Y12014D01*
Y11979D01*
Y11922D01*
Y11852D01*
Y11772D01*
X-46231Y11680D01*
Y11564D01*
Y11322D01*
X-46208Y11057D01*
X-46197Y10746D01*
X-46174Y10423D01*
X-46185D01*
X-46231Y10446D01*
X-46301Y10457D01*
X-46381Y10492D01*
X-46577Y10550D01*
X-46681Y10573D01*
X-46773Y10596D01*
X-46785D01*
X-46808Y10607D01*
X-46854Y10619D01*
X-46923Y10642D01*
X-46992Y10653D01*
X-47085Y10676D01*
X-47292Y10711D01*
X-47304D01*
X-47338Y10723D01*
X-47396Y10734D01*
X-47477Y10746D01*
X-47557Y10757D01*
X-47661Y10769D01*
X-47857Y10792D01*
X-47868D01*
X-47903Y10803D01*
X-47949D01*
X-48018Y10815D01*
X-48168Y10826D01*
X-48434D01*
X-48537Y10815D01*
X-48676Y10803D01*
X-48837Y10792D01*
X-49022Y10757D01*
X-49206Y10723D01*
X-49391Y10665D01*
X-49413Y10653D01*
X-49471Y10630D01*
X-49563Y10596D01*
X-49679Y10538D01*
X-49806Y10469D01*
X-49944Y10388D01*
X-50094Y10284D01*
X-50232Y10169D01*
X-50244Y10158D01*
X-50290Y10111D01*
X-50359Y10042D01*
X-50428Y9950D01*
X-50520Y9835D01*
X-50601Y9708D01*
X-50693Y9546D01*
X-50763Y9385D01*
X-50774Y9362D01*
X-50786Y9304D01*
X-50820Y9212D01*
X-50843Y9097D01*
X-50878Y8947D01*
X-50912Y8785D01*
X-50924Y8601D01*
X-50936Y8416D01*
Y8394D01*
Y8324D01*
X-50924Y8232D01*
X-50912Y8105D01*
X-50889Y7967D01*
X-50855Y7805D01*
X-50809Y7655D01*
X-50740Y7494D01*
X-50728Y7471D01*
X-50705Y7425D01*
X-50659Y7356D01*
X-50590Y7264D01*
X-50497Y7171D01*
X-50394Y7068D01*
X-50255Y6964D01*
X-50105Y6883D01*
X-50082Y6871D01*
X-50025Y6848D01*
X-49932Y6814D01*
X-49817Y6779D01*
X-49667Y6745D01*
X-49506Y6710D01*
X-49321Y6687D01*
X-49125Y6675D01*
X-49045D01*
X-48952Y6687D01*
X-48837D01*
X-48687Y6710D01*
X-48514Y6733D01*
X-48330Y6756D01*
X-48134Y6802D01*
X-48088Y7898D01*
X-48191D01*
X-48261Y7909D01*
X-48468D01*
X-48998Y7898D01*
X-48964Y8520D01*
Y8543D01*
Y8590D01*
Y8682D01*
X-48952Y8797D01*
Y8809D01*
Y8832D01*
Y8878D01*
X-48941Y8935D01*
Y9016D01*
Y9108D01*
Y9212D01*
Y9327D01*
X-48514D01*
X-48318Y9316D01*
X-46473D01*
X-46197Y9327D01*
X-45955D01*
Y9316D01*
Y9293D01*
X-45966Y9258D01*
Y9201D01*
X-45978Y9131D01*
Y9039D01*
X-45989Y8935D01*
X-46001Y8820D01*
X-46012Y8693D01*
X-46024Y8543D01*
X-46035Y8382D01*
X-46047Y8209D01*
X-46058Y8025D01*
X-46070Y7817D01*
X-46081Y7598D01*
X-46093Y7367D01*
Y7356D01*
Y7310D01*
X-46104Y7252D01*
Y7160D01*
Y7056D01*
X-46116Y6929D01*
Y6802D01*
X-46128Y6652D01*
X-46139Y6341D01*
X-46151Y6030D01*
X-46162Y5730D01*
X-46174Y5592D01*
Y5465D01*
X-46197D01*
X-46266Y5442D01*
X-46381Y5430D01*
X-46508Y5407D01*
X-46658Y5373D01*
X-46819Y5350D01*
X-46981Y5327D01*
X-47131Y5315D01*
X-47142D01*
X-47200Y5303D01*
X-47280D01*
X-47384Y5292D01*
X-47523Y5280D01*
X-47684Y5257D01*
X-47857Y5246D01*
X-48053Y5234D01*
X-48076D01*
X-48145Y5223D01*
X-48237D01*
X-48364Y5211D01*
X-48514Y5200D01*
X-48676D01*
X-48998Y5188D01*
X-49183D01*
X-49252Y5200D01*
X-49425D01*
X-49633Y5211D01*
X-49863Y5234D01*
X-50105Y5269D01*
X-50348Y5303D01*
X-50382D01*
X-50417Y5315D01*
X-50463Y5327D01*
X-50578Y5350D01*
X-50740Y5384D01*
X-50924Y5430D01*
X-51120Y5488D01*
X-51328Y5569D01*
X-51524Y5649D01*
X-51547Y5661D01*
X-51604Y5695D01*
X-51708Y5753D01*
X-51823Y5822D01*
X-51962Y5914D01*
X-52112Y6030D01*
X-52262Y6168D01*
X-52400Y6318D01*
X-52411Y6341D01*
X-52457Y6399D01*
X-52515Y6480D01*
X-52596Y6606D01*
X-52676Y6756D01*
X-52769Y6918D01*
X-52850Y7114D01*
X-52930Y7321D01*
Y7333D01*
X-52942Y7344D01*
Y7379D01*
X-52953Y7425D01*
X-52988Y7540D01*
X-53022Y7690D01*
X-53057Y7863D01*
X-53080Y8071D01*
X-53103Y8290D01*
X-53115Y8520D01*
Y8532D01*
Y8566D01*
Y8624D01*
X-53103Y8693D01*
Y8785D01*
X-53092Y8889D01*
X-53069Y9005D01*
X-53045Y9143D01*
X-52988Y9431D01*
X-52896Y9742D01*
X-52769Y10077D01*
X-52700Y10250D01*
X-52607Y10411D01*
X-52596Y10423D01*
X-52584Y10446D01*
X-52550Y10492D01*
X-52515Y10561D01*
X-52457Y10630D01*
X-52400Y10711D01*
X-52238Y10919D01*
X-52031Y11138D01*
X-51777Y11368D01*
X-51489Y11587D01*
X-51155Y11795D01*
X-51143Y11806D01*
X-51108Y11818D01*
X-51051Y11841D01*
X-50982Y11875D01*
X-50889Y11910D01*
X-50774Y11956D01*
X-50636Y12002D01*
X-50486Y12060D01*
X-50313Y12106D01*
X-50128Y12152D01*
X-49932Y12198D01*
X-49713Y12233D01*
X-49471Y12268D01*
X-49229Y12291D01*
X-48964Y12314D01*
X-48491D01*
X-48387Y12302D01*
D02*
G37*
%LPC*%
G36*
X-31669Y9408D02*
X-31692D01*
X-31761Y9397D01*
X-31853Y9385D01*
X-31969Y9351D01*
X-31980D01*
X-31992Y9339D01*
X-32049Y9316D01*
X-32130Y9270D01*
X-32222Y9212D01*
X-32234Y9201D01*
X-32280Y9154D01*
X-32349Y9085D01*
X-32407Y8993D01*
X-32418Y8970D01*
X-32441Y8924D01*
X-32487Y8843D01*
X-32522Y8762D01*
Y8739D01*
X-32545Y8682D01*
X-32568Y8590D01*
X-32591Y8463D01*
X-30919D01*
Y8474D01*
Y8509D01*
Y8601D01*
Y8613D01*
Y8647D01*
Y8693D01*
X-30931Y8762D01*
X-30954Y8901D01*
X-31012Y9051D01*
Y9062D01*
X-31023Y9085D01*
X-31081Y9154D01*
X-31162Y9235D01*
X-31277Y9316D01*
X-31288D01*
X-31312Y9327D01*
X-31346Y9351D01*
X-31392Y9362D01*
X-31519Y9397D01*
X-31669Y9408D01*
D02*
G37*
G36*
X-37768D02*
X-37791D01*
X-37861Y9397D01*
X-37953Y9385D01*
X-38068Y9351D01*
X-38080D01*
X-38091Y9339D01*
X-38149Y9316D01*
X-38230Y9270D01*
X-38322Y9212D01*
X-38333Y9201D01*
X-38379Y9154D01*
X-38449Y9085D01*
X-38506Y8993D01*
X-38518Y8970D01*
X-38541Y8924D01*
X-38587Y8843D01*
X-38622Y8762D01*
Y8739D01*
X-38644Y8682D01*
X-38668Y8590D01*
X-38691Y8463D01*
X-37019D01*
Y8474D01*
Y8509D01*
Y8601D01*
Y8613D01*
Y8647D01*
Y8693D01*
X-37030Y8762D01*
X-37053Y8901D01*
X-37111Y9051D01*
Y9062D01*
X-37123Y9085D01*
X-37180Y9154D01*
X-37261Y9235D01*
X-37376Y9316D01*
X-37388D01*
X-37411Y9327D01*
X-37445Y9351D01*
X-37492Y9362D01*
X-37618Y9397D01*
X-37768Y9408D01*
D02*
G37*
G36*
X-70986Y9108D02*
X-71044D01*
X-71101Y9097D01*
X-71182Y9085D01*
X-71263Y9062D01*
X-71367Y9039D01*
X-71470Y8993D01*
X-71563Y8935D01*
X-71574Y8924D01*
X-71609Y8901D01*
X-71655Y8866D01*
X-71701Y8820D01*
X-71770Y8751D01*
X-71828Y8659D01*
X-71886Y8566D01*
X-71943Y8451D01*
Y8440D01*
X-71966Y8394D01*
X-71978Y8324D01*
X-72001Y8244D01*
X-72024Y8140D01*
X-72047Y8025D01*
X-72058Y7898D01*
X-72070Y7759D01*
Y7748D01*
Y7736D01*
Y7667D01*
X-72058Y7563D01*
X-72035Y7448D01*
X-72001Y7310D01*
X-71955Y7171D01*
X-71886Y7033D01*
X-71793Y6906D01*
X-71782Y6895D01*
X-71747Y6860D01*
X-71678Y6814D01*
X-71597Y6768D01*
X-71505Y6710D01*
X-71390Y6664D01*
X-71251Y6629D01*
X-71101Y6618D01*
X-71044D01*
X-70986Y6629D01*
X-70917Y6641D01*
X-70825Y6652D01*
X-70732Y6687D01*
X-70629Y6722D01*
X-70537Y6779D01*
X-70525Y6791D01*
X-70490Y6814D01*
X-70444Y6848D01*
X-70398Y6906D01*
X-70329Y6975D01*
X-70271Y7068D01*
X-70214Y7160D01*
X-70156Y7275D01*
X-70144Y7287D01*
X-70133Y7333D01*
X-70110Y7402D01*
X-70087Y7494D01*
X-70064Y7598D01*
X-70041Y7713D01*
X-70018Y7852D01*
Y7990D01*
Y8001D01*
Y8048D01*
Y8105D01*
X-70029Y8174D01*
X-70064Y8359D01*
X-70121Y8543D01*
Y8555D01*
X-70144Y8590D01*
X-70168Y8636D01*
X-70202Y8693D01*
X-70306Y8820D01*
X-70375Y8889D01*
X-70456Y8947D01*
X-70467Y8958D01*
X-70490Y8970D01*
X-70548Y8993D01*
X-70606Y9028D01*
X-70686Y9062D01*
X-70779Y9085D01*
X-70882Y9097D01*
X-70986Y9108D01*
D02*
G37*
%LPD*%
D10*
X-77658Y256594D02*
D03*
X-68209D02*
D03*
X-72933D02*
D03*
D11*
X-168110Y55512D02*
D03*
X-174016D02*
D03*
X-173622Y69882D02*
D03*
X-167717D02*
D03*
X-5118Y276772D02*
D03*
X-11024D02*
D03*
D12*
X-152165Y42421D02*
D03*
X-169882D02*
D03*
D13*
X-152165Y8366D02*
D03*
X-169882D02*
D03*
D14*
X-74803Y78248D02*
D03*
X-79921D02*
D03*
X-125787Y77067D02*
D03*
X-130905D02*
D03*
X-119587Y119390D02*
D03*
X-124705D02*
D03*
D15*
X-140453Y18602D02*
D03*
Y11909D02*
D03*
X-102559Y82972D02*
D03*
Y76279D02*
D03*
X-95079Y88583D02*
D03*
Y95276D02*
D03*
X-88878Y95374D02*
D03*
Y88681D02*
D03*
X-82382Y308465D02*
D03*
Y315158D02*
D03*
D16*
X-131004Y9016D02*
D03*
Y19331D02*
D03*
X-139961Y41673D02*
D03*
Y31358D02*
D03*
X-130709Y41673D02*
D03*
Y31358D02*
D03*
D17*
X-173327Y62598D02*
D03*
X-166634D02*
D03*
X-174705Y78248D02*
D03*
X-168012D02*
D03*
X-96260Y76279D02*
D03*
X-89567D02*
D03*
X-89567Y82087D02*
D03*
X-96260D02*
D03*
X-74114Y94095D02*
D03*
X-80807D02*
D03*
X-80905Y87894D02*
D03*
X-74213D02*
D03*
X-7677Y330512D02*
D03*
X-14370D02*
D03*
X-28445D02*
D03*
X-21752D02*
D03*
X-19783Y276969D02*
D03*
X-26476D02*
D03*
D18*
X-157953Y60728D02*
D03*
X-131614D02*
D03*
D19*
X-149705Y79232D02*
D03*
X-138681D02*
D03*
D20*
X-99008Y61693D02*
D03*
X-110819D02*
D03*
X-56685D02*
D03*
X-68496D02*
D03*
X-14658Y61594D02*
D03*
X-26469D02*
D03*
X-61032Y275709D02*
D03*
X-49220D02*
D03*
D21*
X-110925Y85532D02*
D03*
Y79232D02*
D03*
X-124114Y104331D02*
D03*
Y110630D02*
D03*
X-4921Y116339D02*
D03*
Y122638D02*
D03*
D22*
X-52716Y86910D02*
D03*
X-63032D02*
D03*
X-52716Y77559D02*
D03*
X-63032D02*
D03*
D23*
X-165256Y99803D02*
D03*
X-164469Y129429D02*
D03*
D24*
X-140650Y108780D02*
D03*
Y90827D02*
D03*
X-139862Y138406D02*
D03*
Y120453D02*
D03*
D25*
X-130610Y103445D02*
D03*
Y112697D02*
D03*
D26*
X-107087Y105709D02*
D03*
D27*
X-113976Y102756D02*
D03*
Y104724D02*
D03*
Y106693D02*
D03*
Y108661D02*
D03*
X-100197D02*
D03*
Y106693D02*
D03*
Y104724D02*
D03*
Y102756D02*
D03*
D28*
X-110039Y112598D02*
D03*
X-108071D02*
D03*
X-106102D02*
D03*
X-104134D02*
D03*
Y98819D02*
D03*
X-106102D02*
D03*
X-108071D02*
D03*
X-110039D02*
D03*
D29*
X-60335Y112008D02*
D03*
X-82185D02*
D03*
D30*
X-83169Y123917D02*
D03*
X-76870D02*
D03*
X-63681D02*
D03*
X-69980D02*
D03*
X-49409Y191732D02*
D03*
X-43110D02*
D03*
D31*
X-18504Y120866D02*
D03*
X-36614D02*
D03*
X-18504Y75984D02*
D03*
X-36614D02*
D03*
D32*
X-48031Y102677D02*
D03*
X-7087Y94173D02*
D03*
D33*
X-92146Y138189D02*
D03*
X-113957D02*
D03*
D34*
X-68209Y150394D02*
D03*
D35*
X-30610Y160394D02*
D03*
Y150394D02*
D03*
Y140394D02*
D03*
D36*
X-10827Y159744D02*
D03*
Y134547D02*
D03*
D37*
X-33563Y182480D02*
D03*
X-8366D02*
D03*
D38*
X-46850Y236910D02*
D03*
Y233760D02*
D03*
Y230610D02*
D03*
Y227461D02*
D03*
Y224311D02*
D03*
Y221161D02*
D03*
Y218012D02*
D03*
Y214862D02*
D03*
X-79921D02*
D03*
Y218012D02*
D03*
Y221161D02*
D03*
Y224311D02*
D03*
Y227461D02*
D03*
Y230610D02*
D03*
Y233760D02*
D03*
Y236910D02*
D03*
D39*
X-52362Y209350D02*
D03*
X-55512D02*
D03*
X-58661D02*
D03*
X-61811D02*
D03*
X-64961D02*
D03*
X-68110D02*
D03*
X-71260D02*
D03*
X-74410D02*
D03*
Y242421D02*
D03*
X-71260D02*
D03*
X-68110D02*
D03*
X-64961D02*
D03*
X-61811D02*
D03*
X-58661D02*
D03*
X-55512D02*
D03*
X-52362D02*
D03*
D40*
X-82579Y323425D02*
D03*
Y329331D02*
D03*
D41*
X-16732Y298031D02*
D03*
D42*
X-25709Y322638D02*
D03*
X-7756D02*
D03*
D43*
X-72933Y249410D02*
Y256594D01*
X-74410Y242421D02*
Y246358D01*
X-77658Y249606D02*
X-74410Y246358D01*
X-77658Y249606D02*
Y256594D01*
X-71260Y242421D02*
Y245965D01*
X-68209Y249016D01*
Y256594D01*
X-71260Y189370D02*
Y209350D01*
X-64961Y189370D02*
Y209350D01*
X-61811Y201476D02*
Y209350D01*
X-4921Y122638D02*
X-2756Y124803D01*
Y140847D01*
X-13681Y151772D02*
X-2756Y140847D01*
X-18799Y151772D02*
X-13681D01*
X-52362Y202165D02*
Y209350D01*
X-55512Y205020D02*
Y209350D01*
X-56890Y203642D02*
X-55512Y205020D01*
X-56890Y198622D02*
Y203642D01*
X-64961Y209350D02*
Y229724D01*
X-68110Y232874D02*
X-64961Y229724D01*
X-68110Y232874D02*
Y242421D01*
X-61811Y232874D02*
Y242421D01*
X-64961Y229724D02*
X-61811Y232874D01*
X-84252Y315158D02*
X-82382D01*
X-87894Y318799D02*
X-84252Y315158D01*
X-15256Y266634D02*
X-5118Y276772D01*
X-19783Y276969D02*
X-11220D01*
X-32677D02*
X-26476D01*
X-46850Y236910D02*
Y245472D01*
X-25689Y266634D01*
X-15256D01*
X-64961Y242421D02*
Y245472D01*
X-57087Y253346D02*
Y254232D01*
X-58661Y242421D02*
Y245177D01*
X-61959Y248474D02*
X-58661Y245177D01*
X-64961Y245472D02*
X-61959Y248474D01*
X-57087Y253346D01*
X-57579Y254724D02*
Y265059D01*
D44*
X-41339Y322638D02*
X-25709D01*
X-139862Y60728D02*
X-131614D01*
X-149705Y70571D02*
X-139862Y60728D01*
X-149705Y70571D02*
Y79232D01*
X-165256Y94784D02*
X-149705Y79232D01*
X-119193Y138189D02*
X-113957D01*
X-52716Y77559D02*
X-51142Y75984D01*
X-36614D01*
X-52716Y77559D02*
Y86910D01*
Y91299D01*
X-36614Y75984D02*
X-25984Y86614D01*
X-12598D01*
X-6693Y80709D01*
Y69559D02*
Y80709D01*
X-14658Y61594D02*
X-6693Y69559D01*
X-60827Y99409D02*
X-52716Y91299D01*
X-60827Y99409D02*
Y107972D01*
X-92146Y123917D02*
Y138189D01*
Y123150D02*
X-83071Y114075D01*
X-139862Y138406D02*
X-132658Y131201D01*
X-131890D01*
X-125787D01*
X-36614Y120866D02*
X-18504D01*
Y128740D01*
X-29478Y139715D02*
X-18504Y128740D01*
X-12697Y134547D02*
X-10827D01*
X-18504Y128740D02*
X-12697Y134547D01*
X-164469Y129429D02*
X-146555Y147343D01*
X-128347D01*
X-119193Y138189D01*
D45*
X-28445Y325374D02*
X-25709Y322638D01*
X-28445Y325374D02*
Y330512D01*
X-139961Y31358D02*
X-130709D01*
Y19626D02*
Y31358D01*
X-140453Y11909D02*
X-137559Y9016D01*
X-131004D01*
X-130709Y41673D02*
Y59823D01*
X-139961Y41673D02*
X-130709D01*
D46*
X-27165Y308465D02*
X-16732Y298031D01*
X-45669Y308465D02*
X-27165D01*
X-59811Y294323D02*
X-45669Y308465D01*
X-59811Y293216D02*
Y294323D01*
X-61032Y291996D02*
X-59811Y293216D01*
X-61032Y275709D02*
Y291996D01*
X-39764Y266240D02*
Y266319D01*
X-39843D02*
Y275709D01*
X-49220D02*
X-39843D01*
X-56587Y61594D02*
X-26469D01*
X-99008Y61693D02*
X-68496D01*
X-169882Y8366D02*
X-152165D01*
Y18209D01*
X-115039Y61693D02*
X-111713D01*
X-51673Y112008D02*
X-50591Y113091D01*
X-60335Y112008D02*
X-51673D01*
X-68209Y150394D02*
X-61811Y156791D01*
Y177953D01*
D47*
X-157953Y42835D02*
Y60728D01*
X-169468Y42835D02*
X-157953D01*
Y42421D02*
X-152165D01*
D48*
X-176870Y69784D02*
X-175787D01*
X-113681Y98622D02*
X-110925D01*
X-133071Y79232D02*
X-130905Y77067D01*
X-133071Y79232D02*
X-113681Y98622D01*
X-152165Y30315D02*
X-140453Y18602D01*
X-152165Y30315D02*
Y42421D01*
X-137795Y199311D02*
X-77264D01*
X-168110Y152067D02*
X-166634Y150591D01*
X-168110Y152067D02*
Y168996D01*
X-137795Y199311D01*
X-153937Y150591D02*
X-146653Y157874D01*
X-166634Y150591D02*
X-153937D01*
X-168110Y44193D02*
Y55512D01*
X-169468Y42835D02*
X-168110Y44193D01*
X-173327Y56201D02*
Y62598D01*
X-174705Y76870D02*
Y78248D01*
Y76870D02*
X-167717Y69882D01*
X-175689D02*
X-173622D01*
X-177657Y50197D02*
X-170079Y42618D01*
X-177657Y50197D02*
Y68996D01*
X-176870Y69784D01*
D49*
X-161299Y129429D02*
X-140650Y108780D01*
X-110819Y51370D02*
Y61693D01*
Y51370D02*
X-104528Y45079D01*
Y34843D02*
Y45079D01*
X-120039Y19331D02*
X-104528Y34843D01*
X-131004Y19331D02*
X-120039D01*
X-97146Y189272D02*
X-64961D01*
X-116929Y157874D02*
Y169488D01*
X-64961Y189370D02*
X-59587D01*
X-116929Y169488D02*
X-97342Y189075D01*
X-97146Y189272D01*
X-30610Y160394D02*
X-8524Y182480D01*
X-59587Y189370D02*
X-56713Y186496D01*
X-30610Y160394D01*
X-139370Y189075D02*
X-97342D01*
X-160236Y168209D02*
X-139370Y189075D01*
X-160236Y158071D02*
Y168209D01*
D50*
X-138681Y79232D02*
X-133071D01*
X-119587Y119390D02*
Y125000D01*
X-125787Y131201D02*
X-119587Y125000D01*
Y119390D02*
X-111614D01*
X-109744Y117520D01*
X-7028Y209508D02*
Y215433D01*
X-33563Y182972D02*
X-7028Y209508D01*
X-33563Y182480D02*
Y182972D01*
D51*
X-115453Y90059D02*
X-114370Y91142D01*
X-115453Y74803D02*
Y90059D01*
X-82972Y79232D02*
X-79626D01*
X-84744Y77461D02*
X-82972Y79232D01*
X-84744Y73327D02*
Y77461D01*
X-101673Y76279D02*
X-96260D01*
X-96260Y76279D02*
Y82087D01*
X-99882Y123150D02*
X-92146D01*
X-106102Y116929D02*
X-99882Y123150D01*
X-106102Y116043D02*
Y116929D01*
X-84744Y77461D02*
Y78118D01*
X-88712Y82087D02*
X-84744Y78118D01*
X-89567Y82087D02*
X-88712D01*
X-95079Y87598D02*
X-89567Y82087D01*
X-115453Y74803D02*
X-110531Y69882D01*
X-88189D01*
X-84744Y73327D01*
X-88878Y88681D02*
X-83661Y83465D01*
X-75394D01*
X-74213Y84646D02*
Y87894D01*
X-66476Y81004D02*
Y83465D01*
Y81004D02*
X-63032Y77559D01*
X-74902Y79626D02*
Y83465D01*
Y83957D01*
X-75394Y83465D02*
X-74902Y83957D01*
X-74213Y84646D01*
X-75394Y83465D02*
X-74902D01*
X-69193D02*
Y87894D01*
Y83465D02*
X-66476D01*
X-74213Y87894D02*
X-69193D01*
X-64016D01*
X-66476Y83465D02*
X-63032Y86910D01*
X-74114Y94095D02*
X-66142D01*
X-60827Y99409D01*
Y108563D02*
Y110630D01*
X-69980Y118701D02*
Y123917D01*
X-74606Y114075D02*
X-69980Y118701D01*
X-83071Y114075D02*
X-74606D01*
X-91378Y123917D02*
X-83169D01*
X-99410Y92913D02*
Y98130D01*
Y92913D02*
X-95079Y88583D01*
X-99410Y98130D02*
X-95866Y101673D01*
Y103248D01*
X-18504Y120866D02*
X-12894D01*
X-8366Y116339D01*
X-4921D01*
X-46850Y227461D02*
X-36713D01*
X-24685Y215433D01*
X-17028D01*
X-34252Y230610D02*
X-6102Y258760D01*
X-46850Y230610D02*
X-34252D01*
X-16102Y254764D02*
Y258760D01*
X-37106Y233760D02*
X-16102Y254764D01*
X-46850Y233760D02*
X-37106D01*
X-87697Y218012D02*
X-79921D01*
X-97933Y214961D02*
X-97835Y214862D01*
X-79921D01*
X-77165Y209350D02*
X-74410D01*
X-80020Y206496D02*
X-77165Y209350D01*
X-81988Y236910D02*
X-79921D01*
X-86122Y241043D02*
X-81988Y236910D01*
X-82579Y329331D02*
X-79331D01*
X-76083Y326083D01*
Y314764D02*
Y326083D01*
X-82382Y308465D02*
X-76083Y314764D01*
X-85335Y233760D02*
X-79921D01*
X-104429Y252854D02*
X-85335Y233760D01*
X-104429Y252854D02*
Y313189D01*
X-94193Y323425D01*
X-82579D01*
X-7028Y235433D02*
X-1969Y230374D01*
Y203150D02*
Y230374D01*
X-8524Y196595D02*
X-1969Y203150D01*
X-8524Y182480D02*
Y196595D01*
X-114370Y91142D02*
X-112894D01*
X-108071Y95965D01*
D52*
X-106102Y112598D02*
Y116043D01*
X-100197Y108661D02*
X-91929D01*
X-83661Y99508D02*
X-80807Y96653D01*
Y94095D02*
Y96653D01*
Y87992D02*
Y94095D01*
X-118602Y112598D02*
X-110039D01*
X-124705Y118701D02*
X-118602Y112598D01*
X-130610Y112697D02*
Y112795D01*
X-124705Y118701D01*
X-130610Y104134D02*
X-124114Y110630D01*
X-121752Y106693D02*
X-113976D01*
X-124114Y104331D02*
X-121752Y106693D01*
X-124114Y103150D02*
Y104331D01*
X-130118Y97146D02*
X-124114Y103150D01*
X-140650Y100197D02*
Y108780D01*
Y100197D02*
X-137598Y97146D01*
X-130118D01*
X-93307Y72539D02*
X-89567Y76279D01*
X-106791Y72539D02*
X-93307D01*
X-110925Y76673D02*
Y79232D01*
X-88287Y99508D02*
X-83661D01*
X-95079Y95276D02*
X-93504Y96850D01*
X-100197Y106693D02*
X-94685D01*
X-93504Y105512D01*
Y96850D02*
Y105512D01*
X-91142Y102362D02*
X-88287Y99508D01*
X-91142Y102362D02*
Y107874D01*
X-91929Y108661D02*
X-91142Y107874D01*
X-104134Y112598D02*
Y114370D01*
X-102461Y116043D01*
X-95472D01*
X-88681Y109252D01*
Y102953D02*
Y109252D01*
Y102953D02*
X-87024Y101295D01*
X-82921D01*
X-82709Y101083D01*
X-70374D01*
X-60827Y110630D01*
X-63681Y115354D02*
Y123917D01*
X-109744Y117520D02*
X-108177Y115953D01*
Y112705D02*
Y115953D01*
Y112705D02*
X-108071Y112598D01*
Y106693D02*
Y112598D01*
X-110925Y76673D02*
X-106791Y72539D01*
X-100197Y104724D02*
X-97342D01*
X-95866Y103248D01*
X-106102Y98819D02*
X-105996Y98713D01*
Y92921D02*
Y98713D01*
X-107087Y91831D02*
X-105996Y92921D01*
X-108071Y95965D02*
Y98819D01*
X-100197Y101181D02*
Y102756D01*
X-101772Y99606D02*
X-100197Y101181D01*
X-104134Y90354D02*
Y98819D01*
X-108957Y85532D02*
X-104134Y90354D01*
X-108957Y85532D02*
X-106398Y82972D01*
X-102559D01*
X-101772Y88583D02*
Y99606D01*
X-169193Y78543D02*
X-162008D01*
X-118405Y108661D02*
X-113976D01*
X-119685Y109941D02*
X-118405Y108661D01*
X-139862Y120453D02*
X-139350Y120965D01*
X-132874D01*
X-114764Y102756D02*
X-113976D01*
X-118110Y99410D02*
X-114764Y102756D01*
X-140650Y90827D02*
X-131614D01*
X-117717Y104724D01*
X-113976D01*
X-134350Y103445D02*
X-130610D01*
X-135827Y101969D02*
X-134350Y103445D01*
X-95079Y95276D02*
X-88976D01*
X-166634Y62598D02*
Y65994D01*
X-161024Y71605D01*
Y71752D01*
D53*
X-125787Y77067D02*
X-120276Y71555D01*
Y66043D02*
Y71555D01*
X-30610Y150394D02*
X-20177D01*
X-76870Y123917D02*
Y141732D01*
X-41634Y190551D02*
X-33563Y182480D01*
X-20177Y150394D02*
X-18799Y151772D01*
X-10827Y159744D01*
X-51476Y191732D02*
X-49409D01*
X-56713Y186496D02*
X-51476Y191732D01*
X-86122Y241043D02*
Y294390D01*
X-47047Y150394D02*
X-41339D01*
X-30610D01*
X-45669Y334842D02*
X-24213D01*
X-86122Y294390D02*
X-45669Y334842D01*
X-7756Y322638D02*
Y330335D01*
X-7579Y330512D01*
X-24213Y334842D02*
X-19882Y330512D01*
X-15748D01*
D54*
X-17766Y298524D02*
D03*
D55*
X-7028Y215433D02*
D03*
X-17028D02*
D03*
X-7028Y225433D02*
D03*
X-17028D02*
D03*
X-7028Y235433D02*
D03*
X-26102Y258760D02*
D03*
X-16102D02*
D03*
D56*
X-17028Y235433D02*
D03*
D57*
X-6102Y258760D02*
D03*
D58*
X-117126Y157874D02*
D03*
X-103347D02*
D03*
X-117126Y330315D02*
D03*
X-126969Y179528D02*
D03*
Y308661D02*
D03*
X-93504Y174803D02*
D03*
Y313386D02*
D03*
X-160433Y157874D02*
D03*
X-146653D02*
D03*
X-160433Y330315D02*
D03*
X-170276Y179528D02*
D03*
Y308661D02*
D03*
X-136811Y174803D02*
D03*
Y313386D02*
D03*
D59*
X-9843Y9843D02*
D03*
D60*
X-165354Y275590D02*
D03*
Y236221D02*
D03*
D61*
X-72933Y249410D02*
D03*
X-173228Y102362D02*
D03*
Y94488D02*
D03*
X-165354Y102362D02*
D03*
Y94488D02*
D03*
X-157480D02*
D03*
Y102362D02*
D03*
Y133858D02*
D03*
X-165354D02*
D03*
X-173228D02*
D03*
X-157480Y125984D02*
D03*
X-165354D02*
D03*
X-173228D02*
D03*
X-11811Y307087D02*
D03*
Y299213D02*
D03*
Y291339D02*
D03*
X-21654D02*
D03*
Y299213D02*
D03*
Y307087D02*
D03*
X-31594Y322736D02*
D03*
X-36319D02*
D03*
X-41339Y322638D02*
D03*
X-39764Y266240D02*
D03*
X-39665Y270866D02*
D03*
X-69193Y83465D02*
D03*
Y87894D02*
D03*
X-125787Y131201D02*
D03*
X-131890D02*
D03*
X-109744Y117520D02*
D03*
X-120276Y66043D02*
D03*
X-107185Y47343D02*
D03*
X-108366Y30709D02*
D03*
X-120039Y19331D02*
D03*
X-169882Y26870D02*
D03*
X-169685Y21752D02*
D03*
X-169980Y16535D02*
D03*
X-152165Y18209D02*
D03*
X-18602Y151575D02*
D03*
X-47047Y150394D02*
D03*
X-41339D02*
D03*
X-61516Y202362D02*
D03*
X-87697Y218012D02*
D03*
X-80020Y206496D02*
D03*
X-97933Y214961D02*
D03*
X-52264Y202067D02*
D03*
X-56890Y198622D02*
D03*
X-87894Y318799D02*
D03*
X-32677Y276969D02*
D03*
X-107087Y91831D02*
D03*
X-161024Y71752D02*
D03*
X-108268Y73524D02*
D03*
X-101772Y88583D02*
D03*
X-162008Y78543D02*
D03*
X-39764Y275787D02*
D03*
X-77264Y199311D02*
D03*
X-50591Y113091D02*
D03*
X-119685Y109941D02*
D03*
X-132874Y120965D02*
D03*
X-118110Y99410D02*
D03*
X-135827Y101969D02*
D03*
X-61959Y248474D02*
D03*
X-58661Y266634D02*
D03*
X-61811Y179035D02*
D03*
X-61614Y174606D02*
D03*
X-161122Y10138D02*
D03*
Y4823D02*
D03*
D62*
X-104921Y107874D02*
D03*
Y103543D02*
D03*
X-109252Y107874D02*
D03*
Y103543D02*
D03*
M02*
