%FSLAX25Y25*%
%MOIN*%
G70*
G01*
G75*
G04 Layer_Color=16711935*
%ADD10R,0.03150X0.03150*%
%ADD11R,0.04331X0.03937*%
%ADD12R,0.03740X0.07480*%
%ADD13R,0.21654X0.29134*%
%ADD14R,0.05000X0.11496*%
%ADD15R,0.03150X0.03150*%
%ADD16R,0.03937X0.04331*%
%ADD17O,0.02165X0.06496*%
%ADD18O,0.06496X0.02165*%
%ADD19R,0.03740X0.03937*%
%ADD20R,0.10236X0.09449*%
%ADD21R,0.09449X0.10236*%
%ADD22R,0.12992X0.04134*%
%ADD23R,0.33071X0.41339*%
%ADD24R,0.07205X0.13504*%
%ADD25R,0.03937X0.03740*%
%ADD26R,0.06201X0.06201*%
%ADD27R,0.11024X0.07480*%
%ADD28R,0.08465X0.13386*%
%ADD29R,0.01102X0.03150*%
%ADD30R,0.03150X0.01102*%
%ADD31R,0.08425X0.08425*%
%ADD32R,0.02165X0.05709*%
%ADD33R,0.02756X0.03937*%
%ADD34R,0.07480X0.03740*%
%ADD35R,0.29134X0.21654*%
%ADD36R,0.07087X0.04843*%
%ADD37R,0.06299X0.07087*%
%ADD38R,0.07874X0.12402*%
%ADD39R,0.04843X0.07087*%
%ADD40R,0.11024X0.10236*%
%ADD41R,0.11024X0.06693*%
%ADD42R,0.01575X0.07874*%
%ADD43C,0.03150*%
%ADD44C,0.01969*%
%ADD45C,0.01000*%
%ADD46C,0.05512*%
%ADD47C,0.07874*%
%ADD48C,0.01181*%
%ADD49C,0.06299*%
%ADD50C,0.01575*%
%ADD51C,0.02362*%
%ADD52C,0.03937*%
%ADD53C,0.05906*%
%ADD54R,0.28642X0.17323*%
%ADD55C,0.00394*%
%ADD56C,0.00787*%
%ADD57R,0.03760X0.24410*%
%ADD58C,0.00197*%
%ADD59C,0.13780*%
%ADD60R,0.13780X0.13780*%
%ADD61C,0.07874*%
%ADD62R,0.05906X0.05906*%
%ADD63C,0.05906*%
%ADD64R,0.05906X0.05906*%
%ADD65C,0.03150*%
%ADD66C,0.01969*%
%ADD67C,0.00984*%
%ADD68C,0.00591*%
%ADD69C,0.00800*%
%ADD70R,0.03950X0.03950*%
%ADD71R,0.05131X0.04737*%
%ADD72R,0.04540X0.08280*%
%ADD73R,0.22453X0.29934*%
%ADD74R,0.05800X0.12296*%
%ADD75R,0.03950X0.03950*%
%ADD76R,0.04737X0.05131*%
%ADD77O,0.02965X0.07296*%
%ADD78O,0.07296X0.02965*%
%ADD79R,0.04540X0.04737*%
%ADD80R,0.11036X0.10249*%
%ADD81R,0.10249X0.11036*%
%ADD82R,0.13792X0.04934*%
%ADD83R,0.33871X0.42139*%
%ADD84R,0.08005X0.14304*%
%ADD85R,0.04737X0.04540*%
%ADD86R,0.07001X0.07001*%
%ADD87R,0.11824X0.08280*%
%ADD88R,0.09265X0.14186*%
%ADD89R,0.01902X0.03950*%
%ADD90R,0.03950X0.01902*%
%ADD91R,0.09225X0.09225*%
%ADD92R,0.02965X0.06509*%
%ADD93R,0.03556X0.04737*%
%ADD94R,0.08280X0.04540*%
%ADD95R,0.29934X0.22453*%
%ADD96R,0.07887X0.05643*%
%ADD97R,0.07099X0.07887*%
%ADD98R,0.08674X0.13202*%
%ADD99R,0.05643X0.07887*%
%ADD100R,0.11824X0.11036*%
%ADD101R,0.11824X0.07493*%
%ADD102R,0.02375X0.08674*%
%ADD103C,0.14579*%
%ADD104R,0.00800X0.00800*%
%ADD105R,0.14579X0.14579*%
%ADD106C,0.08674*%
%ADD107R,0.06706X0.06706*%
%ADD108C,0.06706*%
%ADD109R,0.06706X0.06706*%
%ADD110C,0.00800*%
%ADD111C,0.03950*%
%ADD112C,0.02769*%
D55*
X-8071Y275984D02*
Y277559D01*
X-8858Y276772D02*
X-7283D01*
X-174043Y155595D02*
X-173043Y154595D01*
X-174043Y155595D02*
Y333095D01*
X-133543D01*
Y154595D02*
Y333095D01*
X-173543Y154595D02*
X-133543D01*
X-130736Y155595D02*
X-129736Y154595D01*
X-130736Y155595D02*
Y333095D01*
X-90236D01*
Y154595D02*
Y333095D01*
X-130236Y154595D02*
X-90236D01*
X-83366Y326378D02*
X-81791D01*
X-82579Y325590D02*
Y327165D01*
X-170669Y69095D02*
Y70669D01*
X-171457Y69882D02*
X-169882D01*
X-171063Y54724D02*
Y56299D01*
X-171850Y55512D02*
X-170276D01*
X-8071Y275984D02*
Y277559D01*
X-8858Y276772D02*
X-7283D01*
X-174043Y155595D02*
X-173043Y154595D01*
X-174043Y155595D02*
Y333095D01*
X-133543D01*
Y154595D02*
Y333095D01*
X-173543Y154595D02*
X-133543D01*
X-130736Y155595D02*
X-129736Y154595D01*
X-130736Y155595D02*
Y333095D01*
X-90236D01*
Y154595D02*
Y333095D01*
X-130236Y154595D02*
X-90236D01*
X-83366Y326378D02*
X-81791D01*
X-82579Y325590D02*
Y327165D01*
X-170669Y69095D02*
Y70669D01*
X-171457Y69882D02*
X-169882D01*
X-171063Y54724D02*
Y56299D01*
X-171850Y55512D02*
X-170276D01*
X-51181Y236122D02*
G03*
X-51181Y236122I-1969J0D01*
G01*
X-108661Y102165D02*
G03*
X-108661Y102165I-1969J0D01*
G01*
X-30020Y313779D02*
X-3445D01*
X-30020Y288779D02*
X-3445D01*
Y313779D01*
X-30020Y288779D02*
Y313779D01*
X-74193Y276386D02*
Y282555D01*
Y276386D02*
X-74161Y276354D01*
X-36161D01*
Y315354D01*
X-74161D02*
X-36161D01*
X-74193Y315323D02*
X-74161Y315354D01*
X-74193Y308933D02*
Y315323D01*
Y282555D02*
Y308933D01*
X-77165Y239665D02*
X-49606D01*
X-77165Y212106D02*
X-49606D01*
Y239665D01*
X-77165Y212106D02*
Y239665D01*
X-42913Y189961D02*
Y193504D01*
X-49606Y189961D02*
Y193504D01*
Y189961D02*
X-42913D01*
X-49606Y193504D02*
X-42913D01*
X-44193Y129921D02*
Y170866D01*
X-79193Y129921D02*
Y170866D01*
Y129921D02*
X-44193D01*
X-79193Y170866D02*
X-44193D01*
X-117028Y151378D02*
X-89075D01*
X-117028Y125000D02*
X-89075D01*
X-117028D02*
Y151378D01*
X-89075Y125000D02*
Y151378D01*
X-6693Y122835D02*
X-3150D01*
X-6693Y116142D02*
X-3150D01*
Y122835D01*
X-6693Y116142D02*
Y122835D01*
X-70177Y122146D02*
Y125689D01*
X-63484Y122146D02*
Y125689D01*
X-70177D02*
X-63484D01*
X-70177Y122146D02*
X-63484D01*
X-76673Y122146D02*
Y125689D01*
X-83366Y122146D02*
Y125689D01*
Y122146D02*
X-76673D01*
X-83366Y125689D02*
X-76673D01*
X-114173Y98622D02*
X-100000D01*
X-114173Y112795D02*
X-100000D01*
X-114173Y98622D02*
Y112795D01*
X-100000Y98622D02*
Y112795D01*
X-125886Y110827D02*
X-122343D01*
X-125886Y104134D02*
X-122343D01*
Y110827D01*
X-125886Y104134D02*
Y110827D01*
X-125295Y117717D02*
Y121063D01*
X-118996Y117717D02*
Y121063D01*
X-125295D02*
X-118996D01*
X-125295Y117717D02*
X-118996D01*
X-148721Y116142D02*
Y142717D01*
X-173721Y116142D02*
Y142717D01*
Y116142D02*
X-148721D01*
X-173721Y142717D02*
X-148721D01*
X-149508Y86516D02*
Y113091D01*
X-174508Y86516D02*
Y113091D01*
Y86516D02*
X-149508D01*
X-174508Y113091D02*
X-149508D01*
X-64173Y80709D02*
X-51575D01*
X-64173Y74410D02*
X-51575D01*
X-64173D02*
Y80709D01*
X-51575Y74410D02*
Y80709D01*
X-64173Y90059D02*
X-51575D01*
X-64173Y83760D02*
X-51575D01*
X-64173D02*
Y90059D01*
X-51575Y83760D02*
Y90059D01*
X-112697Y79035D02*
X-109153D01*
X-112697Y85728D02*
X-109153D01*
X-112697Y79035D02*
Y85728D01*
X-109153Y79035D02*
Y85728D01*
X-1496Y54748D02*
Y60917D01*
X-1528Y60949D02*
X-1496Y60917D01*
X-39528Y60949D02*
X-1528D01*
X-39528Y21949D02*
Y60949D01*
Y21949D02*
X-1528D01*
X-1496Y21980D01*
Y28370D01*
Y54748D01*
X-43524Y54847D02*
Y61016D01*
X-43555Y61047D02*
X-43524Y61016D01*
X-81555Y61047D02*
X-43555D01*
X-81555Y22047D02*
Y61047D01*
Y22047D02*
X-43555D01*
X-43524Y22079D01*
Y28468D01*
Y54847D01*
X-85847D02*
Y61016D01*
X-85878Y61047D02*
X-85847Y61016D01*
X-123878Y61047D02*
X-85878D01*
X-123878Y22047D02*
Y61047D01*
Y22047D02*
X-85878D01*
X-85847Y22079D01*
Y28468D01*
Y54847D01*
X-131496Y75394D02*
Y78740D01*
X-125197Y75394D02*
Y78740D01*
X-131496D02*
X-125197D01*
X-131496Y75394D02*
X-125197D01*
X-158760Y48524D02*
X-130807D01*
X-158760Y72933D02*
X-130807D01*
Y48524D02*
Y72933D01*
X-158760Y48524D02*
Y72933D01*
X-133858Y30217D02*
Y42815D01*
X-127559Y30217D02*
Y42815D01*
X-133858Y30217D02*
X-127559D01*
X-133858Y42815D02*
X-127559D01*
X-143110Y30217D02*
Y42815D01*
X-136811Y30217D02*
Y42815D01*
X-143110Y30217D02*
X-136811D01*
X-143110Y42815D02*
X-136811D01*
X-127854Y7874D02*
Y20472D01*
X-134153Y7874D02*
Y20472D01*
X-127854D01*
X-134153Y7874D02*
X-127854D01*
X-80512Y76575D02*
Y79921D01*
X-74213Y76575D02*
Y79921D01*
X-80512D02*
X-74213D01*
X-80512Y76575D02*
X-74213D01*
X-79528Y253740D02*
X-66339D01*
X-79528Y259449D02*
X-66339D01*
Y253740D02*
Y259449D01*
X-79528Y253740D02*
Y259449D01*
X-31102Y327362D02*
X-2362D01*
X-31102Y282480D02*
X-2362D01*
Y327362D01*
X-31102Y282480D02*
Y327362D01*
X-16732Y302953D02*
Y306890D01*
X-18701Y304921D02*
X-14764D01*
X-55087Y295276D02*
Y299213D01*
X-57153Y297244D02*
X-53216D01*
X-34216Y267244D02*
Y289744D01*
X-75217Y267244D02*
X-34216D01*
X-76217D02*
X-75217D01*
X-76217D02*
Y337244D01*
X-34216D01*
Y289744D02*
Y337244D01*
X-84055Y246555D02*
X-42717D01*
X-84055Y205217D02*
X-42717D01*
Y246555D01*
X-84055Y205217D02*
Y246555D01*
X-63386Y223917D02*
Y227854D01*
X-65354Y225886D02*
X-61417D01*
X-48031Y191732D02*
X-44488D01*
X-46260Y189961D02*
Y193504D01*
X-23130Y128740D02*
Y172047D01*
X-85728Y128740D02*
Y172047D01*
Y128740D02*
X-23130D01*
X-85728Y172047D02*
X-23130D01*
X-56398Y150394D02*
X-52461D01*
X-54429Y148425D02*
Y152362D01*
X-103051Y136221D02*
Y140157D01*
X-105020Y138189D02*
X-101083D01*
X-4921Y117717D02*
Y121260D01*
X-6693Y119488D02*
X-3150D01*
X-29528Y98425D02*
X-25591D01*
X-27559Y96457D02*
Y100394D01*
X-68602Y123917D02*
X-65059D01*
X-66831Y122146D02*
Y125689D01*
X-81791Y123917D02*
X-78248D01*
X-80020Y122146D02*
Y125689D01*
X-107087Y103740D02*
Y107677D01*
X-109055Y105709D02*
X-105118D01*
X-124114D02*
Y109252D01*
X-125886Y107480D02*
X-122343D01*
X-123819Y119390D02*
X-120473D01*
X-122146Y117717D02*
Y121063D01*
X-135138Y115059D02*
Y143799D01*
X-180020Y115059D02*
Y143799D01*
Y115059D02*
X-135138D01*
X-180020Y143799D02*
X-135138D01*
X-159547Y129429D02*
X-155610D01*
X-157579Y127461D02*
Y131398D01*
X-135925Y85433D02*
Y114173D01*
X-180807Y85433D02*
Y114173D01*
Y85433D02*
X-135925D01*
X-180807Y114173D02*
X-135925D01*
X-160335Y99803D02*
X-156398D01*
X-158366Y97835D02*
Y101772D01*
X-57874Y75591D02*
Y79528D01*
X-59842Y77559D02*
X-55905D01*
X-57874Y84941D02*
Y88878D01*
X-59842Y86910D02*
X-55905D01*
X-110925Y80610D02*
Y84153D01*
X-112697Y82382D02*
X-109153D01*
X-20602Y38091D02*
Y42028D01*
X-22472Y40059D02*
X-18535D01*
X-41472Y47559D02*
Y70059D01*
X-472D01*
X528D01*
Y59D02*
Y70059D01*
X-41472Y59D02*
X528D01*
X-41472D02*
Y47559D01*
X-62630Y38189D02*
Y42126D01*
X-64500Y40157D02*
X-60563D01*
X-83500Y47657D02*
Y70157D01*
X-42500D01*
X-41500D01*
Y158D02*
Y70157D01*
X-83500Y158D02*
X-41500D01*
X-83500D02*
Y47657D01*
X-104953Y38189D02*
Y42126D01*
X-106823Y40157D02*
X-102886D01*
X-125823Y47657D02*
Y70157D01*
X-84823D01*
X-83823D01*
Y158D02*
Y70157D01*
X-125823Y158D02*
X-83823D01*
X-125823D02*
Y47657D01*
X-130020Y77067D02*
X-126673D01*
X-128347Y75394D02*
Y78740D01*
X-144783Y58760D02*
Y62697D01*
X-146752Y60728D02*
X-142815D01*
X-132677Y36516D02*
X-128740D01*
X-130709Y34547D02*
Y38484D01*
X-141929Y36516D02*
X-137992D01*
X-139961Y34547D02*
Y38484D01*
X-132972Y14173D02*
X-129035D01*
X-131004Y12205D02*
Y16142D01*
X-79035Y78248D02*
X-75689D01*
X-77362Y76575D02*
Y79921D01*
X-72933Y254626D02*
Y258563D01*
X-74902Y256594D02*
X-70965D01*
D56*
X-183071Y2008D02*
Y48008D01*
X-183571Y45508D02*
X-183071Y46008D01*
X-183571Y3008D02*
Y45508D01*
Y3008D02*
X-145071D01*
Y46008D01*
X-183071D02*
X-145071D01*
D57*
X-132687Y60728D02*
D03*
D58*
X-40157Y188779D02*
Y194685D01*
X-52362Y188779D02*
Y194685D01*
Y188779D02*
X-40157D01*
X-52362Y194685D02*
X-40157D01*
X-119980Y152559D02*
X-86122D01*
X-119980Y123819D02*
X-86122D01*
X-119980D02*
Y152559D01*
X-86122Y123819D02*
Y152559D01*
X-7874Y125591D02*
X-1969D01*
X-7874Y113386D02*
X-1969D01*
Y125591D01*
X-7874Y113386D02*
Y125591D01*
X-72933Y120965D02*
Y126870D01*
X-60728Y120965D02*
Y126870D01*
X-72933D02*
X-60728D01*
X-72933Y120965D02*
X-60728D01*
X-73917Y120965D02*
Y126870D01*
X-86122Y120965D02*
Y126870D01*
Y120965D02*
X-73917D01*
X-86122Y126870D02*
X-73917D01*
X-116437Y96358D02*
X-97736D01*
X-116437Y115059D02*
X-97736D01*
X-116437Y96358D02*
Y115059D01*
X-97736Y96358D02*
Y115059D01*
X-127067Y113583D02*
X-121161D01*
X-127067Y101378D02*
X-121161D01*
Y113583D01*
X-127067Y101378D02*
Y113583D01*
X-127657Y116634D02*
Y122146D01*
X-116634Y116634D02*
Y122146D01*
X-127657D02*
X-116634D01*
X-127657Y116634D02*
X-116634D01*
X-67559Y82087D02*
X-48189D01*
X-67559Y73032D02*
X-48189D01*
X-67559D02*
Y82087D01*
X-48189Y73032D02*
Y82087D01*
X-67559Y91437D02*
X-48189D01*
X-67559Y82382D02*
X-48189D01*
X-67559D02*
Y91437D01*
X-48189Y82382D02*
Y91437D01*
X-113878Y76279D02*
X-107972D01*
X-113878Y88484D02*
X-107972D01*
X-113878Y76279D02*
Y88484D01*
X-107972Y76279D02*
Y88484D01*
X-133858Y74311D02*
Y79823D01*
X-122835Y74311D02*
Y79823D01*
X-133858D02*
X-122835D01*
X-133858Y74311D02*
X-122835D01*
X-161713Y47343D02*
X-127854D01*
X-161713Y74114D02*
X-127854D01*
Y47343D02*
Y74114D01*
X-161713Y47343D02*
Y74114D01*
X-135236Y26831D02*
Y46201D01*
X-126181Y26831D02*
Y46201D01*
X-135236Y26831D02*
X-126181D01*
X-135236Y46201D02*
X-126181D01*
X-144488Y26831D02*
Y46201D01*
X-135433Y26831D02*
Y46201D01*
X-144488Y26831D02*
X-135433D01*
X-144488Y46201D02*
X-135433D01*
X-126476Y4488D02*
Y23858D01*
X-135531Y4488D02*
Y23858D01*
X-126476D01*
X-135531Y4488D02*
X-126476D01*
X-82874Y75492D02*
Y81004D01*
X-71850Y75492D02*
Y81004D01*
X-82874D02*
X-71850D01*
X-82874Y75492D02*
X-71850D01*
X-82776Y252658D02*
X-63090D01*
X-82776Y260531D02*
X-63090D01*
Y252658D02*
Y260531D01*
X-82776Y252658D02*
Y260531D01*
M02*
