%FSLAX25Y25*%
%MOIN*%
G70*
G01*
G75*
G04 Layer_Color=2752767*
%ADD10R,0.01575X0.07874*%
%ADD11R,0.03150X0.03150*%
%ADD12R,0.11024X0.06693*%
%ADD13R,0.11024X0.10236*%
%ADD14R,0.02756X0.03937*%
%ADD15R,0.03937X0.04331*%
%ADD16R,0.04843X0.07087*%
%ADD17R,0.04331X0.03937*%
%ADD18R,0.07874X0.12402*%
%ADD19R,0.06299X0.07087*%
%ADD20R,0.05000X0.11496*%
%ADD21R,0.03937X0.03740*%
%ADD22R,0.07087X0.04843*%
%ADD23R,0.29134X0.21654*%
%ADD24R,0.07480X0.03740*%
%ADD25R,0.02165X0.05709*%
%ADD26R,0.08425X0.08425*%
%ADD27R,0.03150X0.01102*%
%ADD28R,0.01102X0.03150*%
%ADD29R,0.08465X0.13386*%
%ADD30R,0.03740X0.03937*%
%ADD31R,0.11024X0.07480*%
%ADD32R,0.06201X0.06201*%
%ADD33R,0.07205X0.13504*%
%ADD34R,0.33071X0.41339*%
%ADD35R,0.12992X0.04134*%
%ADD36R,0.09449X0.10236*%
%ADD37R,0.10236X0.09449*%
%ADD38O,0.06496X0.02165*%
%ADD39O,0.02165X0.06496*%
%ADD40R,0.03150X0.03150*%
%ADD41R,0.21654X0.29134*%
%ADD42R,0.03740X0.07480*%
%ADD43C,0.01181*%
%ADD44C,0.06299*%
%ADD45C,0.03937*%
%ADD46C,0.07874*%
%ADD47C,0.05906*%
%ADD48C,0.01969*%
%ADD49C,0.05512*%
%ADD50C,0.02362*%
%ADD51C,0.01575*%
%ADD52C,0.01000*%
%ADD53C,0.03150*%
%ADD54R,0.28642X0.17323*%
%ADD55C,0.05906*%
%ADD56R,0.05906X0.05906*%
%ADD57R,0.05906X0.05906*%
%ADD58C,0.07874*%
%ADD59R,0.13780X0.13780*%
%ADD60C,0.13780*%
%ADD61C,0.03150*%
%ADD62C,0.01969*%
%ADD63C,0.00787*%
%ADD64C,0.00984*%
%ADD65C,0.00591*%
%ADD66C,0.00800*%
%ADD67R,0.02375X0.08674*%
%ADD68R,0.03950X0.03950*%
%ADD69R,0.11824X0.07493*%
%ADD70R,0.11824X0.11036*%
%ADD71R,0.03556X0.04737*%
%ADD72R,0.04737X0.05131*%
%ADD73R,0.05643X0.07887*%
%ADD74R,0.05131X0.04737*%
%ADD75R,0.08674X0.13202*%
%ADD76R,0.07099X0.07887*%
%ADD77R,0.05800X0.12296*%
%ADD78R,0.04737X0.04540*%
%ADD79R,0.07887X0.05643*%
%ADD80R,0.29934X0.22453*%
%ADD81R,0.08280X0.04540*%
%ADD82R,0.02965X0.06509*%
%ADD83R,0.09225X0.09225*%
%ADD84R,0.03950X0.01902*%
%ADD85R,0.01902X0.03950*%
%ADD86R,0.09265X0.14186*%
%ADD87R,0.04540X0.04737*%
%ADD88R,0.11824X0.08280*%
%ADD89R,0.07001X0.07001*%
%ADD90R,0.08005X0.14304*%
%ADD91R,0.33871X0.42139*%
%ADD92R,0.13792X0.04934*%
%ADD93R,0.10249X0.11036*%
%ADD94R,0.11036X0.10249*%
%ADD95O,0.07296X0.02965*%
%ADD96O,0.02965X0.07296*%
%ADD97R,0.03950X0.03950*%
%ADD98R,0.22453X0.29934*%
%ADD99R,0.04540X0.08280*%
%ADD100C,0.00800*%
%ADD101R,0.00800X0.00800*%
%ADD102C,0.06706*%
%ADD103R,0.06706X0.06706*%
%ADD104R,0.06706X0.06706*%
%ADD105C,0.08674*%
%ADD106R,0.14579X0.14579*%
%ADD107C,0.14579*%
%ADD108C,0.03950*%
%ADD109C,0.02769*%
%ADD110C,0.00394*%
%ADD111C,0.00197*%
%ADD112C,0.00500*%
%ADD113C,0.00667*%
D112*
X-160071Y22508D02*
Y26508D01*
X-156071D01*
Y22508D01*
X-160071D01*
X-179756D02*
Y26508D01*
X-175756D01*
Y22508D01*
X-179756D01*
X-14370Y108236D02*
X-16370Y112236D01*
X-12370D01*
X-14370Y108236D01*
X-40748Y84614D02*
X-42748Y88614D01*
X-38748D01*
X-40748Y84614D01*
X-9028Y213433D02*
Y217433D01*
X-5028D01*
Y213433D01*
X-9028D01*
X-19028D02*
Y217433D01*
X-15028D01*
Y213433D01*
X-19028D01*
X-9028Y223433D02*
Y227433D01*
X-5028D01*
Y223433D01*
X-9028D01*
X-19028D02*
Y227433D01*
X-15028D01*
Y223433D01*
X-19028D01*
X-9028Y233433D02*
Y237433D01*
X-5028D01*
Y233433D01*
X-9028D01*
X-19028D02*
Y237433D01*
X-15028D01*
Y233433D01*
X-19028D01*
X-28102Y256760D02*
Y260760D01*
X-24102D01*
Y256760D01*
X-28102D01*
X-18102D02*
Y260760D01*
X-14102D01*
Y256760D01*
X-18102D01*
X-8102D02*
Y260760D01*
X-4102D01*
Y256760D01*
X-8102D01*
X-117126Y155874D02*
X-116126Y156874D01*
X-115126D01*
X-116126Y157874D01*
X-115126Y158874D01*
X-116126D01*
X-117126Y159874D01*
X-118126Y158874D01*
X-119126D01*
X-118126Y157874D01*
X-119126Y156874D01*
X-118126D01*
X-117126Y155874D01*
X-103347D02*
X-102347Y156874D01*
X-101347D01*
X-102347Y157874D01*
X-101347Y158874D01*
X-102347D01*
X-103347Y159874D01*
X-104347Y158874D01*
X-105347D01*
X-104347Y157874D01*
X-105347Y156874D01*
X-104347D01*
X-103347Y155874D01*
X-117126Y328315D02*
X-116126Y329315D01*
X-115126D01*
X-116126Y330315D01*
X-115126Y331315D01*
X-116126D01*
X-117126Y332315D01*
X-118126Y331315D01*
X-119126D01*
X-118126Y330315D01*
X-119126Y329315D01*
X-118126D01*
X-117126Y328315D01*
X-128969Y177528D02*
X-127969Y179528D01*
X-128969Y181528D01*
X-126969Y180528D01*
X-124969Y181528D01*
X-125969Y179528D01*
X-124969Y177528D01*
X-126969Y178528D01*
X-128969Y177528D01*
Y306661D02*
X-127969Y308661D01*
X-128969Y310661D01*
X-126969Y309661D01*
X-124969Y310661D01*
X-125969Y308661D01*
X-124969Y306661D01*
X-126969Y307661D01*
X-128969Y306661D01*
X-95504Y172803D02*
X-94504Y174803D01*
X-95504Y176803D01*
X-93504Y175803D01*
X-91504Y176803D01*
X-92504Y174803D01*
X-91504Y172803D01*
X-93504Y173803D01*
X-95504Y172803D01*
Y311386D02*
X-94504Y313386D01*
X-95504Y315386D01*
X-93504Y314386D01*
X-91504Y315386D01*
X-92504Y313386D01*
X-91504Y311386D01*
X-93504Y312386D01*
X-95504Y311386D01*
X-160433Y155874D02*
X-159433Y156874D01*
X-158433D01*
X-159433Y157874D01*
X-158433Y158874D01*
X-159433D01*
X-160433Y159874D01*
X-161433Y158874D01*
X-162433D01*
X-161433Y157874D01*
X-162433Y156874D01*
X-161433D01*
X-160433Y155874D01*
X-146653D02*
X-145653Y156874D01*
X-144653D01*
X-145653Y157874D01*
X-144653Y158874D01*
X-145653D01*
X-146653Y159874D01*
X-147653Y158874D01*
X-148653D01*
X-147653Y157874D01*
X-148653Y156874D01*
X-147653D01*
X-146653Y155874D01*
X-160433Y328315D02*
X-159433Y329315D01*
X-158433D01*
X-159433Y330315D01*
X-158433Y331315D01*
X-159433D01*
X-160433Y332315D01*
X-161433Y331315D01*
X-162433D01*
X-161433Y330315D01*
X-162433Y329315D01*
X-161433D01*
X-160433Y328315D01*
X-172276Y177528D02*
X-171276Y179528D01*
X-172276Y181528D01*
X-170276Y180528D01*
X-168276Y181528D01*
X-169276Y179528D01*
X-168276Y177528D01*
X-170276Y178528D01*
X-172276Y177528D01*
Y306661D02*
X-171276Y308661D01*
X-172276Y310661D01*
X-170276Y309661D01*
X-168276Y310661D01*
X-169276Y308661D01*
X-168276Y306661D01*
X-170276Y307661D01*
X-172276Y306661D01*
X-138811Y172803D02*
X-137811Y174803D01*
X-138811Y176803D01*
X-136811Y175803D01*
X-134811Y176803D01*
X-135811Y174803D01*
X-134811Y172803D01*
X-136811Y173803D01*
X-138811Y172803D01*
Y311386D02*
X-137811Y313386D01*
X-138811Y315386D01*
X-136811Y314386D01*
X-134811Y315386D01*
X-135811Y313386D01*
X-134811Y311386D01*
X-136811Y312386D01*
X-138811Y311386D01*
X-10842Y8843D02*
Y7842D01*
X-8843D01*
Y8843D01*
X-7842D01*
Y10842D01*
X-8843D01*
Y11842D01*
X-10842D01*
Y10842D01*
X-11842D01*
Y8843D01*
X-10842D01*
X-32496Y203724D02*
Y202724D01*
X-30496D01*
Y203724D01*
X-29496D01*
Y205724D01*
X-30496D01*
Y206724D01*
X-32496D01*
Y205724D01*
X-33496D01*
Y203724D01*
X-32496D01*
X-67929Y325772D02*
Y324772D01*
X-65929D01*
Y325772D01*
X-64929D01*
Y327772D01*
X-65929D01*
Y328772D01*
X-67929D01*
Y327772D01*
X-68929D01*
Y325772D01*
X-67929D01*
X-166354Y274590D02*
Y273590D01*
X-164354D01*
Y274590D01*
X-163354D01*
Y276590D01*
X-164354D01*
Y277590D01*
X-166354D01*
Y276590D01*
X-167354D01*
Y274590D01*
X-166354D01*
Y235221D02*
Y234221D01*
X-164354D01*
Y235221D01*
X-163354D01*
Y237221D01*
X-164354D01*
Y238221D01*
X-166354D01*
Y237221D01*
X-167354D01*
Y235221D01*
X-166354D01*
X-74933Y247410D02*
X-73933D01*
X-72933Y248410D01*
X-71933Y247410D01*
X-70933D01*
Y248410D01*
X-71933Y249410D01*
X-70933Y250410D01*
Y251410D01*
X-71933D01*
X-72933Y250410D01*
X-73933Y251410D01*
X-74933D01*
Y250410D01*
X-73933Y249410D01*
X-74933Y248410D01*
Y247410D01*
X-175228Y100362D02*
X-174228D01*
X-173228Y101362D01*
X-172228Y100362D01*
X-171228D01*
Y101362D01*
X-172228Y102362D01*
X-171228Y103362D01*
Y104362D01*
X-172228D01*
X-173228Y103362D01*
X-174228Y104362D01*
X-175228D01*
Y103362D01*
X-174228Y102362D01*
X-175228Y101362D01*
Y100362D01*
Y92488D02*
X-174228D01*
X-173228Y93488D01*
X-172228Y92488D01*
X-171228D01*
Y93488D01*
X-172228Y94488D01*
X-171228Y95488D01*
Y96488D01*
X-172228D01*
X-173228Y95488D01*
X-174228Y96488D01*
X-175228D01*
Y95488D01*
X-174228Y94488D01*
X-175228Y93488D01*
Y92488D01*
X-167354Y100362D02*
X-166354D01*
X-165354Y101362D01*
X-164354Y100362D01*
X-163354D01*
Y101362D01*
X-164354Y102362D01*
X-163354Y103362D01*
Y104362D01*
X-164354D01*
X-165354Y103362D01*
X-166354Y104362D01*
X-167354D01*
Y103362D01*
X-166354Y102362D01*
X-167354Y101362D01*
Y100362D01*
Y92488D02*
X-166354D01*
X-165354Y93488D01*
X-164354Y92488D01*
X-163354D01*
Y93488D01*
X-164354Y94488D01*
X-163354Y95488D01*
Y96488D01*
X-164354D01*
X-165354Y95488D01*
X-166354Y96488D01*
X-167354D01*
Y95488D01*
X-166354Y94488D01*
X-167354Y93488D01*
Y92488D01*
X-159480D02*
X-158480D01*
X-157480Y93488D01*
X-156480Y92488D01*
X-155480D01*
Y93488D01*
X-156480Y94488D01*
X-155480Y95488D01*
Y96488D01*
X-156480D01*
X-157480Y95488D01*
X-158480Y96488D01*
X-159480D01*
Y95488D01*
X-158480Y94488D01*
X-159480Y93488D01*
Y92488D01*
Y100362D02*
X-158480D01*
X-157480Y101362D01*
X-156480Y100362D01*
X-155480D01*
Y101362D01*
X-156480Y102362D01*
X-155480Y103362D01*
Y104362D01*
X-156480D01*
X-157480Y103362D01*
X-158480Y104362D01*
X-159480D01*
Y103362D01*
X-158480Y102362D01*
X-159480Y101362D01*
Y100362D01*
Y131858D02*
X-158480D01*
X-157480Y132858D01*
X-156480Y131858D01*
X-155480D01*
Y132858D01*
X-156480Y133858D01*
X-155480Y134858D01*
Y135858D01*
X-156480D01*
X-157480Y134858D01*
X-158480Y135858D01*
X-159480D01*
Y134858D01*
X-158480Y133858D01*
X-159480Y132858D01*
Y131858D01*
X-167354D02*
X-166354D01*
X-165354Y132858D01*
X-164354Y131858D01*
X-163354D01*
Y132858D01*
X-164354Y133858D01*
X-163354Y134858D01*
Y135858D01*
X-164354D01*
X-165354Y134858D01*
X-166354Y135858D01*
X-167354D01*
Y134858D01*
X-166354Y133858D01*
X-167354Y132858D01*
Y131858D01*
X-175228D02*
X-174228D01*
X-173228Y132858D01*
X-172228Y131858D01*
X-171228D01*
Y132858D01*
X-172228Y133858D01*
X-171228Y134858D01*
Y135858D01*
X-172228D01*
X-173228Y134858D01*
X-174228Y135858D01*
X-175228D01*
Y134858D01*
X-174228Y133858D01*
X-175228Y132858D01*
Y131858D01*
X-159480Y123984D02*
X-158480D01*
X-157480Y124984D01*
X-156480Y123984D01*
X-155480D01*
Y124984D01*
X-156480Y125984D01*
X-155480Y126984D01*
Y127984D01*
X-156480D01*
X-157480Y126984D01*
X-158480Y127984D01*
X-159480D01*
Y126984D01*
X-158480Y125984D01*
X-159480Y124984D01*
Y123984D01*
X-167354D02*
X-166354D01*
X-165354Y124984D01*
X-164354Y123984D01*
X-163354D01*
Y124984D01*
X-164354Y125984D01*
X-163354Y126984D01*
Y127984D01*
X-164354D01*
X-165354Y126984D01*
X-166354Y127984D01*
X-167354D01*
Y126984D01*
X-166354Y125984D01*
X-167354Y124984D01*
Y123984D01*
X-175228D02*
X-174228D01*
X-173228Y124984D01*
X-172228Y123984D01*
X-171228D01*
Y124984D01*
X-172228Y125984D01*
X-171228Y126984D01*
Y127984D01*
X-172228D01*
X-173228Y126984D01*
X-174228Y127984D01*
X-175228D01*
Y126984D01*
X-174228Y125984D01*
X-175228Y124984D01*
Y123984D01*
X-13811Y305087D02*
X-12811D01*
X-11811Y306087D01*
X-10811Y305087D01*
X-9811D01*
Y306087D01*
X-10811Y307087D01*
X-9811Y308087D01*
Y309087D01*
X-10811D01*
X-11811Y308087D01*
X-12811Y309087D01*
X-13811D01*
Y308087D01*
X-12811Y307087D01*
X-13811Y306087D01*
Y305087D01*
Y297213D02*
X-12811D01*
X-11811Y298213D01*
X-10811Y297213D01*
X-9811D01*
Y298213D01*
X-10811Y299213D01*
X-9811Y300213D01*
Y301213D01*
X-10811D01*
X-11811Y300213D01*
X-12811Y301213D01*
X-13811D01*
Y300213D01*
X-12811Y299213D01*
X-13811Y298213D01*
Y297213D01*
Y289339D02*
X-12811D01*
X-11811Y290339D01*
X-10811Y289339D01*
X-9811D01*
Y290339D01*
X-10811Y291339D01*
X-9811Y292339D01*
Y293339D01*
X-10811D01*
X-11811Y292339D01*
X-12811Y293339D01*
X-13811D01*
Y292339D01*
X-12811Y291339D01*
X-13811Y290339D01*
Y289339D01*
X-23653D02*
X-22654D01*
X-21654Y290339D01*
X-20653Y289339D01*
X-19654D01*
Y290339D01*
X-20653Y291339D01*
X-19654Y292339D01*
Y293339D01*
X-20653D01*
X-21654Y292339D01*
X-22654Y293339D01*
X-23653D01*
Y292339D01*
X-22654Y291339D01*
X-23653Y290339D01*
Y289339D01*
Y297213D02*
X-22654D01*
X-21654Y298213D01*
X-20653Y297213D01*
X-19654D01*
Y298213D01*
X-20653Y299213D01*
X-19654Y300213D01*
Y301213D01*
X-20653D01*
X-21654Y300213D01*
X-22654Y301213D01*
X-23653D01*
Y300213D01*
X-22654Y299213D01*
X-23653Y298213D01*
Y297213D01*
Y305087D02*
X-22654D01*
X-21654Y306087D01*
X-20653Y305087D01*
X-19654D01*
Y306087D01*
X-20653Y307087D01*
X-19654Y308087D01*
Y309087D01*
X-20653D01*
X-21654Y308087D01*
X-22654Y309087D01*
X-23653D01*
Y308087D01*
X-22654Y307087D01*
X-23653Y306087D01*
Y305087D01*
X-33595Y320736D02*
X-32594D01*
X-31594Y321736D01*
X-30595Y320736D01*
X-29594D01*
Y321736D01*
X-30595Y322736D01*
X-29594Y323736D01*
Y324736D01*
X-30595D01*
X-31594Y323736D01*
X-32594Y324736D01*
X-33595D01*
Y323736D01*
X-32594Y322736D01*
X-33595Y321736D01*
Y320736D01*
X-38319D02*
X-37319D01*
X-36319Y321736D01*
X-35319Y320736D01*
X-34319D01*
Y321736D01*
X-35319Y322736D01*
X-34319Y323736D01*
Y324736D01*
X-35319D01*
X-36319Y323736D01*
X-37319Y324736D01*
X-38319D01*
Y323736D01*
X-37319Y322736D01*
X-38319Y321736D01*
Y320736D01*
X-43339Y320638D02*
X-42339D01*
X-41339Y321638D01*
X-40339Y320638D01*
X-39339D01*
Y321638D01*
X-40339Y322638D01*
X-39339Y323638D01*
Y324638D01*
X-40339D01*
X-41339Y323638D01*
X-42339Y324638D01*
X-43339D01*
Y323638D01*
X-42339Y322638D01*
X-43339Y321638D01*
Y320638D01*
X-41764Y264240D02*
X-40764D01*
X-39764Y265240D01*
X-38764Y264240D01*
X-37764D01*
Y265240D01*
X-38764Y266240D01*
X-37764Y267240D01*
Y268240D01*
X-38764D01*
X-39764Y267240D01*
X-40764Y268240D01*
X-41764D01*
Y267240D01*
X-40764Y266240D01*
X-41764Y265240D01*
Y264240D01*
X-41665Y268866D02*
X-40665D01*
X-39665Y269866D01*
X-38665Y268866D01*
X-37665D01*
Y269866D01*
X-38665Y270866D01*
X-37665Y271866D01*
Y272866D01*
X-38665D01*
X-39665Y271866D01*
X-40665Y272866D01*
X-41665D01*
Y271866D01*
X-40665Y270866D01*
X-41665Y269866D01*
Y268866D01*
X-71193Y81465D02*
X-70193D01*
X-69193Y82465D01*
X-68193Y81465D01*
X-67193D01*
Y82465D01*
X-68193Y83465D01*
X-67193Y84465D01*
Y85465D01*
X-68193D01*
X-69193Y84465D01*
X-70193Y85465D01*
X-71193D01*
Y84465D01*
X-70193Y83465D01*
X-71193Y82465D01*
Y81465D01*
Y85894D02*
X-70193D01*
X-69193Y86894D01*
X-68193Y85894D01*
X-67193D01*
Y86894D01*
X-68193Y87894D01*
X-67193Y88894D01*
Y89894D01*
X-68193D01*
X-69193Y88894D01*
X-70193Y89894D01*
X-71193D01*
Y88894D01*
X-70193Y87894D01*
X-71193Y86894D01*
Y85894D01*
X-127787Y129201D02*
X-126787D01*
X-125787Y130201D01*
X-124787Y129201D01*
X-123787D01*
Y130201D01*
X-124787Y131201D01*
X-123787Y132201D01*
Y133201D01*
X-124787D01*
X-125787Y132201D01*
X-126787Y133201D01*
X-127787D01*
Y132201D01*
X-126787Y131201D01*
X-127787Y130201D01*
Y129201D01*
X-133890D02*
X-132890D01*
X-131890Y130201D01*
X-130890Y129201D01*
X-129890D01*
Y130201D01*
X-130890Y131201D01*
X-129890Y132201D01*
Y133201D01*
X-130890D01*
X-131890Y132201D01*
X-132890Y133201D01*
X-133890D01*
Y132201D01*
X-132890Y131201D01*
X-133890Y130201D01*
Y129201D01*
X-111744Y115520D02*
X-110744D01*
X-109744Y116520D01*
X-108744Y115520D01*
X-107744D01*
Y116520D01*
X-108744Y117520D01*
X-107744Y118520D01*
Y119520D01*
X-108744D01*
X-109744Y118520D01*
X-110744Y119520D01*
X-111744D01*
Y118520D01*
X-110744Y117520D01*
X-111744Y116520D01*
Y115520D01*
X-122276Y64043D02*
X-121276D01*
X-120276Y65043D01*
X-119276Y64043D01*
X-118276D01*
Y65043D01*
X-119276Y66043D01*
X-118276Y67043D01*
Y68043D01*
X-119276D01*
X-120276Y67043D01*
X-121276Y68043D01*
X-122276D01*
Y67043D01*
X-121276Y66043D01*
X-122276Y65043D01*
Y64043D01*
X-109185Y45342D02*
X-108185D01*
X-107185Y46343D01*
X-106185Y45342D01*
X-105185D01*
Y46343D01*
X-106185Y47343D01*
X-105185Y48342D01*
Y49343D01*
X-106185D01*
X-107185Y48342D01*
X-108185Y49343D01*
X-109185D01*
Y48342D01*
X-108185Y47343D01*
X-109185Y46343D01*
Y45342D01*
X-110366Y28709D02*
X-109366D01*
X-108366Y29709D01*
X-107366Y28709D01*
X-106366D01*
Y29709D01*
X-107366Y30709D01*
X-106366Y31709D01*
Y32709D01*
X-107366D01*
X-108366Y31709D01*
X-109366Y32709D01*
X-110366D01*
Y31709D01*
X-109366Y30709D01*
X-110366Y29709D01*
Y28709D01*
X-122039Y17331D02*
X-121039D01*
X-120039Y18331D01*
X-119039Y17331D01*
X-118039D01*
Y18331D01*
X-119039Y19331D01*
X-118039Y20331D01*
Y21331D01*
X-119039D01*
X-120039Y20331D01*
X-121039Y21331D01*
X-122039D01*
Y20331D01*
X-121039Y19331D01*
X-122039Y18331D01*
Y17331D01*
X-171882Y24870D02*
X-170882D01*
X-169882Y25870D01*
X-168882Y24870D01*
X-167882D01*
Y25870D01*
X-168882Y26870D01*
X-167882Y27870D01*
Y28870D01*
X-168882D01*
X-169882Y27870D01*
X-170882Y28870D01*
X-171882D01*
Y27870D01*
X-170882Y26870D01*
X-171882Y25870D01*
Y24870D01*
X-171685Y19752D02*
X-170685D01*
X-169685Y20752D01*
X-168685Y19752D01*
X-167685D01*
Y20752D01*
X-168685Y21752D01*
X-167685Y22752D01*
Y23752D01*
X-168685D01*
X-169685Y22752D01*
X-170685Y23752D01*
X-171685D01*
Y22752D01*
X-170685Y21752D01*
X-171685Y20752D01*
Y19752D01*
X-171980Y14535D02*
X-170980D01*
X-169980Y15535D01*
X-168980Y14535D01*
X-167980D01*
Y15535D01*
X-168980Y16535D01*
X-167980Y17535D01*
Y18535D01*
X-168980D01*
X-169980Y17535D01*
X-170980Y18535D01*
X-171980D01*
Y17535D01*
X-170980Y16535D01*
X-171980Y15535D01*
Y14535D01*
X-154165Y16209D02*
X-153165D01*
X-152165Y17209D01*
X-151165Y16209D01*
X-150165D01*
Y17209D01*
X-151165Y18209D01*
X-150165Y19209D01*
Y20209D01*
X-151165D01*
X-152165Y19209D01*
X-153165Y20209D01*
X-154165D01*
Y19209D01*
X-153165Y18209D01*
X-154165Y17209D01*
Y16209D01*
X-20602Y149575D02*
X-19602D01*
X-18602Y150575D01*
X-17602Y149575D01*
X-16602D01*
Y150575D01*
X-17602Y151575D01*
X-16602Y152575D01*
Y153575D01*
X-17602D01*
X-18602Y152575D01*
X-19602Y153575D01*
X-20602D01*
Y152575D01*
X-19602Y151575D01*
X-20602Y150575D01*
Y149575D01*
X-49047Y148394D02*
X-48047D01*
X-47047Y149394D01*
X-46047Y148394D01*
X-45047D01*
Y149394D01*
X-46047Y150394D01*
X-45047Y151394D01*
Y152394D01*
X-46047D01*
X-47047Y151394D01*
X-48047Y152394D01*
X-49047D01*
Y151394D01*
X-48047Y150394D01*
X-49047Y149394D01*
Y148394D01*
X-43339D02*
X-42339D01*
X-41339Y149394D01*
X-40339Y148394D01*
X-39339D01*
Y149394D01*
X-40339Y150394D01*
X-39339Y151394D01*
Y152394D01*
X-40339D01*
X-41339Y151394D01*
X-42339Y152394D01*
X-43339D01*
Y151394D01*
X-42339Y150394D01*
X-43339Y149394D01*
Y148394D01*
X-63516Y200362D02*
X-62516D01*
X-61516Y201362D01*
X-60516Y200362D01*
X-59516D01*
Y201362D01*
X-60516Y202362D01*
X-59516Y203362D01*
Y204362D01*
X-60516D01*
X-61516Y203362D01*
X-62516Y204362D01*
X-63516D01*
Y203362D01*
X-62516Y202362D01*
X-63516Y201362D01*
Y200362D01*
X-89697Y216012D02*
X-88697D01*
X-87697Y217012D01*
X-86697Y216012D01*
X-85697D01*
Y217012D01*
X-86697Y218012D01*
X-85697Y219012D01*
Y220012D01*
X-86697D01*
X-87697Y219012D01*
X-88697Y220012D01*
X-89697D01*
Y219012D01*
X-88697Y218012D01*
X-89697Y217012D01*
Y216012D01*
X-82020Y204496D02*
X-81020D01*
X-80020Y205496D01*
X-79020Y204496D01*
X-78020D01*
Y205496D01*
X-79020Y206496D01*
X-78020Y207496D01*
Y208496D01*
X-79020D01*
X-80020Y207496D01*
X-81020Y208496D01*
X-82020D01*
Y207496D01*
X-81020Y206496D01*
X-82020Y205496D01*
Y204496D01*
X-99933Y212961D02*
X-98933D01*
X-97933Y213961D01*
X-96933Y212961D01*
X-95933D01*
Y213961D01*
X-96933Y214961D01*
X-95933Y215961D01*
Y216961D01*
X-96933D01*
X-97933Y215961D01*
X-98933Y216961D01*
X-99933D01*
Y215961D01*
X-98933Y214961D01*
X-99933Y213961D01*
Y212961D01*
X-54264Y200067D02*
X-53264D01*
X-52264Y201067D01*
X-51264Y200067D01*
X-50264D01*
Y201067D01*
X-51264Y202067D01*
X-50264Y203067D01*
Y204067D01*
X-51264D01*
X-52264Y203067D01*
X-53264Y204067D01*
X-54264D01*
Y203067D01*
X-53264Y202067D01*
X-54264Y201067D01*
Y200067D01*
X-58890Y196622D02*
X-57890D01*
X-56890Y197622D01*
X-55890Y196622D01*
X-54890D01*
Y197622D01*
X-55890Y198622D01*
X-54890Y199622D01*
Y200622D01*
X-55890D01*
X-56890Y199622D01*
X-57890Y200622D01*
X-58890D01*
Y199622D01*
X-57890Y198622D01*
X-58890Y197622D01*
Y196622D01*
X-89894Y316799D02*
X-88894D01*
X-87894Y317799D01*
X-86894Y316799D01*
X-85894D01*
Y317799D01*
X-86894Y318799D01*
X-85894Y319799D01*
Y320799D01*
X-86894D01*
X-87894Y319799D01*
X-88894Y320799D01*
X-89894D01*
Y319799D01*
X-88894Y318799D01*
X-89894Y317799D01*
Y316799D01*
X-34677Y274969D02*
X-33677D01*
X-32677Y275969D01*
X-31677Y274969D01*
X-30677D01*
Y275969D01*
X-31677Y276969D01*
X-30677Y277969D01*
Y278969D01*
X-31677D01*
X-32677Y277969D01*
X-33677Y278969D01*
X-34677D01*
Y277969D01*
X-33677Y276969D01*
X-34677Y275969D01*
Y274969D01*
X-109087Y89831D02*
X-108087D01*
X-107087Y90831D01*
X-106087Y89831D01*
X-105087D01*
Y90831D01*
X-106087Y91831D01*
X-105087Y92831D01*
Y93831D01*
X-106087D01*
X-107087Y92831D01*
X-108087Y93831D01*
X-109087D01*
Y92831D01*
X-108087Y91831D01*
X-109087Y90831D01*
Y89831D01*
X-163024Y69752D02*
X-162024D01*
X-161024Y70752D01*
X-160024Y69752D01*
X-159024D01*
Y70752D01*
X-160024Y71752D01*
X-159024Y72752D01*
Y73752D01*
X-160024D01*
X-161024Y72752D01*
X-162024Y73752D01*
X-163024D01*
Y72752D01*
X-162024Y71752D01*
X-163024Y70752D01*
Y69752D01*
X-110268Y71524D02*
X-109268D01*
X-108268Y72524D01*
X-107268Y71524D01*
X-106268D01*
Y72524D01*
X-107268Y73524D01*
X-106268Y74524D01*
Y75524D01*
X-107268D01*
X-108268Y74524D01*
X-109268Y75524D01*
X-110268D01*
Y74524D01*
X-109268Y73524D01*
X-110268Y72524D01*
Y71524D01*
X-103772Y86583D02*
X-102772D01*
X-101772Y87583D01*
X-100772Y86583D01*
X-99772D01*
Y87583D01*
X-100772Y88583D01*
X-99772Y89583D01*
Y90583D01*
X-100772D01*
X-101772Y89583D01*
X-102772Y90583D01*
X-103772D01*
Y89583D01*
X-102772Y88583D01*
X-103772Y87583D01*
Y86583D01*
X-164008Y76543D02*
X-163008D01*
X-162008Y77543D01*
X-161008Y76543D01*
X-160008D01*
Y77543D01*
X-161008Y78543D01*
X-160008Y79543D01*
Y80543D01*
X-161008D01*
X-162008Y79543D01*
X-163008Y80543D01*
X-164008D01*
Y79543D01*
X-163008Y78543D01*
X-164008Y77543D01*
Y76543D01*
X-41764Y273787D02*
X-40764D01*
X-39764Y274787D01*
X-38764Y273787D01*
X-37764D01*
Y274787D01*
X-38764Y275787D01*
X-37764Y276787D01*
Y277787D01*
X-38764D01*
X-39764Y276787D01*
X-40764Y277787D01*
X-41764D01*
Y276787D01*
X-40764Y275787D01*
X-41764Y274787D01*
Y273787D01*
X-79264Y197311D02*
X-78264D01*
X-77264Y198311D01*
X-76264Y197311D01*
X-75264D01*
Y198311D01*
X-76264Y199311D01*
X-75264Y200311D01*
Y201311D01*
X-76264D01*
X-77264Y200311D01*
X-78264Y201311D01*
X-79264D01*
Y200311D01*
X-78264Y199311D01*
X-79264Y198311D01*
Y197311D01*
X-52591Y111091D02*
X-51591D01*
X-50591Y112091D01*
X-49591Y111091D01*
X-48591D01*
Y112091D01*
X-49591Y113091D01*
X-48591Y114091D01*
Y115091D01*
X-49591D01*
X-50591Y114091D01*
X-51591Y115091D01*
X-52591D01*
Y114091D01*
X-51591Y113091D01*
X-52591Y112091D01*
Y111091D01*
X-121685Y107941D02*
X-120685D01*
X-119685Y108941D01*
X-118685Y107941D01*
X-117685D01*
Y108941D01*
X-118685Y109941D01*
X-117685Y110941D01*
Y111941D01*
X-118685D01*
X-119685Y110941D01*
X-120685Y111941D01*
X-121685D01*
Y110941D01*
X-120685Y109941D01*
X-121685Y108941D01*
Y107941D01*
X-134874Y118965D02*
X-133874D01*
X-132874Y119965D01*
X-131874Y118965D01*
X-130874D01*
Y119965D01*
X-131874Y120965D01*
X-130874Y121965D01*
Y122965D01*
X-131874D01*
X-132874Y121965D01*
X-133874Y122965D01*
X-134874D01*
Y121965D01*
X-133874Y120965D01*
X-134874Y119965D01*
Y118965D01*
X-120110Y97409D02*
X-119110D01*
X-118110Y98409D01*
X-117110Y97409D01*
X-116110D01*
Y98409D01*
X-117110Y99410D01*
X-116110Y100409D01*
Y101409D01*
X-117110D01*
X-118110Y100409D01*
X-119110Y101409D01*
X-120110D01*
Y100409D01*
X-119110Y99410D01*
X-120110Y98409D01*
Y97409D01*
X-137827Y99968D02*
X-136827D01*
X-135827Y100969D01*
X-134827Y99968D01*
X-133827D01*
Y100969D01*
X-134827Y101969D01*
X-133827Y102969D01*
Y103969D01*
X-134827D01*
X-135827Y102969D01*
X-136827Y103969D01*
X-137827D01*
Y102969D01*
X-136827Y101969D01*
X-137827Y100969D01*
Y99968D01*
X-63959Y246474D02*
X-62959D01*
X-61959Y247474D01*
X-60959Y246474D01*
X-59959D01*
Y247474D01*
X-60959Y248474D01*
X-59959Y249474D01*
Y250474D01*
X-60959D01*
X-61959Y249474D01*
X-62959Y250474D01*
X-63959D01*
Y249474D01*
X-62959Y248474D01*
X-63959Y247474D01*
Y246474D01*
X-60661Y264634D02*
X-59661D01*
X-58661Y265634D01*
X-57661Y264634D01*
X-56661D01*
Y265634D01*
X-57661Y266634D01*
X-56661Y267634D01*
Y268634D01*
X-57661D01*
X-58661Y267634D01*
X-59661Y268634D01*
X-60661D01*
Y267634D01*
X-59661Y266634D01*
X-60661Y265634D01*
Y264634D01*
X-63811Y177035D02*
X-62811D01*
X-61811Y178035D01*
X-60811Y177035D01*
X-59811D01*
Y178035D01*
X-60811Y179035D01*
X-59811Y180035D01*
Y181035D01*
X-60811D01*
X-61811Y180035D01*
X-62811Y181035D01*
X-63811D01*
Y180035D01*
X-62811Y179035D01*
X-63811Y178035D01*
Y177035D01*
X-63614Y172606D02*
X-62614D01*
X-61614Y173606D01*
X-60614Y172606D01*
X-59614D01*
Y173606D01*
X-60614Y174606D01*
X-59614Y175606D01*
Y176606D01*
X-60614D01*
X-61614Y175606D01*
X-62614Y176606D01*
X-63614D01*
Y175606D01*
X-62614Y174606D01*
X-63614Y173606D01*
Y172606D01*
X-106921Y105874D02*
X-105921D01*
X-104921Y106874D01*
X-103921Y105874D01*
X-102921D01*
Y106874D01*
X-103921Y107874D01*
X-102921Y108874D01*
Y109874D01*
X-103921D01*
X-104921Y108874D01*
X-105921Y109874D01*
X-106921D01*
Y108874D01*
X-105921Y107874D01*
X-106921Y106874D01*
Y105874D01*
Y101543D02*
X-105921D01*
X-104921Y102543D01*
X-103921Y101543D01*
X-102921D01*
Y102543D01*
X-103921Y103543D01*
X-102921Y104543D01*
Y105543D01*
X-103921D01*
X-104921Y104543D01*
X-105921Y105543D01*
X-106921D01*
Y104543D01*
X-105921Y103543D01*
X-106921Y102543D01*
Y101543D01*
X-111252Y105874D02*
X-110252D01*
X-109252Y106874D01*
X-108252Y105874D01*
X-107252D01*
Y106874D01*
X-108252Y107874D01*
X-107252Y108874D01*
Y109874D01*
X-108252D01*
X-109252Y108874D01*
X-110252Y109874D01*
X-111252D01*
Y108874D01*
X-110252Y107874D01*
X-111252Y106874D01*
Y105874D01*
Y101543D02*
X-110252D01*
X-109252Y102543D01*
X-108252Y101543D01*
X-107252D01*
Y102543D01*
X-108252Y103543D01*
X-107252Y104543D01*
Y105543D01*
X-108252D01*
X-109252Y104543D01*
X-110252Y105543D01*
X-111252D01*
Y104543D01*
X-110252Y103543D01*
X-111252Y102543D01*
Y101543D01*
X-163122Y8138D02*
X-162122D01*
X-161122Y9138D01*
X-160122Y8138D01*
X-159122D01*
Y9138D01*
X-160122Y10138D01*
X-159122Y11138D01*
Y12138D01*
X-160122D01*
X-161122Y11138D01*
X-162122Y12138D01*
X-163122D01*
Y11138D01*
X-162122Y10138D01*
X-163122Y9138D01*
Y8138D01*
Y2823D02*
X-162122D01*
X-161122Y3823D01*
X-160122Y2823D01*
X-159122D01*
Y3823D01*
X-160122Y4823D01*
X-159122Y5823D01*
Y6823D01*
X-160122D01*
X-161122Y5823D01*
X-162122Y6823D01*
X-163122D01*
Y5823D01*
X-162122Y4823D01*
X-163122Y3823D01*
Y2823D01*
D113*
X-117323Y40157D02*
G03*
X-117323Y40157I-2000J0D01*
G01*
X-88504D02*
G03*
X-88504Y40157I-2000J0D01*
G01*
X-75000D02*
G03*
X-75000Y40157I-2000J0D01*
G01*
X-46181D02*
G03*
X-46181Y40157I-2000J0D01*
G01*
X-32972Y40059D02*
G03*
X-32972Y40059I-2000J0D01*
G01*
X-4154D02*
G03*
X-4154Y40059I-2000J0D01*
G01*
X-38717Y297244D02*
G03*
X-38717Y297244I-2000J0D01*
G01*
X-67535D02*
G03*
X-67535Y297244I-2000J0D01*
G01*
M02*
