%FSLAX25Y25*%
%MOIN*%
G70*
G01*
G75*
%ADD10R,0.01575X0.07874*%
%ADD11R,0.03150X0.03150*%
%ADD12R,0.11024X0.06693*%
%ADD13R,0.11024X0.10236*%
%ADD14R,0.02756X0.03937*%
%ADD15R,0.03937X0.04331*%
%ADD16R,0.04843X0.07087*%
%ADD17R,0.04331X0.03937*%
%ADD18R,0.07874X0.12402*%
%ADD19R,0.06299X0.07087*%
%ADD20R,0.05000X0.11496*%
%ADD21R,0.03937X0.03740*%
%ADD22R,0.07087X0.04843*%
%ADD23R,0.29134X0.21654*%
%ADD24R,0.07480X0.03740*%
%ADD25R,0.02165X0.05709*%
%ADD26R,0.08425X0.08425*%
%ADD27R,0.03150X0.01102*%
%ADD28R,0.01102X0.03150*%
%ADD29R,0.08465X0.13386*%
%ADD30R,0.03740X0.03937*%
%ADD31R,0.11024X0.07480*%
%ADD32R,0.06201X0.06201*%
%ADD33R,0.07205X0.13504*%
%ADD34R,0.33071X0.41339*%
%ADD35R,0.12992X0.04134*%
%ADD36R,0.09449X0.10236*%
%ADD37R,0.10236X0.09449*%
%ADD38O,0.06496X0.02165*%
%ADD39O,0.02165X0.06496*%
%ADD40R,0.03150X0.03150*%
%ADD41R,0.21654X0.29134*%
%ADD42R,0.03740X0.07480*%
%ADD43C,0.01181*%
%ADD44C,0.06299*%
%ADD45C,0.03937*%
%ADD46C,0.07874*%
%ADD47C,0.05906*%
%ADD48C,0.01969*%
%ADD49C,0.05512*%
%ADD50C,0.02362*%
%ADD51C,0.01575*%
%ADD52C,0.01000*%
%ADD53C,0.03150*%
%ADD54R,0.28642X0.17323*%
%ADD55C,0.05906*%
%ADD56R,0.05906X0.05906*%
%ADD57R,0.05906X0.05906*%
%ADD58C,0.07874*%
%ADD59R,0.13780X0.13780*%
%ADD60C,0.13780*%
%ADD61C,0.03150*%
%ADD62C,0.01969*%
%ADD63C,0.00787*%
%ADD64C,0.00984*%
%ADD65C,0.00591*%
%ADD66C,0.00800*%
D50*
X-54528Y233563D02*
G03*
X-54528Y233563I-1181J0D01*
G01*
D52*
X-90823Y64657D02*
G03*
X-90823Y64657I-1118J0D01*
G01*
X-48500D02*
G03*
X-48500Y64657I-1118J0D01*
G01*
X-6472Y64559D02*
G03*
X-6472Y64559I-1118J0D01*
G01*
X-66980Y272744D02*
G03*
X-66980Y272744I-1118J0D01*
G01*
X-12500Y200886D02*
Y206884D01*
X-9501D01*
X-8501Y205884D01*
Y203885D01*
X-9501Y202885D01*
X-12500D01*
X-6502Y200886D02*
X-4503D01*
X-5502D01*
Y206884D01*
X-6502Y205884D01*
X-49840Y323715D02*
X-51839D01*
X-50840D01*
Y318716D01*
X-51839Y317717D01*
X-52839D01*
X-53839Y318716D01*
X-47840Y317717D02*
X-45841D01*
X-46841D01*
Y323715D01*
X-47840Y322715D01*
X-21850Y17960D02*
X-17852D01*
X-19851Y19959D02*
Y15960D01*
X-56299Y18058D02*
X-52301D01*
X-54300Y20057D02*
Y16059D01*
X-100197Y17861D02*
X-96198D01*
X-98198Y19861D02*
Y15862D01*
X-28740Y18353D02*
X-24742D01*
X-67421Y17960D02*
X-63423D01*
X-110138Y18452D02*
X-106139D01*
D63*
X-134429Y5315D02*
G03*
X-134429Y5315I-315J0D01*
G01*
X-135906Y45374D02*
G03*
X-135906Y45374I-315J0D01*
G01*
X-126654D02*
G03*
X-126654Y45374I-315J0D01*
G01*
X-48701Y83169D02*
G03*
X-48701Y83169I-315J0D01*
G01*
Y73819D02*
G03*
X-48701Y73819I-315J0D01*
G01*
X-80020Y253051D02*
Y260335D01*
X-65847Y253051D02*
Y260335D01*
X-176378Y52362D02*
X-172441D01*
X-178347Y57087D02*
X-176378Y58661D01*
X-178347Y53937D02*
X-176378Y52362D01*
Y58661D02*
X-172441D01*
X-178347Y53937D02*
Y57087D01*
X-164961Y52362D02*
Y58661D01*
X-169685Y52362D02*
X-164961D01*
X-169685Y58661D02*
X-164961D01*
X-146571Y15508D02*
Y37508D01*
X-162571Y40256D02*
X-159071D01*
X-163071Y8508D02*
X-159071D01*
X-82284Y76279D02*
Y80315D01*
X-134153Y13189D02*
Y15157D01*
X-127854Y13189D02*
Y15157D01*
X-136811Y35531D02*
Y37500D01*
X-143110Y35531D02*
Y37500D01*
X-127559Y35531D02*
Y37500D01*
X-133858Y35531D02*
Y37500D01*
X-169291Y73032D02*
X-165354D01*
Y66732D02*
X-163386Y68307D01*
X-165354Y73032D02*
X-163386Y71457D01*
X-169291Y66732D02*
X-165354D01*
X-163386Y68307D02*
Y71457D01*
X-176772Y66732D02*
Y73032D01*
X-172047D01*
X-176772Y66732D02*
X-172047D01*
X-158760Y73130D02*
X-130807D01*
X-158760Y48327D02*
X-130807D01*
X-158760Y68504D02*
Y73130D01*
X-130807Y68504D02*
Y73130D01*
X-158760Y48327D02*
Y52953D01*
X-130807Y48327D02*
Y52953D01*
X-145374Y82382D02*
X-143012D01*
X-145374Y76083D02*
X-143012D01*
X-133268Y75098D02*
Y79134D01*
X-120819Y22047D02*
X-85878D01*
X-123839D02*
X-120819D01*
X-123949Y22158D02*
X-123839Y22047D01*
X-123949Y22158D02*
Y34657D01*
X-123823Y44157D02*
Y61024D01*
X-114823D01*
X-85878Y22047D02*
Y34653D01*
X-86004Y45658D02*
Y61024D01*
X-95004D02*
X-86004D01*
X-78496Y22047D02*
X-43555D01*
X-81516D02*
X-78496D01*
X-81626Y22158D02*
X-81516Y22047D01*
X-81626Y22158D02*
Y34657D01*
X-81500Y44157D02*
Y61024D01*
X-72500D01*
X-43555Y22047D02*
Y34653D01*
X-43681Y45658D02*
Y61024D01*
X-52681D02*
X-43681D01*
X-36468Y21949D02*
X-1528D01*
X-39488D02*
X-36468D01*
X-39598Y22059D02*
X-39488Y21949D01*
X-39598Y22059D02*
Y34559D01*
X-39472Y44059D02*
Y60925D01*
X-30472D01*
X-1528Y21949D02*
Y34555D01*
X-1654Y45559D02*
Y60925D01*
X-10654D02*
X-1654D01*
X-58858Y83760D02*
X-56890D01*
X-58858Y90059D02*
X-56890D01*
X-58858Y74410D02*
X-56890D01*
X-58858Y80709D02*
X-56890D01*
X-149114Y86614D02*
Y112992D01*
X-148327Y116240D02*
Y142618D01*
X-127067Y117421D02*
Y121457D01*
X-133563Y104331D02*
X-132776D01*
X-133563Y111811D02*
X-132776D01*
X-128445Y104331D02*
X-127657D01*
X-128445Y111811D02*
X-127657D01*
X-133563Y104331D02*
Y111811D01*
X-127657Y104331D02*
Y111811D01*
X-128445Y104331D02*
Y105905D01*
X-127657D01*
X-133563D02*
X-132776D01*
Y104331D02*
Y105905D01*
X-99409Y98032D02*
Y100630D01*
X-102008Y98032D02*
X-99409D01*
Y110787D02*
Y113386D01*
X-102008D02*
X-99409D01*
X-114764D02*
X-112165D01*
X-114764Y110787D02*
Y113386D01*
Y98032D02*
Y100630D01*
Y98032D02*
X-112165D01*
X-76772Y105709D02*
X-65748D01*
X-76772Y118307D02*
X-65748D01*
X-44059Y115425D02*
X-12059D01*
X-44059Y90425D02*
Y115425D01*
X-11059Y80925D02*
Y106425D01*
X-41559Y80925D02*
X-11059D01*
X-117028Y124803D02*
X-89075D01*
X-117028Y151575D02*
X-89075D01*
Y124803D02*
Y129862D01*
X-117028Y124803D02*
Y129862D01*
X-89075Y146516D02*
Y151575D01*
X-117028Y146516D02*
Y151575D01*
X-50098Y170866D02*
X-44193D01*
Y129921D02*
Y170866D01*
X-50098Y129921D02*
X-44193D01*
X-19882Y162106D02*
X-19685D01*
X-1969D02*
X-1772D01*
Y132185D02*
Y162106D01*
X-19882Y132185D02*
Y162106D01*
X-1969Y132185D02*
X-1772D01*
X-19882D02*
X-19685D01*
X-19882Y141240D02*
X-1772D01*
X-35925Y173425D02*
Y173622D01*
Y191339D02*
Y191535D01*
X-6004D01*
X-35925Y173425D02*
X-6004D01*
Y191339D02*
Y191535D01*
Y173425D02*
Y173622D01*
X-15059Y173425D02*
Y191535D01*
X-22028Y210433D02*
Y229600D01*
Y210433D02*
Y240433D01*
X-2028Y210433D02*
Y240433D01*
X-22028D02*
X-2028D01*
X-22028Y210433D02*
X-2028D01*
X-1102Y253760D02*
Y263760D01*
X-31102Y253760D02*
X-1102D01*
X-31102D02*
Y263760D01*
X-1102D01*
X-75000Y214272D02*
Y237500D01*
X-51772Y214272D02*
Y237500D01*
X-75000Y214272D02*
X-51772D01*
X-75000Y237500D02*
X-51772D01*
X-85728Y327756D02*
Y331693D01*
X-81004Y333661D02*
X-79429Y331693D01*
X-85728D02*
X-84153Y333661D01*
X-79429Y327756D02*
Y331693D01*
X-84153Y333661D02*
X-81004D01*
X-85728Y320276D02*
X-79429D01*
X-85728D02*
Y325000D01*
X-79429Y320276D02*
Y325000D01*
X-74161Y315354D02*
X-39220D01*
X-36201D01*
X-36091Y315244D01*
Y302744D02*
Y315244D01*
X-36217Y276378D02*
Y293244D01*
X-45217Y276378D02*
X-36217D01*
X-74161Y302748D02*
Y315354D01*
X-74035Y276378D02*
Y291744D01*
Y276378D02*
X-65035D01*
X-29921Y314173D02*
X-3543D01*
X-13386Y273622D02*
X-9449D01*
X-15354Y278346D02*
X-13386Y279921D01*
X-15354Y275197D02*
X-13386Y273622D01*
Y279921D02*
X-9449D01*
X-15354Y275197D02*
Y278346D01*
X-1969Y273622D02*
Y279921D01*
X-6693Y273622D02*
X-1969D01*
X-6693Y279921D02*
X-1969D01*
D64*
X-127756Y69095D02*
G03*
X-127756Y69095I-492J0D01*
G01*
X-140157Y86791D02*
G03*
X-140157Y86791I-492J0D01*
G01*
X-139370Y116417D02*
G03*
X-139370Y116417I-492J0D01*
G01*
X-113681Y95472D02*
G03*
X-113681Y95472I-492J0D01*
G01*
X-30118Y136161D02*
G03*
X-30118Y136161I-492J0D01*
G01*
X-19390Y129626D02*
G03*
X-19390Y129626I-492J0D01*
G01*
X-2953Y173425D02*
G03*
X-2953Y173425I-492J0D01*
G01*
X-48622Y242421D02*
G03*
X-48622Y242421I-492J0D01*
G01*
X-3228Y322638D02*
G03*
X-3228Y322638I-492J0D01*
G01*
D65*
X-82300Y265858D02*
Y265465D01*
X-81513Y264678D01*
X-80726Y265465D01*
Y265858D01*
X-81513Y264678D02*
Y263497D01*
X-79939D02*
X-79151D01*
X-79545D01*
Y265858D01*
X-79939Y265465D01*
X-33760Y196555D02*
X-34154Y196948D01*
X-34941D01*
X-35335Y196555D01*
Y194980D01*
X-34941Y194587D01*
X-34154D01*
X-33760Y194980D01*
X-32973Y196555D02*
X-32580Y196948D01*
X-31793D01*
X-31399Y196555D01*
Y196161D01*
X-31793Y195767D01*
X-32186D01*
X-31793D01*
X-31399Y195374D01*
Y194980D01*
X-31793Y194587D01*
X-32580D01*
X-32973Y194980D01*
X-5709Y112106D02*
X-6103Y112499D01*
X-6890D01*
X-7283Y112106D01*
Y110531D01*
X-6890Y110138D01*
X-6103D01*
X-5709Y110531D01*
X-3741Y110138D02*
Y112499D01*
X-4922Y111319D01*
X-3348D01*
X-46457Y197440D02*
X-46851Y197834D01*
X-47638D01*
X-48031Y197440D01*
Y195866D01*
X-47638Y195472D01*
X-46851D01*
X-46457Y195866D01*
X-44096Y197834D02*
X-45670D01*
Y196653D01*
X-44883Y197047D01*
X-44489D01*
X-44096Y196653D01*
Y195866D01*
X-44489Y195472D01*
X-45276D01*
X-45670Y195866D01*
X-12008Y169192D02*
X-12402Y169586D01*
X-13189D01*
X-13583Y169192D01*
Y167618D01*
X-13189Y167224D01*
X-12402D01*
X-12008Y167618D01*
X-9647Y169586D02*
X-10434Y169192D01*
X-11221Y168405D01*
Y167618D01*
X-10828Y167224D01*
X-10041D01*
X-9647Y167618D01*
Y168012D01*
X-10041Y168405D01*
X-11221D01*
X-130611Y26082D02*
X-131004Y26476D01*
X-131791D01*
X-132185Y26082D01*
Y24508D01*
X-131791Y24114D01*
X-131004D01*
X-130611Y24508D01*
X-129824Y26476D02*
X-128249D01*
Y26082D01*
X-129824Y24508D01*
Y24114D01*
X-140552Y25688D02*
X-140945Y26082D01*
X-141732D01*
X-142126Y25688D01*
Y24114D01*
X-141732Y23720D01*
X-140945D01*
X-140552Y24114D01*
X-139764Y25688D02*
X-139371Y26082D01*
X-138584D01*
X-138190Y25688D01*
Y25295D01*
X-138584Y24901D01*
X-138190Y24508D01*
Y24114D01*
X-138584Y23720D01*
X-139371D01*
X-139764Y24114D01*
Y24508D01*
X-139371Y24901D01*
X-139764Y25295D01*
Y25688D01*
X-139371Y24901D02*
X-138584D01*
X-125197Y8562D02*
X-125591Y8956D01*
X-126378D01*
X-126772Y8562D01*
Y6988D01*
X-126378Y6594D01*
X-125591D01*
X-125197Y6988D01*
X-124410D02*
X-124017Y6594D01*
X-123230D01*
X-122836Y6988D01*
Y8562D01*
X-123230Y8956D01*
X-124017D01*
X-124410Y8562D01*
Y8169D01*
X-124017Y7775D01*
X-122836D01*
X-129725Y82873D02*
X-130119Y83267D01*
X-130906D01*
X-131299Y82873D01*
Y81299D01*
X-130906Y80905D01*
X-130119D01*
X-129725Y81299D01*
X-128938Y80905D02*
X-128151D01*
X-128544D01*
Y83267D01*
X-128938Y82873D01*
X-126970D02*
X-126576Y83267D01*
X-125789D01*
X-125396Y82873D01*
Y81299D01*
X-125789Y80905D01*
X-126576D01*
X-126970Y81299D01*
Y82873D01*
X-125394Y100393D02*
X-125788Y100787D01*
X-126575D01*
X-126969Y100393D01*
Y98819D01*
X-126575Y98425D01*
X-125788D01*
X-125394Y98819D01*
X-124607Y98425D02*
X-123820D01*
X-124214D01*
Y100787D01*
X-124607Y100393D01*
X-122639Y98425D02*
X-121852D01*
X-122246D01*
Y100787D01*
X-122639Y100393D01*
X-59548Y94684D02*
X-59941Y95078D01*
X-60729D01*
X-61122Y94684D01*
Y93110D01*
X-60729Y92716D01*
X-59941D01*
X-59548Y93110D01*
X-58761Y92716D02*
X-57973D01*
X-58367D01*
Y95078D01*
X-58761Y94684D01*
X-55218Y92716D02*
X-56793D01*
X-55218Y94291D01*
Y94684D01*
X-55612Y95078D01*
X-56399D01*
X-56793Y94684D01*
X-59449Y72047D02*
X-59843Y72440D01*
X-60630D01*
X-61024Y72047D01*
Y70472D01*
X-60630Y70079D01*
X-59843D01*
X-59449Y70472D01*
X-58662Y70079D02*
X-57875D01*
X-58269D01*
Y72440D01*
X-58662Y72047D01*
X-56694D02*
X-56301Y72440D01*
X-55514D01*
X-55120Y72047D01*
Y71653D01*
X-55514Y71259D01*
X-55907D01*
X-55514D01*
X-55120Y70866D01*
Y70472D01*
X-55514Y70079D01*
X-56301D01*
X-56694Y70472D01*
X-58859Y124507D02*
X-59252Y124901D01*
X-60040D01*
X-60433Y124507D01*
Y122933D01*
X-60040Y122539D01*
X-59252D01*
X-58859Y122933D01*
X-58072Y122539D02*
X-57284D01*
X-57678D01*
Y124901D01*
X-58072Y124507D01*
X-54923Y122539D02*
Y124901D01*
X-56104Y123720D01*
X-54530D01*
X-78741Y74507D02*
X-79134Y74901D01*
X-79921D01*
X-80315Y74507D01*
Y72933D01*
X-79921Y72539D01*
X-79134D01*
X-78741Y72933D01*
X-77953Y72539D02*
X-77166D01*
X-77560D01*
Y74901D01*
X-77953Y74507D01*
X-74411Y74901D02*
X-75986D01*
Y73720D01*
X-75199Y74114D01*
X-74805D01*
X-74411Y73720D01*
Y72933D01*
X-74805Y72539D01*
X-75592D01*
X-75986Y72933D01*
X-123524Y125491D02*
X-123918Y125885D01*
X-124705D01*
X-125098Y125491D01*
Y123917D01*
X-124705Y123524D01*
X-123918D01*
X-123524Y123917D01*
X-122737Y123524D02*
X-121950D01*
X-122343D01*
Y125885D01*
X-122737Y125491D01*
X-119195Y125885D02*
X-119982Y125491D01*
X-120769Y124704D01*
Y123917D01*
X-120376Y123524D01*
X-119588D01*
X-119195Y123917D01*
Y124311D01*
X-119588Y124704D01*
X-120769D01*
X-90847Y121555D02*
X-91241Y121948D01*
X-92028D01*
X-92421Y121555D01*
Y119980D01*
X-92028Y119587D01*
X-91241D01*
X-90847Y119980D01*
X-90060Y119587D02*
X-89273D01*
X-89666D01*
Y121948D01*
X-90060Y121555D01*
X-88092Y121948D02*
X-86518D01*
Y121555D01*
X-88092Y119980D01*
Y119587D01*
X-115847Y74999D02*
X-116241Y75393D01*
X-117028D01*
X-117421Y74999D01*
Y73425D01*
X-117028Y73032D01*
X-116241D01*
X-115847Y73425D01*
X-115060Y73032D02*
X-114273D01*
X-114666D01*
Y75393D01*
X-115060Y74999D01*
X-113092D02*
X-112698Y75393D01*
X-111911D01*
X-111518Y74999D01*
Y74606D01*
X-111911Y74212D01*
X-111518Y73819D01*
Y73425D01*
X-111911Y73032D01*
X-112698D01*
X-113092Y73425D01*
Y73819D01*
X-112698Y74212D01*
X-113092Y74606D01*
Y74999D01*
X-112698Y74212D02*
X-111911D01*
X-91043Y333169D02*
Y330807D01*
X-89863D01*
X-89469Y331201D01*
Y332775D01*
X-89863Y333169D01*
X-91043D01*
X-88682Y330807D02*
X-87895D01*
X-88288D01*
Y333169D01*
X-88682Y332775D01*
X-157874Y77755D02*
Y75394D01*
X-156693D01*
X-156300Y75787D01*
Y77362D01*
X-156693Y77755D01*
X-157874D01*
X-153938Y75394D02*
X-155513D01*
X-153938Y76968D01*
Y77362D01*
X-154332Y77755D01*
X-155119D01*
X-155513Y77362D01*
X-136909Y116042D02*
Y113681D01*
X-135729D01*
X-135335Y114075D01*
Y115649D01*
X-135729Y116042D01*
X-136909D01*
X-134548Y115649D02*
X-134154Y116042D01*
X-133367D01*
X-132974Y115649D01*
Y115255D01*
X-133367Y114862D01*
X-133761D01*
X-133367D01*
X-132974Y114468D01*
Y114075D01*
X-133367Y113681D01*
X-134154D01*
X-134548Y114075D01*
X-168799Y50393D02*
Y48031D01*
X-167619D01*
X-167225Y48425D01*
Y49999D01*
X-167619Y50393D01*
X-168799D01*
X-165257Y48031D02*
Y50393D01*
X-166438Y49212D01*
X-164864D01*
X-180216Y75394D02*
X-177854D01*
Y76574D01*
X-178248Y76968D01*
X-179822D01*
X-180216Y76574D01*
Y75394D01*
Y79329D02*
Y77755D01*
X-179035D01*
X-179429Y78542D01*
Y78936D01*
X-179035Y79329D01*
X-178248D01*
X-177854Y78936D01*
Y78149D01*
X-178248Y77755D01*
X-13583Y271850D02*
Y269488D01*
X-12402D01*
X-12008Y269882D01*
Y271456D01*
X-12402Y271850D01*
X-13583D01*
X-9647D02*
X-10434Y271456D01*
X-11221Y270669D01*
Y269882D01*
X-10828Y269488D01*
X-10041D01*
X-9647Y269882D01*
Y270275D01*
X-10041Y270669D01*
X-11221D01*
X-179823Y44586D02*
X-180611D01*
X-180217D01*
Y42618D01*
X-180611Y42224D01*
X-181004D01*
X-181398Y42618D01*
X-177462Y44586D02*
X-179036D01*
Y43405D01*
X-178249Y43799D01*
X-177856D01*
X-177462Y43405D01*
Y42618D01*
X-177856Y42224D01*
X-178643D01*
X-179036Y42618D01*
X-94193Y156397D02*
Y154035D01*
X-92619D01*
X-91831D02*
X-91044D01*
X-91438D01*
Y156397D01*
X-91831Y156003D01*
X-7776Y265846D02*
Y268208D01*
X-6595D01*
X-6201Y267814D01*
Y267027D01*
X-6595Y266634D01*
X-7776D01*
X-3840Y265846D02*
X-5414D01*
X-3840Y267421D01*
Y267814D01*
X-4233Y268208D01*
X-5021D01*
X-5414Y267814D01*
X-152657Y328543D02*
Y330905D01*
X-151477D01*
X-151083Y330511D01*
Y329724D01*
X-151477Y329330D01*
X-152657D01*
X-150296Y330511D02*
X-149902Y330905D01*
X-149115D01*
X-148722Y330511D01*
Y330118D01*
X-149115Y329724D01*
X-149509D01*
X-149115D01*
X-148722Y329330D01*
Y328937D01*
X-149115Y328543D01*
X-149902D01*
X-150296Y328937D01*
X-109350Y329134D02*
Y331495D01*
X-108170D01*
X-107776Y331102D01*
Y330315D01*
X-108170Y329921D01*
X-109350D01*
X-105808Y329134D02*
Y331495D01*
X-106989Y330315D01*
X-105415D01*
X-12894Y319980D02*
Y321554D01*
X-13288Y321948D01*
X-14075D01*
X-14469Y321554D01*
Y319980D01*
X-14075Y319587D01*
X-13288D01*
X-13681Y320374D02*
X-12894Y319587D01*
X-13288D02*
X-12894Y319980D01*
X-12107Y319587D02*
X-11320D01*
X-11714D01*
Y321948D01*
X-12107Y321554D01*
X-178347Y112992D02*
Y114566D01*
X-178741Y114960D01*
X-179528D01*
X-179921Y114566D01*
Y112992D01*
X-179528Y112598D01*
X-178741D01*
X-179134Y113386D02*
X-178347Y112598D01*
X-178741D02*
X-178347Y112992D01*
X-175986Y112598D02*
X-177560D01*
X-175986Y114173D01*
Y114566D01*
X-176379Y114960D01*
X-177166D01*
X-177560Y114566D01*
X-177461Y143405D02*
Y144980D01*
X-177855Y145373D01*
X-178642D01*
X-179035Y144980D01*
Y143405D01*
X-178642Y143012D01*
X-177855D01*
X-178248Y143799D02*
X-177461Y143012D01*
X-177855D02*
X-177461Y143405D01*
X-176674Y144980D02*
X-176280Y145373D01*
X-175493D01*
X-175100Y144980D01*
Y144586D01*
X-175493Y144193D01*
X-175887D01*
X-175493D01*
X-175100Y143799D01*
Y143405D01*
X-175493Y143012D01*
X-176280D01*
X-176674Y143405D01*
X-15945Y324606D02*
Y326968D01*
X-14764D01*
X-14371Y326574D01*
Y325787D01*
X-14764Y325393D01*
X-15945D01*
X-15158D02*
X-14371Y324606D01*
X-13583D02*
X-12796D01*
X-13190D01*
Y326968D01*
X-13583Y326574D01*
X-36024Y329724D02*
Y332086D01*
X-34843D01*
X-34449Y331692D01*
Y330905D01*
X-34843Y330512D01*
X-36024D01*
X-35236D02*
X-34449Y329724D01*
X-32088D02*
X-33662D01*
X-32088Y331299D01*
Y331692D01*
X-32482Y332086D01*
X-33269D01*
X-33662Y331692D01*
X-76378Y309941D02*
X-78739D01*
Y311122D01*
X-78346Y311515D01*
X-77559D01*
X-77165Y311122D01*
Y309941D01*
Y310728D02*
X-76378Y311515D01*
X-78346Y312302D02*
X-78739Y312696D01*
Y313483D01*
X-78346Y313877D01*
X-77952D01*
X-77559Y313483D01*
Y313089D01*
Y313483D01*
X-77165Y313877D01*
X-76771D01*
X-76378Y313483D01*
Y312696D01*
X-76771Y312302D01*
X-142421Y5217D02*
Y7578D01*
X-141241D01*
X-140847Y7184D01*
Y6397D01*
X-141241Y6004D01*
X-142421D01*
X-141634D02*
X-140847Y5217D01*
X-138879D02*
Y7578D01*
X-140060Y6397D01*
X-138486D01*
X-147047Y84252D02*
Y86613D01*
X-145867D01*
X-145473Y86220D01*
Y85433D01*
X-145867Y85039D01*
X-147047D01*
X-146260D02*
X-145473Y84252D01*
X-143112Y86613D02*
X-144686D01*
Y85433D01*
X-143899Y85826D01*
X-143505D01*
X-143112Y85433D01*
Y84645D01*
X-143505Y84252D01*
X-144292D01*
X-144686Y84645D01*
X-73032Y101279D02*
Y103641D01*
X-71851D01*
X-71457Y103247D01*
Y102460D01*
X-71851Y102067D01*
X-73032D01*
X-72244D02*
X-71457Y101279D01*
X-69096Y103641D02*
X-69883Y103247D01*
X-70670Y102460D01*
Y101673D01*
X-70276Y101279D01*
X-69489D01*
X-69096Y101673D01*
Y102067D01*
X-69489Y102460D01*
X-70670D01*
X-176870Y60728D02*
X-179232D01*
Y61909D01*
X-178838Y62303D01*
X-178051D01*
X-177657Y61909D01*
Y60728D01*
Y61515D02*
X-176870Y62303D01*
X-179232Y63090D02*
Y64664D01*
X-178838D01*
X-177264Y63090D01*
X-176870D01*
X-79528Y97146D02*
Y99507D01*
X-78347D01*
X-77953Y99114D01*
Y98326D01*
X-78347Y97933D01*
X-79528D01*
X-78740D02*
X-77953Y97146D01*
X-77166Y99114D02*
X-76773Y99507D01*
X-75985D01*
X-75592Y99114D01*
Y98720D01*
X-75985Y98326D01*
X-75592Y97933D01*
Y97539D01*
X-75985Y97146D01*
X-76773D01*
X-77166Y97539D01*
Y97933D01*
X-76773Y98326D01*
X-77166Y98720D01*
Y99114D01*
X-76773Y98326D02*
X-75985D01*
X-171850Y82480D02*
Y84842D01*
X-170670D01*
X-170276Y84448D01*
Y83661D01*
X-170670Y83267D01*
X-171850D01*
X-171063D02*
X-170276Y82480D01*
X-169489Y82874D02*
X-169095Y82480D01*
X-168308D01*
X-167915Y82874D01*
Y84448D01*
X-168308Y84842D01*
X-169095D01*
X-169489Y84448D01*
Y84055D01*
X-169095Y83661D01*
X-167915D01*
X-98425Y90354D02*
X-100787D01*
Y91535D01*
X-100393Y91929D01*
X-99606D01*
X-99212Y91535D01*
Y90354D01*
Y91141D02*
X-98425Y91929D01*
Y92716D02*
Y93503D01*
Y93109D01*
X-100787D01*
X-100393Y92716D01*
Y94684D02*
X-100787Y95077D01*
Y95864D01*
X-100393Y96258D01*
X-98819D01*
X-98425Y95864D01*
Y95077D01*
X-98819Y94684D01*
X-100393D01*
X-80709Y81988D02*
Y84350D01*
X-79528D01*
X-79134Y83956D01*
Y83169D01*
X-79528Y82775D01*
X-80709D01*
X-79922D02*
X-79134Y81988D01*
X-78347D02*
X-77560D01*
X-77954D01*
Y84350D01*
X-78347Y83956D01*
X-76379Y81988D02*
X-75592D01*
X-75986D01*
Y84350D01*
X-76379Y83956D01*
X-91634Y99114D02*
Y101476D01*
X-90453D01*
X-90060Y101082D01*
Y100295D01*
X-90453Y99901D01*
X-91634D01*
X-90847D02*
X-90060Y99114D01*
X-89272D02*
X-88485D01*
X-88879D01*
Y101476D01*
X-89272Y101082D01*
X-85730Y99114D02*
X-87305D01*
X-85730Y100689D01*
Y101082D01*
X-86124Y101476D01*
X-86911D01*
X-87305Y101082D01*
X-83661Y78740D02*
X-86023D01*
Y79921D01*
X-85629Y80314D01*
X-84842D01*
X-84449Y79921D01*
Y78740D01*
Y79527D02*
X-83661Y80314D01*
Y81102D02*
Y81889D01*
Y81495D01*
X-86023D01*
X-85629Y81102D01*
Y83069D02*
X-86023Y83463D01*
Y84250D01*
X-85629Y84644D01*
X-85236D01*
X-84842Y84250D01*
Y83857D01*
Y84250D01*
X-84449Y84644D01*
X-84055D01*
X-83661Y84250D01*
Y83463D01*
X-84055Y83069D01*
X-105118Y69784D02*
Y72145D01*
X-103937D01*
X-103544Y71751D01*
Y70964D01*
X-103937Y70571D01*
X-105118D01*
X-104331D02*
X-103544Y69784D01*
X-102757D02*
X-101970D01*
X-102363D01*
Y72145D01*
X-102757Y71751D01*
X-99608Y69784D02*
Y72145D01*
X-100789Y70964D01*
X-99215D01*
X-95669Y70374D02*
Y72736D01*
X-94489D01*
X-94095Y72342D01*
Y71555D01*
X-94489Y71161D01*
X-95669D01*
X-94882D02*
X-94095Y70374D01*
X-93308D02*
X-92521D01*
X-92914D01*
Y72736D01*
X-93308Y72342D01*
X-89766Y72736D02*
X-91340D01*
Y71555D01*
X-90553Y71948D01*
X-90159D01*
X-89766Y71555D01*
Y70768D01*
X-90159Y70374D01*
X-90946D01*
X-91340Y70768D01*
X-25886Y270571D02*
Y272932D01*
X-24705D01*
X-24311Y272539D01*
Y271752D01*
X-24705Y271358D01*
X-25886D01*
X-25099D02*
X-24311Y270571D01*
X-23524D02*
X-22737D01*
X-23131D01*
Y272932D01*
X-23524Y272539D01*
X-19982Y272932D02*
X-20769Y272539D01*
X-21556Y271752D01*
Y270964D01*
X-21163Y270571D01*
X-20376D01*
X-19982Y270964D01*
Y271358D01*
X-20376Y271752D01*
X-21556D01*
X-7481Y101869D02*
X-7874Y102263D01*
X-8662D01*
X-9055Y101869D01*
Y101476D01*
X-8662Y101082D01*
X-7874D01*
X-7481Y100689D01*
Y100295D01*
X-7874Y99902D01*
X-8662D01*
X-9055Y100295D01*
X-6694Y102263D02*
Y99902D01*
X-5906Y100689D01*
X-5119Y99902D01*
Y102263D01*
X-4332Y99902D02*
X-3545D01*
X-3939D01*
Y102263D01*
X-4332Y101869D01*
X-49508Y247736D02*
Y245768D01*
X-49114Y245374D01*
X-48327D01*
X-47934Y245768D01*
Y247736D01*
X-47146Y245374D02*
X-46359D01*
X-46753D01*
Y247736D01*
X-47146Y247342D01*
X-28150Y135039D02*
Y133071D01*
X-27756Y132677D01*
X-26969D01*
X-26575Y133071D01*
Y135039D01*
X-24214Y132677D02*
X-25788D01*
X-24214Y134251D01*
Y134645D01*
X-24608Y135039D01*
X-25395D01*
X-25788Y134645D01*
X-115059Y93011D02*
Y91043D01*
X-114665Y90650D01*
X-113878D01*
X-113485Y91043D01*
Y93011D01*
X-112698Y92617D02*
X-112304Y93011D01*
X-111517D01*
X-111123Y92617D01*
Y92224D01*
X-111517Y91830D01*
X-111910D01*
X-111517D01*
X-111123Y91437D01*
Y91043D01*
X-111517Y90650D01*
X-112304D01*
X-112698Y91043D01*
X-38485Y19586D02*
X-39272D01*
X-38878D01*
Y17618D01*
X-39272Y17224D01*
X-39665D01*
X-40059Y17618D01*
X-36123Y17224D02*
X-37698D01*
X-36123Y18799D01*
Y19192D01*
X-36517Y19586D01*
X-37304D01*
X-37698Y19192D01*
X-80316Y19684D02*
X-81103D01*
X-80709D01*
Y17716D01*
X-81103Y17323D01*
X-81496D01*
X-81890Y17716D01*
X-79528Y19291D02*
X-79135Y19684D01*
X-78348D01*
X-77954Y19291D01*
Y18897D01*
X-78348Y18504D01*
X-78741D01*
X-78348D01*
X-77954Y18110D01*
Y17716D01*
X-78348Y17323D01*
X-79135D01*
X-79528Y17716D01*
X-116142Y20176D02*
X-116929D01*
X-116536D01*
Y18209D01*
X-116929Y17815D01*
X-117323D01*
X-117717Y18209D01*
X-114174Y17815D02*
Y20176D01*
X-115355Y18996D01*
X-113781D01*
D66*
X-18898Y245276D02*
Y243964D01*
Y244620D01*
X-14962D01*
X-15618Y245276D01*
X-9028Y242809D02*
Y245433D01*
X-6404Y242809D01*
X-5748D01*
X-5092Y243465D01*
Y244777D01*
X-5748Y245433D01*
M02*
