G04 Layer_Color=16711935*
%FSLAX25Y25*%
%MOIN*%
G70*
G01*
G75*
%ADD113R,0.00315X0.00315*%
%ADD114R,0.14094X0.14094*%
%ADD115R,0.14094X0.14094*%
%ADD116C,0.00315*%
%ADD117R,0.06221X0.06221*%
%ADD118C,0.06221*%
%ADD119R,0.06221X0.06221*%
%ADD120C,0.08189*%
%ADD121C,0.14094*%
%ADD122C,0.14094*%
%ADD123R,0.00315X0.00315*%
%ADD124C,0.03950*%
%ADD125C,0.03465*%
%ADD126C,0.03465*%
%ADD127C,0.02284*%
G36*
X13091Y170965D02*
Y149705D01*
X13189Y149606D01*
X22343D01*
X31693Y140256D01*
Y118504D01*
X2953D01*
X3150Y171260D01*
X12795D01*
X13091Y170965D01*
D02*
G37*
G36*
X31496Y97244D02*
X13780Y79528D01*
Y50984D01*
X13681Y50886D01*
X3445D01*
X3347Y50984D01*
Y110728D01*
X31496D01*
Y97244D01*
D02*
G37*
G36*
X129331Y170768D02*
X129232Y170669D01*
Y129331D01*
X96555D01*
X96457Y129429D01*
Y170866D01*
X129331Y170768D01*
D02*
G37*
G36*
X139370Y306004D02*
X139173Y305807D01*
X108268D01*
Y383366D01*
X108465Y383563D01*
X139370D01*
Y306004D01*
D02*
G37*
G36*
X145965Y383465D02*
X178937D01*
X178895Y383422D01*
Y304429D01*
X145965D01*
X145866Y383563D01*
X145965Y383465D01*
D02*
G37*
D113*
X99854Y370177D02*
D03*
X128673D02*
D03*
X38122D02*
D03*
X9303D02*
D03*
X143161D02*
D03*
X171980D02*
D03*
X174949Y40059D02*
D03*
X146130D02*
D03*
X132921Y40157D02*
D03*
X104102D02*
D03*
X90598D02*
D03*
X61780D02*
D03*
D114*
X171260Y399606D02*
D03*
D115*
X9843D02*
D03*
X171260Y9843D02*
D03*
D116*
X3347Y24508D02*
D03*
X23031D02*
D03*
X140354Y86614D02*
D03*
X166732Y110236D02*
D03*
D117*
X164075Y235433D02*
D03*
D118*
X174075D02*
D03*
X164075Y225433D02*
D03*
X174075D02*
D03*
X164075Y215433D02*
D03*
X174075D02*
D03*
X165000Y258760D02*
D03*
X155000D02*
D03*
D119*
X175000D02*
D03*
D120*
X44291Y313386D02*
D03*
Y174803D02*
D03*
X10827Y308662D02*
D03*
Y179528D02*
D03*
X20669Y330315D02*
D03*
X34449Y157874D02*
D03*
X20669D02*
D03*
X87599Y313386D02*
D03*
Y174803D02*
D03*
X54134Y308662D02*
D03*
Y179528D02*
D03*
X63976Y330315D02*
D03*
X77756Y157874D02*
D03*
X63976D02*
D03*
D121*
X15748Y236221D02*
D03*
D122*
Y275591D02*
D03*
D123*
X149606Y204725D02*
D03*
D124*
X131693Y116831D02*
D03*
X128248Y109941D02*
D03*
D125*
X72933Y319783D02*
D03*
Y314862D02*
D03*
Y324508D02*
D03*
X137697Y257382D02*
D03*
X125197D02*
D03*
X125394Y134055D02*
D03*
X117323Y133661D02*
D03*
X109646Y133760D02*
D03*
X124508Y142225D02*
D03*
X117225Y142126D02*
D03*
X109449Y142028D02*
D03*
X102264Y133760D02*
D03*
Y142028D02*
D03*
X124311Y164567D02*
D03*
X117028Y164469D02*
D03*
X109547Y164272D02*
D03*
X102067Y164075D02*
D03*
X124114Y157382D02*
D03*
X117028D02*
D03*
X109744Y156988D02*
D03*
X102264Y156693D02*
D03*
X123819Y150099D02*
D03*
X117028Y150000D02*
D03*
X109449Y149803D02*
D03*
X102264D02*
D03*
X162500Y326575D02*
D03*
X153445Y326870D02*
D03*
X162008Y318406D02*
D03*
X153740Y318701D02*
D03*
X162106Y310335D02*
D03*
X153543Y310925D02*
D03*
X61221Y345413D02*
D03*
X124016Y311024D02*
D03*
Y318898D02*
D03*
Y326772D02*
D03*
X131890D02*
D03*
Y318898D02*
D03*
Y311024D02*
D03*
X7874Y94390D02*
D03*
X43012Y362795D02*
D03*
X68209Y354528D02*
D03*
X72638Y359547D02*
D03*
X84941Y403346D02*
D03*
X95768Y233760D02*
D03*
X96654Y247835D02*
D03*
X131496Y295473D02*
D03*
X127165Y295473D02*
D03*
X161614Y295768D02*
D03*
X157185Y295669D02*
D03*
X49016Y381988D02*
D03*
X53642Y358268D02*
D03*
X54528Y369882D02*
D03*
X39469Y348425D02*
D03*
X19980Y4823D02*
D03*
Y10138D02*
D03*
X119488Y174606D02*
D03*
X119291Y179035D02*
D03*
X119144Y248475D02*
D03*
X45276Y101969D02*
D03*
X62992Y99410D02*
D03*
X48228Y120965D02*
D03*
X61417Y109941D02*
D03*
X19094Y78543D02*
D03*
X79331Y88583D02*
D03*
X72835Y73524D02*
D03*
X20079Y71752D02*
D03*
X74016Y91831D02*
D03*
X124213Y198622D02*
D03*
X128839Y202067D02*
D03*
X83169Y214961D02*
D03*
X101083Y206496D02*
D03*
X93406Y218012D02*
D03*
X119587Y202362D02*
D03*
X139764Y150394D02*
D03*
X134055D02*
D03*
X162500Y151575D02*
D03*
X28937Y18209D02*
D03*
X11122Y16535D02*
D03*
X11417Y21752D02*
D03*
X61063Y19331D02*
D03*
X72736Y30709D02*
D03*
X73917Y47343D02*
D03*
X60827Y66043D02*
D03*
X71358Y117520D02*
D03*
X55315Y131201D02*
D03*
X111909Y87894D02*
D03*
Y83465D02*
D03*
X7874Y125984D02*
D03*
X15748D02*
D03*
X23622D02*
D03*
X15748Y133858D02*
D03*
X23622D02*
D03*
Y102362D02*
D03*
Y94488D02*
D03*
X15748D02*
D03*
Y102362D02*
D03*
X7874D02*
D03*
X108169Y249410D02*
D03*
D126*
X77165Y375689D02*
D03*
X92717Y287205D02*
D03*
X63681Y364469D02*
D03*
X103839Y199311D02*
D03*
X11220Y26870D02*
D03*
X49213Y131201D02*
D03*
X7874Y133858D02*
D03*
D127*
X71851Y103543D02*
D03*
Y107874D02*
D03*
X76181Y103543D02*
D03*
Y107874D02*
D03*
M02*
