G04 Layer_Color=2752767*
%FSLAX25Y25*%
%MOIN*%
G70*
G01*
G75*
%ADD130C,0.00500*%
%ADD131C,0.00667*%
D130*
X97854Y368177D02*
Y372177D01*
X101854D01*
Y368177D01*
X97854D01*
X126673D02*
Y372177D01*
X130673D01*
Y368177D01*
X126673D01*
X36122D02*
Y372177D01*
X40122D01*
Y368177D01*
X36122D01*
X7303D02*
Y372177D01*
X11303D01*
Y368177D01*
X7303D01*
X3347Y22508D02*
X1347Y26508D01*
X5347D01*
X3347Y22508D01*
X23031D02*
X21032Y26508D01*
X25032D01*
X23031Y22508D01*
X164075Y233433D02*
X162075Y237433D01*
X166075D01*
X164075Y233433D01*
X174075D02*
X172075Y237433D01*
X176075D01*
X174075Y233433D01*
X164075Y223433D02*
X162075Y227433D01*
X166075D01*
X164075Y223433D01*
X174075D02*
X172075Y227433D01*
X176075D01*
X174075Y223433D01*
X164075Y213433D02*
X162075Y217433D01*
X166075D01*
X164075Y213433D01*
X174075D02*
X172075Y217433D01*
X176075D01*
X174075Y213433D01*
X175000Y256760D02*
X173000Y260760D01*
X177000D01*
X175000Y256760D01*
X165000D02*
X163000Y260760D01*
X167000D01*
X165000Y256760D01*
X155000D02*
X153000Y260760D01*
X157000D01*
X155000Y256760D01*
X44291Y311386D02*
X45291Y312386D01*
X46291D01*
X45291Y313386D01*
X46291Y314386D01*
X45291D01*
X44291Y315386D01*
X43291Y314386D01*
X42291D01*
X43291Y313386D01*
X42291Y312386D01*
X43291D01*
X44291Y311386D01*
Y172803D02*
X45291Y173803D01*
X46291D01*
X45291Y174803D01*
X46291Y175803D01*
X45291D01*
X44291Y176803D01*
X43291Y175803D01*
X42291D01*
X43291Y174803D01*
X42291Y173803D01*
X43291D01*
X44291Y172803D01*
X10827Y306662D02*
X11827Y307662D01*
X12827D01*
X11827Y308662D01*
X12827Y309662D01*
X11827D01*
X10827Y310662D01*
X9827Y309662D01*
X8827D01*
X9827Y308662D01*
X8827Y307662D01*
X9827D01*
X10827Y306662D01*
Y177528D02*
X11827Y178528D01*
X12827D01*
X11827Y179528D01*
X12827Y180528D01*
X11827D01*
X10827Y181528D01*
X9827Y180528D01*
X8827D01*
X9827Y179528D01*
X8827Y178528D01*
X9827D01*
X10827Y177528D01*
X18669Y328315D02*
X19669Y330315D01*
X18669Y332315D01*
X20669Y331315D01*
X22669Y332315D01*
X21669Y330315D01*
X22669Y328315D01*
X20669Y329315D01*
X18669Y328315D01*
X32449Y155874D02*
X33449Y157874D01*
X32449Y159874D01*
X34449Y158874D01*
X36449Y159874D01*
X35449Y157874D01*
X36449Y155874D01*
X34449Y156874D01*
X32449Y155874D01*
X18669D02*
X19669Y157874D01*
X18669Y159874D01*
X20669Y158874D01*
X22669Y159874D01*
X21669Y157874D01*
X22669Y155874D01*
X20669Y156874D01*
X18669Y155874D01*
X87599Y311386D02*
X88599Y312386D01*
X89599D01*
X88599Y313386D01*
X89599Y314386D01*
X88599D01*
X87599Y315386D01*
X86598Y314386D01*
X85598D01*
X86598Y313386D01*
X85598Y312386D01*
X86598D01*
X87599Y311386D01*
Y172803D02*
X88599Y173803D01*
X89599D01*
X88599Y174803D01*
X89599Y175803D01*
X88599D01*
X87599Y176803D01*
X86598Y175803D01*
X85598D01*
X86598Y174803D01*
X85598Y173803D01*
X86598D01*
X87599Y172803D01*
X54134Y306662D02*
X55134Y307662D01*
X56134D01*
X55134Y308662D01*
X56134Y309662D01*
X55134D01*
X54134Y310662D01*
X53134Y309662D01*
X52134D01*
X53134Y308662D01*
X52134Y307662D01*
X53134D01*
X54134Y306662D01*
Y177528D02*
X55134Y178528D01*
X56134D01*
X55134Y179528D01*
X56134Y180528D01*
X55134D01*
X54134Y181528D01*
X53134Y180528D01*
X52134D01*
X53134Y179528D01*
X52134Y178528D01*
X53134D01*
X54134Y177528D01*
X61976Y328315D02*
X62976Y330315D01*
X61976Y332315D01*
X63976Y331315D01*
X65976Y332315D01*
X64976Y330315D01*
X65976Y328315D01*
X63976Y329315D01*
X61976Y328315D01*
X75756Y155874D02*
X76756Y157874D01*
X75756Y159874D01*
X77756Y158874D01*
X79756Y159874D01*
X78756Y157874D01*
X79756Y155874D01*
X77756Y156874D01*
X75756Y155874D01*
X61976D02*
X62976Y157874D01*
X61976Y159874D01*
X63976Y158874D01*
X65976Y159874D01*
X64976Y157874D01*
X65976Y155874D01*
X63976Y156874D01*
X61976Y155874D01*
X139354Y85614D02*
Y84614D01*
X141354D01*
Y85614D01*
X142354D01*
Y87614D01*
X141354D01*
Y88614D01*
X139354D01*
Y87614D01*
X138354D01*
Y85614D01*
X139354D01*
X165732Y109236D02*
Y108236D01*
X167732D01*
Y109236D01*
X168732D01*
Y111236D01*
X167732D01*
Y112236D01*
X165732D01*
Y111236D01*
X164732D01*
Y109236D01*
X165732D01*
X141162Y368177D02*
Y372177D01*
X145161D01*
Y368177D01*
X141162D01*
X169980D02*
Y372177D01*
X173980D01*
Y368177D01*
X169980D01*
X172949Y38059D02*
Y42059D01*
X176949D01*
Y38059D01*
X172949D01*
X144130D02*
Y42059D01*
X148130D01*
Y38059D01*
X144130D01*
X130921Y38157D02*
Y42158D01*
X134921D01*
Y38157D01*
X130921D01*
X102102D02*
Y42158D01*
X106102D01*
Y38157D01*
X102102D01*
X88599D02*
Y42158D01*
X92598D01*
Y38157D01*
X88599D01*
X59780D02*
Y42158D01*
X63780D01*
Y38157D01*
X59780D01*
X129693Y114831D02*
X130693D01*
X131693Y115831D01*
X132693Y114831D01*
X133693D01*
Y115831D01*
X132693Y116831D01*
X133693Y117831D01*
Y118831D01*
X132693D01*
X131693Y117831D01*
X130693Y118831D01*
X129693D01*
Y117831D01*
X130693Y116831D01*
X129693Y115831D01*
Y114831D01*
X126248Y107941D02*
X127248D01*
X128248Y108941D01*
X129248Y107941D01*
X130248D01*
Y108941D01*
X129248Y109941D01*
X130248Y110941D01*
Y111941D01*
X129248D01*
X128248Y110941D01*
X127248Y111941D01*
X126248D01*
Y110941D01*
X127248Y109941D01*
X126248Y108941D01*
Y107941D01*
X129004Y255185D02*
X130004D01*
X131004Y256185D01*
X132004Y255185D01*
X133004D01*
Y256185D01*
X132004Y257185D01*
X133004Y258185D01*
Y259185D01*
X132004D01*
X131004Y258185D01*
X130004Y259185D01*
X129004D01*
Y258185D01*
X130004Y257185D01*
X129004Y256185D01*
Y255185D01*
X70933Y317783D02*
X71933D01*
X72933Y318783D01*
X73933Y317783D01*
X74933D01*
Y318783D01*
X73933Y319783D01*
X74933Y320783D01*
Y321783D01*
X73933D01*
X72933Y320783D01*
X71933Y321783D01*
X70933D01*
Y320783D01*
X71933Y319783D01*
X70933Y318783D01*
Y317783D01*
Y312862D02*
X71933D01*
X72933Y313862D01*
X73933Y312862D01*
X74933D01*
Y313862D01*
X73933Y314862D01*
X74933Y315862D01*
Y316862D01*
X73933D01*
X72933Y315862D01*
X71933Y316862D01*
X70933D01*
Y315862D01*
X71933Y314862D01*
X70933Y313862D01*
Y312862D01*
Y322508D02*
X71933D01*
X72933Y323508D01*
X73933Y322508D01*
X74933D01*
Y323508D01*
X73933Y324508D01*
X74933Y325508D01*
Y326508D01*
X73933D01*
X72933Y325508D01*
X71933Y326508D01*
X70933D01*
Y325508D01*
X71933Y324508D01*
X70933Y323508D01*
Y322508D01*
X33236Y346425D02*
X34236D01*
X35236Y347425D01*
X36236Y346425D01*
X37236D01*
Y347425D01*
X36236Y348425D01*
X37236Y349425D01*
Y350425D01*
X36236D01*
X35236Y349425D01*
X34236Y350425D01*
X33236D01*
Y349425D01*
X34236Y348425D01*
X33236Y347425D01*
Y346425D01*
X135697Y255382D02*
X136697D01*
X137697Y256382D01*
X138697Y255382D01*
X139697D01*
Y256382D01*
X138697Y257382D01*
X139697Y258382D01*
Y259382D01*
X138697D01*
X137697Y258382D01*
X136697Y259382D01*
X135697D01*
Y258382D01*
X136697Y257382D01*
X135697Y256382D01*
Y255382D01*
X123197D02*
X124197D01*
X125197Y256382D01*
X126197Y255382D01*
X127197D01*
Y256382D01*
X126197Y257382D01*
X127197Y258382D01*
Y259382D01*
X126197D01*
X125197Y258382D01*
X124197Y259382D01*
X123197D01*
Y258382D01*
X124197Y257382D01*
X123197Y256382D01*
Y255382D01*
X123394Y132055D02*
X124394D01*
X125394Y133055D01*
X126394Y132055D01*
X127394D01*
Y133055D01*
X126394Y134055D01*
X127394Y135055D01*
Y136055D01*
X126394D01*
X125394Y135055D01*
X124394Y136055D01*
X123394D01*
Y135055D01*
X124394Y134055D01*
X123394Y133055D01*
Y132055D01*
X115323Y131661D02*
X116323D01*
X117323Y132661D01*
X118323Y131661D01*
X119323D01*
Y132661D01*
X118323Y133661D01*
X119323Y134661D01*
Y135661D01*
X118323D01*
X117323Y134661D01*
X116323Y135661D01*
X115323D01*
Y134661D01*
X116323Y133661D01*
X115323Y132661D01*
Y131661D01*
X107646Y131760D02*
X108646D01*
X109646Y132760D01*
X110646Y131760D01*
X111646D01*
Y132760D01*
X110646Y133760D01*
X111646Y134760D01*
Y135760D01*
X110646D01*
X109646Y134760D01*
X108646Y135760D01*
X107646D01*
Y134760D01*
X108646Y133760D01*
X107646Y132760D01*
Y131760D01*
X122508Y140225D02*
X123508D01*
X124508Y141225D01*
X125508Y140225D01*
X126508D01*
Y141225D01*
X125508Y142225D01*
X126508Y143225D01*
Y144225D01*
X125508D01*
X124508Y143225D01*
X123508Y144225D01*
X122508D01*
Y143225D01*
X123508Y142225D01*
X122508Y141225D01*
Y140225D01*
X115225Y140126D02*
X116225D01*
X117225Y141126D01*
X118225Y140126D01*
X119225D01*
Y141126D01*
X118225Y142126D01*
X119225Y143126D01*
Y144126D01*
X118225D01*
X117225Y143126D01*
X116225Y144126D01*
X115225D01*
Y143126D01*
X116225Y142126D01*
X115225Y141126D01*
Y140126D01*
X107449Y140028D02*
X108449D01*
X109449Y141028D01*
X110449Y140028D01*
X111449D01*
Y141028D01*
X110449Y142028D01*
X111449Y143028D01*
Y144028D01*
X110449D01*
X109449Y143028D01*
X108449Y144028D01*
X107449D01*
Y143028D01*
X108449Y142028D01*
X107449Y141028D01*
Y140028D01*
X100264Y131760D02*
X101264D01*
X102264Y132760D01*
X103264Y131760D01*
X104264D01*
Y132760D01*
X103264Y133760D01*
X104264Y134760D01*
Y135760D01*
X103264D01*
X102264Y134760D01*
X101264Y135760D01*
X100264D01*
Y134760D01*
X101264Y133760D01*
X100264Y132760D01*
Y131760D01*
Y140028D02*
X101264D01*
X102264Y141028D01*
X103264Y140028D01*
X104264D01*
Y141028D01*
X103264Y142028D01*
X104264Y143028D01*
Y144028D01*
X103264D01*
X102264Y143028D01*
X101264Y144028D01*
X100264D01*
Y143028D01*
X101264Y142028D01*
X100264Y141028D01*
Y140028D01*
X122311Y162567D02*
X123311D01*
X124311Y163567D01*
X125311Y162567D01*
X126311D01*
Y163567D01*
X125311Y164567D01*
X126311Y165567D01*
Y166567D01*
X125311D01*
X124311Y165567D01*
X123311Y166567D01*
X122311D01*
Y165567D01*
X123311Y164567D01*
X122311Y163567D01*
Y162567D01*
X115028Y162469D02*
X116028D01*
X117028Y163469D01*
X118028Y162469D01*
X119028D01*
Y163469D01*
X118028Y164469D01*
X119028Y165469D01*
Y166469D01*
X118028D01*
X117028Y165469D01*
X116028Y166469D01*
X115028D01*
Y165469D01*
X116028Y164469D01*
X115028Y163469D01*
Y162469D01*
X107547Y162272D02*
X108547D01*
X109547Y163272D01*
X110547Y162272D01*
X111547D01*
Y163272D01*
X110547Y164272D01*
X111547Y165272D01*
Y166272D01*
X110547D01*
X109547Y165272D01*
X108547Y166272D01*
X107547D01*
Y165272D01*
X108547Y164272D01*
X107547Y163272D01*
Y162272D01*
X100067Y162075D02*
X101067D01*
X102067Y163075D01*
X103067Y162075D01*
X104067D01*
Y163075D01*
X103067Y164075D01*
X104067Y165075D01*
Y166075D01*
X103067D01*
X102067Y165075D01*
X101067Y166075D01*
X100067D01*
Y165075D01*
X101067Y164075D01*
X100067Y163075D01*
Y162075D01*
X122114Y155382D02*
X123114D01*
X124114Y156382D01*
X125114Y155382D01*
X126114D01*
Y156382D01*
X125114Y157382D01*
X126114Y158382D01*
Y159382D01*
X125114D01*
X124114Y158382D01*
X123114Y159382D01*
X122114D01*
Y158382D01*
X123114Y157382D01*
X122114Y156382D01*
Y155382D01*
X115028D02*
X116028D01*
X117028Y156382D01*
X118028Y155382D01*
X119028D01*
Y156382D01*
X118028Y157382D01*
X119028Y158382D01*
Y159382D01*
X118028D01*
X117028Y158382D01*
X116028Y159382D01*
X115028D01*
Y158382D01*
X116028Y157382D01*
X115028Y156382D01*
Y155382D01*
X107744Y154988D02*
X108744D01*
X109744Y155988D01*
X110744Y154988D01*
X111744D01*
Y155988D01*
X110744Y156988D01*
X111744Y157988D01*
Y158988D01*
X110744D01*
X109744Y157988D01*
X108744Y158988D01*
X107744D01*
Y157988D01*
X108744Y156988D01*
X107744Y155988D01*
Y154988D01*
X100264Y154693D02*
X101264D01*
X102264Y155693D01*
X103264Y154693D01*
X104264D01*
Y155693D01*
X103264Y156693D01*
X104264Y157693D01*
Y158693D01*
X103264D01*
X102264Y157693D01*
X101264Y158693D01*
X100264D01*
Y157693D01*
X101264Y156693D01*
X100264Y155693D01*
Y154693D01*
X121819Y148099D02*
X122819D01*
X123819Y149099D01*
X124819Y148099D01*
X125819D01*
Y149099D01*
X124819Y150099D01*
X125819Y151099D01*
Y152099D01*
X124819D01*
X123819Y151099D01*
X122819Y152099D01*
X121819D01*
Y151099D01*
X122819Y150099D01*
X121819Y149099D01*
Y148099D01*
X115028Y148000D02*
X116028D01*
X117028Y149000D01*
X118028Y148000D01*
X119028D01*
Y149000D01*
X118028Y150000D01*
X119028Y151000D01*
Y152000D01*
X118028D01*
X117028Y151000D01*
X116028Y152000D01*
X115028D01*
Y151000D01*
X116028Y150000D01*
X115028Y149000D01*
Y148000D01*
X107449Y147803D02*
X108449D01*
X109449Y148803D01*
X110449Y147803D01*
X111449D01*
Y148803D01*
X110449Y149803D01*
X111449Y150803D01*
Y151803D01*
X110449D01*
X109449Y150803D01*
X108449Y151803D01*
X107449D01*
Y150803D01*
X108449Y149803D01*
X107449Y148803D01*
Y147803D01*
X100264D02*
X101264D01*
X102264Y148803D01*
X103264Y147803D01*
X104264D01*
Y148803D01*
X103264Y149803D01*
X104264Y150803D01*
Y151803D01*
X103264D01*
X102264Y150803D01*
X101264Y151803D01*
X100264D01*
Y150803D01*
X101264Y149803D01*
X100264Y148803D01*
Y147803D01*
X160500Y324575D02*
X161500D01*
X162500Y325575D01*
X163500Y324575D01*
X164500D01*
Y325575D01*
X163500Y326575D01*
X164500Y327575D01*
Y328575D01*
X163500D01*
X162500Y327575D01*
X161500Y328575D01*
X160500D01*
Y327575D01*
X161500Y326575D01*
X160500Y325575D01*
Y324575D01*
X151445Y324870D02*
X152445D01*
X153445Y325870D01*
X154445Y324870D01*
X155445D01*
Y325870D01*
X154445Y326870D01*
X155445Y327870D01*
Y328870D01*
X154445D01*
X153445Y327870D01*
X152445Y328870D01*
X151445D01*
Y327870D01*
X152445Y326870D01*
X151445Y325870D01*
Y324870D01*
X160008Y316406D02*
X161008D01*
X162008Y317406D01*
X163008Y316406D01*
X164008D01*
Y317406D01*
X163008Y318406D01*
X164008Y319406D01*
Y320406D01*
X163008D01*
X162008Y319406D01*
X161008Y320406D01*
X160008D01*
Y319406D01*
X161008Y318406D01*
X160008Y317406D01*
Y316406D01*
X151740Y316701D02*
X152740D01*
X153740Y317701D01*
X154740Y316701D01*
X155740D01*
Y317701D01*
X154740Y318701D01*
X155740Y319701D01*
Y320701D01*
X154740D01*
X153740Y319701D01*
X152740Y320701D01*
X151740D01*
Y319701D01*
X152740Y318701D01*
X151740Y317701D01*
Y316701D01*
X160106Y308335D02*
X161106D01*
X162106Y309335D01*
X163106Y308335D01*
X164106D01*
Y309335D01*
X163106Y310335D01*
X164106Y311335D01*
Y312335D01*
X163106D01*
X162106Y311335D01*
X161106Y312335D01*
X160106D01*
Y311335D01*
X161106Y310335D01*
X160106Y309335D01*
Y308335D01*
X151543Y308925D02*
X152543D01*
X153543Y309925D01*
X154543Y308925D01*
X155543D01*
Y309925D01*
X154543Y310925D01*
X155543Y311925D01*
Y312925D01*
X154543D01*
X153543Y311925D01*
X152543Y312925D01*
X151543D01*
Y311925D01*
X152543Y310925D01*
X151543Y309925D01*
Y308925D01*
X59220Y343413D02*
X60220D01*
X61221Y344413D01*
X62221Y343413D01*
X63221D01*
Y344413D01*
X62221Y345413D01*
X63221Y346413D01*
Y347413D01*
X62221D01*
X61221Y346413D01*
X60220Y347413D01*
X59220D01*
Y346413D01*
X60220Y345413D01*
X59220Y344413D01*
Y343413D01*
X122016Y309024D02*
X123016D01*
X124016Y310024D01*
X125016Y309024D01*
X126016D01*
Y310024D01*
X125016Y311024D01*
X126016Y312024D01*
Y313024D01*
X125016D01*
X124016Y312024D01*
X123016Y313024D01*
X122016D01*
Y312024D01*
X123016Y311024D01*
X122016Y310024D01*
Y309024D01*
Y316898D02*
X123016D01*
X124016Y317898D01*
X125016Y316898D01*
X126016D01*
Y317898D01*
X125016Y318898D01*
X126016Y319898D01*
Y320898D01*
X125016D01*
X124016Y319898D01*
X123016Y320898D01*
X122016D01*
Y319898D01*
X123016Y318898D01*
X122016Y317898D01*
Y316898D01*
Y324772D02*
X123016D01*
X124016Y325772D01*
X125016Y324772D01*
X126016D01*
Y325772D01*
X125016Y326772D01*
X126016Y327772D01*
Y328772D01*
X125016D01*
X124016Y327772D01*
X123016Y328772D01*
X122016D01*
Y327772D01*
X123016Y326772D01*
X122016Y325772D01*
Y324772D01*
X129890D02*
X130890D01*
X131890Y325772D01*
X132890Y324772D01*
X133890D01*
Y325772D01*
X132890Y326772D01*
X133890Y327772D01*
Y328772D01*
X132890D01*
X131890Y327772D01*
X130890Y328772D01*
X129890D01*
Y327772D01*
X130890Y326772D01*
X129890Y325772D01*
Y324772D01*
Y316898D02*
X130890D01*
X131890Y317898D01*
X132890Y316898D01*
X133890D01*
Y317898D01*
X132890Y318898D01*
X133890Y319898D01*
Y320898D01*
X132890D01*
X131890Y319898D01*
X130890Y320898D01*
X129890D01*
Y319898D01*
X130890Y318898D01*
X129890Y317898D01*
Y316898D01*
Y309024D02*
X130890D01*
X131890Y310024D01*
X132890Y309024D01*
X133890D01*
Y310024D01*
X132890Y311024D01*
X133890Y312024D01*
Y313024D01*
X132890D01*
X131890Y312024D01*
X130890Y313024D01*
X129890D01*
Y312024D01*
X130890Y311024D01*
X129890Y310024D01*
Y309024D01*
X5874Y92390D02*
X6874D01*
X7874Y93390D01*
X8874Y92390D01*
X9874D01*
Y93390D01*
X8874Y94390D01*
X9874Y95390D01*
Y96390D01*
X8874D01*
X7874Y95390D01*
X6874Y96390D01*
X5874D01*
Y95390D01*
X6874Y94390D01*
X5874Y93390D01*
Y92390D01*
X41012Y360795D02*
X42012D01*
X43012Y361795D01*
X44012Y360795D01*
X45012D01*
Y361795D01*
X44012Y362795D01*
X45012Y363795D01*
Y364795D01*
X44012D01*
X43012Y363795D01*
X42012Y364795D01*
X41012D01*
Y363795D01*
X42012Y362795D01*
X41012Y361795D01*
Y360795D01*
X66209Y352528D02*
X67209D01*
X68209Y353528D01*
X69209Y352528D01*
X70209D01*
Y353528D01*
X69209Y354528D01*
X70209Y355528D01*
Y356528D01*
X69209D01*
X68209Y355528D01*
X67209Y356528D01*
X66209D01*
Y355528D01*
X67209Y354528D01*
X66209Y353528D01*
Y352528D01*
X70638Y357547D02*
X71638D01*
X72638Y358547D01*
X73638Y357547D01*
X74638D01*
Y358547D01*
X73638Y359547D01*
X74638Y360547D01*
Y361547D01*
X73638D01*
X72638Y360547D01*
X71638Y361547D01*
X70638D01*
Y360547D01*
X71638Y359547D01*
X70638Y358547D01*
Y357547D01*
X82941Y401346D02*
X83941D01*
X84941Y402347D01*
X85941Y401346D01*
X86941D01*
Y402347D01*
X85941Y403346D01*
X86941Y404347D01*
Y405346D01*
X85941D01*
X84941Y404347D01*
X83941Y405346D01*
X82941D01*
Y404347D01*
X83941Y403346D01*
X82941Y402347D01*
Y401346D01*
X75165Y373689D02*
X76165D01*
X77165Y374689D01*
X78165Y373689D01*
X79165D01*
Y374689D01*
X78165Y375689D01*
X79165Y376689D01*
Y377689D01*
X78165D01*
X77165Y376689D01*
X76165Y377689D01*
X75165D01*
Y376689D01*
X76165Y375689D01*
X75165Y374689D01*
Y373689D01*
X101150Y317193D02*
X102150D01*
X103150Y318193D01*
X104150Y317193D01*
X105150D01*
Y318193D01*
X104150Y319193D01*
X105150Y320193D01*
Y321193D01*
X104150D01*
X103150Y320193D01*
X102150Y321193D01*
X101150D01*
Y320193D01*
X102150Y319193D01*
X101150Y318193D01*
Y317193D01*
X101248Y313453D02*
X102248D01*
X103248Y314453D01*
X104248Y313453D01*
X105248D01*
Y314453D01*
X104248Y315453D01*
X105248Y316453D01*
Y317453D01*
X104248D01*
X103248Y316453D01*
X102248Y317453D01*
X101248D01*
Y316453D01*
X102248Y315453D01*
X101248Y314453D01*
Y313453D01*
X90717Y285205D02*
X91717D01*
X92717Y286205D01*
X93717Y285205D01*
X94717D01*
Y286205D01*
X93717Y287205D01*
X94717Y288205D01*
Y289205D01*
X93717D01*
X92717Y288205D01*
X91717Y289205D01*
X90717D01*
Y288205D01*
X91717Y287205D01*
X90717Y286205D01*
Y285205D01*
X93768Y231760D02*
X94768D01*
X95768Y232760D01*
X96768Y231760D01*
X97768D01*
Y232760D01*
X96768Y233760D01*
X97768Y234760D01*
Y235760D01*
X96768D01*
X95768Y234760D01*
X94768Y235760D01*
X93768D01*
Y234760D01*
X94768Y233760D01*
X93768Y232760D01*
Y231760D01*
X94654Y245835D02*
X95654D01*
X96654Y246835D01*
X97654Y245835D01*
X98654D01*
Y246835D01*
X97654Y247835D01*
X98654Y248835D01*
Y249835D01*
X97654D01*
X96654Y248835D01*
X95654Y249835D01*
X94654D01*
Y248835D01*
X95654Y247835D01*
X94654Y246835D01*
Y245835D01*
X129496Y293473D02*
X130496D01*
X131496Y294473D01*
X132496Y293473D01*
X133496D01*
Y294473D01*
X132496Y295473D01*
X133496Y296473D01*
Y297473D01*
X132496D01*
X131496Y296473D01*
X130496Y297473D01*
X129496D01*
Y296473D01*
X130496Y295473D01*
X129496Y294473D01*
Y293473D01*
X125165Y293473D02*
X126165D01*
X127165Y294473D01*
X128165Y293473D01*
X129165D01*
Y294473D01*
X128165Y295473D01*
X129165Y296473D01*
Y297473D01*
X128165D01*
X127165Y296473D01*
X126165Y297473D01*
X125165D01*
Y296473D01*
X126165Y295473D01*
X125165Y294473D01*
Y293473D01*
X159614Y293768D02*
X160614D01*
X161614Y294768D01*
X162614Y293768D01*
X163614D01*
Y294768D01*
X162614Y295768D01*
X163614Y296768D01*
Y297768D01*
X162614D01*
X161614Y296768D01*
X160614Y297768D01*
X159614D01*
Y296768D01*
X160614Y295768D01*
X159614Y294768D01*
Y293768D01*
X155185Y293669D02*
X156185D01*
X157185Y294669D01*
X158185Y293669D01*
X159185D01*
Y294669D01*
X158185Y295669D01*
X159185Y296669D01*
Y297669D01*
X158185D01*
X157185Y296669D01*
X156185Y297669D01*
X155185D01*
Y296669D01*
X156185Y295669D01*
X155185Y294669D01*
Y293669D01*
X61681Y362469D02*
X62681D01*
X63681Y363469D01*
X64681Y362469D01*
X65681D01*
Y363469D01*
X64681Y364469D01*
X65681Y365469D01*
Y366469D01*
X64681D01*
X63681Y365469D01*
X62681Y366469D01*
X61681D01*
Y365469D01*
X62681Y364469D01*
X61681Y363469D01*
Y362469D01*
X47016Y379988D02*
X48016D01*
X49016Y380988D01*
X50016Y379988D01*
X51016D01*
Y380988D01*
X50016Y381988D01*
X51016Y382988D01*
Y383988D01*
X50016D01*
X49016Y382988D01*
X48016Y383988D01*
X47016D01*
Y382988D01*
X48016Y381988D01*
X47016Y380988D01*
Y379988D01*
X51642Y356268D02*
X52642D01*
X53642Y357268D01*
X54642Y356268D01*
X55642D01*
Y357268D01*
X54642Y358268D01*
X55642Y359268D01*
Y360268D01*
X54642D01*
X53642Y359268D01*
X52642Y360268D01*
X51642D01*
Y359268D01*
X52642Y358268D01*
X51642Y357268D01*
Y356268D01*
X52528Y367882D02*
X53528D01*
X54528Y368882D01*
X55528Y367882D01*
X56528D01*
Y368882D01*
X55528Y369882D01*
X56528Y370882D01*
Y371882D01*
X55528D01*
X54528Y370882D01*
X53528Y371882D01*
X52528D01*
Y370882D01*
X53528Y369882D01*
X52528Y368882D01*
Y367882D01*
X37468Y346425D02*
X38469D01*
X39469Y347425D01*
X40468Y346425D01*
X41469D01*
Y347425D01*
X40468Y348425D01*
X41469Y349425D01*
Y350425D01*
X40468D01*
X39469Y349425D01*
X38469Y350425D01*
X37468D01*
Y349425D01*
X38469Y348425D01*
X37468Y347425D01*
Y346425D01*
X69850Y101543D02*
X70850D01*
X71851Y102543D01*
X72851Y101543D01*
X73851D01*
Y102543D01*
X72851Y103543D01*
X73851Y104543D01*
Y105543D01*
X72851D01*
X71851Y104543D01*
X70850Y105543D01*
X69850D01*
Y104543D01*
X70850Y103543D01*
X69850Y102543D01*
Y101543D01*
Y105874D02*
X70850D01*
X71851Y106874D01*
X72851Y105874D01*
X73851D01*
Y106874D01*
X72851Y107874D01*
X73851Y108874D01*
Y109874D01*
X72851D01*
X71851Y108874D01*
X70850Y109874D01*
X69850D01*
Y108874D01*
X70850Y107874D01*
X69850Y106874D01*
Y105874D01*
X74181Y101543D02*
X75181D01*
X76181Y102543D01*
X77181Y101543D01*
X78181D01*
Y102543D01*
X77181Y103543D01*
X78181Y104543D01*
Y105543D01*
X77181D01*
X76181Y104543D01*
X75181Y105543D01*
X74181D01*
Y104543D01*
X75181Y103543D01*
X74181Y102543D01*
Y101543D01*
Y105874D02*
X75181D01*
X76181Y106874D01*
X77181Y105874D01*
X78181D01*
Y106874D01*
X77181Y107874D01*
X78181Y108874D01*
Y109874D01*
X77181D01*
X76181Y108874D01*
X75181Y109874D01*
X74181D01*
Y108874D01*
X75181Y107874D01*
X74181Y106874D01*
Y105874D01*
X17980Y2823D02*
X18980D01*
X19980Y3823D01*
X20980Y2823D01*
X21980D01*
Y3823D01*
X20980Y4823D01*
X21980Y5823D01*
Y6823D01*
X20980D01*
X19980Y5823D01*
X18980Y6823D01*
X17980D01*
Y5823D01*
X18980Y4823D01*
X17980Y3823D01*
Y2823D01*
Y8138D02*
X18980D01*
X19980Y9138D01*
X20980Y8138D01*
X21980D01*
Y9138D01*
X20980Y10138D01*
X21980Y11138D01*
Y12138D01*
X20980D01*
X19980Y11138D01*
X18980Y12138D01*
X17980D01*
Y11138D01*
X18980Y10138D01*
X17980Y9138D01*
Y8138D01*
X117488Y172606D02*
X118488D01*
X119488Y173606D01*
X120488Y172606D01*
X121488D01*
Y173606D01*
X120488Y174606D01*
X121488Y175606D01*
Y176606D01*
X120488D01*
X119488Y175606D01*
X118488Y176606D01*
X117488D01*
Y175606D01*
X118488Y174606D01*
X117488Y173606D01*
Y172606D01*
X117291Y177035D02*
X118291D01*
X119291Y178035D01*
X120291Y177035D01*
X121291D01*
Y178035D01*
X120291Y179035D01*
X121291Y180035D01*
Y181035D01*
X120291D01*
X119291Y180035D01*
X118291Y181035D01*
X117291D01*
Y180035D01*
X118291Y179035D01*
X117291Y178035D01*
Y177035D01*
X117144Y246475D02*
X118144D01*
X119144Y247475D01*
X120144Y246475D01*
X121144D01*
Y247475D01*
X120144Y248475D01*
X121144Y249475D01*
Y250475D01*
X120144D01*
X119144Y249475D01*
X118144Y250475D01*
X117144D01*
Y249475D01*
X118144Y248475D01*
X117144Y247475D01*
Y246475D01*
X43276Y99969D02*
X44276D01*
X45276Y100969D01*
X46276Y99969D01*
X47276D01*
Y100969D01*
X46276Y101969D01*
X47276Y102969D01*
Y103969D01*
X46276D01*
X45276Y102969D01*
X44276Y103969D01*
X43276D01*
Y102969D01*
X44276Y101969D01*
X43276Y100969D01*
Y99969D01*
X60992Y97409D02*
X61992D01*
X62992Y98409D01*
X63992Y97409D01*
X64992D01*
Y98409D01*
X63992Y99410D01*
X64992Y100409D01*
Y101409D01*
X63992D01*
X62992Y100409D01*
X61992Y101409D01*
X60992D01*
Y100409D01*
X61992Y99410D01*
X60992Y98409D01*
Y97409D01*
X46228Y118965D02*
X47228D01*
X48228Y119965D01*
X49228Y118965D01*
X50228D01*
Y119965D01*
X49228Y120965D01*
X50228Y121965D01*
Y122965D01*
X49228D01*
X48228Y121965D01*
X47228Y122965D01*
X46228D01*
Y121965D01*
X47228Y120965D01*
X46228Y119965D01*
Y118965D01*
X59417Y107941D02*
X60417D01*
X61417Y108941D01*
X62417Y107941D01*
X63417D01*
Y108941D01*
X62417Y109941D01*
X63417Y110941D01*
Y111941D01*
X62417D01*
X61417Y110941D01*
X60417Y111941D01*
X59417D01*
Y110941D01*
X60417Y109941D01*
X59417Y108941D01*
Y107941D01*
X128512Y111091D02*
X129512D01*
X130512Y112091D01*
X131512Y111091D01*
X132512D01*
Y112091D01*
X131512Y113091D01*
X132512Y114091D01*
Y115091D01*
X131512D01*
X130512Y114091D01*
X129512Y115091D01*
X128512D01*
Y114091D01*
X129512Y113091D01*
X128512Y112091D01*
Y111091D01*
X101839Y197311D02*
X102839D01*
X103839Y198311D01*
X104839Y197311D01*
X105839D01*
Y198311D01*
X104839Y199311D01*
X105839Y200311D01*
Y201311D01*
X104839D01*
X103839Y200311D01*
X102839Y201311D01*
X101839D01*
Y200311D01*
X102839Y199311D01*
X101839Y198311D01*
Y197311D01*
X17095Y76543D02*
X18094D01*
X19094Y77543D01*
X20095Y76543D01*
X21094D01*
Y77543D01*
X20095Y78543D01*
X21094Y79543D01*
Y80543D01*
X20095D01*
X19094Y79543D01*
X18094Y80543D01*
X17095D01*
Y79543D01*
X18094Y78543D01*
X17095Y77543D01*
Y76543D01*
X77331Y86583D02*
X78331D01*
X79331Y87583D01*
X80331Y86583D01*
X81331D01*
Y87583D01*
X80331Y88583D01*
X81331Y89583D01*
Y90583D01*
X80331D01*
X79331Y89583D01*
X78331Y90583D01*
X77331D01*
Y89583D01*
X78331Y88583D01*
X77331Y87583D01*
Y86583D01*
X70835Y71524D02*
X71835D01*
X72835Y72524D01*
X73835Y71524D01*
X74835D01*
Y72524D01*
X73835Y73524D01*
X74835Y74524D01*
Y75524D01*
X73835D01*
X72835Y74524D01*
X71835Y75524D01*
X70835D01*
Y74524D01*
X71835Y73524D01*
X70835Y72524D01*
Y71524D01*
X18079Y69752D02*
X19079D01*
X20079Y70752D01*
X21079Y69752D01*
X22079D01*
Y70752D01*
X21079Y71752D01*
X22079Y72752D01*
Y73752D01*
X21079D01*
X20079Y72752D01*
X19079Y73752D01*
X18079D01*
Y72752D01*
X19079Y71752D01*
X18079Y70752D01*
Y69752D01*
X72016Y89831D02*
X73016D01*
X74016Y90831D01*
X75016Y89831D01*
X76016D01*
Y90831D01*
X75016Y91831D01*
X76016Y92831D01*
Y93831D01*
X75016D01*
X74016Y92831D01*
X73016Y93831D01*
X72016D01*
Y92831D01*
X73016Y91831D01*
X72016Y90831D01*
Y89831D01*
X122213Y196622D02*
X123213D01*
X124213Y197622D01*
X125213Y196622D01*
X126213D01*
Y197622D01*
X125213Y198622D01*
X126213Y199622D01*
Y200622D01*
X125213D01*
X124213Y199622D01*
X123213Y200622D01*
X122213D01*
Y199622D01*
X123213Y198622D01*
X122213Y197622D01*
Y196622D01*
X126839Y200067D02*
X127839D01*
X128839Y201067D01*
X129839Y200067D01*
X130839D01*
Y201067D01*
X129839Y202067D01*
X130839Y203067D01*
Y204067D01*
X129839D01*
X128839Y203067D01*
X127839Y204067D01*
X126839D01*
Y203067D01*
X127839Y202067D01*
X126839Y201067D01*
Y200067D01*
X81169Y212961D02*
X82169D01*
X83169Y213961D01*
X84169Y212961D01*
X85169D01*
Y213961D01*
X84169Y214961D01*
X85169Y215961D01*
Y216961D01*
X84169D01*
X83169Y215961D01*
X82169Y216961D01*
X81169D01*
Y215961D01*
X82169Y214961D01*
X81169Y213961D01*
Y212961D01*
X99083Y204496D02*
X100083D01*
X101083Y205496D01*
X102083Y204496D01*
X103083D01*
Y205496D01*
X102083Y206496D01*
X103083Y207496D01*
Y208496D01*
X102083D01*
X101083Y207496D01*
X100083Y208496D01*
X99083D01*
Y207496D01*
X100083Y206496D01*
X99083Y205496D01*
Y204496D01*
X91406Y216012D02*
X92406D01*
X93406Y217012D01*
X94406Y216012D01*
X95406D01*
Y217012D01*
X94406Y218012D01*
X95406Y219012D01*
Y220012D01*
X94406D01*
X93406Y219012D01*
X92406Y220012D01*
X91406D01*
Y219012D01*
X92406Y218012D01*
X91406Y217012D01*
Y216012D01*
X117587Y200362D02*
X118587D01*
X119587Y201362D01*
X120587Y200362D01*
X121587D01*
Y201362D01*
X120587Y202362D01*
X121587Y203362D01*
Y204362D01*
X120587D01*
X119587Y203362D01*
X118587Y204362D01*
X117587D01*
Y203362D01*
X118587Y202362D01*
X117587Y201362D01*
Y200362D01*
X137764Y148394D02*
X138764D01*
X139764Y149394D01*
X140764Y148394D01*
X141764D01*
Y149394D01*
X140764Y150394D01*
X141764Y151394D01*
Y152394D01*
X140764D01*
X139764Y151394D01*
X138764Y152394D01*
X137764D01*
Y151394D01*
X138764Y150394D01*
X137764Y149394D01*
Y148394D01*
X132055D02*
X133055D01*
X134055Y149394D01*
X135055Y148394D01*
X136055D01*
Y149394D01*
X135055Y150394D01*
X136055Y151394D01*
Y152394D01*
X135055D01*
X134055Y151394D01*
X133055Y152394D01*
X132055D01*
Y151394D01*
X133055Y150394D01*
X132055Y149394D01*
Y148394D01*
X160500Y149575D02*
X161500D01*
X162500Y150575D01*
X163500Y149575D01*
X164500D01*
Y150575D01*
X163500Y151575D01*
X164500Y152575D01*
Y153575D01*
X163500D01*
X162500Y152575D01*
X161500Y153575D01*
X160500D01*
Y152575D01*
X161500Y151575D01*
X160500Y150575D01*
Y149575D01*
X26937Y16209D02*
X27937D01*
X28937Y17209D01*
X29937Y16209D01*
X30937D01*
Y17209D01*
X29937Y18209D01*
X30937Y19209D01*
Y20209D01*
X29937D01*
X28937Y19209D01*
X27937Y20209D01*
X26937D01*
Y19209D01*
X27937Y18209D01*
X26937Y17209D01*
Y16209D01*
X9122Y14536D02*
X10122D01*
X11122Y15536D01*
X12122Y14536D01*
X13122D01*
Y15536D01*
X12122Y16535D01*
X13122Y17536D01*
Y18535D01*
X12122D01*
X11122Y17536D01*
X10122Y18535D01*
X9122D01*
Y17536D01*
X10122Y16535D01*
X9122Y15536D01*
Y14536D01*
X9417Y19752D02*
X10417D01*
X11417Y20752D01*
X12417Y19752D01*
X13417D01*
Y20752D01*
X12417Y21752D01*
X13417Y22752D01*
Y23752D01*
X12417D01*
X11417Y22752D01*
X10417Y23752D01*
X9417D01*
Y22752D01*
X10417Y21752D01*
X9417Y20752D01*
Y19752D01*
X9221Y24870D02*
X10221D01*
X11220Y25870D01*
X12220Y24870D01*
X13220D01*
Y25870D01*
X12220Y26870D01*
X13220Y27870D01*
Y28870D01*
X12220D01*
X11220Y27870D01*
X10221Y28870D01*
X9221D01*
Y27870D01*
X10221Y26870D01*
X9221Y25870D01*
Y24870D01*
X59063Y17331D02*
X60063D01*
X61063Y18331D01*
X62063Y17331D01*
X63063D01*
Y18331D01*
X62063Y19331D01*
X63063Y20331D01*
Y21331D01*
X62063D01*
X61063Y20331D01*
X60063Y21331D01*
X59063D01*
Y20331D01*
X60063Y19331D01*
X59063Y18331D01*
Y17331D01*
X70736Y28709D02*
X71736D01*
X72736Y29709D01*
X73736Y28709D01*
X74736D01*
Y29709D01*
X73736Y30709D01*
X74736Y31709D01*
Y32709D01*
X73736D01*
X72736Y31709D01*
X71736Y32709D01*
X70736D01*
Y31709D01*
X71736Y30709D01*
X70736Y29709D01*
Y28709D01*
X71917Y45343D02*
X72917D01*
X73917Y46343D01*
X74917Y45343D01*
X75917D01*
Y46343D01*
X74917Y47343D01*
X75917Y48343D01*
Y49343D01*
X74917D01*
X73917Y48343D01*
X72917Y49343D01*
X71917D01*
Y48343D01*
X72917Y47343D01*
X71917Y46343D01*
Y45343D01*
X58827Y64043D02*
X59827D01*
X60827Y65043D01*
X61827Y64043D01*
X62827D01*
Y65043D01*
X61827Y66043D01*
X62827Y67043D01*
Y68043D01*
X61827D01*
X60827Y67043D01*
X59827Y68043D01*
X58827D01*
Y67043D01*
X59827Y66043D01*
X58827Y65043D01*
Y64043D01*
X69358Y115520D02*
X70358D01*
X71358Y116520D01*
X72358Y115520D01*
X73358D01*
Y116520D01*
X72358Y117520D01*
X73358Y118520D01*
Y119520D01*
X72358D01*
X71358Y118520D01*
X70358Y119520D01*
X69358D01*
Y118520D01*
X70358Y117520D01*
X69358Y116520D01*
Y115520D01*
X47213Y129201D02*
X48213D01*
X49213Y130201D01*
X50213Y129201D01*
X51213D01*
Y130201D01*
X50213Y131201D01*
X51213Y132201D01*
Y133201D01*
X50213D01*
X49213Y132201D01*
X48213Y133201D01*
X47213D01*
Y132201D01*
X48213Y131201D01*
X47213Y130201D01*
Y129201D01*
X53315D02*
X54315D01*
X55315Y130201D01*
X56315Y129201D01*
X57315D01*
Y130201D01*
X56315Y131201D01*
X57315Y132201D01*
Y133201D01*
X56315D01*
X55315Y132201D01*
X54315Y133201D01*
X53315D01*
Y132201D01*
X54315Y131201D01*
X53315Y130201D01*
Y129201D01*
X109909Y85894D02*
X110909D01*
X111909Y86894D01*
X112909Y85894D01*
X113909D01*
Y86894D01*
X112909Y87894D01*
X113909Y88894D01*
Y89894D01*
X112909D01*
X111909Y88894D01*
X110909Y89894D01*
X109909D01*
Y88894D01*
X110909Y87894D01*
X109909Y86894D01*
Y85894D01*
Y81465D02*
X110909D01*
X111909Y82465D01*
X112909Y81465D01*
X113909D01*
Y82465D01*
X112909Y83465D01*
X113909Y84465D01*
Y85465D01*
X112909D01*
X111909Y84465D01*
X110909Y85465D01*
X109909D01*
Y84465D01*
X110909Y83465D01*
X109909Y82465D01*
Y81465D01*
X5874Y123984D02*
X6874D01*
X7874Y124984D01*
X8874Y123984D01*
X9874D01*
Y124984D01*
X8874Y125984D01*
X9874Y126984D01*
Y127984D01*
X8874D01*
X7874Y126984D01*
X6874Y127984D01*
X5874D01*
Y126984D01*
X6874Y125984D01*
X5874Y124984D01*
Y123984D01*
X13748D02*
X14748D01*
X15748Y124984D01*
X16748Y123984D01*
X17748D01*
Y124984D01*
X16748Y125984D01*
X17748Y126984D01*
Y127984D01*
X16748D01*
X15748Y126984D01*
X14748Y127984D01*
X13748D01*
Y126984D01*
X14748Y125984D01*
X13748Y124984D01*
Y123984D01*
X21622D02*
X22622D01*
X23622Y124984D01*
X24622Y123984D01*
X25622D01*
Y124984D01*
X24622Y125984D01*
X25622Y126984D01*
Y127984D01*
X24622D01*
X23622Y126984D01*
X22622Y127984D01*
X21622D01*
Y126984D01*
X22622Y125984D01*
X21622Y124984D01*
Y123984D01*
X5874Y131858D02*
X6874D01*
X7874Y132858D01*
X8874Y131858D01*
X9874D01*
Y132858D01*
X8874Y133858D01*
X9874Y134858D01*
Y135858D01*
X8874D01*
X7874Y134858D01*
X6874Y135858D01*
X5874D01*
Y134858D01*
X6874Y133858D01*
X5874Y132858D01*
Y131858D01*
X13748D02*
X14748D01*
X15748Y132858D01*
X16748Y131858D01*
X17748D01*
Y132858D01*
X16748Y133858D01*
X17748Y134858D01*
Y135858D01*
X16748D01*
X15748Y134858D01*
X14748Y135858D01*
X13748D01*
Y134858D01*
X14748Y133858D01*
X13748Y132858D01*
Y131858D01*
X21622D02*
X22622D01*
X23622Y132858D01*
X24622Y131858D01*
X25622D01*
Y132858D01*
X24622Y133858D01*
X25622Y134858D01*
Y135858D01*
X24622D01*
X23622Y134858D01*
X22622Y135858D01*
X21622D01*
Y134858D01*
X22622Y133858D01*
X21622Y132858D01*
Y131858D01*
Y100362D02*
X22622D01*
X23622Y101362D01*
X24622Y100362D01*
X25622D01*
Y101362D01*
X24622Y102362D01*
X25622Y103362D01*
Y104362D01*
X24622D01*
X23622Y103362D01*
X22622Y104362D01*
X21622D01*
Y103362D01*
X22622Y102362D01*
X21622Y101362D01*
Y100362D01*
Y92488D02*
X22622D01*
X23622Y93488D01*
X24622Y92488D01*
X25622D01*
Y93488D01*
X24622Y94488D01*
X25622Y95488D01*
Y96488D01*
X24622D01*
X23622Y95488D01*
X22622Y96488D01*
X21622D01*
Y95488D01*
X22622Y94488D01*
X21622Y93488D01*
Y92488D01*
X13748D02*
X14748D01*
X15748Y93488D01*
X16748Y92488D01*
X17748D01*
Y93488D01*
X16748Y94488D01*
X17748Y95488D01*
Y96488D01*
X16748D01*
X15748Y95488D01*
X14748Y96488D01*
X13748D01*
Y95488D01*
X14748Y94488D01*
X13748Y93488D01*
Y92488D01*
Y100362D02*
X14748D01*
X15748Y101362D01*
X16748Y100362D01*
X17748D01*
Y101362D01*
X16748Y102362D01*
X17748Y103362D01*
Y104362D01*
X16748D01*
X15748Y103362D01*
X14748Y104362D01*
X13748D01*
Y103362D01*
X14748Y102362D01*
X13748Y101362D01*
Y100362D01*
X5874D02*
X6874D01*
X7874Y101362D01*
X8874Y100362D01*
X9874D01*
Y101362D01*
X8874Y102362D01*
X9874Y103362D01*
Y104362D01*
X8874D01*
X7874Y103362D01*
X6874Y104362D01*
X5874D01*
Y103362D01*
X6874Y102362D01*
X5874Y101362D01*
Y100362D01*
X106169Y247410D02*
X107169D01*
X108169Y248410D01*
X109169Y247410D01*
X110169D01*
Y248410D01*
X109169Y249410D01*
X110169Y250410D01*
Y251410D01*
X109169D01*
X108169Y250410D01*
X107169Y251410D01*
X106169D01*
Y250410D01*
X107169Y249410D01*
X106169Y248410D01*
Y247410D01*
D131*
X173260Y399606D02*
G03*
X173260Y399606I-2000J0D01*
G01*
X11843D02*
G03*
X11843Y399606I-2000J0D01*
G01*
X17748Y236221D02*
G03*
X17748Y236221I-2000J0D01*
G01*
Y275591D02*
G03*
X17748Y275591I-2000J0D01*
G01*
X151606Y204725D02*
G03*
X151606Y204725I-2000J0D01*
G01*
X173260Y9843D02*
G03*
X173260Y9843I-2000J0D01*
G01*
M02*
