G04 Layer_Physical_Order=1*
G04 Layer_Color=255*
%FSLAX25Y25*%
%MOIN*%
G70*
G01*
G75*
%ADD10R,0.03740X0.03937*%
%ADD11R,0.01575X0.07874*%
%ADD12R,0.04331X0.03937*%
%ADD13R,0.21654X0.29134*%
%ADD14R,0.03740X0.07480*%
%ADD15R,0.09449X0.10236*%
%ADD16R,0.04843X0.07087*%
%ADD17R,0.04528X0.02362*%
%ADD18R,0.03937X0.04331*%
%ADD19R,0.07087X0.04843*%
%ADD20O,0.02953X0.01181*%
%ADD21O,0.01181X0.02953*%
%ADD22R,0.06496X0.06496*%
%ADD23R,0.02284X0.04803*%
%ADD24R,0.05000X0.11496*%
%ADD25R,0.07205X0.13504*%
%ADD26R,0.10236X0.09449*%
%ADD27R,0.03937X0.03740*%
%ADD28R,0.02756X0.03937*%
%ADD29R,0.03150X0.03150*%
%ADD30R,0.07874X0.12402*%
%ADD31R,0.02165X0.05709*%
%ADD32R,0.03150X0.03150*%
%ADD33R,0.11024X0.10236*%
%ADD34R,0.11024X0.06693*%
%ADD35R,0.07480X0.03740*%
%ADD36R,0.29134X0.21654*%
%ADD37R,0.06299X0.07087*%
%ADD38R,0.08465X0.13386*%
%ADD39R,0.06201X0.06201*%
%ADD40R,0.11024X0.07480*%
%ADD41O,0.02165X0.06496*%
%ADD42O,0.06496X0.02165*%
%ADD43R,0.12992X0.04134*%
%ADD44R,0.33071X0.41339*%
%ADD45R,0.01102X0.03150*%
%ADD46R,0.03150X0.01102*%
%ADD47R,0.08425X0.08425*%
%ADD48C,0.01181*%
%ADD49C,0.01969*%
%ADD50C,0.05906*%
%ADD51C,0.03937*%
%ADD52C,0.03150*%
%ADD53C,0.02362*%
%ADD54C,0.06299*%
%ADD55C,0.01000*%
%ADD56C,0.05512*%
%ADD57C,0.07874*%
%ADD58C,0.01575*%
%ADD59R,0.02264X0.06693*%
%ADD60R,0.02067X0.03543*%
%ADD61R,0.13780X0.13780*%
%ADD62R,0.13780X0.13780*%
%ADD63R,0.05906X0.05906*%
%ADD64C,0.05906*%
%ADD65R,0.05906X0.05906*%
%ADD66C,0.07874*%
%ADD67C,0.13780*%
%ADD68C,0.13780*%
%ADD69C,0.03150*%
%ADD70C,0.03150*%
%ADD71C,0.01969*%
G36*
X154452Y213468D02*
X155027Y213026D01*
X155698Y212748D01*
X156417Y212653D01*
X160005D01*
X160565Y211923D01*
X161593Y211134D01*
X162790Y210638D01*
X164075Y210469D01*
X165360Y210638D01*
X166557Y211134D01*
X167585Y211923D01*
X168374Y212951D01*
X168869Y214148D01*
X169039Y215433D01*
X168869Y216718D01*
X168374Y217915D01*
X167585Y218943D01*
X166557Y219732D01*
X165483Y220177D01*
X165483Y220177D01*
Y220689D01*
X165483Y220690D01*
X166557Y221134D01*
X167585Y221923D01*
X168374Y222951D01*
X168818Y224025D01*
X168819Y224025D01*
X169331D01*
X169332Y224025D01*
X169776Y222951D01*
X170565Y221923D01*
X171593Y221134D01*
X172790Y220638D01*
X174075Y220469D01*
X175360Y220638D01*
X175938Y220878D01*
X176354Y220601D01*
Y219253D01*
X175854Y218974D01*
X175107Y219284D01*
X174575Y219354D01*
Y215433D01*
Y211512D01*
X175107Y211582D01*
X175854Y211892D01*
X176354Y211613D01*
Y204301D01*
X170613Y198560D01*
X170171Y197984D01*
X169894Y197314D01*
X169799Y196595D01*
Y189173D01*
X165650D01*
Y182290D01*
X150742Y167383D01*
X150242D01*
X141332Y176293D01*
X141336Y176300D01*
X141336Y176300D01*
X141576Y176756D01*
X141857Y176756D01*
X147039D01*
Y181980D01*
X141421D01*
Y177228D01*
X141421Y176911D01*
X140958Y176667D01*
X130683Y186942D01*
Y187528D01*
X130951Y187795D01*
X135531D01*
Y188764D01*
X137492D01*
Y191732D01*
Y194701D01*
X135531D01*
Y195669D01*
X127854D01*
Y194834D01*
X127839Y194827D01*
X127099Y194259D01*
X125232Y192393D01*
X124885Y192740D01*
X123898Y193497D01*
X122749Y193973D01*
X121516Y194135D01*
X118723D01*
Y199431D01*
X119087Y199709D01*
Y202362D01*
X120087D01*
Y199831D01*
X120259Y199854D01*
X120364Y199898D01*
X120689Y199611D01*
X120757Y199519D01*
X120639Y198622D01*
X120761Y197697D01*
X121118Y196835D01*
X121686Y196095D01*
X122426Y195527D01*
X123288Y195170D01*
X124213Y195048D01*
X125138Y195170D01*
X126000Y195527D01*
X126740Y196095D01*
X127308Y196835D01*
X127665Y197697D01*
X127725Y198153D01*
X127911Y198608D01*
X128251Y198571D01*
X128839Y198493D01*
X129764Y198615D01*
X130626Y198972D01*
X131366Y199540D01*
X131934Y200280D01*
X132291Y201142D01*
X132413Y202067D01*
X132291Y202992D01*
X131934Y203854D01*
X131366Y204594D01*
X131321Y204628D01*
Y205537D01*
X131405Y205646D01*
X131713Y206389D01*
X131818Y207185D01*
Y211316D01*
X131989Y211614D01*
X132287Y211785D01*
X136417D01*
X137214Y211890D01*
X137956Y212197D01*
X138593Y212686D01*
X139083Y213323D01*
X139390Y214066D01*
X139495Y214862D01*
X139390Y215659D01*
X139083Y216401D01*
X139055Y216437D01*
X139083Y216473D01*
X139390Y217215D01*
X139495Y218012D01*
X139390Y218808D01*
X139083Y219551D01*
X139055Y219587D01*
X139083Y219623D01*
X139390Y220365D01*
X139495Y221162D01*
X139390Y221958D01*
X139083Y222700D01*
X139055Y222736D01*
X139083Y222772D01*
X139390Y223515D01*
X139495Y224311D01*
X139819Y224681D01*
X143238D01*
X154452Y213468D01*
D02*
G37*
G36*
X87868Y245177D02*
X87970Y244406D01*
X88267Y243688D01*
X88741Y243071D01*
X94353Y237459D01*
X94255Y236969D01*
X93981Y236855D01*
X93241Y236287D01*
X92673Y235547D01*
X92316Y234685D01*
X92194Y233760D01*
X92316Y232835D01*
X92673Y231973D01*
X93241Y231233D01*
X93981Y230665D01*
X94843Y230308D01*
X95768Y230186D01*
X96020Y229993D01*
X96043Y229814D01*
X96351Y229071D01*
X96378Y229035D01*
X96351Y228999D01*
X96043Y228257D01*
X95938Y227461D01*
X96043Y226664D01*
X96351Y225922D01*
X96378Y225886D01*
X96351Y225850D01*
X96043Y225108D01*
X95938Y224311D01*
X96043Y223515D01*
X96351Y222772D01*
X96378Y222736D01*
X96351Y222700D01*
X96043Y221958D01*
X95938Y221162D01*
X95883Y221099D01*
X95469Y220895D01*
X95192Y221107D01*
X94331Y221464D01*
X93406Y221586D01*
X92481Y221464D01*
X91619Y221107D01*
X90878Y220539D01*
X90311Y219799D01*
X89954Y218937D01*
X89832Y218012D01*
X89507Y217642D01*
X85496D01*
X84956Y218056D01*
X84094Y218413D01*
X83169Y218534D01*
X82244Y218413D01*
X81382Y218056D01*
X80642Y217488D01*
X80074Y216748D01*
X79717Y215886D01*
X79596Y214961D01*
X79717Y214036D01*
X80074Y213174D01*
X80642Y212434D01*
X81382Y211866D01*
X82244Y211509D01*
X83169Y211387D01*
X84094Y211509D01*
X84956Y211866D01*
X85239Y212083D01*
X97753D01*
X98219Y211890D01*
X99016Y211785D01*
X101761D01*
X101929Y211410D01*
X101940Y211285D01*
X100671Y210016D01*
X100158Y209948D01*
X99296Y209591D01*
X98556Y209023D01*
X97988Y208283D01*
X97631Y207421D01*
X97509Y206496D01*
X97631Y205571D01*
X97988Y204709D01*
X98556Y203969D01*
X99296Y203401D01*
X100158Y203044D01*
X101083Y202922D01*
X102008Y203044D01*
X102870Y203401D01*
X103610Y203969D01*
X104158Y204683D01*
X104184Y204707D01*
X104190Y204712D01*
X104764Y204819D01*
X105154Y204520D01*
X105896Y204212D01*
X106693Y204108D01*
X106886Y204133D01*
X107261Y203803D01*
Y201492D01*
X106761Y201323D01*
X106366Y201838D01*
X105626Y202406D01*
X104764Y202763D01*
X103839Y202885D01*
X102914Y202763D01*
X102052Y202406D01*
X101899Y202289D01*
X43307D01*
X43307Y202289D01*
X42536Y202188D01*
X41818Y201890D01*
X41201Y201417D01*
X41201Y201417D01*
X36143Y196358D01*
X2208D01*
Y251772D01*
X87868D01*
Y245177D01*
D02*
G37*
G36*
X107390Y84925D02*
X109186D01*
X109520Y84425D01*
X109401Y84137D01*
X109378Y83965D01*
X111909D01*
Y83465D01*
X112409D01*
Y80933D01*
X112582Y80956D01*
X113108Y81174D01*
X113427Y80952D01*
X113528Y80831D01*
Y78059D01*
X118071D01*
Y77559D01*
X118571D01*
Y74138D01*
X122374D01*
X122614Y74138D01*
X122874Y73746D01*
Y73169D01*
X125475D01*
X126310Y72334D01*
X127380Y71514D01*
X128625Y70998D01*
X129961Y70822D01*
X137008D01*
Y70276D01*
X151969D01*
Y76164D01*
X154656Y78852D01*
X155118Y78660D01*
Y70276D01*
X167172D01*
X167364Y69814D01*
X166861Y69311D01*
X161976D01*
Y64179D01*
X161974Y64176D01*
X161459Y62931D01*
X161283Y61594D01*
X161459Y60258D01*
X161974Y59013D01*
X161976Y59011D01*
Y53878D01*
X170913D01*
Y58763D01*
X178060Y65909D01*
X178395Y66345D01*
X178895Y66176D01*
Y46418D01*
X178395Y46119D01*
X177629Y46528D01*
X176315Y46927D01*
X174949Y47061D01*
X173583Y46927D01*
X172269Y46528D01*
X171059Y45881D01*
X169998Y45010D01*
X169127Y43949D01*
X168480Y42739D01*
X168081Y41425D01*
X167947Y40059D01*
X168081Y38693D01*
X168480Y37380D01*
X169127Y36169D01*
X169998Y35108D01*
X171059Y34237D01*
X172269Y33590D01*
X173583Y33191D01*
X174949Y33057D01*
X176315Y33191D01*
X177629Y33590D01*
X178395Y33999D01*
X178895Y33700D01*
Y17732D01*
X171760D01*
Y9843D01*
X171260D01*
Y9343D01*
X163370D01*
Y2208D01*
X35932D01*
X35449Y2248D01*
X35449Y2708D01*
Y7866D01*
X28937D01*
Y8366D01*
X28437D01*
Y14484D01*
X22425D01*
Y12003D01*
X21925Y11833D01*
X21817Y11974D01*
X21279Y12387D01*
X20652Y12646D01*
X20480Y12669D01*
Y10138D01*
X19480D01*
Y12669D01*
X19308Y12646D01*
X18682Y12387D01*
X18232Y12042D01*
X17732Y12185D01*
Y14484D01*
X13424D01*
X13177Y14984D01*
X13371Y15237D01*
X13631Y15863D01*
X13653Y16036D01*
X8591D01*
X8614Y15863D01*
X8873Y15237D01*
X9067Y14984D01*
X8820Y14484D01*
X4709D01*
Y8866D01*
X11220D01*
Y7866D01*
X4709D01*
Y2708D01*
X4709Y2248D01*
X4225Y2208D01*
X2208D01*
Y20424D01*
X2708Y20820D01*
X3347Y20735D01*
X4323Y20864D01*
X5233Y21241D01*
X6014Y21840D01*
X6613Y22622D01*
X6990Y23531D01*
X7119Y24508D01*
X6990Y25484D01*
X6613Y26394D01*
X6014Y27175D01*
X5233Y27775D01*
X4323Y28152D01*
X3347Y28280D01*
X2708Y28196D01*
X2208Y28591D01*
Y35004D01*
X30582D01*
X30911Y34628D01*
X30880Y34390D01*
Y25394D01*
X30982Y24623D01*
X31279Y23905D01*
X31752Y23288D01*
X36713Y18328D01*
Y14469D01*
Y12167D01*
X36679Y11909D01*
X36713Y11652D01*
Y7776D01*
X39168D01*
X40736Y6208D01*
X41558Y5577D01*
X42516Y5180D01*
X43543Y5045D01*
X45709D01*
Y3504D01*
X54488D01*
Y14528D01*
X53912D01*
X53520Y14787D01*
X53520Y15028D01*
Y18831D01*
X46677D01*
Y15028D01*
X46677Y14787D01*
X46285Y14528D01*
X45709D01*
Y12987D01*
X45188D01*
X44587Y13588D01*
Y14469D01*
Y22736D01*
X40728D01*
X36836Y26627D01*
Y33156D01*
X37259Y33578D01*
X37721Y33387D01*
Y31858D01*
X44563D01*
Y35004D01*
X46973D01*
Y31858D01*
X53815D01*
Y35004D01*
X56595D01*
X56595Y35004D01*
Y35004D01*
X57090Y34992D01*
X57889Y34335D01*
X59100Y33688D01*
X60413Y33290D01*
X61780Y33155D01*
X63146Y33290D01*
X64459Y33688D01*
X65670Y34335D01*
X66731Y35206D01*
X67602Y36267D01*
X68249Y37478D01*
X68647Y38791D01*
X68782Y40157D01*
X68647Y41524D01*
X68249Y42837D01*
X67602Y44048D01*
X66731Y45109D01*
X65670Y45980D01*
X64459Y46627D01*
X63146Y47025D01*
X61780Y47160D01*
X60413Y47025D01*
X59100Y46627D01*
X57889Y45980D01*
X57095Y45327D01*
X56595Y45564D01*
Y66831D01*
X56299Y67126D01*
X56890Y67717D01*
X58299D01*
X58526Y67217D01*
X58318Y66716D01*
X58296Y66543D01*
X63358D01*
X63335Y66716D01*
X63128Y67217D01*
X63354Y67717D01*
X66783D01*
Y62193D01*
X73783D01*
Y67102D01*
X77626D01*
Y65557D01*
X77161Y64990D01*
X76612Y63964D01*
X76275Y62851D01*
X76161Y61693D01*
X76275Y60535D01*
X76612Y59422D01*
X77161Y58396D01*
X77626Y57829D01*
Y53976D01*
X86563D01*
Y55759D01*
X108138D01*
Y53976D01*
X117075D01*
Y57829D01*
X117540Y58396D01*
X118089Y59422D01*
X118285Y60069D01*
X118807D01*
X119033Y59324D01*
X119582Y58298D01*
X119949Y57850D01*
Y53976D01*
X128886D01*
Y55660D01*
X150165D01*
Y53878D01*
X159102D01*
Y57731D01*
X159568Y58298D01*
X160116Y59324D01*
X160454Y60437D01*
X160568Y61594D01*
X160454Y62752D01*
X160116Y63865D01*
X159568Y64891D01*
X159102Y65459D01*
Y69311D01*
X150165D01*
Y67529D01*
X128886D01*
Y69410D01*
X119949D01*
Y65339D01*
X119582Y64891D01*
X119033Y63865D01*
X118837Y63219D01*
X118315D01*
X118089Y63964D01*
X117540Y64990D01*
X117075Y65557D01*
Y69410D01*
X108138D01*
Y67627D01*
X98691D01*
X98228Y67717D01*
Y71266D01*
X98324Y71361D01*
X98766Y71937D01*
X99043Y72607D01*
X99138Y73327D01*
Y74311D01*
X104528D01*
Y75280D01*
X105799D01*
Y78248D01*
Y81217D01*
X104528D01*
Y82185D01*
X98228D01*
Y83957D01*
X104331D01*
Y84925D01*
X106390D01*
Y87894D01*
X107390D01*
Y84925D01*
D02*
G37*
G36*
X122513Y240256D02*
X122618Y239459D01*
X122925Y238717D01*
X122941Y238697D01*
Y238232D01*
X123250Y238294D01*
X123415Y238080D01*
X124052Y237591D01*
X124794Y237283D01*
X125591Y237178D01*
X126387Y237283D01*
X127129Y237591D01*
X127165Y237618D01*
X127201Y237591D01*
X127944Y237283D01*
X128740Y237178D01*
X129009Y236910D01*
X129114Y236113D01*
X129421Y235371D01*
X129449Y235335D01*
X129421Y235299D01*
X129114Y234556D01*
X129009Y233760D01*
X129114Y232963D01*
X129421Y232221D01*
X129449Y232185D01*
X129421Y232149D01*
X129114Y231407D01*
X129009Y230610D01*
X129114Y229814D01*
X129421Y229071D01*
X129449Y229035D01*
X129421Y228999D01*
X129114Y228257D01*
X129009Y227461D01*
X129114Y226664D01*
X129421Y225922D01*
X129449Y225886D01*
X129421Y225850D01*
X129114Y225108D01*
X129009Y224311D01*
X129114Y223515D01*
X129421Y222772D01*
X129449Y222736D01*
X129421Y222700D01*
X129114Y221958D01*
X129009Y221162D01*
X129114Y220365D01*
X129421Y219623D01*
X129449Y219587D01*
X129421Y219551D01*
X129114Y218808D01*
X129009Y218012D01*
X129114Y217215D01*
X129421Y216473D01*
X129449Y216437D01*
X129421Y216401D01*
X129114Y215659D01*
X129035Y215059D01*
X128740Y214593D01*
X127944Y214488D01*
X127201Y214181D01*
X127165Y214153D01*
X127129Y214181D01*
X126387Y214488D01*
X125591Y214593D01*
X124794Y214488D01*
X124052Y214181D01*
X124016Y214153D01*
X123980Y214181D01*
X123238Y214488D01*
X122441Y214593D01*
X121644Y214488D01*
X120902Y214181D01*
X120265Y213692D01*
X120101Y213478D01*
X119791Y213540D01*
Y213075D01*
X119776Y213055D01*
X119468Y212312D01*
X119363Y211516D01*
Y209350D01*
X119220D01*
Y211516D01*
X119115Y212312D01*
X118807Y213055D01*
X118791Y213075D01*
Y213864D01*
X118723Y213920D01*
Y228655D01*
X121116Y231049D01*
X121527Y231583D01*
X121785Y232206D01*
X121872Y232874D01*
Y237852D01*
X121941Y237908D01*
Y238697D01*
X121957Y238717D01*
X122264Y239459D01*
X122369Y240256D01*
Y242421D01*
X122513D01*
Y240256D01*
D02*
G37*
G36*
X121020Y183127D02*
X121020Y183127D01*
X142028Y162119D01*
Y156358D01*
X147991D01*
X148110Y156267D01*
X149259Y155791D01*
X150492Y155629D01*
X151725Y155791D01*
X152875Y156267D01*
X152994Y156358D01*
X158957D01*
Y162119D01*
X172625Y175787D01*
X178895D01*
Y125508D01*
X176681D01*
Y122638D01*
X176181D01*
Y122138D01*
X173213D01*
Y120457D01*
X172713Y120293D01*
X170174Y122832D01*
X170079Y122905D01*
Y126575D01*
X168441D01*
X168234Y127075D01*
X168620Y127461D01*
X176969D01*
Y141634D01*
X163583D01*
Y137025D01*
X162599Y136041D01*
X158957Y139682D01*
Y144429D01*
X153616D01*
X152960Y144701D01*
X151624Y144877D01*
X150288Y144701D01*
X149632Y144429D01*
X142028D01*
Y136358D01*
X147748D01*
X147974Y136064D01*
X156963Y127075D01*
X156756Y126575D01*
X155118D01*
Y126029D01*
X151969D01*
Y126575D01*
X137008D01*
Y115157D01*
X151969D01*
Y115704D01*
X155118D01*
Y115157D01*
X164048D01*
X164087Y114657D01*
X163082Y113886D01*
X162262Y112817D01*
X161746Y111572D01*
X161570Y110236D01*
X161746Y108900D01*
X162262Y107655D01*
X163082Y106586D01*
X164151Y105766D01*
X165396Y105250D01*
X166732Y105074D01*
X168068Y105250D01*
X169314Y105766D01*
X170383Y106586D01*
X171203Y107655D01*
X171719Y108900D01*
X171895Y110236D01*
X171719Y111572D01*
X171203Y112817D01*
X170383Y113886D01*
X169378Y114657D01*
X169416Y115157D01*
X169986D01*
X170771Y114373D01*
X171346Y113931D01*
X172017Y113654D01*
X172244Y113624D01*
Y112500D01*
X178895D01*
Y99242D01*
X168947D01*
Y92097D01*
X168571Y91768D01*
X168504Y91777D01*
X155118D01*
X153782Y91601D01*
X152537Y91085D01*
X151468Y90264D01*
X145458Y84255D01*
X145034Y84538D01*
X145341Y85278D01*
X145517Y86614D01*
X145341Y87950D01*
X144825Y89195D01*
X144005Y90264D01*
X142936Y91085D01*
X141691Y91601D01*
X140354Y91777D01*
X139018Y91601D01*
X137773Y91085D01*
X136704Y90264D01*
X135884Y89195D01*
X135368Y87950D01*
X135192Y86614D01*
X135368Y85278D01*
X135884Y84033D01*
X136704Y82964D01*
X137709Y82193D01*
X137670Y81693D01*
X137008D01*
Y81147D01*
X133898D01*
Y81949D01*
X133548D01*
Y82520D01*
X133898D01*
Y91299D01*
X133548D01*
X133372Y92635D01*
X132857Y93880D01*
X132036Y94950D01*
X129839Y97146D01*
X130031Y97608D01*
X138140D01*
Y107746D01*
X134266D01*
X134059Y108246D01*
X134708Y108895D01*
X135446Y109794D01*
X135994Y110820D01*
X136332Y111933D01*
X136446Y113091D01*
X136332Y114248D01*
X135994Y115361D01*
X135446Y116387D01*
X135241Y116637D01*
X135267Y116831D01*
X135145Y117756D01*
X134788Y118618D01*
X134220Y119358D01*
X133480Y119926D01*
X132618Y120283D01*
X131693Y120405D01*
X130768Y120283D01*
X129906Y119926D01*
X129166Y119358D01*
X128661Y118701D01*
X128241Y118573D01*
X127469Y118160D01*
X126969Y118452D01*
Y120669D01*
X121260D01*
Y127854D01*
X107283D01*
Y127311D01*
X107102Y126886D01*
X104732D01*
Y123917D01*
X103732D01*
Y126886D01*
X101772D01*
Y127854D01*
X98228D01*
Y128725D01*
X112394D01*
Y150394D01*
Y172063D01*
X95358D01*
Y158740D01*
X94896Y158549D01*
X83861Y169584D01*
X84197Y169955D01*
X84302Y169869D01*
X85328Y169321D01*
X86441Y168983D01*
X87599Y168869D01*
X88756Y168983D01*
X89869Y169321D01*
X90895Y169869D01*
X91795Y170607D01*
X92532Y171506D01*
X93081Y172532D01*
X93419Y173645D01*
X93533Y174803D01*
X93419Y175961D01*
X93081Y177074D01*
X92532Y178100D01*
X91795Y178999D01*
X90895Y179737D01*
X89869Y180286D01*
X88756Y180623D01*
X87599Y180737D01*
X86441Y180623D01*
X85328Y180286D01*
X84302Y179737D01*
X83402Y178999D01*
X82665Y178100D01*
X82116Y177074D01*
X81778Y175961D01*
X81664Y174803D01*
X81778Y173645D01*
X82116Y172532D01*
X82665Y171506D01*
X82750Y171402D01*
X82379Y171065D01*
X77434Y176011D01*
X85931Y184506D01*
X116142D01*
X116889Y184605D01*
X119542D01*
X121020Y183127D01*
D02*
G37*
%LPC*%
G36*
X104102Y47160D02*
X102736Y47025D01*
X101423Y46627D01*
X100212Y45980D01*
X99151Y45109D01*
X98280Y44048D01*
X97633Y42837D01*
X97601Y42729D01*
X97100D01*
X97068Y42837D01*
X96421Y44048D01*
X95550Y45109D01*
X94489Y45980D01*
X93278Y46627D01*
X91965Y47025D01*
X90598Y47160D01*
X89232Y47025D01*
X87919Y46627D01*
X86708Y45980D01*
X85647Y45109D01*
X84776Y44048D01*
X84129Y42837D01*
X83731Y41524D01*
X83596Y40157D01*
X83731Y38791D01*
X84129Y37478D01*
X84776Y36267D01*
X85647Y35206D01*
X86708Y34335D01*
X87919Y33688D01*
X89232Y33290D01*
X90598Y33155D01*
X91965Y33290D01*
X93278Y33688D01*
X94489Y34335D01*
X95550Y35206D01*
X96421Y36267D01*
X97068Y37478D01*
X97100Y37586D01*
X97601D01*
X97633Y37478D01*
X98280Y36267D01*
X99151Y35206D01*
X100212Y34335D01*
X101423Y33688D01*
X102736Y33290D01*
X104102Y33155D01*
X105468Y33290D01*
X106782Y33688D01*
X107993Y34335D01*
X109054Y35206D01*
X109924Y36267D01*
X110572Y37478D01*
X110970Y38791D01*
X111105Y40157D01*
X110970Y41524D01*
X110572Y42837D01*
X109924Y44048D01*
X109054Y45109D01*
X107993Y45980D01*
X106782Y46627D01*
X105468Y47025D01*
X104102Y47160D01*
D02*
G37*
G36*
X132921D02*
X131555Y47025D01*
X130242Y46627D01*
X129031Y45980D01*
X127970Y45109D01*
X127099Y44048D01*
X126452Y42837D01*
X126054Y41524D01*
X125919Y40157D01*
X126054Y38791D01*
X126452Y37478D01*
X127099Y36267D01*
X127970Y35206D01*
X129031Y34335D01*
X130242Y33688D01*
X131555Y33290D01*
X132921Y33155D01*
X134287Y33290D01*
X135601Y33688D01*
X136811Y34335D01*
X137873Y35206D01*
X138743Y36267D01*
X139219Y37156D01*
X139783Y37151D01*
X140308Y36169D01*
X141179Y35108D01*
X142240Y34237D01*
X143450Y33590D01*
X144764Y33191D01*
X146130Y33057D01*
X147496Y33191D01*
X148810Y33590D01*
X150020Y34237D01*
X151081Y35108D01*
X151952Y36169D01*
X152599Y37380D01*
X152998Y38693D01*
X153132Y40059D01*
X152998Y41425D01*
X152599Y42739D01*
X151952Y43949D01*
X151081Y45010D01*
X150020Y45881D01*
X148810Y46528D01*
X147496Y46927D01*
X146130Y47061D01*
X144764Y46927D01*
X143450Y46528D01*
X142240Y45881D01*
X141179Y45010D01*
X140308Y43949D01*
X139833Y43060D01*
X139269Y43066D01*
X138743Y44048D01*
X137873Y45109D01*
X136811Y45980D01*
X135601Y46627D01*
X134287Y47025D01*
X132921Y47160D01*
D02*
G37*
G36*
X73417Y46843D02*
X71386D01*
X71409Y46670D01*
X71668Y46044D01*
X72081Y45506D01*
X72619Y45094D01*
X73245Y44834D01*
X73417Y44811D01*
Y46843D01*
D02*
G37*
G36*
X76449D02*
X74417D01*
Y44811D01*
X74590Y44834D01*
X75216Y45094D01*
X75754Y45506D01*
X76166Y46044D01*
X76426Y46670D01*
X76449Y46843D01*
D02*
G37*
G36*
X72236Y30209D02*
X70205D01*
X70228Y30037D01*
X70487Y29410D01*
X70900Y28872D01*
X71438Y28460D01*
X72064Y28200D01*
X72236Y28177D01*
Y30209D01*
D02*
G37*
G36*
X11721Y29401D02*
Y27370D01*
X13752D01*
X13729Y27542D01*
X13470Y28169D01*
X13057Y28706D01*
X12519Y29119D01*
X11893Y29379D01*
X11721Y29401D01*
D02*
G37*
G36*
X75267Y30209D02*
X73236D01*
Y28177D01*
X73408Y28200D01*
X74035Y28460D01*
X74573Y28872D01*
X74985Y29410D01*
X75245Y30037D01*
X75267Y30209D01*
D02*
G37*
G36*
X73236Y33240D02*
Y31209D01*
X75267D01*
X75245Y31381D01*
X74985Y32007D01*
X74573Y32545D01*
X74035Y32958D01*
X73408Y33217D01*
X73236Y33240D01*
D02*
G37*
G36*
X72236D02*
X72064Y33217D01*
X71438Y32958D01*
X70900Y32545D01*
X70487Y32007D01*
X70228Y31381D01*
X70205Y31209D01*
X72236D01*
Y33240D01*
D02*
G37*
G36*
X63358Y65543D02*
X61327D01*
Y63512D01*
X61499Y63535D01*
X62125Y63794D01*
X62663Y64207D01*
X63076Y64745D01*
X63335Y65371D01*
X63358Y65543D01*
D02*
G37*
G36*
X108677Y81217D02*
X106799D01*
Y78748D01*
X108677D01*
Y81217D01*
D02*
G37*
G36*
X117571Y77059D02*
X113528D01*
Y74138D01*
X117571D01*
Y77059D01*
D02*
G37*
G36*
X108677Y77748D02*
X106799D01*
Y75280D01*
X108677D01*
Y77748D01*
D02*
G37*
G36*
X60327Y65543D02*
X58296D01*
X58318Y65371D01*
X58578Y64745D01*
X58990Y64207D01*
X59528Y63794D01*
X60155Y63535D01*
X60327Y63512D01*
Y65543D01*
D02*
G37*
G36*
X74417Y49874D02*
Y47843D01*
X76449D01*
X76426Y48015D01*
X76166Y48641D01*
X75754Y49179D01*
X75216Y49592D01*
X74590Y49851D01*
X74417Y49874D01*
D02*
G37*
G36*
X73417D02*
X73245Y49851D01*
X72619Y49592D01*
X72081Y49179D01*
X71668Y48641D01*
X71409Y48015D01*
X71386Y47843D01*
X73417D01*
Y49874D01*
D02*
G37*
G36*
X73783Y61193D02*
X70784D01*
Y54945D01*
X73783D01*
Y61193D01*
D02*
G37*
G36*
X69784D02*
X66783D01*
Y54945D01*
X69784D01*
Y61193D01*
D02*
G37*
G36*
X10721Y29401D02*
X10548Y29379D01*
X9922Y29119D01*
X9384Y28706D01*
X8971Y28169D01*
X8712Y27542D01*
X8689Y27370D01*
X10721D01*
Y29401D01*
D02*
G37*
G36*
X63594Y18831D02*
X61563D01*
Y16800D01*
X61735Y16822D01*
X62362Y17082D01*
X62899Y17494D01*
X63312Y18032D01*
X63572Y18659D01*
X63594Y18831D01*
D02*
G37*
G36*
X60563D02*
X58532D01*
X58555Y18659D01*
X58814Y18032D01*
X59227Y17494D01*
X59764Y17082D01*
X60391Y16822D01*
X60563Y16800D01*
Y18831D01*
D02*
G37*
G36*
X13949Y21252D02*
X8886D01*
X8909Y21080D01*
X9168Y20453D01*
X9581Y19916D01*
X10119Y19503D01*
X10185Y19476D01*
Y18934D01*
X9824Y18785D01*
X9286Y18372D01*
X8873Y17834D01*
X8614Y17208D01*
X8591Y17036D01*
X13653D01*
X13631Y17208D01*
X13371Y17834D01*
X12958Y18372D01*
X12421Y18785D01*
X12354Y18812D01*
Y19353D01*
X12716Y19503D01*
X13254Y19916D01*
X13667Y20453D01*
X13926Y21080D01*
X13949Y21252D01*
D02*
G37*
G36*
X29437Y20740D02*
Y18709D01*
X31468D01*
X31446Y18881D01*
X31186Y19507D01*
X30773Y20045D01*
X30236Y20458D01*
X29609Y20717D01*
X29437Y20740D01*
D02*
G37*
G36*
X28437D02*
X28265Y20717D01*
X27639Y20458D01*
X27101Y20045D01*
X26688Y19507D01*
X26428Y18881D01*
X26406Y18709D01*
X28437D01*
Y20740D01*
D02*
G37*
G36*
X35449Y14484D02*
X29437D01*
Y8866D01*
X35449D01*
Y14484D01*
D02*
G37*
G36*
X161276Y14782D02*
X71547D01*
Y2720D01*
X161276D01*
Y14782D01*
D02*
G37*
G36*
X170760Y17732D02*
X163370D01*
Y10343D01*
X170760D01*
Y17732D01*
D02*
G37*
G36*
X31468Y17709D02*
X29437D01*
Y15677D01*
X29609Y15700D01*
X30236Y15960D01*
X30773Y16372D01*
X31186Y16910D01*
X31446Y17537D01*
X31468Y17709D01*
D02*
G37*
G36*
X28437D02*
X26406D01*
X26428Y17537D01*
X26688Y16910D01*
X27101Y16372D01*
X27639Y15960D01*
X28265Y15700D01*
X28437Y15677D01*
Y17709D01*
D02*
G37*
G36*
X40642Y30858D02*
X37721D01*
Y26815D01*
X40642D01*
Y30858D01*
D02*
G37*
G36*
X13752Y26370D02*
X8689D01*
X8712Y26198D01*
X8971Y25572D01*
X9384Y25034D01*
X9922Y24621D01*
X10115Y24541D01*
X10119Y24001D01*
X9581Y23588D01*
X9168Y23051D01*
X8909Y22424D01*
X8886Y22252D01*
X13949D01*
X13926Y22424D01*
X13667Y23051D01*
X13254Y23588D01*
X12716Y24001D01*
X12522Y24081D01*
X12519Y24621D01*
X13057Y25034D01*
X13470Y25572D01*
X13729Y26198D01*
X13752Y26370D01*
D02*
G37*
G36*
X44563Y30858D02*
X41642D01*
Y26815D01*
X44563D01*
Y30858D01*
D02*
G37*
G36*
X53815D02*
X50894D01*
Y26815D01*
X53815D01*
Y30858D01*
D02*
G37*
G36*
X49894D02*
X46973D01*
Y26815D01*
X49894D01*
Y30858D01*
D02*
G37*
G36*
X53520Y23874D02*
X50599D01*
Y19831D01*
X53520D01*
Y23874D01*
D02*
G37*
G36*
X49599D02*
X46677D01*
Y19831D01*
X49599D01*
Y23874D01*
D02*
G37*
G36*
X60563Y21862D02*
X60391Y21839D01*
X59764Y21580D01*
X59227Y21167D01*
X58814Y20629D01*
X58555Y20003D01*
X58532Y19831D01*
X60563D01*
Y21862D01*
D02*
G37*
G36*
X23031Y28280D02*
X22055Y28152D01*
X21145Y27775D01*
X20364Y27175D01*
X19764Y26394D01*
X19388Y25484D01*
X19259Y24508D01*
X19388Y23531D01*
X19764Y22622D01*
X20364Y21840D01*
X21145Y21241D01*
X22055Y20864D01*
X23031Y20735D01*
X24008Y20864D01*
X24918Y21241D01*
X25699Y21840D01*
X26299Y22622D01*
X26675Y23531D01*
X26804Y24508D01*
X26675Y25484D01*
X26299Y26394D01*
X25699Y27175D01*
X24918Y27775D01*
X24008Y28152D01*
X23031Y28280D01*
D02*
G37*
G36*
X61563Y21862D02*
Y19831D01*
X63594D01*
X63572Y20003D01*
X63312Y20629D01*
X62899Y21167D01*
X62362Y21580D01*
X61735Y21839D01*
X61563Y21862D01*
D02*
G37*
G36*
X111409Y82965D02*
X109378D01*
X109401Y82793D01*
X109660Y82166D01*
X110073Y81628D01*
X110611Y81216D01*
X111237Y80956D01*
X111409Y80933D01*
Y82965D01*
D02*
G37*
G36*
X147039Y188205D02*
X141421D01*
Y182980D01*
X147039D01*
Y188205D01*
D02*
G37*
G36*
X119791Y181567D02*
Y179535D01*
X121823D01*
X121800Y179708D01*
X121540Y180334D01*
X121128Y180872D01*
X120590Y181285D01*
X119964Y181544D01*
X119791Y181567D01*
D02*
G37*
G36*
X153657Y188205D02*
X148039D01*
Y182980D01*
X153657D01*
Y188205D01*
D02*
G37*
G36*
X140862Y194701D02*
X138492D01*
Y192232D01*
X140862D01*
Y194701D01*
D02*
G37*
G36*
Y191232D02*
X138492D01*
Y188764D01*
X140862D01*
Y191232D01*
D02*
G37*
G36*
X176000Y165862D02*
X170776D01*
Y160244D01*
X176000D01*
Y165862D01*
D02*
G37*
G36*
X169776D02*
X164551D01*
Y160244D01*
X169776D01*
Y165862D01*
D02*
G37*
G36*
X121823Y178535D02*
X116760D01*
X116783Y178363D01*
X117042Y177737D01*
X117455Y177199D01*
X117636Y177060D01*
X117652Y176443D01*
X117239Y175905D01*
X116980Y175278D01*
X116957Y175106D01*
X122019D01*
X121997Y175278D01*
X121737Y175905D01*
X121325Y176443D01*
X121144Y176581D01*
X121128Y177199D01*
X121540Y177737D01*
X121800Y178363D01*
X121823Y178535D01*
D02*
G37*
G36*
X118791Y181567D02*
X118619Y181544D01*
X117993Y181285D01*
X117455Y180872D01*
X117042Y180334D01*
X116783Y179708D01*
X116760Y179535D01*
X118791D01*
Y181567D01*
D02*
G37*
G36*
X153657Y181980D02*
X148039D01*
Y176756D01*
X153657D01*
Y181980D01*
D02*
G37*
G36*
X15248Y235720D02*
X7869D01*
X7972Y234674D01*
X8424Y233187D01*
X9156Y231816D01*
X10142Y230615D01*
X11344Y229629D01*
X12714Y228896D01*
X14201Y228445D01*
X15248Y228342D01*
Y235720D01*
D02*
G37*
G36*
X173575Y219354D02*
X173043Y219284D01*
X172081Y218886D01*
X171256Y218252D01*
X170622Y217426D01*
X170224Y216465D01*
X170154Y215933D01*
X173575D01*
Y219354D01*
D02*
G37*
G36*
X23627Y235720D02*
X16248D01*
Y228342D01*
X17295Y228445D01*
X18782Y228896D01*
X20153Y229629D01*
X21354Y230615D01*
X22340Y231816D01*
X23073Y233187D01*
X23524Y234674D01*
X23627Y235720D01*
D02*
G37*
G36*
X16248Y244099D02*
Y236720D01*
X23627D01*
X23524Y237767D01*
X23073Y239254D01*
X22340Y240625D01*
X21354Y241826D01*
X20153Y242812D01*
X18782Y243545D01*
X17295Y243996D01*
X16248Y244099D01*
D02*
G37*
G36*
X15248D02*
X14201Y243996D01*
X12714Y243545D01*
X11344Y242812D01*
X10142Y241826D01*
X9156Y240625D01*
X8424Y239254D01*
X7972Y237767D01*
X7869Y236720D01*
X15248D01*
Y244099D01*
D02*
G37*
G36*
X156496Y204224D02*
X150106D01*
Y197835D01*
X150960Y197919D01*
X152262Y198314D01*
X153461Y198955D01*
X154513Y199818D01*
X155376Y200869D01*
X156017Y202069D01*
X156412Y203371D01*
X156496Y204224D01*
D02*
G37*
G36*
X149106D02*
X142717D01*
X142801Y203371D01*
X143196Y202069D01*
X143837Y200869D01*
X144700Y199818D01*
X145751Y198955D01*
X146951Y198314D01*
X148253Y197919D01*
X149106Y197835D01*
Y204224D01*
D02*
G37*
G36*
Y211614D02*
X148253Y211530D01*
X146951Y211135D01*
X145751Y210494D01*
X144700Y209631D01*
X143837Y208579D01*
X143196Y207380D01*
X142801Y206078D01*
X142717Y205224D01*
X149106D01*
Y211614D01*
D02*
G37*
G36*
X173575Y214933D02*
X170154D01*
X170224Y214401D01*
X170622Y213440D01*
X171256Y212614D01*
X172081Y211980D01*
X173043Y211582D01*
X173575Y211512D01*
Y214933D01*
D02*
G37*
G36*
X150106Y211614D02*
Y205224D01*
X156496D01*
X156412Y206078D01*
X156017Y207380D01*
X155376Y208579D01*
X154513Y209631D01*
X153461Y210494D01*
X152262Y211135D01*
X150960Y211530D01*
X150106Y211614D01*
D02*
G37*
G36*
X139264Y149894D02*
X137233D01*
X137255Y149722D01*
X137515Y149095D01*
X137927Y148557D01*
X138465Y148145D01*
X139092Y147885D01*
X139264Y147863D01*
Y149894D01*
D02*
G37*
G36*
X136586D02*
X134555D01*
Y147863D01*
X134727Y147885D01*
X135354Y148145D01*
X135891Y148557D01*
X136304Y149095D01*
X136564Y149722D01*
X136586Y149894D01*
D02*
G37*
G36*
X142295D02*
X140264D01*
Y147863D01*
X140436Y147885D01*
X141062Y148145D01*
X141600Y148557D01*
X142013Y149095D01*
X142272Y149722D01*
X142295Y149894D01*
D02*
G37*
G36*
X165031Y151075D02*
X163000D01*
Y149044D01*
X163172Y149066D01*
X163799Y149326D01*
X164336Y149739D01*
X164749Y150276D01*
X165009Y150903D01*
X165031Y151075D01*
D02*
G37*
G36*
X162000D02*
X159969D01*
X159992Y150903D01*
X160251Y150276D01*
X160664Y149739D01*
X161202Y149326D01*
X161828Y149066D01*
X162000Y149044D01*
Y151075D01*
D02*
G37*
G36*
X130429Y149894D02*
X113394D01*
Y128725D01*
X130429D01*
Y149894D01*
D02*
G37*
G36*
X175681Y125508D02*
X173213D01*
Y123138D01*
X175681D01*
Y125508D01*
D02*
G37*
G36*
X149992Y149894D02*
X142996D01*
Y147327D01*
X149992D01*
Y149894D01*
D02*
G37*
G36*
X133555D02*
X131524D01*
X131547Y149722D01*
X131806Y149095D01*
X132219Y148557D01*
X132757Y148145D01*
X133383Y147885D01*
X133555Y147863D01*
Y149894D01*
D02*
G37*
G36*
X157988D02*
X150992D01*
Y147327D01*
X157988D01*
Y149894D01*
D02*
G37*
G36*
Y153461D02*
X150992D01*
Y150894D01*
X157988D01*
Y153461D01*
D02*
G37*
G36*
X149992D02*
X142996D01*
Y150894D01*
X149992D01*
Y153461D01*
D02*
G37*
G36*
X162000Y154106D02*
X161828Y154083D01*
X161202Y153824D01*
X160664Y153411D01*
X160251Y152873D01*
X159992Y152247D01*
X159969Y152075D01*
X162000D01*
Y154106D01*
D02*
G37*
G36*
X169776Y159244D02*
X164551D01*
X164551Y154022D01*
Y154021D01*
Y154021D01*
X164551Y153877D01*
X164051Y153630D01*
X163799Y153824D01*
X163172Y154083D01*
X163000Y154106D01*
Y152075D01*
X165031D01*
X165009Y152247D01*
X164749Y152873D01*
X164555Y153126D01*
X164802Y153626D01*
X164946Y153626D01*
X164946Y153626D01*
X164947Y153626D01*
X169776D01*
Y159244D01*
D02*
G37*
G36*
X176000D02*
X170776D01*
Y153626D01*
X176000D01*
Y159244D01*
D02*
G37*
G36*
X133555Y152925D02*
X133383Y152902D01*
X132757Y152643D01*
X132219Y152230D01*
X131806Y151692D01*
X131547Y151066D01*
X131524Y150894D01*
X133555D01*
Y152925D01*
D02*
G37*
G36*
X122019Y174106D02*
X116957D01*
X116980Y173934D01*
X117239Y173308D01*
X117652Y172770D01*
X117922Y172563D01*
X117752Y172063D01*
X113394D01*
Y150894D01*
X130429D01*
Y172063D01*
X121225D01*
X121055Y172563D01*
X121325Y172770D01*
X121737Y173308D01*
X121997Y173934D01*
X122019Y174106D01*
D02*
G37*
G36*
X134555Y152925D02*
Y150894D01*
X136586D01*
X136564Y151066D01*
X136304Y151692D01*
X135891Y152230D01*
X135354Y152643D01*
X134727Y152902D01*
X134555Y152925D01*
D02*
G37*
G36*
X140264D02*
Y150894D01*
X142295D01*
X142272Y151066D01*
X142013Y151692D01*
X141600Y152230D01*
X141062Y152643D01*
X140436Y152902D01*
X140264Y152925D01*
D02*
G37*
G36*
X139264D02*
X139092Y152902D01*
X138465Y152643D01*
X137927Y152230D01*
X137515Y151692D01*
X137255Y151066D01*
X137233Y150894D01*
X139264D01*
Y152925D01*
D02*
G37*
%LPD*%
G36*
X116896Y10573D02*
X117011Y10561D01*
X117276Y10538D01*
X117288D01*
X117345Y10527D01*
X117426D01*
X117530Y10503D01*
X117657Y10492D01*
X117818Y10457D01*
X117991Y10423D01*
X118187Y10388D01*
Y10261D01*
Y10250D01*
Y10227D01*
X118199Y10192D01*
Y10146D01*
X118210Y10031D01*
Y9892D01*
Y9881D01*
Y9858D01*
Y9812D01*
X118222Y9754D01*
Y9662D01*
X118233Y9558D01*
Y9443D01*
X118245Y9293D01*
X118280Y8855D01*
X118268D01*
X118245Y8866D01*
X118210Y8878D01*
X118153Y8889D01*
X118095Y8912D01*
X118026Y8935D01*
X117853Y8982D01*
X117645Y9028D01*
X117438Y9074D01*
X117219Y9097D01*
X117000Y9108D01*
X116930D01*
X116861Y9097D01*
X116758Y9085D01*
X116654Y9074D01*
X116538Y9039D01*
X116412Y9005D01*
X116296Y8947D01*
X116285Y8935D01*
X116250Y8924D01*
X116192Y8889D01*
X116135Y8832D01*
X116054Y8774D01*
X115985Y8705D01*
X115916Y8613D01*
X115858Y8509D01*
Y8497D01*
X115835Y8463D01*
X115812Y8394D01*
X115789Y8313D01*
X115766Y8221D01*
X115743Y8105D01*
X115731Y7967D01*
X115720Y7829D01*
Y7817D01*
Y7771D01*
X115731Y7690D01*
Y7609D01*
X115754Y7506D01*
X115778Y7390D01*
X115800Y7287D01*
X115847Y7183D01*
X115858Y7171D01*
X115870Y7137D01*
X115904Y7091D01*
X115950Y7033D01*
X115997Y6975D01*
X116066Y6906D01*
X116158Y6848D01*
X116250Y6791D01*
X116262D01*
X116296Y6768D01*
X116354Y6756D01*
X116435Y6733D01*
X116527Y6710D01*
X116631Y6687D01*
X116746Y6675D01*
X116873Y6664D01*
X116988D01*
X117115Y6675D01*
X117276Y6699D01*
X117288D01*
X117311Y6710D01*
X117357D01*
X117415Y6722D01*
X117542Y6745D01*
X117680Y6768D01*
X117691D01*
X117715Y6779D01*
X117749Y6791D01*
X117807Y6802D01*
X117864Y6825D01*
X117945Y6848D01*
X118130Y6918D01*
Y6906D01*
X118118Y6883D01*
Y6825D01*
X118106Y6745D01*
X118084Y6641D01*
X118060Y6514D01*
X118037Y6364D01*
X118003Y6180D01*
X117876Y5384D01*
X117864D01*
X117841Y5373D01*
X117795Y5361D01*
X117738Y5350D01*
X117668Y5338D01*
X117588Y5327D01*
X117380Y5292D01*
X117149Y5246D01*
X116884Y5223D01*
X116608Y5200D01*
X116331Y5188D01*
X116239D01*
X116135Y5200D01*
X116008D01*
X115847Y5211D01*
X115685Y5234D01*
X115524Y5269D01*
X115362Y5303D01*
X115339Y5315D01*
X115282Y5327D01*
X115189Y5361D01*
X115074Y5407D01*
X114936Y5465D01*
X114786Y5546D01*
X114636Y5638D01*
X114486Y5753D01*
X114475Y5765D01*
X114417Y5811D01*
X114348Y5892D01*
X114267Y5984D01*
X114175Y6099D01*
X114083Y6237D01*
X113990Y6399D01*
X113910Y6560D01*
Y6572D01*
X113898Y6583D01*
X113886Y6618D01*
X113875Y6652D01*
X113840Y6768D01*
X113806Y6918D01*
X113771Y7102D01*
X113737Y7310D01*
X113714Y7540D01*
X113702Y7794D01*
Y7806D01*
Y7817D01*
Y7852D01*
Y7898D01*
X113714Y8025D01*
X113725Y8174D01*
X113748Y8359D01*
X113794Y8567D01*
X113840Y8774D01*
X113910Y8993D01*
Y9005D01*
X113921Y9016D01*
X113944Y9085D01*
X114002Y9201D01*
X114071Y9328D01*
X114152Y9477D01*
X114255Y9639D01*
X114382Y9789D01*
X114532Y9939D01*
X114555Y9950D01*
X114601Y9996D01*
X114694Y10065D01*
X114797Y10146D01*
X114936Y10227D01*
X115097Y10319D01*
X115259Y10388D01*
X115443Y10446D01*
X115455D01*
X115466Y10457D01*
X115535Y10469D01*
X115639Y10492D01*
X115778Y10515D01*
X115939Y10538D01*
X116135Y10561D01*
X116342Y10584D01*
X116781D01*
X116896Y10573D01*
D02*
G37*
G36*
X100258D02*
X100362D01*
X100489Y10550D01*
X100627Y10527D01*
X100777Y10503D01*
X100915Y10457D01*
X100938D01*
X100985Y10434D01*
X101054Y10400D01*
X101146Y10354D01*
X101250Y10296D01*
X101353Y10215D01*
X101457Y10123D01*
X101561Y10019D01*
X101573Y10008D01*
X101596Y9962D01*
X101642Y9892D01*
X101688Y9800D01*
X101734Y9685D01*
X101780Y9546D01*
X101803Y9385D01*
X101815Y9212D01*
Y9201D01*
Y9166D01*
Y9120D01*
Y9039D01*
X101803Y8935D01*
Y8820D01*
X101792Y8670D01*
X101780Y8509D01*
Y8486D01*
Y8463D01*
X101769Y8417D01*
Y8371D01*
Y8301D01*
X101757Y8221D01*
Y8140D01*
X101745Y8036D01*
Y7921D01*
X101734Y7782D01*
X101722Y7644D01*
X101711Y7483D01*
X101699Y7298D01*
X101688Y7114D01*
X101676Y6906D01*
Y6895D01*
Y6860D01*
Y6802D01*
X101665Y6722D01*
Y6629D01*
X101653Y6526D01*
Y6284D01*
X101642Y6018D01*
X101630Y5753D01*
X101619Y5511D01*
Y5407D01*
Y5315D01*
X99624D01*
Y5327D01*
Y5350D01*
Y5384D01*
X99635Y5430D01*
Y5488D01*
X99647Y5569D01*
Y5649D01*
X99659Y5753D01*
X99670Y5984D01*
X99682Y6249D01*
X99705Y6560D01*
X99716Y6906D01*
Y6918D01*
Y6952D01*
Y6998D01*
X99728Y7068D01*
Y7137D01*
X99739Y7229D01*
X99751Y7436D01*
Y7656D01*
X99762Y7875D01*
X99774Y8082D01*
Y8163D01*
Y8244D01*
Y8255D01*
Y8301D01*
Y8359D01*
X99762Y8428D01*
X99739Y8590D01*
X99716Y8659D01*
X99693Y8728D01*
Y8739D01*
X99682Y8751D01*
X99647Y8820D01*
X99589Y8889D01*
X99509Y8947D01*
X99486Y8958D01*
X99428Y8982D01*
X99347Y9005D01*
X99243Y9016D01*
X99220D01*
X99151Y9005D01*
X99071Y8993D01*
X98990Y8958D01*
X98967Y8947D01*
X98921Y8912D01*
X98851Y8843D01*
X98782Y8762D01*
Y8751D01*
X98759Y8739D01*
X98736Y8693D01*
X98713Y8647D01*
X98678Y8590D01*
X98644Y8520D01*
X98586Y8347D01*
Y8336D01*
X98575Y8313D01*
X98563Y8267D01*
X98552Y8197D01*
X98529Y8117D01*
X98517Y8013D01*
X98494Y7886D01*
X98483Y7748D01*
Y7725D01*
Y7667D01*
X98471Y7586D01*
X98459Y7460D01*
X98448Y7298D01*
Y7114D01*
X98436Y6895D01*
X98425Y6652D01*
X98390Y5315D01*
X96372D01*
Y5338D01*
X96384Y5396D01*
Y5453D01*
X96395Y5511D01*
Y5580D01*
X96407Y5672D01*
Y5765D01*
X96419Y5868D01*
X96430Y5995D01*
X96442Y6134D01*
Y6284D01*
X96453Y6445D01*
X96465Y6618D01*
X96476Y6814D01*
Y6825D01*
Y6860D01*
X96488Y6918D01*
Y6987D01*
Y7068D01*
X96499Y7171D01*
X96511Y7390D01*
X96522Y7621D01*
X96534Y7863D01*
X96545Y8071D01*
Y8163D01*
Y8232D01*
Y8244D01*
Y8278D01*
Y8336D01*
X96534Y8405D01*
X96522Y8543D01*
X96499Y8624D01*
X96476Y8682D01*
Y8693D01*
X96465Y8705D01*
X96430Y8774D01*
X96384Y8843D01*
X96303Y8924D01*
X96280Y8935D01*
X96234Y8970D01*
X96142Y9005D01*
X96015Y9016D01*
X95980D01*
X95946Y9005D01*
X95900D01*
X95784Y8958D01*
X95727Y8935D01*
X95669Y8889D01*
X95658D01*
X95646Y8866D01*
X95588Y8809D01*
X95508Y8705D01*
X95427Y8555D01*
Y8543D01*
X95416Y8520D01*
X95392Y8474D01*
X95369Y8405D01*
X95346Y8324D01*
X95323Y8221D01*
X95300Y8105D01*
X95277Y7967D01*
Y7944D01*
X95266Y7898D01*
Y7806D01*
X95254Y7679D01*
X95243Y7517D01*
X95219Y7321D01*
X95208Y7079D01*
X95196Y6802D01*
Y6791D01*
Y6768D01*
Y6722D01*
Y6675D01*
Y6606D01*
X95185Y6526D01*
Y6330D01*
X95173Y6099D01*
Y5845D01*
X95162Y5580D01*
Y5315D01*
X93144D01*
X93282Y7736D01*
X93375Y9639D01*
Y10457D01*
X93709D01*
X93859Y10446D01*
X94954D01*
X95289Y10457D01*
X95243Y9777D01*
X95254Y9789D01*
X95266Y9812D01*
X95300Y9846D01*
X95335Y9892D01*
X95427Y9996D01*
X95508Y10088D01*
X95531Y10112D01*
X95577Y10158D01*
X95658Y10215D01*
X95761Y10284D01*
X95773D01*
X95784Y10307D01*
X95865Y10342D01*
X95969Y10400D01*
X96084Y10446D01*
X96096D01*
X96119Y10457D01*
X96153Y10469D01*
X96200Y10481D01*
X96315Y10515D01*
X96465Y10538D01*
X96476D01*
X96499Y10550D01*
X96545D01*
X96592Y10561D01*
X96730Y10573D01*
X96891Y10584D01*
X97053D01*
X97203Y10561D01*
X97364Y10538D01*
X97376D01*
X97399Y10527D01*
X97445Y10515D01*
X97491Y10503D01*
X97618Y10469D01*
X97733Y10423D01*
X97745D01*
X97756Y10411D01*
X97825Y10388D01*
X97917Y10331D01*
X98010Y10273D01*
X98033Y10261D01*
X98079Y10215D01*
X98137Y10158D01*
X98206Y10077D01*
X98217Y10054D01*
X98263Y9996D01*
X98333Y9904D01*
X98425Y9766D01*
X98436Y9777D01*
X98459Y9823D01*
X98506Y9881D01*
X98563Y9950D01*
X98713Y10112D01*
X98794Y10181D01*
X98886Y10250D01*
X98897Y10261D01*
X98932Y10273D01*
X98978Y10307D01*
X99047Y10342D01*
X99140Y10388D01*
X99232Y10434D01*
X99451Y10503D01*
X99462D01*
X99509Y10515D01*
X99566Y10527D01*
X99647Y10550D01*
X99751Y10561D01*
X99854Y10573D01*
X100097Y10584D01*
X100166D01*
X100258Y10573D01*
D02*
G37*
G36*
X157101D02*
X157216Y10561D01*
X157332Y10550D01*
X157585Y10503D01*
X157597D01*
X157643Y10492D01*
X157712Y10469D01*
X157793Y10446D01*
X157977Y10377D01*
X158162Y10273D01*
X158173Y10261D01*
X158196Y10250D01*
X158242Y10215D01*
X158300Y10181D01*
X158415Y10065D01*
X158542Y9916D01*
X158554Y9904D01*
X158565Y9881D01*
X158600Y9835D01*
X158634Y9777D01*
X158669Y9708D01*
X158704Y9639D01*
X158750Y9454D01*
Y9443D01*
X158761Y9408D01*
X158773Y9362D01*
X158784Y9304D01*
Y9224D01*
X158796Y9143D01*
X158807Y8958D01*
Y8947D01*
Y8924D01*
Y8866D01*
Y8785D01*
X158796Y8670D01*
X158784Y8520D01*
X158773Y8347D01*
X158761Y8128D01*
X158681Y6307D01*
Y6295D01*
Y6284D01*
Y6214D01*
X158669Y6111D01*
Y5984D01*
Y5822D01*
X158658Y5661D01*
Y5315D01*
X156617D01*
Y5338D01*
X156628Y5396D01*
Y5500D01*
X156640Y5649D01*
X156651Y5845D01*
X156663Y6076D01*
X156686Y6353D01*
X156697Y6664D01*
Y6675D01*
Y6699D01*
Y6756D01*
X156709Y6814D01*
Y6883D01*
X156720Y6975D01*
X156732Y7171D01*
Y7379D01*
X156744Y7586D01*
X156755Y7782D01*
Y7875D01*
Y7944D01*
Y7955D01*
Y7967D01*
Y8036D01*
X156744Y8140D01*
X156732Y8255D01*
X156697Y8382D01*
X156663Y8509D01*
X156605Y8636D01*
X156536Y8728D01*
X156525Y8739D01*
X156501Y8762D01*
X156444Y8797D01*
X156386Y8843D01*
X156305Y8889D01*
X156213Y8924D01*
X156098Y8947D01*
X155983Y8958D01*
X155936D01*
X155879Y8947D01*
X155810Y8935D01*
X155717Y8912D01*
X155625Y8878D01*
X155533Y8832D01*
X155429Y8762D01*
X155418Y8751D01*
X155383Y8728D01*
X155337Y8682D01*
X155279Y8624D01*
X155222Y8543D01*
X155152Y8440D01*
X155083Y8324D01*
X155026Y8197D01*
Y8186D01*
X155002Y8128D01*
X154980Y8036D01*
X154945Y7909D01*
X154922Y7748D01*
X154887Y7540D01*
X154853Y7287D01*
X154830Y6998D01*
Y6987D01*
Y6964D01*
Y6918D01*
X154818Y6860D01*
Y6779D01*
Y6687D01*
X154806Y6595D01*
Y6480D01*
X154795Y6226D01*
X154783Y5938D01*
X154772Y5638D01*
X154760Y5315D01*
X152685D01*
Y5327D01*
X152697Y5373D01*
Y5430D01*
X152708Y5511D01*
X152720Y5626D01*
X152731Y5753D01*
X152743Y5892D01*
X152766Y6053D01*
X152777Y6237D01*
X152800Y6433D01*
X152823Y6641D01*
X152835Y6860D01*
X152869Y7321D01*
X152904Y7829D01*
Y7840D01*
Y7886D01*
X152916Y7967D01*
Y8059D01*
X152927Y8186D01*
Y8336D01*
X152939Y8497D01*
X152950Y8682D01*
Y8866D01*
X152962Y9074D01*
X152973Y9523D01*
X152985Y9985D01*
X152996Y10457D01*
X153354D01*
X153527Y10446D01*
X154668D01*
X155026Y10457D01*
X154968Y9766D01*
X154980Y9777D01*
X155002Y9800D01*
X155072Y9869D01*
X155164Y9962D01*
X155256Y10054D01*
X155268D01*
X155279Y10077D01*
X155337Y10123D01*
X155441Y10192D01*
X155556Y10273D01*
X155568D01*
X155591Y10296D01*
X155625Y10307D01*
X155671Y10331D01*
X155798Y10388D01*
X155936Y10434D01*
X155948D01*
X155971Y10446D01*
X156017Y10457D01*
X156075Y10469D01*
X156213Y10503D01*
X156375Y10538D01*
X156386D01*
X156421Y10550D01*
X156467D01*
X156525Y10561D01*
X156605Y10573D01*
X156686D01*
X156882Y10584D01*
X157009D01*
X157101Y10573D01*
D02*
G37*
G36*
X90250D02*
X90400D01*
X90561Y10550D01*
X90746Y10527D01*
X90942Y10492D01*
X91126Y10446D01*
X91138D01*
X91149Y10434D01*
X91207Y10423D01*
X91299Y10388D01*
X91415Y10342D01*
X91530Y10273D01*
X91657Y10204D01*
X91783Y10112D01*
X91899Y10008D01*
X91910Y9996D01*
X91945Y9950D01*
X91991Y9892D01*
X92037Y9800D01*
X92083Y9673D01*
X92129Y9535D01*
X92164Y9362D01*
X92176Y9166D01*
Y9155D01*
Y9108D01*
Y9028D01*
X92164Y8970D01*
Y8901D01*
Y8820D01*
X92153Y8728D01*
Y8624D01*
X92141Y8509D01*
X92129Y8371D01*
X92118Y8221D01*
X92106Y8059D01*
X92095Y7886D01*
Y7875D01*
Y7840D01*
X92083Y7782D01*
Y7713D01*
Y7609D01*
X92072Y7494D01*
X92060Y7356D01*
Y7194D01*
X92049Y7022D01*
X92037Y6825D01*
X92026Y6618D01*
Y6387D01*
X92014Y6145D01*
X92003Y5880D01*
Y5603D01*
X91991Y5315D01*
X90008D01*
Y5327D01*
Y5338D01*
X90019Y5373D01*
Y5430D01*
X90031Y5500D01*
Y5580D01*
X90043Y5684D01*
X90054Y5799D01*
X90066Y5949D01*
X90077Y6111D01*
X90089Y6295D01*
X90100Y6503D01*
X90112Y6745D01*
X90123Y6998D01*
X90146Y7287D01*
X90158Y7598D01*
X90146D01*
X90123Y7586D01*
X90089Y7563D01*
X90043Y7552D01*
X89950Y7506D01*
X89858Y7460D01*
X89835Y7448D01*
X89812D01*
X89777Y7436D01*
X89720Y7413D01*
X89650Y7402D01*
X89570Y7367D01*
X89477Y7344D01*
X89466D01*
X89431Y7333D01*
X89385Y7321D01*
X89316Y7298D01*
X89178Y7252D01*
X89109Y7229D01*
X89051Y7206D01*
X89039D01*
X89028Y7194D01*
X88959Y7171D01*
X88878Y7114D01*
X88786Y7056D01*
X88763Y7045D01*
X88728Y7010D01*
X88670Y6952D01*
X88624Y6883D01*
X88613Y6872D01*
X88601Y6825D01*
X88590Y6756D01*
X88578Y6687D01*
Y6675D01*
Y6664D01*
X88590Y6583D01*
X88636Y6491D01*
X88659Y6433D01*
X88705Y6387D01*
X88717D01*
X88728Y6364D01*
X88763Y6353D01*
X88809Y6330D01*
X88878Y6307D01*
X88947Y6295D01*
X89039Y6272D01*
X89281D01*
X89362Y6284D01*
X89385D01*
X89455Y6307D01*
X89558Y6330D01*
X89708Y6376D01*
X89697Y6353D01*
X89685Y6307D01*
X89650Y6214D01*
X89604Y6087D01*
X89558Y5926D01*
X89501Y5742D01*
X89431Y5511D01*
X89362Y5257D01*
X89339D01*
X89293Y5246D01*
X89201Y5234D01*
X89097Y5223D01*
X88970Y5211D01*
X88832Y5200D01*
X88532Y5188D01*
X88428D01*
X88313Y5200D01*
X88175Y5211D01*
X88002Y5234D01*
X87829Y5257D01*
X87656Y5303D01*
X87494Y5361D01*
X87471Y5373D01*
X87425Y5396D01*
X87356Y5442D01*
X87264Y5500D01*
X87160Y5569D01*
X87056Y5672D01*
X86953Y5776D01*
X86860Y5915D01*
X86849Y5938D01*
X86826Y5984D01*
X86791Y6064D01*
X86756Y6157D01*
X86710Y6272D01*
X86676Y6410D01*
X86653Y6549D01*
X86641Y6687D01*
Y6699D01*
Y6733D01*
Y6779D01*
X86653Y6837D01*
X86676Y6987D01*
X86722Y7148D01*
Y7160D01*
X86733Y7183D01*
X86756Y7229D01*
X86779Y7287D01*
X86860Y7436D01*
X86976Y7586D01*
X86987Y7598D01*
X87010Y7621D01*
X87045Y7667D01*
X87091Y7713D01*
X87218Y7840D01*
X87379Y7955D01*
X87391Y7967D01*
X87425Y7978D01*
X87483Y8013D01*
X87552Y8048D01*
X87644Y8094D01*
X87760Y8140D01*
X87886Y8197D01*
X88036Y8244D01*
X88059Y8255D01*
X88117Y8267D01*
X88198Y8290D01*
X88324Y8324D01*
X88474Y8371D01*
X88647Y8417D01*
X88855Y8463D01*
X89074Y8509D01*
X89086D01*
X89120Y8520D01*
X89166Y8532D01*
X89235Y8543D01*
X89385Y8578D01*
X89558Y8613D01*
X89570D01*
X89593Y8624D01*
X89627Y8636D01*
X89685Y8647D01*
X89777Y8682D01*
X89835Y8693D01*
X89870Y8716D01*
X89881Y8728D01*
X89927Y8751D01*
X89973Y8785D01*
X90019Y8820D01*
X90031Y8832D01*
X90054Y8855D01*
X90077Y8889D01*
X90100Y8935D01*
Y8947D01*
X90112Y8982D01*
X90123Y9028D01*
Y9074D01*
Y9085D01*
Y9108D01*
X90112Y9143D01*
X90100Y9189D01*
X90054Y9281D01*
X90019Y9328D01*
X89962Y9374D01*
X89950D01*
X89927Y9385D01*
X89893Y9408D01*
X89846Y9431D01*
X89777Y9443D01*
X89697Y9466D01*
X89604Y9477D01*
X89397D01*
X89339Y9466D01*
X89247D01*
X89155Y9454D01*
X89028Y9443D01*
X88901Y9420D01*
X88751Y9397D01*
X88590Y9362D01*
X88417Y9316D01*
X88221Y9270D01*
X88025Y9224D01*
X87817Y9155D01*
X87356Y8993D01*
Y9016D01*
X87367Y9074D01*
X87391Y9155D01*
X87402Y9258D01*
X87448Y9477D01*
X87460Y9581D01*
X87471Y9662D01*
Y9673D01*
Y9696D01*
X87483Y9742D01*
X87494Y9812D01*
X87506Y9892D01*
X87517Y9996D01*
X87529Y10123D01*
X87552Y10261D01*
X87564D01*
X87621Y10273D01*
X87690Y10296D01*
X87794Y10307D01*
X87921Y10342D01*
X88071Y10365D01*
X88232Y10388D01*
X88405Y10423D01*
X88601Y10457D01*
X88797Y10481D01*
X89212Y10538D01*
X89639Y10573D01*
X90043Y10584D01*
X90146D01*
X90250Y10573D01*
D02*
G37*
G36*
X110381D02*
X110531Y10561D01*
X110716Y10538D01*
X110923Y10503D01*
X111131Y10457D01*
X111350Y10388D01*
X111362D01*
X111373Y10377D01*
X111442Y10354D01*
X111557Y10307D01*
X111684Y10250D01*
X111846Y10169D01*
X112007Y10077D01*
X112169Y9962D01*
X112319Y9835D01*
X112341Y9823D01*
X112388Y9777D01*
X112457Y9696D01*
X112549Y9593D01*
X112641Y9477D01*
X112733Y9328D01*
X112826Y9166D01*
X112907Y8993D01*
X112918Y8970D01*
X112941Y8912D01*
X112964Y8820D01*
X113010Y8693D01*
X113045Y8532D01*
X113068Y8359D01*
X113091Y8174D01*
X113102Y7967D01*
Y7955D01*
Y7944D01*
Y7875D01*
X113091Y7771D01*
X113079Y7632D01*
X113056Y7483D01*
X113033Y7310D01*
X112987Y7125D01*
X112929Y6941D01*
X112918Y6918D01*
X112895Y6860D01*
X112849Y6768D01*
X112791Y6641D01*
X112710Y6503D01*
X112618Y6353D01*
X112491Y6191D01*
X112353Y6030D01*
X112330Y6007D01*
X112284Y5961D01*
X112192Y5880D01*
X112076Y5788D01*
X111926Y5684D01*
X111753Y5580D01*
X111546Y5488D01*
X111327Y5396D01*
X111315D01*
X111304Y5384D01*
X111269Y5373D01*
X111223Y5361D01*
X111096Y5327D01*
X110935Y5292D01*
X110739Y5257D01*
X110520Y5223D01*
X110266Y5200D01*
X110012Y5188D01*
X109909D01*
X109782Y5200D01*
X109620Y5211D01*
X109436Y5234D01*
X109228Y5269D01*
X109009Y5315D01*
X108790Y5373D01*
X108779D01*
X108767Y5384D01*
X108698Y5407D01*
X108583Y5453D01*
X108444Y5511D01*
X108294Y5592D01*
X108122Y5684D01*
X107960Y5788D01*
X107799Y5915D01*
X107787Y5926D01*
X107729Y5984D01*
X107660Y6053D01*
X107580Y6157D01*
X107487Y6284D01*
X107384Y6422D01*
X107291Y6595D01*
X107211Y6768D01*
Y6779D01*
X107199Y6791D01*
X107176Y6860D01*
X107153Y6952D01*
X107118Y7091D01*
X107072Y7241D01*
X107049Y7425D01*
X107026Y7609D01*
X107015Y7817D01*
Y7829D01*
Y7840D01*
Y7909D01*
X107026Y8013D01*
X107038Y8151D01*
X107061Y8313D01*
X107095Y8486D01*
X107141Y8670D01*
X107199Y8855D01*
Y8866D01*
X107211Y8878D01*
X107234Y8935D01*
X107280Y9039D01*
X107349Y9155D01*
X107430Y9293D01*
X107545Y9454D01*
X107660Y9604D01*
X107810Y9754D01*
X107833Y9777D01*
X107891Y9823D01*
X107983Y9892D01*
X108098Y9973D01*
X108260Y10077D01*
X108433Y10181D01*
X108640Y10273D01*
X108860Y10365D01*
X108871D01*
X108882Y10377D01*
X108917Y10388D01*
X108963Y10400D01*
X109090Y10434D01*
X109251Y10481D01*
X109448Y10515D01*
X109667Y10550D01*
X109909Y10573D01*
X110151Y10584D01*
X110255D01*
X110381Y10573D01*
D02*
G37*
G36*
X143530D02*
X143680D01*
X143842Y10550D01*
X144026Y10527D01*
X144222Y10492D01*
X144418Y10446D01*
X144430D01*
X144441Y10434D01*
X144510Y10423D01*
X144603Y10388D01*
X144718Y10331D01*
X144856Y10273D01*
X145006Y10192D01*
X145156Y10088D01*
X145294Y9973D01*
X145306Y9962D01*
X145352Y9916D01*
X145421Y9846D01*
X145502Y9766D01*
X145582Y9650D01*
X145675Y9523D01*
X145744Y9385D01*
X145813Y9235D01*
X145825Y9212D01*
X145836Y9166D01*
X145859Y9074D01*
X145894Y8970D01*
X145928Y8832D01*
X145951Y8682D01*
X145963Y8509D01*
X145975Y8336D01*
Y8324D01*
Y8290D01*
Y8232D01*
X145963Y8151D01*
Y8059D01*
X145951Y7944D01*
X145905Y7702D01*
X142377Y7690D01*
Y7679D01*
Y7644D01*
Y7552D01*
Y7540D01*
Y7529D01*
X142389Y7460D01*
X142400Y7367D01*
X142423Y7252D01*
X142469Y7125D01*
X142539Y6987D01*
X142631Y6860D01*
X142758Y6756D01*
X142781Y6745D01*
X142827Y6722D01*
X142908Y6675D01*
X143023Y6629D01*
X143161Y6583D01*
X143323Y6537D01*
X143507Y6514D01*
X143703Y6503D01*
X143830D01*
X143922Y6514D01*
X144037D01*
X144164Y6537D01*
X144303Y6549D01*
X144453Y6572D01*
X144476D01*
X144533Y6583D01*
X144625Y6606D01*
X144741Y6641D01*
X144902Y6675D01*
X145075Y6722D01*
X145283Y6779D01*
X145513Y6848D01*
Y6837D01*
X145502Y6779D01*
X145490Y6745D01*
X145479Y6687D01*
X145467Y6629D01*
X145456Y6549D01*
X145444Y6457D01*
X145421Y6353D01*
X145398Y6237D01*
X145375Y6099D01*
X145352Y5949D01*
X145329Y5776D01*
X145294Y5592D01*
X145260Y5384D01*
X145237D01*
X145167Y5361D01*
X145052Y5350D01*
X144914Y5327D01*
X144764Y5292D01*
X144591Y5269D01*
X144430Y5246D01*
X144268Y5234D01*
X144257D01*
X144199Y5223D01*
X144118D01*
X144026Y5211D01*
X143899Y5200D01*
X143772D01*
X143473Y5188D01*
X143253D01*
X143115Y5200D01*
X142942Y5211D01*
X142758Y5223D01*
X142366Y5269D01*
X142343D01*
X142285Y5280D01*
X142193Y5303D01*
X142077Y5338D01*
X141939Y5373D01*
X141789Y5430D01*
X141639Y5488D01*
X141501Y5557D01*
X141489Y5569D01*
X141443Y5592D01*
X141374Y5638D01*
X141282Y5695D01*
X141190Y5776D01*
X141086Y5868D01*
X140982Y5961D01*
X140890Y6076D01*
X140878Y6087D01*
X140855Y6134D01*
X140809Y6203D01*
X140751Y6295D01*
X140694Y6399D01*
X140636Y6526D01*
X140578Y6675D01*
X140521Y6825D01*
Y6848D01*
X140498Y6906D01*
X140486Y6987D01*
X140463Y7102D01*
X140440Y7241D01*
X140417Y7390D01*
X140405Y7552D01*
X140394Y7725D01*
Y7736D01*
Y7748D01*
Y7782D01*
Y7829D01*
X140405Y7955D01*
X140429Y8117D01*
X140452Y8313D01*
X140498Y8520D01*
X140567Y8739D01*
X140648Y8970D01*
Y8982D01*
X140659Y8993D01*
X140671Y9028D01*
X140694Y9074D01*
X140751Y9189D01*
X140821Y9328D01*
X140924Y9477D01*
X141028Y9639D01*
X141166Y9800D01*
X141305Y9939D01*
X141328Y9950D01*
X141374Y9996D01*
X141466Y10054D01*
X141570Y10135D01*
X141708Y10215D01*
X141870Y10296D01*
X142043Y10365D01*
X142239Y10434D01*
X142250D01*
X142262Y10446D01*
X142331Y10457D01*
X142435Y10481D01*
X142573Y10515D01*
X142735Y10538D01*
X142919Y10561D01*
X143115Y10573D01*
X143323Y10584D01*
X143426D01*
X143530Y10573D01*
D02*
G37*
G36*
X149629D02*
X149779D01*
X149941Y10550D01*
X150125Y10527D01*
X150321Y10492D01*
X150517Y10446D01*
X150529D01*
X150540Y10434D01*
X150610Y10423D01*
X150702Y10388D01*
X150817Y10331D01*
X150955Y10273D01*
X151105Y10192D01*
X151255Y10088D01*
X151394Y9973D01*
X151405Y9962D01*
X151451Y9916D01*
X151521Y9846D01*
X151601Y9766D01*
X151682Y9650D01*
X151774Y9523D01*
X151843Y9385D01*
X151912Y9235D01*
X151924Y9212D01*
X151936Y9166D01*
X151959Y9074D01*
X151993Y8970D01*
X152028Y8832D01*
X152051Y8682D01*
X152062Y8509D01*
X152074Y8336D01*
Y8324D01*
Y8290D01*
Y8232D01*
X152062Y8151D01*
Y8059D01*
X152051Y7944D01*
X152005Y7702D01*
X148477Y7690D01*
Y7679D01*
Y7644D01*
Y7552D01*
Y7540D01*
Y7529D01*
X148488Y7460D01*
X148500Y7367D01*
X148523Y7252D01*
X148569Y7125D01*
X148638Y6987D01*
X148730Y6860D01*
X148857Y6756D01*
X148880Y6745D01*
X148926Y6722D01*
X149007Y6675D01*
X149122Y6629D01*
X149261Y6583D01*
X149422Y6537D01*
X149607Y6514D01*
X149802Y6503D01*
X149929D01*
X150022Y6514D01*
X150137D01*
X150264Y6537D01*
X150402Y6549D01*
X150552Y6572D01*
X150575D01*
X150633Y6583D01*
X150725Y6606D01*
X150840Y6641D01*
X151002Y6675D01*
X151175Y6722D01*
X151382Y6779D01*
X151613Y6848D01*
Y6837D01*
X151601Y6779D01*
X151590Y6745D01*
X151578Y6687D01*
X151567Y6629D01*
X151555Y6549D01*
X151543Y6457D01*
X151521Y6353D01*
X151497Y6237D01*
X151474Y6099D01*
X151451Y5949D01*
X151428Y5776D01*
X151394Y5592D01*
X151359Y5384D01*
X151336D01*
X151267Y5361D01*
X151152Y5350D01*
X151013Y5327D01*
X150863Y5292D01*
X150690Y5269D01*
X150529Y5246D01*
X150367Y5234D01*
X150356D01*
X150298Y5223D01*
X150218D01*
X150125Y5211D01*
X149998Y5200D01*
X149872D01*
X149572Y5188D01*
X149353D01*
X149214Y5200D01*
X149041Y5211D01*
X148857Y5223D01*
X148465Y5269D01*
X148442D01*
X148384Y5280D01*
X148292Y5303D01*
X148177Y5338D01*
X148038Y5373D01*
X147889Y5430D01*
X147739Y5488D01*
X147600Y5557D01*
X147589Y5569D01*
X147543Y5592D01*
X147473Y5638D01*
X147381Y5695D01*
X147289Y5776D01*
X147185Y5868D01*
X147081Y5961D01*
X146989Y6076D01*
X146978Y6087D01*
X146955Y6134D01*
X146908Y6203D01*
X146851Y6295D01*
X146793Y6399D01*
X146736Y6526D01*
X146678Y6675D01*
X146620Y6825D01*
Y6848D01*
X146597Y6906D01*
X146586Y6987D01*
X146563Y7102D01*
X146539Y7241D01*
X146516Y7390D01*
X146505Y7552D01*
X146493Y7725D01*
Y7736D01*
Y7748D01*
Y7782D01*
Y7829D01*
X146505Y7955D01*
X146528Y8117D01*
X146551Y8313D01*
X146597Y8520D01*
X146666Y8739D01*
X146747Y8970D01*
Y8982D01*
X146759Y8993D01*
X146770Y9028D01*
X146793Y9074D01*
X146851Y9189D01*
X146920Y9328D01*
X147024Y9477D01*
X147127Y9639D01*
X147266Y9800D01*
X147404Y9939D01*
X147427Y9950D01*
X147473Y9996D01*
X147566Y10054D01*
X147669Y10135D01*
X147808Y10215D01*
X147969Y10296D01*
X148142Y10365D01*
X148338Y10434D01*
X148350D01*
X148361Y10446D01*
X148430Y10457D01*
X148534Y10481D01*
X148673Y10515D01*
X148834Y10538D01*
X149019Y10561D01*
X149214Y10573D01*
X149422Y10584D01*
X149526D01*
X149629Y10573D01*
D02*
G37*
G36*
X82144Y10965D02*
Y10953D01*
Y10907D01*
X82133Y10815D01*
X82121Y10700D01*
Y10619D01*
X82110Y10527D01*
Y10423D01*
X82098Y10319D01*
Y10192D01*
X82087Y10054D01*
X82075Y9892D01*
X82064Y9731D01*
X82075Y9742D01*
X82087Y9766D01*
X82121Y9812D01*
X82156Y9858D01*
X82248Y9962D01*
X82329Y10054D01*
X82352Y10077D01*
X82398Y10112D01*
X82479Y10181D01*
X82571Y10238D01*
X82583D01*
X82594Y10250D01*
X82652Y10296D01*
X82732Y10342D01*
X82825Y10388D01*
X82836D01*
X82848Y10400D01*
X82917Y10423D01*
X83009Y10457D01*
X83136Y10492D01*
X83148D01*
X83171Y10503D01*
X83205D01*
X83251Y10515D01*
X83367Y10538D01*
X83517Y10561D01*
X83528D01*
X83551Y10573D01*
X83597D01*
X83655Y10584D01*
X83793Y10596D01*
X84116D01*
X84220Y10584D01*
X84347Y10573D01*
X84485Y10550D01*
X84785Y10492D01*
X84808D01*
X84854Y10469D01*
X84923Y10446D01*
X85027Y10411D01*
X85131Y10365D01*
X85246Y10307D01*
X85361Y10238D01*
X85465Y10158D01*
X85477Y10146D01*
X85511Y10112D01*
X85557Y10065D01*
X85627Y9996D01*
X85684Y9916D01*
X85753Y9823D01*
X85811Y9731D01*
X85857Y9616D01*
Y9604D01*
X85869Y9570D01*
X85892Y9512D01*
X85915Y9431D01*
X85926Y9339D01*
X85949Y9224D01*
X85961Y8982D01*
Y8970D01*
Y8958D01*
Y8924D01*
Y8889D01*
Y8762D01*
X85949Y8613D01*
Y8601D01*
Y8578D01*
Y8520D01*
X85938Y8463D01*
Y8382D01*
X85926Y8290D01*
Y8174D01*
X85915Y8059D01*
X85799Y6364D01*
Y6353D01*
Y6307D01*
X85788Y6249D01*
Y6180D01*
X85776Y6007D01*
Y5834D01*
Y5822D01*
Y5799D01*
Y5753D01*
Y5695D01*
Y5615D01*
Y5522D01*
Y5430D01*
Y5315D01*
X83689D01*
Y5327D01*
Y5350D01*
X83701Y5384D01*
Y5430D01*
X83713Y5500D01*
X83724Y5569D01*
X83736Y5753D01*
X83759Y5984D01*
X83782Y6249D01*
X83816Y6537D01*
X83839Y6848D01*
Y6860D01*
Y6883D01*
X83851Y6929D01*
Y6987D01*
Y7068D01*
X83862Y7148D01*
X83874Y7344D01*
X83886Y7552D01*
X83897Y7771D01*
X83908Y7978D01*
Y8151D01*
Y8174D01*
Y8232D01*
X83897Y8313D01*
X83886Y8417D01*
X83862Y8520D01*
X83816Y8624D01*
X83770Y8728D01*
X83701Y8809D01*
X83689Y8820D01*
X83666Y8843D01*
X83620Y8866D01*
X83563Y8912D01*
X83494Y8947D01*
X83401Y8970D01*
X83297Y8993D01*
X83182Y9005D01*
X83136D01*
X83078Y8993D01*
X83009D01*
X82836Y8947D01*
X82744Y8924D01*
X82652Y8878D01*
X82640D01*
X82617Y8855D01*
X82583Y8832D01*
X82537Y8797D01*
X82421Y8693D01*
X82306Y8555D01*
Y8543D01*
X82283Y8520D01*
X82260Y8474D01*
X82225Y8417D01*
X82191Y8347D01*
X82156Y8244D01*
X82121Y8140D01*
X82087Y8013D01*
Y7990D01*
X82075Y7932D01*
X82052Y7840D01*
X82029Y7702D01*
X82006Y7517D01*
X81972Y7298D01*
X81948Y7045D01*
X81925Y6756D01*
Y6733D01*
Y6664D01*
X81914Y6560D01*
X81902Y6399D01*
Y6307D01*
X81891Y6203D01*
Y6087D01*
Y5949D01*
X81879Y5811D01*
Y5661D01*
X81868Y5488D01*
Y5315D01*
X79839D01*
Y5327D01*
Y5350D01*
X79850Y5384D01*
Y5442D01*
X79861Y5500D01*
Y5580D01*
X79885Y5753D01*
X79908Y5938D01*
X79919Y6145D01*
X79942Y6353D01*
X79954Y6537D01*
Y6549D01*
Y6583D01*
X79965Y6641D01*
Y6722D01*
X79977Y6814D01*
Y6929D01*
X79988Y7068D01*
X80000Y7218D01*
X80011Y7379D01*
X80023Y7563D01*
X80035Y7748D01*
X80046Y7955D01*
X80058Y8174D01*
X80069Y8405D01*
X80092Y8889D01*
Y8901D01*
Y8924D01*
Y8982D01*
X80104Y9039D01*
Y9120D01*
Y9212D01*
X80115Y9316D01*
Y9431D01*
X80127Y9696D01*
X80138Y9985D01*
X80150Y10284D01*
X80161Y10596D01*
Y10607D01*
Y10630D01*
Y10677D01*
Y10734D01*
Y10815D01*
X80173Y10896D01*
Y10999D01*
Y11103D01*
Y11345D01*
X80184Y11610D01*
Y11899D01*
Y12187D01*
X80553D01*
X80726Y12175D01*
X81891D01*
X82260Y12187D01*
X82144Y10965D01*
D02*
G37*
G36*
X77244Y12302D02*
X77348D01*
X77475Y12291D01*
X77602Y12279D01*
X77751Y12268D01*
X78063Y12233D01*
X78409Y12187D01*
X78778Y12118D01*
Y12106D01*
Y12060D01*
Y11991D01*
X78789Y11899D01*
Y11806D01*
X78801Y11691D01*
X78812Y11472D01*
Y11461D01*
Y11414D01*
X78824Y11345D01*
X78835Y11241D01*
X78847Y11103D01*
X78870Y10930D01*
X78893Y10723D01*
X78916Y10469D01*
X78893Y10481D01*
X78835Y10503D01*
X78743Y10527D01*
X78628Y10573D01*
X78501Y10607D01*
X78363Y10653D01*
X78063Y10723D01*
X78051D01*
X78005Y10734D01*
X77925Y10746D01*
X77844Y10769D01*
X77740Y10780D01*
X77625Y10792D01*
X77406Y10803D01*
X77336D01*
X77267Y10792D01*
X77175Y10780D01*
X77071Y10769D01*
X76968Y10746D01*
X76852Y10700D01*
X76748Y10653D01*
X76737Y10642D01*
X76714Y10630D01*
X76668Y10596D01*
X76622Y10550D01*
X76575Y10503D01*
X76529Y10434D01*
X76506Y10365D01*
X76495Y10284D01*
Y10273D01*
Y10227D01*
X76506Y10158D01*
X76529Y10088D01*
X76541Y10077D01*
X76564Y10031D01*
X76610Y9962D01*
X76679Y9869D01*
X76702Y9846D01*
X76760Y9789D01*
X76852Y9696D01*
X76968Y9581D01*
X76979Y9570D01*
X77002Y9558D01*
X77048Y9523D01*
X77106Y9466D01*
X77187Y9408D01*
X77290Y9328D01*
X77406Y9235D01*
X77544Y9131D01*
X77913Y8843D01*
X77925D01*
X77936Y8820D01*
X77971Y8797D01*
X78017Y8751D01*
X78132Y8659D01*
X78259Y8520D01*
X78270Y8509D01*
X78293Y8486D01*
X78328Y8451D01*
X78374Y8405D01*
X78478Y8290D01*
X78582Y8151D01*
X78593Y8140D01*
X78605Y8117D01*
X78628Y8094D01*
X78662Y8048D01*
X78732Y7944D01*
X78789Y7829D01*
Y7817D01*
X78801Y7806D01*
X78824Y7736D01*
X78858Y7632D01*
X78893Y7517D01*
Y7506D01*
X78904Y7494D01*
X78916Y7425D01*
X78928Y7321D01*
X78939Y7194D01*
Y7171D01*
Y7114D01*
X78928Y7033D01*
X78916Y6918D01*
X78882Y6791D01*
X78847Y6641D01*
X78789Y6491D01*
X78720Y6330D01*
X78708Y6307D01*
X78685Y6261D01*
X78628Y6191D01*
X78559Y6099D01*
X78466Y5984D01*
X78363Y5880D01*
X78236Y5765D01*
X78097Y5661D01*
X78074Y5649D01*
X78028Y5615D01*
X77947Y5569D01*
X77844Y5511D01*
X77717Y5453D01*
X77567Y5396D01*
X77394Y5338D01*
X77221Y5292D01*
X77198D01*
X77140Y5280D01*
X77048Y5257D01*
X76921Y5246D01*
X76771Y5223D01*
X76599Y5200D01*
X76414Y5188D01*
X76068D01*
X75999Y5200D01*
X75895D01*
X75791Y5211D01*
X75665Y5223D01*
X75515Y5234D01*
X75365Y5246D01*
X75192Y5269D01*
X75007Y5292D01*
X74823Y5315D01*
X74615Y5350D01*
X74166Y5430D01*
Y5442D01*
Y5476D01*
X74154Y5534D01*
Y5603D01*
X74143Y5695D01*
Y5799D01*
X74131Y5926D01*
X74120Y6053D01*
X74097Y6318D01*
X74073Y6606D01*
X74050Y6895D01*
X74016Y7148D01*
X74027D01*
X74039Y7137D01*
X74108Y7102D01*
X74223Y7068D01*
X74350Y7010D01*
X74512Y6952D01*
X74673Y6895D01*
X74846Y6837D01*
X75019Y6791D01*
X75042D01*
X75088Y6779D01*
X75180Y6768D01*
X75284Y6745D01*
X75399Y6733D01*
X75526Y6710D01*
X75791Y6699D01*
X75861D01*
X75941Y6710D01*
X76045D01*
X76160Y6722D01*
X76276Y6745D01*
X76391Y6779D01*
X76495Y6814D01*
X76506Y6825D01*
X76541Y6837D01*
X76575Y6872D01*
X76633Y6906D01*
X76679Y6964D01*
X76714Y7033D01*
X76748Y7102D01*
X76760Y7194D01*
Y7206D01*
Y7241D01*
X76748Y7298D01*
X76725Y7356D01*
Y7367D01*
X76702Y7413D01*
X76679Y7460D01*
X76633Y7529D01*
X76622Y7552D01*
X76587Y7598D01*
X76518Y7667D01*
X76426Y7748D01*
X75480Y8567D01*
X75469Y8578D01*
X75423Y8613D01*
X75365Y8670D01*
X75296Y8728D01*
X75146Y8866D01*
X75077Y8924D01*
X75019Y8982D01*
X75007Y8993D01*
X74973Y9028D01*
X74927Y9074D01*
X74857Y9131D01*
X74719Y9293D01*
X74650Y9374D01*
X74592Y9454D01*
X74581Y9466D01*
X74569Y9489D01*
X74546Y9535D01*
X74512Y9593D01*
X74442Y9742D01*
X74373Y9904D01*
Y9916D01*
X74362Y9950D01*
X74350Y9996D01*
Y10054D01*
X74339Y10123D01*
X74327Y10204D01*
X74316Y10388D01*
Y10400D01*
Y10446D01*
X74327Y10503D01*
Y10584D01*
X74339Y10677D01*
X74362Y10769D01*
X74419Y10988D01*
Y10999D01*
X74442Y11034D01*
X74466Y11091D01*
X74500Y11172D01*
X74546Y11253D01*
X74604Y11345D01*
X74742Y11541D01*
X74754Y11553D01*
X74777Y11587D01*
X74834Y11633D01*
X74892Y11691D01*
X74984Y11760D01*
X75077Y11829D01*
X75192Y11910D01*
X75319Y11979D01*
X75330Y11991D01*
X75376Y12014D01*
X75457Y12049D01*
X75549Y12083D01*
X75665Y12129D01*
X75791Y12175D01*
X75930Y12210D01*
X76080Y12245D01*
X76103D01*
X76149Y12256D01*
X76230Y12268D01*
X76345Y12279D01*
X76472Y12291D01*
X76610Y12302D01*
X76921Y12314D01*
X77152D01*
X77244Y12302D01*
D02*
G37*
G36*
X123975Y9143D02*
X123964Y9120D01*
X123918Y9062D01*
X123848Y8970D01*
X123756Y8855D01*
X123641Y8705D01*
X123514Y8543D01*
X123387Y8371D01*
X123249Y8174D01*
Y8163D01*
X123272Y8140D01*
X123295Y8105D01*
X123330Y8036D01*
X123376Y7955D01*
X123433Y7852D01*
X123503Y7725D01*
X123595Y7575D01*
X123699Y7402D01*
X123825Y7194D01*
X123964Y6964D01*
X124125Y6699D01*
X124298Y6399D01*
X124494Y6076D01*
X124713Y5707D01*
X124955Y5315D01*
X122776D01*
X122465Y5938D01*
X122453Y5949D01*
X122442Y5995D01*
X122407Y6053D01*
X122373Y6134D01*
X122280Y6307D01*
X122177Y6491D01*
Y6503D01*
X122165Y6526D01*
X122131Y6583D01*
X122107Y6618D01*
X122073Y6675D01*
X122038Y6745D01*
X121992Y6825D01*
X121934Y6929D01*
X121865Y7045D01*
X121785Y7183D01*
X121704Y7344D01*
X121600Y7517D01*
X121485Y7725D01*
X121243Y8197D01*
X122107Y9443D01*
X122753Y10457D01*
X123145D01*
X123318Y10446D01*
X124506D01*
X124736Y10457D01*
X124978D01*
X123975Y9143D01*
D02*
G37*
G36*
X121358Y12175D02*
Y12129D01*
X121346Y12049D01*
X121335Y11945D01*
X121323Y11818D01*
X121312Y11668D01*
X121300Y11484D01*
X121289Y11276D01*
X121266Y11057D01*
X121254Y10803D01*
X121231Y10527D01*
X121208Y10238D01*
X121197Y9927D01*
X121174Y9604D01*
X121162Y9258D01*
X121139Y8901D01*
Y8878D01*
Y8809D01*
X121127Y8705D01*
Y8567D01*
X121116Y8394D01*
Y8197D01*
X121104Y7967D01*
X121093Y7713D01*
X121081Y7448D01*
Y7160D01*
X121070Y6872D01*
X121058Y6560D01*
X121047Y5938D01*
Y5315D01*
X119029D01*
Y5327D01*
Y5338D01*
X119041Y5373D01*
Y5419D01*
X119052Y5534D01*
X119063Y5684D01*
X119087Y5845D01*
X119098Y6018D01*
X119110Y6191D01*
X119121Y6353D01*
Y6364D01*
Y6376D01*
Y6410D01*
X119133Y6457D01*
Y6572D01*
X119144Y6733D01*
X119156Y6929D01*
X119179Y7171D01*
X119190Y7436D01*
X119202Y7736D01*
X119260Y8924D01*
Y8935D01*
Y8958D01*
Y9005D01*
X119271Y9062D01*
Y9131D01*
Y9224D01*
X119283Y9420D01*
X119294Y9662D01*
Y9916D01*
X119306Y10192D01*
X119317Y10469D01*
Y10481D01*
Y10503D01*
Y10561D01*
Y10619D01*
Y10700D01*
Y10792D01*
Y10896D01*
X119329Y11022D01*
Y11276D01*
Y11564D01*
Y11876D01*
Y12187D01*
X119721D01*
X119894Y12175D01*
X120966D01*
X121150Y12187D01*
X121358D01*
Y12175D01*
D02*
G37*
G36*
X106392Y10561D02*
X106553Y10538D01*
Y10527D01*
Y10515D01*
Y10446D01*
Y10342D01*
Y10215D01*
X106565Y10077D01*
Y9916D01*
Y9766D01*
X106577Y9627D01*
X106611Y8855D01*
X106600D01*
X106565Y8866D01*
X106507Y8878D01*
X106438Y8901D01*
X106277Y8924D01*
X106092Y8935D01*
X105977D01*
X105908Y8924D01*
X105735Y8901D01*
X105562Y8843D01*
X105550D01*
X105527Y8832D01*
X105493Y8809D01*
X105435Y8774D01*
X105320Y8693D01*
X105181Y8567D01*
X105170Y8555D01*
X105158Y8532D01*
X105124Y8497D01*
X105078Y8451D01*
X105043Y8382D01*
X104997Y8313D01*
X104905Y8128D01*
Y8117D01*
X104893Y8082D01*
X104870Y8013D01*
X104859Y7921D01*
X104835Y7806D01*
X104812Y7656D01*
X104789Y7483D01*
X104766Y7275D01*
Y7264D01*
Y7252D01*
Y7218D01*
Y7171D01*
X104755Y7056D01*
Y6895D01*
X104743Y6699D01*
Y6480D01*
X104732Y6226D01*
Y5961D01*
Y5949D01*
Y5915D01*
Y5857D01*
Y5776D01*
X104743Y5684D01*
Y5580D01*
Y5453D01*
X104755Y5315D01*
X102726D01*
X102875Y7540D01*
X102933Y8832D01*
Y8843D01*
Y8889D01*
Y8958D01*
Y9051D01*
Y9155D01*
Y9270D01*
Y9535D01*
Y9558D01*
Y9604D01*
Y9685D01*
Y9789D01*
Y9927D01*
Y10077D01*
X102921Y10261D01*
Y10457D01*
X103267D01*
X103429Y10446D01*
X104478D01*
X104663Y10457D01*
X104859D01*
X104835Y9881D01*
X104847Y9892D01*
X104870Y9916D01*
X104905Y9962D01*
X104951Y10008D01*
X105055Y10112D01*
X105147Y10204D01*
X105158D01*
X105170Y10227D01*
X105227Y10273D01*
X105320Y10331D01*
X105435Y10400D01*
X105447D01*
X105458Y10411D01*
X105493Y10434D01*
X105539Y10457D01*
X105643Y10492D01*
X105769Y10538D01*
X105781D01*
X105804Y10550D01*
X105839D01*
X105885Y10561D01*
X106012Y10573D01*
X106150Y10584D01*
X106265D01*
X106392Y10561D01*
D02*
G37*
G36*
X139771D02*
X139933Y10538D01*
Y10527D01*
Y10515D01*
Y10446D01*
Y10342D01*
Y10215D01*
X139944Y10077D01*
Y9916D01*
Y9766D01*
X139956Y9627D01*
X139990Y8855D01*
X139979D01*
X139944Y8866D01*
X139887Y8878D01*
X139818Y8901D01*
X139656Y8924D01*
X139472Y8935D01*
X139356D01*
X139287Y8924D01*
X139114Y8901D01*
X138941Y8843D01*
X138930D01*
X138907Y8832D01*
X138872Y8809D01*
X138814Y8774D01*
X138699Y8693D01*
X138561Y8567D01*
X138549Y8555D01*
X138538Y8532D01*
X138503Y8497D01*
X138457Y8451D01*
X138422Y8382D01*
X138376Y8313D01*
X138284Y8128D01*
Y8117D01*
X138273Y8082D01*
X138249Y8013D01*
X138238Y7921D01*
X138215Y7806D01*
X138192Y7656D01*
X138169Y7483D01*
X138146Y7275D01*
Y7264D01*
Y7252D01*
Y7218D01*
Y7171D01*
X138134Y7056D01*
Y6895D01*
X138123Y6699D01*
Y6480D01*
X138111Y6226D01*
Y5961D01*
Y5949D01*
Y5915D01*
Y5857D01*
Y5776D01*
X138123Y5684D01*
Y5580D01*
Y5453D01*
X138134Y5315D01*
X136105D01*
X136255Y7540D01*
X136312Y8832D01*
Y8843D01*
Y8889D01*
Y8958D01*
Y9051D01*
Y9155D01*
Y9270D01*
Y9535D01*
Y9558D01*
Y9604D01*
Y9685D01*
Y9789D01*
Y9927D01*
Y10077D01*
X136301Y10261D01*
Y10457D01*
X136647D01*
X136808Y10446D01*
X137857D01*
X138042Y10457D01*
X138238D01*
X138215Y9881D01*
X138226Y9892D01*
X138249Y9916D01*
X138284Y9962D01*
X138330Y10008D01*
X138434Y10112D01*
X138526Y10204D01*
X138538D01*
X138549Y10227D01*
X138607Y10273D01*
X138699Y10331D01*
X138814Y10400D01*
X138826D01*
X138838Y10411D01*
X138872Y10434D01*
X138918Y10457D01*
X139022Y10492D01*
X139149Y10538D01*
X139160D01*
X139183Y10550D01*
X139218D01*
X139264Y10561D01*
X139391Y10573D01*
X139529Y10584D01*
X139645D01*
X139771Y10561D01*
D02*
G37*
G36*
X132715Y12302D02*
X132830D01*
X132969Y12291D01*
X133130Y12279D01*
X133303Y12268D01*
X133499Y12245D01*
X133695Y12233D01*
X133914Y12198D01*
X134364Y12141D01*
X134860Y12049D01*
Y12037D01*
Y12014D01*
Y11979D01*
Y11922D01*
Y11852D01*
Y11772D01*
X134871Y11680D01*
Y11564D01*
Y11322D01*
X134894Y11057D01*
X134906Y10746D01*
X134929Y10423D01*
X134917D01*
X134871Y10446D01*
X134802Y10457D01*
X134721Y10492D01*
X134525Y10550D01*
X134422Y10573D01*
X134329Y10596D01*
X134318D01*
X134295Y10607D01*
X134248Y10619D01*
X134179Y10642D01*
X134110Y10653D01*
X134018Y10677D01*
X133810Y10711D01*
X133799D01*
X133764Y10723D01*
X133707Y10734D01*
X133626Y10746D01*
X133545Y10757D01*
X133441Y10769D01*
X133245Y10792D01*
X133234D01*
X133199Y10803D01*
X133153D01*
X133084Y10815D01*
X132934Y10826D01*
X132669D01*
X132565Y10815D01*
X132427Y10803D01*
X132265Y10792D01*
X132081Y10757D01*
X131896Y10723D01*
X131712Y10665D01*
X131689Y10653D01*
X131631Y10630D01*
X131539Y10596D01*
X131424Y10538D01*
X131297Y10469D01*
X131158Y10388D01*
X131009Y10284D01*
X130870Y10169D01*
X130859Y10158D01*
X130813Y10112D01*
X130743Y10042D01*
X130674Y9950D01*
X130582Y9835D01*
X130501Y9708D01*
X130409Y9546D01*
X130340Y9385D01*
X130328Y9362D01*
X130317Y9304D01*
X130282Y9212D01*
X130259Y9097D01*
X130225Y8947D01*
X130190Y8785D01*
X130178Y8601D01*
X130167Y8417D01*
Y8394D01*
Y8324D01*
X130178Y8232D01*
X130190Y8105D01*
X130213Y7967D01*
X130248Y7806D01*
X130294Y7656D01*
X130363Y7494D01*
X130374Y7471D01*
X130397Y7425D01*
X130444Y7356D01*
X130513Y7264D01*
X130605Y7171D01*
X130709Y7068D01*
X130847Y6964D01*
X130997Y6883D01*
X131020Y6872D01*
X131078Y6848D01*
X131170Y6814D01*
X131285Y6779D01*
X131435Y6745D01*
X131597Y6710D01*
X131781Y6687D01*
X131977Y6675D01*
X132058D01*
X132150Y6687D01*
X132265D01*
X132415Y6710D01*
X132588Y6733D01*
X132773Y6756D01*
X132969Y6802D01*
X133015Y7898D01*
X132911D01*
X132842Y7909D01*
X132634D01*
X132104Y7898D01*
X132139Y8520D01*
Y8543D01*
Y8590D01*
Y8682D01*
X132150Y8797D01*
Y8809D01*
Y8832D01*
Y8878D01*
X132162Y8935D01*
Y9016D01*
Y9108D01*
Y9212D01*
Y9328D01*
X132588D01*
X132784Y9316D01*
X134629D01*
X134906Y9328D01*
X135148D01*
Y9316D01*
Y9293D01*
X135136Y9258D01*
Y9201D01*
X135125Y9131D01*
Y9039D01*
X135113Y8935D01*
X135102Y8820D01*
X135090Y8693D01*
X135079Y8543D01*
X135067Y8382D01*
X135056Y8209D01*
X135044Y8025D01*
X135033Y7817D01*
X135021Y7598D01*
X135010Y7367D01*
Y7356D01*
Y7310D01*
X134998Y7252D01*
Y7160D01*
Y7056D01*
X134986Y6929D01*
Y6802D01*
X134975Y6652D01*
X134963Y6341D01*
X134952Y6030D01*
X134940Y5730D01*
X134929Y5592D01*
Y5465D01*
X134906D01*
X134837Y5442D01*
X134721Y5430D01*
X134594Y5407D01*
X134444Y5373D01*
X134283Y5350D01*
X134122Y5327D01*
X133972Y5315D01*
X133960D01*
X133903Y5303D01*
X133822D01*
X133718Y5292D01*
X133580Y5280D01*
X133418Y5257D01*
X133245Y5246D01*
X133049Y5234D01*
X133026D01*
X132957Y5223D01*
X132865D01*
X132738Y5211D01*
X132588Y5200D01*
X132427D01*
X132104Y5188D01*
X131920D01*
X131850Y5200D01*
X131677D01*
X131470Y5211D01*
X131239Y5234D01*
X130997Y5269D01*
X130755Y5303D01*
X130720D01*
X130686Y5315D01*
X130640Y5327D01*
X130524Y5350D01*
X130363Y5384D01*
X130178Y5430D01*
X129982Y5488D01*
X129775Y5569D01*
X129579Y5649D01*
X129556Y5661D01*
X129498Y5695D01*
X129394Y5753D01*
X129279Y5822D01*
X129141Y5915D01*
X128991Y6030D01*
X128841Y6168D01*
X128703Y6318D01*
X128691Y6341D01*
X128645Y6399D01*
X128587Y6480D01*
X128507Y6606D01*
X128426Y6756D01*
X128334Y6918D01*
X128253Y7114D01*
X128172Y7321D01*
Y7333D01*
X128161Y7344D01*
Y7379D01*
X128149Y7425D01*
X128115Y7540D01*
X128080Y7690D01*
X128045Y7863D01*
X128022Y8071D01*
X127999Y8290D01*
X127988Y8520D01*
Y8532D01*
Y8567D01*
Y8624D01*
X127999Y8693D01*
Y8785D01*
X128011Y8889D01*
X128034Y9005D01*
X128057Y9143D01*
X128115Y9431D01*
X128207Y9742D01*
X128334Y10077D01*
X128403Y10250D01*
X128495Y10411D01*
X128507Y10423D01*
X128518Y10446D01*
X128553Y10492D01*
X128587Y10561D01*
X128645Y10630D01*
X128703Y10711D01*
X128864Y10919D01*
X129072Y11138D01*
X129325Y11368D01*
X129613Y11587D01*
X129948Y11795D01*
X129959Y11806D01*
X129994Y11818D01*
X130052Y11841D01*
X130121Y11876D01*
X130213Y11910D01*
X130328Y11956D01*
X130467Y12002D01*
X130617Y12060D01*
X130789Y12106D01*
X130974Y12152D01*
X131170Y12198D01*
X131389Y12233D01*
X131631Y12268D01*
X131873Y12291D01*
X132139Y12314D01*
X132611D01*
X132715Y12302D01*
D02*
G37*
%LPC*%
G36*
X149434Y9408D02*
X149410D01*
X149341Y9397D01*
X149249Y9385D01*
X149134Y9351D01*
X149122D01*
X149111Y9339D01*
X149053Y9316D01*
X148972Y9270D01*
X148880Y9212D01*
X148869Y9201D01*
X148822Y9155D01*
X148753Y9085D01*
X148696Y8993D01*
X148684Y8970D01*
X148661Y8924D01*
X148615Y8843D01*
X148580Y8762D01*
Y8739D01*
X148557Y8682D01*
X148534Y8590D01*
X148511Y8463D01*
X150183D01*
Y8474D01*
Y8509D01*
Y8601D01*
Y8613D01*
Y8647D01*
Y8693D01*
X150171Y8762D01*
X150148Y8901D01*
X150091Y9051D01*
Y9062D01*
X150079Y9085D01*
X150022Y9155D01*
X149941Y9235D01*
X149826Y9316D01*
X149814D01*
X149791Y9328D01*
X149756Y9351D01*
X149710Y9362D01*
X149583Y9397D01*
X149434Y9408D01*
D02*
G37*
G36*
X143334D02*
X143311D01*
X143242Y9397D01*
X143150Y9385D01*
X143034Y9351D01*
X143023D01*
X143011Y9339D01*
X142954Y9316D01*
X142873Y9270D01*
X142781Y9212D01*
X142769Y9201D01*
X142723Y9155D01*
X142654Y9085D01*
X142596Y8993D01*
X142585Y8970D01*
X142562Y8924D01*
X142516Y8843D01*
X142481Y8762D01*
Y8739D01*
X142458Y8682D01*
X142435Y8590D01*
X142412Y8463D01*
X144084D01*
Y8474D01*
Y8509D01*
Y8601D01*
Y8613D01*
Y8647D01*
Y8693D01*
X144072Y8762D01*
X144049Y8901D01*
X143991Y9051D01*
Y9062D01*
X143980Y9085D01*
X143922Y9155D01*
X143842Y9235D01*
X143726Y9316D01*
X143715D01*
X143692Y9328D01*
X143657Y9351D01*
X143611Y9362D01*
X143484Y9397D01*
X143334Y9408D01*
D02*
G37*
G36*
X110116Y9108D02*
X110059D01*
X110001Y9097D01*
X109920Y9085D01*
X109839Y9062D01*
X109736Y9039D01*
X109632Y8993D01*
X109540Y8935D01*
X109528Y8924D01*
X109494Y8901D01*
X109448Y8866D01*
X109401Y8820D01*
X109332Y8751D01*
X109274Y8659D01*
X109217Y8567D01*
X109159Y8451D01*
Y8440D01*
X109136Y8394D01*
X109125Y8324D01*
X109102Y8244D01*
X109079Y8140D01*
X109055Y8025D01*
X109044Y7898D01*
X109032Y7759D01*
Y7748D01*
Y7736D01*
Y7667D01*
X109044Y7563D01*
X109067Y7448D01*
X109102Y7310D01*
X109148Y7171D01*
X109217Y7033D01*
X109309Y6906D01*
X109321Y6895D01*
X109355Y6860D01*
X109424Y6814D01*
X109505Y6768D01*
X109597Y6710D01*
X109713Y6664D01*
X109851Y6629D01*
X110001Y6618D01*
X110059D01*
X110116Y6629D01*
X110185Y6641D01*
X110278Y6652D01*
X110370Y6687D01*
X110474Y6722D01*
X110566Y6779D01*
X110577Y6791D01*
X110612Y6814D01*
X110658Y6848D01*
X110704Y6906D01*
X110773Y6975D01*
X110831Y7068D01*
X110889Y7160D01*
X110946Y7275D01*
X110958Y7287D01*
X110969Y7333D01*
X110993Y7402D01*
X111016Y7494D01*
X111039Y7598D01*
X111062Y7713D01*
X111085Y7852D01*
Y7990D01*
Y8002D01*
Y8048D01*
Y8105D01*
X111073Y8174D01*
X111039Y8359D01*
X110981Y8543D01*
Y8555D01*
X110958Y8590D01*
X110935Y8636D01*
X110900Y8693D01*
X110796Y8820D01*
X110727Y8889D01*
X110647Y8947D01*
X110635Y8958D01*
X110612Y8970D01*
X110554Y8993D01*
X110497Y9028D01*
X110416Y9062D01*
X110324Y9085D01*
X110220Y9097D01*
X110116Y9108D01*
D02*
G37*
%LPD*%
D10*
X54232Y375886D02*
D03*
X60532D02*
D03*
X65551Y375886D02*
D03*
X71850D02*
D03*
X137992Y191732D02*
D03*
X131693D02*
D03*
X111122Y123917D02*
D03*
X117421D02*
D03*
X104232D02*
D03*
X97933D02*
D03*
D11*
X108169Y256594D02*
D03*
X112894D02*
D03*
X103445D02*
D03*
D12*
X112106Y287205D02*
D03*
X118799D02*
D03*
X54528Y350394D02*
D03*
X61221D02*
D03*
X144980Y286910D02*
D03*
X151673D02*
D03*
X105512Y287205D02*
D03*
X98819D02*
D03*
X14469Y62599D02*
D03*
X7776D02*
D03*
X100295Y94095D02*
D03*
X106988D02*
D03*
X13091Y78248D02*
D03*
X6398D02*
D03*
X106890Y87894D02*
D03*
X100197D02*
D03*
X84843Y82087D02*
D03*
X91536D02*
D03*
X91536Y76280D02*
D03*
X84843D02*
D03*
D13*
X128347Y318898D02*
D03*
X157874D02*
D03*
D14*
X137323Y295473D02*
D03*
X119370D02*
D03*
X148898Y295669D02*
D03*
X166850D02*
D03*
D15*
X103445Y301280D02*
D03*
Y326476D02*
D03*
X170276Y134547D02*
D03*
Y159744D02*
D03*
D16*
X49016Y375433D02*
D03*
Y365118D02*
D03*
X84941Y394724D02*
D03*
Y384409D02*
D03*
X50394Y31358D02*
D03*
Y41673D02*
D03*
X41142Y31358D02*
D03*
Y41673D02*
D03*
X50099Y19331D02*
D03*
Y9016D02*
D03*
D17*
X86713Y344685D02*
D03*
X77854Y340945D02*
D03*
Y348425D02*
D03*
D18*
X47736Y357087D02*
D03*
Y350394D02*
D03*
X104528Y266437D02*
D03*
Y273130D02*
D03*
X40650Y11909D02*
D03*
Y18602D02*
D03*
X86024Y95276D02*
D03*
Y88583D02*
D03*
X92225Y88681D02*
D03*
Y95374D02*
D03*
X78543Y76280D02*
D03*
Y82973D02*
D03*
X111516Y266634D02*
D03*
Y273327D02*
D03*
D19*
X57146Y341339D02*
D03*
X67461D02*
D03*
X118071Y86910D02*
D03*
X128386D02*
D03*
X118071Y77559D02*
D03*
X128386D02*
D03*
D20*
X58169Y367421D02*
D03*
Y365453D02*
D03*
Y363484D02*
D03*
Y361516D02*
D03*
X69193D02*
D03*
Y363484D02*
D03*
Y365453D02*
D03*
Y367421D02*
D03*
D21*
X60728Y358957D02*
D03*
X62697D02*
D03*
X64665D02*
D03*
X66634D02*
D03*
Y369980D02*
D03*
X64665D02*
D03*
X62697D02*
D03*
X60728D02*
D03*
D22*
X63681Y364469D02*
D03*
D23*
X84646Y359547D02*
D03*
X80906D02*
D03*
X77165D02*
D03*
Y369783D02*
D03*
X80906D02*
D03*
X84646D02*
D03*
D24*
X120169Y348642D02*
D03*
X108358D02*
D03*
X17807D02*
D03*
X29618D02*
D03*
X163476D02*
D03*
X151665D02*
D03*
X154634Y61594D02*
D03*
X166445D02*
D03*
X112606Y61693D02*
D03*
X124417D02*
D03*
X70284D02*
D03*
X82095D02*
D03*
D25*
X72618Y394390D02*
D03*
X50807D02*
D03*
X67146Y138189D02*
D03*
X88957D02*
D03*
D26*
X172736Y182480D02*
D03*
X147539D02*
D03*
D27*
X176181Y122638D02*
D03*
Y116339D02*
D03*
X56988Y110630D02*
D03*
Y104331D02*
D03*
X70177Y79232D02*
D03*
Y85532D02*
D03*
D28*
X50197Y77067D02*
D03*
X55315D02*
D03*
X101181Y78248D02*
D03*
X106299D02*
D03*
X56398Y119390D02*
D03*
X61516D02*
D03*
D29*
X96654Y273228D02*
D03*
Y267323D02*
D03*
X120374Y273425D02*
D03*
Y267520D02*
D03*
D30*
X49488Y60728D02*
D03*
X23150D02*
D03*
D31*
X50492Y112697D02*
D03*
Y103445D02*
D03*
D32*
X7087Y55512D02*
D03*
X12992D02*
D03*
X13386Y69882D02*
D03*
X7480D02*
D03*
D33*
X11220Y8366D02*
D03*
X28937D02*
D03*
D34*
X11220Y42421D02*
D03*
X28937D02*
D03*
D35*
X40453Y90827D02*
D03*
Y108780D02*
D03*
X41240Y120453D02*
D03*
Y138406D02*
D03*
D36*
X15846Y99803D02*
D03*
X16634Y129429D02*
D03*
D37*
X42421Y79232D02*
D03*
X31398D02*
D03*
D38*
X98917Y112008D02*
D03*
X120768D02*
D03*
D39*
X174016Y94173D02*
D03*
X133071Y102677D02*
D03*
D40*
X144488Y75984D02*
D03*
X162599D02*
D03*
X144488Y120866D02*
D03*
X162599D02*
D03*
D41*
X128740Y242421D02*
D03*
X125591D02*
D03*
X122441D02*
D03*
X119291D02*
D03*
X116142D02*
D03*
X112992D02*
D03*
X109843D02*
D03*
X106693D02*
D03*
Y209350D02*
D03*
X109843D02*
D03*
X112992D02*
D03*
X116142D02*
D03*
X119291D02*
D03*
X122441D02*
D03*
X125591D02*
D03*
X128740D02*
D03*
D42*
X101181Y236910D02*
D03*
Y233760D02*
D03*
Y230610D02*
D03*
Y227461D02*
D03*
Y224311D02*
D03*
Y221162D02*
D03*
Y218012D02*
D03*
Y214862D02*
D03*
X134252D02*
D03*
Y218012D02*
D03*
Y221162D02*
D03*
Y224311D02*
D03*
Y227461D02*
D03*
Y230610D02*
D03*
Y233760D02*
D03*
Y236910D02*
D03*
D43*
X150492Y140394D02*
D03*
Y150394D02*
D03*
Y160394D02*
D03*
D44*
X112894Y150394D02*
D03*
D45*
X71063Y98819D02*
D03*
X73032D02*
D03*
X75000D02*
D03*
X76969D02*
D03*
Y112599D02*
D03*
X75000D02*
D03*
X73032D02*
D03*
X71063D02*
D03*
D46*
X80906Y102756D02*
D03*
Y104725D02*
D03*
Y106693D02*
D03*
Y108661D02*
D03*
X67126D02*
D03*
Y106693D02*
D03*
Y104725D02*
D03*
Y102756D02*
D03*
D47*
X74016Y105709D02*
D03*
D48*
X66634Y369980D02*
X69685D01*
X71850Y372146D01*
Y375886D01*
X64665Y369980D02*
Y375000D01*
X130020Y249705D02*
X134252Y245473D01*
X125197Y249705D02*
X130020D01*
X120374Y254528D02*
X125197Y249705D01*
X120374Y254528D02*
Y267520D01*
X66634Y356102D02*
X68209Y354528D01*
X66634Y356102D02*
Y358957D01*
X64665D02*
X66634D01*
X70669Y361516D02*
X72638Y359547D01*
X69193Y361516D02*
X70669D01*
X64665Y363484D02*
X69193D01*
Y361516D02*
Y363484D01*
X74606Y364764D02*
X83465D01*
X71949Y367421D02*
X74606Y364764D01*
X69193Y367421D02*
X71949D01*
X84646Y365945D02*
Y369783D01*
X83465Y364764D02*
X84646Y365945D01*
X106693Y242421D02*
Y245276D01*
X103445Y248524D02*
X106693Y245276D01*
X103445Y248524D02*
Y256594D01*
X108169D02*
Y266437D01*
X59185Y373984D02*
X60728Y372441D01*
X58169Y367421D02*
Y371260D01*
X55642Y373787D02*
X58169Y371260D01*
X55642Y373787D02*
Y375886D01*
X60728Y369980D02*
Y372441D01*
X62697Y365453D02*
Y369980D01*
Y358957D02*
Y363484D01*
X61221Y350394D02*
X62697Y351870D01*
Y358957D01*
X47736Y350394D02*
X54528D01*
Y352756D01*
X60728Y358957D01*
X53740Y367028D02*
Y370177D01*
X55315Y365453D02*
X58169D01*
X53740Y367028D02*
X55315Y365453D01*
X47736Y357087D02*
X53740D01*
X58169Y361516D01*
X50650Y363484D02*
X58169D01*
X49016Y365118D02*
X50650Y363484D01*
X116142Y245473D02*
X119144Y248475D01*
X122441Y245177D01*
Y242421D02*
Y245177D01*
X116142Y242421D02*
Y245473D01*
X134252Y236910D02*
Y245473D01*
X116142Y229725D02*
X119291Y232874D01*
Y242421D01*
X112992Y232874D02*
Y242421D01*
Y232874D02*
X116142Y229725D01*
Y209350D02*
Y229725D01*
X124213Y198622D02*
Y203642D01*
X125591Y205020D01*
Y209350D01*
X128740Y202165D02*
Y209350D01*
X162303Y151772D02*
X167421D01*
X178347Y140847D01*
Y124803D02*
Y140847D01*
X176181Y122638D02*
X178347Y124803D01*
X119291Y201476D02*
Y209350D01*
X116142Y189370D02*
Y209350D01*
X109843Y189370D02*
Y209350D01*
X112894Y249016D02*
Y256594D01*
X109843Y245965D02*
X112894Y249016D01*
X109843Y242421D02*
Y245965D01*
X108169Y249410D02*
Y256594D01*
D49*
X65551Y375886D02*
Y387894D01*
X60532Y375886D02*
Y384665D01*
X65551Y387894D02*
X72047Y394390D01*
X111516Y273327D02*
X120276D01*
X84941Y394724D02*
Y403346D01*
X77165Y369783D02*
Y375689D01*
Y369783D02*
X80906D01*
X84646D02*
Y384114D01*
X92717Y287205D02*
X98819D01*
X108169Y266437D02*
X111319D01*
X104528D02*
X108169D01*
X96654Y247835D02*
Y267323D01*
X96752Y273130D02*
X104528D01*
X90847Y245177D02*
X99114Y236910D01*
X90847Y245177D02*
Y275591D01*
X94587Y279331D01*
X102067D01*
X105512Y282776D01*
Y287205D01*
X118799D02*
Y294902D01*
X105512Y287205D02*
X112106D01*
Y282973D02*
Y287205D01*
Y282973D02*
X113976Y281102D01*
X125099D01*
X130906Y286910D01*
X144980D01*
X49016Y375433D02*
Y381988D01*
X72047Y394390D02*
X72618D01*
X50807D02*
X60532Y384665D01*
X77854Y340945D02*
Y342475D01*
X84646Y349266D01*
Y359547D01*
X86713Y344685D02*
X88091Y346063D01*
Y366339D01*
X84646Y369783D02*
X88091Y366339D01*
X77854Y348425D02*
Y352559D01*
X80906Y355610D01*
Y359547D01*
X67854Y340945D02*
X77854D01*
X33858Y34390D02*
X41142Y41673D01*
X33858Y25394D02*
Y34390D01*
Y25394D02*
X40650Y18602D01*
X12992Y52165D02*
Y55512D01*
X11811Y50984D02*
X12992Y52165D01*
X4528Y50984D02*
X11811D01*
X2264Y53248D02*
X4528Y50984D01*
X2264Y53248D02*
Y75099D01*
Y86221D02*
X15846Y99803D01*
X2264Y75099D02*
Y86221D01*
Y75099D02*
X7480Y69882D01*
X6398Y76870D02*
X13386Y69882D01*
X6398Y76870D02*
Y78248D01*
X7776Y56201D02*
Y62599D01*
X11634Y42835D02*
X12992Y44193D01*
X14469Y150591D02*
X27165D01*
X34449Y157874D01*
X12992Y168996D02*
X43307Y199311D01*
X12992Y152067D02*
Y168996D01*
Y152067D02*
X14469Y150591D01*
X43307Y199311D02*
X103839D01*
X48031Y79232D02*
X67421Y98622D01*
X48031Y79232D02*
X50197Y77067D01*
X67421Y98622D02*
X70177D01*
D50*
X125197Y257382D02*
X137697D01*
X139961D01*
X146063Y271358D02*
X153543Y278839D01*
X139961Y257382D02*
X146063Y263484D01*
Y271358D01*
X127165Y295473D02*
X134055D01*
X157185Y295669D02*
X164272D01*
X153543Y278839D02*
X168799D01*
X174606Y284646D01*
Y339173D01*
X165138Y348642D02*
X174606Y339173D01*
X163476Y348642D02*
X165138D01*
X23150Y42421D02*
X28937D01*
X11634Y42835D02*
X23150D01*
Y60728D01*
D51*
X72933Y314862D02*
Y335866D01*
X103248Y315453D02*
X103445Y315650D01*
Y326476D01*
X134055Y295473D02*
X137323D01*
X164272Y295669D02*
X166850D01*
X163476Y348642D02*
Y358374D01*
X161221Y360630D02*
X163476Y358374D01*
X132158Y360630D02*
X161221D01*
X120169Y348642D02*
X132158Y360630D01*
X108358Y340067D02*
X128347Y320079D01*
X108358Y340067D02*
Y348642D01*
X161024Y320276D02*
Y329626D01*
X151665Y338984D02*
X161024Y329626D01*
X151665Y338984D02*
Y348642D01*
X67854Y340945D02*
X72933Y335866D01*
X29835Y348425D02*
X39469D01*
X29618Y348642D02*
X29835Y348425D01*
X41142Y41673D02*
X50394D01*
Y59823D01*
X43543Y9016D02*
X50099D01*
X40650Y11909D02*
X43543Y9016D01*
X50394Y19626D02*
Y31358D01*
X41142D02*
X50394D01*
D52*
X57146Y341339D02*
X61221Y345413D01*
Y350394D01*
X148898Y295669D02*
X151673Y292894D01*
Y286910D02*
Y292894D01*
X139764Y150394D02*
X150492D01*
X134055D02*
X139764D01*
X124390Y186496D02*
X129626Y191732D01*
X131693D01*
X162303Y151772D02*
X170276Y159744D01*
X160925Y150394D02*
X162303Y151772D01*
X139469Y190551D02*
X147539Y182480D01*
X104232Y123917D02*
Y141732D01*
X150492Y150394D02*
X160925D01*
X60827Y66043D02*
Y71555D01*
X55315Y77067D02*
X60827Y71555D01*
D53*
X43012Y362795D02*
X46693D01*
X49016Y365118D01*
X46752Y358071D02*
X47736Y357087D01*
X20079Y358071D02*
X46752D01*
X17807Y355799D02*
X20079Y358071D01*
X17807Y345284D02*
Y348642D01*
Y345284D02*
X26181Y336910D01*
X41240D01*
X76870Y301280D01*
X103445D01*
X17807Y348642D02*
Y355799D01*
X147539Y182480D02*
Y182973D01*
X174075Y209508D01*
Y215433D01*
X69488Y119390D02*
X71358Y117520D01*
X61516Y119390D02*
X69488D01*
X55315Y131201D02*
X61516Y125000D01*
Y119390D02*
Y125000D01*
X42421Y79232D02*
X48031D01*
D54*
X15846Y94784D02*
X31398Y79232D01*
X52756Y147343D02*
X61910Y138189D01*
X34547Y147343D02*
X52756D01*
X16634Y129429D02*
X34547Y147343D01*
X162599Y128740D02*
X168405Y134547D01*
X170276D01*
X151624Y139715D02*
X162599Y128740D01*
Y120866D02*
Y128740D01*
X144488Y120866D02*
X162599D01*
X49213Y131201D02*
X55315D01*
X48445D02*
X49213D01*
X41240Y138406D02*
X48445Y131201D01*
X88957Y123150D02*
X98032Y114075D01*
X88957Y123917D02*
Y138189D01*
X120276Y99410D02*
Y107973D01*
Y99410D02*
X128386Y91299D01*
X166445Y61594D02*
X174409Y69559D01*
Y80709D01*
X168504Y86614D02*
X174409Y80709D01*
X155118Y86614D02*
X168504D01*
X144488Y75984D02*
X155118Y86614D01*
X128386Y86910D02*
Y91299D01*
Y77559D02*
Y86910D01*
X129961Y75984D02*
X144488D01*
X128386Y77559D02*
X129961Y75984D01*
X61910Y138189D02*
X67146D01*
X31398Y70571D02*
Y79232D01*
Y70571D02*
X41240Y60728D01*
X49488D01*
D55*
X20079Y71605D02*
Y71752D01*
X14469Y65994D02*
X20079Y71605D01*
X14469Y62599D02*
Y65994D01*
X86024Y95276D02*
X92126D01*
X45276Y101969D02*
X46752Y103445D01*
X50492D01*
X63386Y104725D02*
X67126D01*
X49488Y90827D02*
X63386Y104725D01*
X40453Y90827D02*
X49488D01*
X62992Y99410D02*
X66339Y102756D01*
X67126D01*
X41752Y120965D02*
X48228D01*
X41240Y120453D02*
X41752Y120965D01*
X61417Y109941D02*
X62697Y108661D01*
X67126D01*
X11909Y78543D02*
X19094D01*
X79331Y88583D02*
Y99606D01*
X74705Y82973D02*
X78543D01*
X72146Y85532D02*
X74705Y82973D01*
X72146Y85532D02*
X76969Y90354D01*
Y98819D01*
X79331Y99606D02*
X80906Y101181D01*
Y102756D01*
X73032Y95965D02*
Y98819D01*
X74016Y91831D02*
X75106Y92921D01*
Y98713D01*
X75000Y98819D02*
X75106Y98713D01*
X83760Y104725D02*
X85236Y103248D01*
X80906Y104725D02*
X83760D01*
X70177Y76673D02*
X74311Y72539D01*
X73032Y106693D02*
Y112599D01*
X72925Y112705D02*
X73032Y112599D01*
X72925Y112705D02*
Y115953D01*
X71358Y117520D02*
X72925Y115953D01*
X117421Y115354D02*
Y123917D01*
X110728Y101083D02*
X120276Y110630D01*
X98394Y101083D02*
X110728D01*
X98181Y101295D02*
X98394Y101083D01*
X94079Y101295D02*
X98181D01*
X92421Y102953D02*
X94079Y101295D01*
X92421Y102953D02*
Y109252D01*
X85630Y116043D02*
X92421Y109252D01*
X78642Y116043D02*
X85630D01*
X76969Y114370D02*
X78642Y116043D01*
X76969Y112599D02*
Y114370D01*
X89173Y108661D02*
X89961Y107874D01*
Y102362D02*
Y107874D01*
Y102362D02*
X92815Y99508D01*
X87599Y96850D02*
Y105512D01*
X86417Y106693D02*
X87599Y105512D01*
X80906Y106693D02*
X86417D01*
X86024Y95276D02*
X87599Y96850D01*
X92815Y99508D02*
X97441D01*
X70177Y76673D02*
Y79232D01*
X74311Y72539D02*
X87795D01*
X91536Y76280D01*
X43504Y97146D02*
X50984D01*
X40453Y100197D02*
X43504Y97146D01*
X40453Y100197D02*
Y108780D01*
X50984Y97146D02*
X56988Y103150D01*
Y104331D01*
X59351Y106693D01*
X67126D01*
X50492Y104134D02*
X56988Y110630D01*
X50492Y112795D02*
X56398Y118701D01*
X50492Y112697D02*
Y112795D01*
X56398Y118701D02*
X62500Y112599D01*
X71063D01*
X100295Y87992D02*
Y94095D01*
Y96654D01*
X97441Y99508D02*
X100295Y96654D01*
X80906Y108661D02*
X89173D01*
X75000Y112599D02*
Y116043D01*
D56*
X20866Y158071D02*
Y168209D01*
X41732Y189075D01*
X83760D01*
X124390Y186496D02*
X150492Y160394D01*
X121516Y189370D02*
X124390Y186496D01*
X150492Y160394D02*
X172579Y182480D01*
X83760Y189075D02*
X83957Y189272D01*
X64173Y169488D02*
X83760Y189075D01*
X116142Y189370D02*
X121516D01*
X64173Y157874D02*
Y169488D01*
X83957Y189272D02*
X116142D01*
X50099Y19331D02*
X61063D01*
X76575Y34843D01*
Y45079D01*
X70284Y51370D02*
X76575Y45079D01*
X70284Y51370D02*
Y61693D01*
X19803Y129429D02*
X40453Y108780D01*
D57*
X119291Y156791D02*
Y177953D01*
X112894Y150394D02*
X119291Y156791D01*
X120768Y112008D02*
X129429D01*
X130512Y113091D01*
X66063Y61693D02*
X69390D01*
X28937Y8366D02*
Y18209D01*
X11220Y8366D02*
X28937D01*
X82095Y61693D02*
X112606D01*
X124516Y61594D02*
X154634D01*
D58*
X68209Y91142D02*
X73032Y95965D01*
X66732Y91142D02*
X68209D01*
X172579Y182480D02*
Y196595D01*
X179134Y203150D01*
Y230374D01*
X174075Y235433D02*
X179134Y230374D01*
X95768Y233760D02*
X101181D01*
X99114Y236910D02*
X101181D01*
X101083Y206496D02*
X103937Y209350D01*
X106693D01*
X83268Y214862D02*
X101181D01*
X83169Y214961D02*
X83268Y214862D01*
X93406Y218012D02*
X101181D01*
X134252Y233760D02*
X143996D01*
X165000Y254764D01*
Y258760D01*
X134252Y230610D02*
X146851D01*
X175000Y258760D01*
X156417Y215433D02*
X164075D01*
X144390Y227461D02*
X156417Y215433D01*
X134252Y227461D02*
X144390D01*
X172736Y116339D02*
X176181D01*
X168209Y120866D02*
X172736Y116339D01*
X162599Y120866D02*
X168209D01*
X85236Y101673D02*
Y103248D01*
X81693Y98130D02*
X85236Y101673D01*
X81693Y92913D02*
X86024Y88583D01*
X81693Y92913D02*
Y98130D01*
X89724Y123917D02*
X97933D01*
X98032Y114075D02*
X106496D01*
X111122Y118701D01*
Y123917D01*
X120276Y108563D02*
Y110630D01*
X114961Y94095D02*
X120276Y99410D01*
X106988Y94095D02*
X114961D01*
X114626Y83465D02*
X118071Y86910D01*
X111909Y87894D02*
X117087D01*
X106890D02*
X111909D01*
Y83465D02*
X114626D01*
X111909D02*
Y87894D01*
X105709Y83465D02*
X106201D01*
Y83957D02*
X106890Y84646D01*
X105709Y83465D02*
X106201Y83957D01*
Y83465D02*
Y83957D01*
Y79626D02*
Y83465D01*
X114626Y81004D02*
X118071Y77559D01*
X114626Y81004D02*
Y83465D01*
X106890Y84646D02*
Y87894D01*
X97441Y83465D02*
X105709D01*
X92225Y88681D02*
X97441Y83465D01*
X92913Y69882D02*
X96358Y73327D01*
X70571Y69882D02*
X92913D01*
X65650Y74803D02*
X70571Y69882D01*
X86024Y87599D02*
X91536Y82087D01*
X92390D01*
X96358Y78118D01*
Y77461D02*
Y78118D01*
X75000Y116043D02*
Y116929D01*
X81221Y123150D01*
X88957D01*
X84843Y76280D02*
Y82087D01*
X79429Y76280D02*
X84843D01*
X96358Y73327D02*
Y77461D01*
X98130Y79232D01*
X101476D01*
X65650Y74803D02*
Y90059D01*
X66732Y91142D01*
D59*
X129774Y141240D02*
D03*
D60*
X130266Y131496D02*
D03*
D61*
X171260Y399606D02*
D03*
D62*
X9843D02*
D03*
X171260Y9843D02*
D03*
D63*
X164075Y235433D02*
D03*
D64*
X174075D02*
D03*
X164075Y225433D02*
D03*
X174075D02*
D03*
X164075Y215433D02*
D03*
X174075D02*
D03*
X165000Y258760D02*
D03*
X155000D02*
D03*
D65*
X175000D02*
D03*
D66*
X44291Y313386D02*
D03*
Y174803D02*
D03*
X10827Y308662D02*
D03*
Y179528D02*
D03*
X20669Y330315D02*
D03*
X34449Y157874D02*
D03*
X20669D02*
D03*
X87599Y313386D02*
D03*
Y174803D02*
D03*
X54134Y308662D02*
D03*
Y179528D02*
D03*
X63976Y330315D02*
D03*
X77756Y157874D02*
D03*
X63976D02*
D03*
D67*
X15748Y236221D02*
D03*
D68*
Y275591D02*
D03*
D69*
X131693Y116831D02*
D03*
X128248Y109941D02*
D03*
X131004Y257185D02*
D03*
X72933Y319783D02*
D03*
Y314862D02*
D03*
Y324508D02*
D03*
X35236Y348425D02*
D03*
X137697Y257382D02*
D03*
X125197D02*
D03*
X125394Y134055D02*
D03*
X117323Y133661D02*
D03*
X109646Y133760D02*
D03*
X124508Y142225D02*
D03*
X117225Y142126D02*
D03*
X109449Y142028D02*
D03*
X102264Y133760D02*
D03*
Y142028D02*
D03*
X124311Y164567D02*
D03*
X117028Y164469D02*
D03*
X109547Y164272D02*
D03*
X102067Y164075D02*
D03*
X124114Y157382D02*
D03*
X117028D02*
D03*
X109744Y156988D02*
D03*
X102264Y156693D02*
D03*
X123819Y150099D02*
D03*
X117028Y150000D02*
D03*
X109449Y149803D02*
D03*
X102264D02*
D03*
X162500Y326575D02*
D03*
X153445Y326870D02*
D03*
X162008Y318406D02*
D03*
X153740Y318701D02*
D03*
X162106Y310335D02*
D03*
X153543Y310925D02*
D03*
X61221Y345413D02*
D03*
X124016Y311024D02*
D03*
Y318898D02*
D03*
Y326772D02*
D03*
X131890D02*
D03*
Y318898D02*
D03*
Y311024D02*
D03*
X7874Y94390D02*
D03*
X43012Y362795D02*
D03*
X68209Y354528D02*
D03*
X72638Y359547D02*
D03*
X84941Y403346D02*
D03*
X103150Y319193D02*
D03*
X103248Y315453D02*
D03*
X95768Y233760D02*
D03*
X96654Y247835D02*
D03*
X131496Y295473D02*
D03*
X127165Y295473D02*
D03*
X161614Y295768D02*
D03*
X157185Y295669D02*
D03*
X49016Y381988D02*
D03*
X53642Y358268D02*
D03*
X54528Y369882D02*
D03*
X39469Y348425D02*
D03*
X19980Y4823D02*
D03*
Y10138D02*
D03*
X119488Y174606D02*
D03*
X119291Y179035D02*
D03*
X119144Y248475D02*
D03*
X45276Y101969D02*
D03*
X62992Y99410D02*
D03*
X48228Y120965D02*
D03*
X61417Y109941D02*
D03*
X130512Y113091D02*
D03*
X19094Y78543D02*
D03*
X79331Y88583D02*
D03*
X72835Y73524D02*
D03*
X20079Y71752D02*
D03*
X74016Y91831D02*
D03*
X124213Y198622D02*
D03*
X128839Y202067D02*
D03*
X83169Y214961D02*
D03*
X101083Y206496D02*
D03*
X93406Y218012D02*
D03*
X119587Y202362D02*
D03*
X139764Y150394D02*
D03*
X134055D02*
D03*
X162500Y151575D02*
D03*
X28937Y18209D02*
D03*
X11122Y16535D02*
D03*
X11417Y21752D02*
D03*
X61063Y19331D02*
D03*
X72736Y30709D02*
D03*
X73917Y47343D02*
D03*
X60827Y66043D02*
D03*
X71358Y117520D02*
D03*
X55315Y131201D02*
D03*
X111909Y87894D02*
D03*
Y83465D02*
D03*
X7874Y125984D02*
D03*
X15748D02*
D03*
X23622D02*
D03*
X15748Y133858D02*
D03*
X23622D02*
D03*
Y102362D02*
D03*
Y94488D02*
D03*
X15748D02*
D03*
Y102362D02*
D03*
X7874D02*
D03*
X108169Y249410D02*
D03*
D70*
X77165Y375689D02*
D03*
X92717Y287205D02*
D03*
X63681Y364469D02*
D03*
X103839Y199311D02*
D03*
X11220Y26870D02*
D03*
X49213Y131201D02*
D03*
X7874Y133858D02*
D03*
D71*
X71851Y103543D02*
D03*
Y107874D02*
D03*
X76181Y103543D02*
D03*
Y107874D02*
D03*
M02*
