%FSLAX25Y25*%
%MOIN*%
G70*
G01*
G75*
G04 Layer_Color=255*
%ADD10R,0.01575X0.07874*%
%ADD11R,0.03150X0.03150*%
%ADD12R,0.11024X0.06693*%
%ADD13R,0.11024X0.10236*%
%ADD14R,0.02756X0.03937*%
%ADD15R,0.03937X0.04331*%
%ADD16R,0.04843X0.07087*%
%ADD17R,0.04331X0.03937*%
%ADD18R,0.07874X0.12402*%
%ADD19R,0.06299X0.07087*%
%ADD20R,0.05000X0.11496*%
%ADD21R,0.03937X0.03740*%
%ADD22R,0.07087X0.04843*%
%ADD23R,0.29134X0.21654*%
%ADD24R,0.07480X0.03740*%
%ADD25R,0.02165X0.05709*%
%ADD26R,0.08425X0.08425*%
%ADD27R,0.03150X0.01102*%
%ADD28R,0.01102X0.03150*%
%ADD29R,0.08465X0.13386*%
%ADD30R,0.03740X0.03937*%
%ADD31R,0.11024X0.07480*%
%ADD32R,0.06201X0.06201*%
%ADD33R,0.07205X0.13504*%
%ADD34R,0.33071X0.41339*%
%ADD35R,0.12992X0.04134*%
%ADD36R,0.09449X0.10236*%
%ADD37R,0.10236X0.09449*%
%ADD38O,0.06496X0.02165*%
%ADD39O,0.02165X0.06496*%
%ADD40R,0.03150X0.03150*%
%ADD41R,0.21654X0.29134*%
%ADD42R,0.03740X0.07480*%
%ADD43C,0.01181*%
%ADD44C,0.06299*%
%ADD45C,0.03937*%
%ADD46C,0.07874*%
%ADD47C,0.05906*%
%ADD48C,0.01969*%
%ADD49C,0.05512*%
%ADD50C,0.02362*%
%ADD51C,0.01575*%
%ADD52C,0.01000*%
%ADD53C,0.03150*%
%ADD54R,0.28642X0.17323*%
%ADD55C,0.05906*%
%ADD56R,0.05906X0.05906*%
%ADD57R,0.05906X0.05906*%
%ADD58C,0.07874*%
%ADD59R,0.13780X0.13780*%
%ADD60C,0.13780*%
%ADD61C,0.03150*%
%ADD62C,0.01969*%
D55*
X-7028Y215433D02*
D03*
X-17028D02*
D03*
X-7028Y225433D02*
D03*
X-17028D02*
D03*
X-7028Y235433D02*
D03*
X-26102Y258760D02*
D03*
X-16102D02*
D03*
D56*
X-17028Y235433D02*
D03*
D57*
X-6102Y258760D02*
D03*
D58*
X-117126Y157874D02*
D03*
X-103347D02*
D03*
X-117126Y330315D02*
D03*
X-126969Y179528D02*
D03*
Y308661D02*
D03*
X-93504Y174803D02*
D03*
Y313386D02*
D03*
X-160433Y157874D02*
D03*
X-146653D02*
D03*
X-160433Y330315D02*
D03*
X-170276Y179528D02*
D03*
Y308661D02*
D03*
X-136811Y174803D02*
D03*
Y313386D02*
D03*
D59*
X-9843Y9843D02*
D03*
D60*
X-165354Y275590D02*
D03*
Y236221D02*
D03*
M02*
