G04 Layer_Color=8388736*
%FSLAX25Y25*%
%MOIN*%
G70*
G01*
G75*
%ADD75R,0.04055X0.04252*%
%ADD76R,0.01890X0.08189*%
%ADD77R,0.04646X0.04252*%
%ADD78R,0.21968X0.29449*%
%ADD79R,0.04055X0.07795*%
%ADD80R,0.09764X0.10551*%
%ADD81R,0.05158X0.07402*%
%ADD82R,0.04843X0.02677*%
%ADD83R,0.04252X0.04646*%
%ADD84R,0.07402X0.05158*%
%ADD85O,0.03268X0.01496*%
%ADD86O,0.01496X0.03268*%
%ADD87R,0.06811X0.06811*%
%ADD88R,0.02598X0.05118*%
%ADD89R,0.05315X0.11811*%
%ADD90R,0.07520X0.13819*%
%ADD91R,0.10551X0.09764*%
%ADD92R,0.04252X0.04055*%
%ADD93R,0.03071X0.04252*%
%ADD94R,0.03465X0.03465*%
%ADD95R,0.08189X0.12717*%
%ADD96R,0.02480X0.06024*%
%ADD97R,0.03465X0.03465*%
%ADD98R,0.11339X0.10551*%
%ADD99R,0.11339X0.07008*%
%ADD100R,0.07795X0.04055*%
%ADD101R,0.29449X0.21968*%
%ADD102R,0.06614X0.07402*%
%ADD103R,0.08780X0.13701*%
%ADD104R,0.06516X0.06516*%
%ADD105R,0.11339X0.07795*%
%ADD106O,0.02480X0.06811*%
%ADD107O,0.06811X0.02480*%
%ADD108R,0.13307X0.04449*%
%ADD109R,0.33386X0.41654*%
%ADD110R,0.01417X0.03465*%
%ADD111R,0.03465X0.01417*%
%ADD112R,0.08740X0.08740*%
%ADD113R,0.00315X0.00315*%
%ADD114R,0.14094X0.14094*%
%ADD115R,0.14094X0.14094*%
%ADD116C,0.00315*%
%ADD117R,0.06221X0.06221*%
%ADD118C,0.06221*%
%ADD119R,0.06221X0.06221*%
%ADD120C,0.08189*%
%ADD121C,0.14094*%
%ADD122C,0.14094*%
%ADD123R,0.00315X0.00315*%
%ADD124C,0.03950*%
%ADD125C,0.03465*%
%ADD126C,0.03465*%
%ADD127C,0.02284*%
D75*
X54232Y375886D02*
D03*
X60532D02*
D03*
X65551Y375886D02*
D03*
X71850D02*
D03*
X137992Y191732D02*
D03*
X131693D02*
D03*
X111122Y123917D02*
D03*
X117421D02*
D03*
X104232D02*
D03*
X97933D02*
D03*
D76*
X108169Y256594D02*
D03*
X112894D02*
D03*
X103445D02*
D03*
D77*
X112106Y287205D02*
D03*
X118799D02*
D03*
X54528Y350394D02*
D03*
X61221D02*
D03*
X144980Y286910D02*
D03*
X151673D02*
D03*
X105512Y287205D02*
D03*
X98819D02*
D03*
X14469Y62599D02*
D03*
X7776D02*
D03*
X100295Y94095D02*
D03*
X106988D02*
D03*
X13091Y78248D02*
D03*
X6398D02*
D03*
X106890Y87894D02*
D03*
X100197D02*
D03*
X84843Y82087D02*
D03*
X91536D02*
D03*
X91536Y76280D02*
D03*
X84843D02*
D03*
D78*
X128347Y318898D02*
D03*
X157874D02*
D03*
D79*
X137323Y295473D02*
D03*
X119370D02*
D03*
X148898Y295669D02*
D03*
X166850D02*
D03*
D80*
X103445Y301280D02*
D03*
Y326476D02*
D03*
X170276Y134547D02*
D03*
Y159744D02*
D03*
D81*
X49016Y375433D02*
D03*
Y365118D02*
D03*
X84941Y394724D02*
D03*
Y384409D02*
D03*
X50394Y31358D02*
D03*
Y41673D02*
D03*
X41142Y31358D02*
D03*
Y41673D02*
D03*
X50099Y19331D02*
D03*
Y9016D02*
D03*
D82*
X86713Y344685D02*
D03*
X77854Y340945D02*
D03*
Y348425D02*
D03*
D83*
X47736Y357087D02*
D03*
Y350394D02*
D03*
X104528Y266437D02*
D03*
Y273130D02*
D03*
X40650Y11909D02*
D03*
Y18602D02*
D03*
X86024Y95276D02*
D03*
Y88583D02*
D03*
X92225Y88681D02*
D03*
Y95374D02*
D03*
X78543Y76280D02*
D03*
Y82973D02*
D03*
X111516Y266634D02*
D03*
Y273327D02*
D03*
D84*
X57146Y341339D02*
D03*
X67461D02*
D03*
X118071Y86910D02*
D03*
X128386D02*
D03*
X118071Y77559D02*
D03*
X128386D02*
D03*
D85*
X58169Y367421D02*
D03*
Y365453D02*
D03*
Y363484D02*
D03*
Y361516D02*
D03*
X69193D02*
D03*
Y363484D02*
D03*
Y365453D02*
D03*
Y367421D02*
D03*
D86*
X60728Y358957D02*
D03*
X62697D02*
D03*
X64665D02*
D03*
X66634D02*
D03*
Y369980D02*
D03*
X64665D02*
D03*
X62697D02*
D03*
X60728D02*
D03*
D87*
X63681Y364469D02*
D03*
D88*
X84646Y359547D02*
D03*
X80906D02*
D03*
X77165D02*
D03*
Y369783D02*
D03*
X80906D02*
D03*
X84646D02*
D03*
D89*
X120169Y348642D02*
D03*
X108358D02*
D03*
X17807D02*
D03*
X29618D02*
D03*
X163476D02*
D03*
X151665D02*
D03*
X154634Y61594D02*
D03*
X166445D02*
D03*
X112606Y61693D02*
D03*
X124417D02*
D03*
X70284D02*
D03*
X82095D02*
D03*
D90*
X72618Y394390D02*
D03*
X50807D02*
D03*
X67146Y138189D02*
D03*
X88957D02*
D03*
D91*
X172736Y182480D02*
D03*
X147539D02*
D03*
D92*
X176181Y122638D02*
D03*
Y116339D02*
D03*
X56988Y110630D02*
D03*
Y104331D02*
D03*
X70177Y79232D02*
D03*
Y85532D02*
D03*
D93*
X50197Y77067D02*
D03*
X55315D02*
D03*
X101181Y78248D02*
D03*
X106299D02*
D03*
X56398Y119390D02*
D03*
X61516D02*
D03*
D94*
X96654Y273228D02*
D03*
Y267323D02*
D03*
X120374Y273425D02*
D03*
Y267520D02*
D03*
D95*
X49488Y60728D02*
D03*
X23150D02*
D03*
D96*
X50492Y112697D02*
D03*
Y103445D02*
D03*
D97*
X7087Y55512D02*
D03*
X12992D02*
D03*
X13386Y69882D02*
D03*
X7480D02*
D03*
D98*
X11220Y8366D02*
D03*
X28937D02*
D03*
D99*
X11220Y42421D02*
D03*
X28937D02*
D03*
D100*
X40453Y90827D02*
D03*
Y108780D02*
D03*
X41240Y120453D02*
D03*
Y138406D02*
D03*
D101*
X15846Y99803D02*
D03*
X16634Y129429D02*
D03*
D102*
X42421Y79232D02*
D03*
X31398D02*
D03*
D103*
X98917Y112008D02*
D03*
X120768D02*
D03*
D104*
X174016Y94173D02*
D03*
X133071Y102677D02*
D03*
D105*
X144488Y75984D02*
D03*
X162599D02*
D03*
X144488Y120866D02*
D03*
X162599D02*
D03*
D106*
X128740Y242421D02*
D03*
X125591D02*
D03*
X122441D02*
D03*
X119291D02*
D03*
X116142D02*
D03*
X112992D02*
D03*
X109843D02*
D03*
X106693D02*
D03*
Y209350D02*
D03*
X109843D02*
D03*
X112992D02*
D03*
X116142D02*
D03*
X119291D02*
D03*
X122441D02*
D03*
X125591D02*
D03*
X128740D02*
D03*
D107*
X101181Y236910D02*
D03*
Y233760D02*
D03*
Y230610D02*
D03*
Y227461D02*
D03*
Y224311D02*
D03*
Y221162D02*
D03*
Y218012D02*
D03*
Y214862D02*
D03*
X134252D02*
D03*
Y218012D02*
D03*
Y221162D02*
D03*
Y224311D02*
D03*
Y227461D02*
D03*
Y230610D02*
D03*
Y233760D02*
D03*
Y236910D02*
D03*
D108*
X150492Y140394D02*
D03*
Y150394D02*
D03*
Y160394D02*
D03*
D109*
X112894Y150394D02*
D03*
D110*
X71063Y98819D02*
D03*
X73032D02*
D03*
X75000D02*
D03*
X76969D02*
D03*
Y112599D02*
D03*
X75000D02*
D03*
X73032D02*
D03*
X71063D02*
D03*
D111*
X80906Y102756D02*
D03*
Y104725D02*
D03*
Y106693D02*
D03*
Y108661D02*
D03*
X67126D02*
D03*
Y106693D02*
D03*
Y104725D02*
D03*
Y102756D02*
D03*
D112*
X74016Y105709D02*
D03*
D113*
X99854Y370177D02*
D03*
X128673D02*
D03*
X38122D02*
D03*
X9303D02*
D03*
X143161D02*
D03*
X171980D02*
D03*
X174949Y40059D02*
D03*
X146130D02*
D03*
X132921Y40157D02*
D03*
X104102D02*
D03*
X90598D02*
D03*
X61780D02*
D03*
D114*
X171260Y399606D02*
D03*
D115*
X9843D02*
D03*
X171260Y9843D02*
D03*
D116*
X3347Y24508D02*
D03*
X23031D02*
D03*
X140354Y86614D02*
D03*
X166732Y110236D02*
D03*
D117*
X164075Y235433D02*
D03*
D118*
X174075D02*
D03*
X164075Y225433D02*
D03*
X174075D02*
D03*
X164075Y215433D02*
D03*
X174075D02*
D03*
X165000Y258760D02*
D03*
X155000D02*
D03*
D119*
X175000D02*
D03*
D120*
X44291Y313386D02*
D03*
Y174803D02*
D03*
X10827Y308662D02*
D03*
Y179528D02*
D03*
X20669Y330315D02*
D03*
X34449Y157874D02*
D03*
X20669D02*
D03*
X87599Y313386D02*
D03*
Y174803D02*
D03*
X54134Y308662D02*
D03*
Y179528D02*
D03*
X63976Y330315D02*
D03*
X77756Y157874D02*
D03*
X63976D02*
D03*
D121*
X15748Y236221D02*
D03*
D122*
Y275591D02*
D03*
D123*
X149606Y204725D02*
D03*
D124*
X131693Y116831D02*
D03*
X128248Y109941D02*
D03*
D125*
X72933Y319783D02*
D03*
Y314862D02*
D03*
Y324508D02*
D03*
X137697Y257382D02*
D03*
X125197D02*
D03*
X125394Y134055D02*
D03*
X117323Y133661D02*
D03*
X109646Y133760D02*
D03*
X124508Y142225D02*
D03*
X117225Y142126D02*
D03*
X109449Y142028D02*
D03*
X102264Y133760D02*
D03*
Y142028D02*
D03*
X124311Y164567D02*
D03*
X117028Y164469D02*
D03*
X109547Y164272D02*
D03*
X102067Y164075D02*
D03*
X124114Y157382D02*
D03*
X117028D02*
D03*
X109744Y156988D02*
D03*
X102264Y156693D02*
D03*
X123819Y150099D02*
D03*
X117028Y150000D02*
D03*
X109449Y149803D02*
D03*
X102264D02*
D03*
X162500Y326575D02*
D03*
X153445Y326870D02*
D03*
X162008Y318406D02*
D03*
X153740Y318701D02*
D03*
X162106Y310335D02*
D03*
X153543Y310925D02*
D03*
X61221Y345413D02*
D03*
X124016Y311024D02*
D03*
Y318898D02*
D03*
Y326772D02*
D03*
X131890D02*
D03*
Y318898D02*
D03*
Y311024D02*
D03*
X7874Y94390D02*
D03*
X68209Y354528D02*
D03*
X72638Y359547D02*
D03*
X84941Y403346D02*
D03*
X96654Y247835D02*
D03*
X131496Y295473D02*
D03*
X127165Y295473D02*
D03*
X161614Y295768D02*
D03*
X157185Y295669D02*
D03*
X53642Y358268D02*
D03*
X19980Y4823D02*
D03*
Y10138D02*
D03*
X119488Y174606D02*
D03*
X119291Y179035D02*
D03*
X119144Y248475D02*
D03*
X45276Y101969D02*
D03*
X62992Y99410D02*
D03*
X48228Y120965D02*
D03*
X61417Y109941D02*
D03*
X19094Y78543D02*
D03*
X79331Y88583D02*
D03*
X72835Y73524D02*
D03*
X20079Y71752D02*
D03*
X74016Y91831D02*
D03*
X124213Y198622D02*
D03*
X128839Y202067D02*
D03*
X83169Y214961D02*
D03*
X101083Y206496D02*
D03*
X93406Y218012D02*
D03*
X119587Y202362D02*
D03*
X139764Y150394D02*
D03*
X134055D02*
D03*
X162500Y151575D02*
D03*
X28937Y18209D02*
D03*
X11122Y16535D02*
D03*
X11417Y21752D02*
D03*
X61063Y19331D02*
D03*
X72736Y30709D02*
D03*
X73917Y47343D02*
D03*
X60827Y66043D02*
D03*
X71358Y117520D02*
D03*
X55315Y131201D02*
D03*
X111909Y87894D02*
D03*
Y83465D02*
D03*
X7874Y125984D02*
D03*
X15748D02*
D03*
X23622D02*
D03*
X15748Y133858D02*
D03*
X23622D02*
D03*
Y102362D02*
D03*
Y94488D02*
D03*
X15748D02*
D03*
Y102362D02*
D03*
X7874D02*
D03*
X108169Y249410D02*
D03*
D126*
X77165Y375689D02*
D03*
X92717Y287205D02*
D03*
X63681Y364469D02*
D03*
X103839Y199311D02*
D03*
X11220Y26870D02*
D03*
X49213Y131201D02*
D03*
X7874Y133858D02*
D03*
D127*
X71851Y103543D02*
D03*
Y107874D02*
D03*
X76181Y103543D02*
D03*
Y107874D02*
D03*
M02*
