G04 Layer_Color=16711935*
%FSLAX25Y25*%
%MOIN*%
G70*
G01*
G75*
%ADD73C,0.00787*%
%ADD74C,0.00394*%
%ADD128R,0.03760X0.24410*%
D73*
X-1969Y2008D02*
Y48008D01*
D74*
X63091Y367028D02*
G03*
X63091Y367028I-1969J0D01*
G01*
X129921Y236122D02*
G03*
X129921Y236122I-1969J0D01*
G01*
X72441Y102165D02*
G03*
X72441Y102165I-1969J0D01*
G01*
X54036Y374114D02*
Y377658D01*
X60728Y374114D02*
Y377658D01*
X54036D02*
X60728D01*
X54036Y374114D02*
X60728D01*
X65354Y374114D02*
Y377658D01*
X72047Y374114D02*
Y377658D01*
X65354D02*
X72047D01*
X65354Y374114D02*
X72047D01*
X101575Y253740D02*
X114764D01*
X101575Y259449D02*
X114764D01*
Y253740D02*
Y259449D01*
X101575Y253740D02*
Y259449D01*
X141634Y304331D02*
Y329331D01*
X115059Y304331D02*
Y329331D01*
X141634D01*
X115059Y304331D02*
X141634D01*
X52165Y363976D02*
Y376575D01*
X45866Y363976D02*
Y376575D01*
X52165D01*
X45866Y363976D02*
X52165D01*
X79528Y338780D02*
X85039D01*
X79528Y350591D02*
X85039D01*
Y338780D02*
Y350591D01*
X79528Y338780D02*
Y350591D01*
X56004Y344488D02*
X68602D01*
X56004Y338189D02*
X68602D01*
X56004D02*
Y344488D01*
X68602Y338189D02*
Y344488D01*
X57579Y358366D02*
Y370571D01*
X69784Y358366D02*
Y370571D01*
X57579D02*
X69784D01*
X57579Y358366D02*
X69784D01*
X75000Y361221D02*
Y368110D01*
X86811Y361221D02*
Y368110D01*
X75000Y361221D02*
X86811D01*
X75000Y368110D02*
X86811D01*
X88091Y383268D02*
Y395866D01*
X81791Y383268D02*
Y395866D01*
X88091D01*
X81791Y383268D02*
X88091D01*
X95197Y349319D02*
Y355488D01*
Y349319D02*
X95228Y349287D01*
X133228D01*
Y388287D01*
X95228D02*
X133228D01*
X95197Y388256D02*
X95228Y388287D01*
X95197Y381866D02*
Y388256D01*
Y355488D02*
Y381866D01*
X47736Y381201D02*
X75689D01*
X47736Y407579D02*
X75689D01*
Y381201D02*
Y407579D01*
X47736Y381201D02*
Y407579D01*
X4646Y355488D02*
Y381866D01*
Y388256D01*
X4677Y388287D01*
X42677D01*
Y349287D02*
Y388287D01*
X4677Y349287D02*
X42677D01*
X4646Y349319D02*
X4677Y349287D01*
X4646Y349319D02*
Y355488D01*
X174409Y122835D02*
X177953D01*
X174409Y116142D02*
X177953D01*
Y122835D01*
X174409Y116142D02*
Y122835D01*
X138189Y189961D02*
Y193504D01*
X131496Y189961D02*
Y193504D01*
Y189961D02*
X138189D01*
X131496Y193504D02*
X138189D01*
X47244Y30217D02*
Y42815D01*
X53543Y30217D02*
Y42815D01*
X47244Y30217D02*
X53543D01*
X47244Y42815D02*
X53543D01*
X37992Y30217D02*
Y42815D01*
X44291Y30217D02*
Y42815D01*
X37992Y30217D02*
X44291D01*
X37992Y42815D02*
X44291D01*
X53248Y7874D02*
Y20472D01*
X46949Y7874D02*
Y20472D01*
X53248D01*
X46949Y7874D02*
X53248D01*
X49606Y75394D02*
Y78740D01*
X55906Y75394D02*
Y78740D01*
X49606D02*
X55906D01*
X49606Y75394D02*
X55906D01*
X55217Y110827D02*
X58760D01*
X55217Y104134D02*
X58760D01*
Y110827D01*
X55217Y104134D02*
Y110827D01*
X116929Y90059D02*
X129528D01*
X116929Y83760D02*
X129528D01*
X116929D02*
Y90059D01*
X129528Y83760D02*
Y90059D01*
X116929Y80709D02*
X129528D01*
X116929Y74410D02*
X129528D01*
X116929D02*
Y80709D01*
X129528Y74410D02*
Y80709D01*
X110925Y122146D02*
Y125689D01*
X117618Y122146D02*
Y125689D01*
X110925D02*
X117618D01*
X110925Y122146D02*
X117618D01*
X100591Y76575D02*
Y79921D01*
X106890Y76575D02*
Y79921D01*
X100591D02*
X106890D01*
X100591Y76575D02*
X106890D01*
X55807Y117717D02*
Y121063D01*
X62106Y117717D02*
Y121063D01*
X55807D02*
X62106D01*
X55807Y117717D02*
X62106D01*
X104429Y122146D02*
Y125689D01*
X97736Y122146D02*
Y125689D01*
Y122146D02*
X104429D01*
X97736Y125689D02*
X104429D01*
X68406Y79036D02*
X71949D01*
X68406Y85728D02*
X71949D01*
X68406Y79036D02*
Y85728D01*
X71949Y79036D02*
Y85728D01*
X22343Y48524D02*
X50295D01*
X22343Y72933D02*
X50295D01*
Y48524D02*
Y72933D01*
X22343Y48524D02*
Y72933D01*
X64075Y151378D02*
X92028D01*
X64075Y125000D02*
X92028D01*
X64075D02*
Y151378D01*
X92028Y125000D02*
Y151378D01*
X144587Y304528D02*
X171161D01*
X144587Y329528D02*
X171161D01*
X144587Y304528D02*
Y329528D01*
X171161Y304528D02*
Y329528D01*
X31594Y86516D02*
Y113091D01*
X6594Y86516D02*
Y113091D01*
Y86516D02*
X31594D01*
X6594Y113091D02*
X31594D01*
X32382Y116142D02*
Y142717D01*
X7382Y116142D02*
Y142717D01*
Y116142D02*
X32382D01*
X7382Y142717D02*
X32382D01*
X103937Y239665D02*
X131496D01*
X103937Y212106D02*
X131496D01*
Y239665D01*
X103937Y212106D02*
Y239665D01*
X136909Y129921D02*
Y170866D01*
X101909Y129921D02*
Y170866D01*
Y129921D02*
X136909D01*
X101909Y170866D02*
X136909D01*
X66929Y98622D02*
X81102D01*
X66929Y112795D02*
X81102D01*
X66929Y98622D02*
Y112795D01*
X81102Y98622D02*
Y112795D01*
X138504Y349319D02*
Y355488D01*
Y349319D02*
X138535Y349287D01*
X176535D01*
Y388287D01*
X138535D02*
X176535D01*
X138504Y388256D02*
X138535Y388287D01*
X138504Y381866D02*
Y388256D01*
Y355488D02*
Y381866D01*
X179606Y54748D02*
Y60917D01*
X179575Y60949D02*
X179606Y60917D01*
X141575Y60949D02*
X179575D01*
X141575Y21949D02*
Y60949D01*
Y21949D02*
X179575D01*
X179606Y21980D01*
Y28370D01*
Y54748D01*
X137579Y54847D02*
Y61016D01*
X137547Y61047D02*
X137579Y61016D01*
X99547Y61047D02*
X137547D01*
X99547Y22047D02*
Y61047D01*
Y22047D02*
X137547D01*
X137579Y22079D01*
Y28469D01*
Y54847D01*
X95256D02*
Y61016D01*
X95224Y61047D02*
X95256Y61016D01*
X57225Y61047D02*
X95224D01*
X57225Y22047D02*
Y61047D01*
Y22047D02*
X95224D01*
X95256Y22079D01*
Y28469D01*
Y54847D01*
D128*
X48415Y60728D02*
D03*
M02*
